<svg width="4820" height="742" fill="none" xmlns="http://www.w3.org/2000/svg"><path d="M3875.96 147.992V593.4h96.23V411.154h204.84V593.4h96.23V147.992h-96.23v182.975h-204.84V147.992h-96.23zM3710.48 593.4h101.33l-188.08-445.408h-97.68L3334.33 593.4h96.95l38.64-89.665h204.11l36.45 89.665zm-211.4-164.021 74.35-178.6 69.99 178.6h-144.34zm989.95-16.038h59.78l147.26 179.33h123.92l-196.82-230.358 172.04-215.05h-110.08l-142.88 190.993h-53.22V147.263h-96.22v445.408h96.22v-179.33zM3016.49 321.49v-99.142h251.5v-74.356h-347.72V593.4h200.47c112.26 0 177.14-51.029 177.14-139.965 0-85.29-58.32-131.945-164.75-131.945h-116.64zm0 197.554V395.846h100.6c61.24 0 89.67 20.411 89.67 61.963s-29.89 61.964-89.67 61.964h-100.6v-.729zM2156.89 224.016l100.89-74.084h-337.26v445.914h337.26v-74.437h-240.95V407.461h205.32v-74.436h-205.32V224.016h140.06zM1666.17 323.852h-117.12v-99.484h186.97l100.89-74.436h-383.82v445.914h200.73c112.89 0 177.1-51.154 177.1-140.407 0-85.02-58.56-131.587-164.75-131.587zm-16.93 197.557h-100.19V397.936h100.19c61.03 0 89.6 20.814 89.6 61.736 0 42.334-30.34 61.737-89.6 61.737zM2530.85 149.583h-183.44v446.266h96.3V469.554h87.14c117.12 0 189.8-61.737 189.8-160.162 0-98.426-72.68-159.809-189.8-159.809zm-2.12 245.535h-85.37V224.02h85.37c61.74 0 95.61 30.338 95.61 85.372 0 55.386-33.87 85.726-95.61 85.726zM1287.65 499.188c-24.69 13.758-53.27 20.814-83.25 20.814-86.79 0-149.58-62.089-149.58-147.108 0-85.02 62.79-147.11 149.58-147.11 32.81 0 62.44 9.173 87.49 27.165l68.79-50.8-4.59-4.235c-40.21-35.63-94.19-53.975-155.93-53.975-66.67 0-127.35 22.579-170.74 63.501-43.745 41.275-67.734 99.131-67.734 162.984 0 64.206 23.989 122.767 67.384 165.1 43.39 42.687 104.07 65.97 170.39 65.97 69.5 0 129.82-24.342 171.1-68.439-31.75-23.284-62.44-45.861-62.44-45.861l-20.47 11.994zM664.106 144.661c17.534 22.648 32.146 47.488 44.566 73.789l-337.53 249.129-141.733-89.131V271.783l141.003 88.4 293.694-215.522z" fill="#21A038"/><path d="M85.478 371.141c0-5.114 0-9.497.73-14.612L.732 352.146c0 5.845-.731 12.42-.731 18.265C0 472.692 41.643 565.476 108.857 632.69l60.638-60.638c-51.871-51.141-84.017-122.008-84.017-200.911z" fill="url(#a)"/><path d="M370.398 86.206c5.114 0 9.497 0 14.611.73l4.384-85.477c-5.845 0-12.42-.73-18.265-.73-102.281 0-195.065 41.642-262.279 108.856l60.638 60.638c51.141-51.871 122.738-84.017 200.911-84.017z" fill="url(#b)"/><path d="M370.413 656.058c-5.114 0-9.497 0-14.612-.73l-4.383 85.478c5.845 0 12.42.73 18.265.73 102.281 0 195.065-41.643 262.279-108.856l-60.638-60.639c-51.141 52.602-122.008 84.017-200.911 84.017z" fill="url(#c)"/><path d="m531.124 135.892 72.328-53.332C539.891 31.419 458.796.004 370.396.004v85.478c59.908.73 115.432 18.995 160.728 50.41z" fill="url(#d)"/><path d="M741.548 371.134c0-22.648-2.192-44.566-5.845-66.483l-79.634 59.177v7.306c0 84.017-36.529 159.267-94.245 211.139l57.716 63.56c74.52-67.213 122.008-165.842 122.008-274.699z" fill="#21A038"/><path d="M370.413 656.073c-84.017 0-159.267-36.529-211.138-94.245l-63.56 57.716c67.943 75.25 165.842 122.007 274.698 122.007v-85.478z" fill="url(#e)"/><path d="m179.723 160.003-57.716-63.56C46.757 164.385 0 262.284 0 371.141h85.478c0-83.287 36.529-159.268 94.245-211.139z" fill="url(#f)"/><defs><linearGradient id="a" x1="126.235" y1="622.36" x2="32.637" y2="351.806" gradientUnits="userSpaceOnUse"><stop offset=".144" stop-color="#F2E913"/><stop offset=".304" stop-color="#E7E518"/><stop offset=".582" stop-color="#CADB26"/><stop offset=".891" stop-color="#A3CD39"/></linearGradient><linearGradient id="b" x1="133.283" y1="124.678" x2="374.354" y2="32.81" gradientUnits="userSpaceOnUse"><stop offset=".059" stop-color="#0FA8E0"/><stop offset=".538" stop-color="#0099F9"/><stop offset=".923" stop-color="#0291EB"/></linearGradient><linearGradient id="c" x1="346.448" y1="689.525" x2="619.058" y2="627.911" gradientUnits="userSpaceOnUse"><stop offset=".123" stop-color="#A3CD39"/><stop offset=".285" stop-color="#86C339"/><stop offset=".869" stop-color="#21A038"/></linearGradient><linearGradient id="d" x1="352.749" y1="29.113" x2="585.824" y2="101.027" gradientUnits="userSpaceOnUse"><stop offset=".057" stop-color="#0291EB"/><stop offset=".79" stop-color="#0C8ACB"/></linearGradient><linearGradient id="e" x1="117.347" y1="609.162" x2="371.052" y2="703.954" gradientUnits="userSpaceOnUse"><stop offset=".132" stop-color="#F2E913"/><stop offset=".298" stop-color="#EBE716"/><stop offset=".531" stop-color="#D9E01F"/><stop offset=".802" stop-color="#BBD62D"/><stop offset=".983" stop-color="#A3CD39"/></linearGradient><linearGradient id="f" x1="32.026" y1="381.452" x2="133.865" y2="116.532" gradientUnits="userSpaceOnUse"><stop offset=".07" stop-color="#A3CD39"/><stop offset=".26" stop-color="#81C55F"/><stop offset=".922" stop-color="#0FA8E0"/></linearGradient></defs></svg>
