<svg width="2814" height="2800" viewBox="0 0 2814 2800" fill="none" xmlns="http://www.w3.org/2000/svg">
<path d="M2473.44 2307.73C2400.26 2380.18 2334.77 2422.77 2284.63 2454.93C1795.65 2768.52 1236.69 2678.13 1063.87 2647.24C785.05 2597.4 549.687 2562.24 347.469 2386.77C-112.032 1988.04 -89.6816 1156.27 261.432 641.018C303.064 579.924 653.647 80.7987 1213.82 10.4677C1227.52 8.74775 1237.74 7.76776 1246.7 6.85776C1333.35 -1.95424 1870.35 -48.4642 2308.22 303.878C2370.9 354.314 2471.77 445.287 2565.31 584.037C2907.32 1091.37 2908.41 1877.11 2473.44 2307.73Z" fill="url(#paint0_linear_2089_133)"/>
<g opacity="0.3">
<path d="M632.941 567.81C629.523 571.814 623.507 572.286 619.506 568.868C611.73 562.229 603.552 555.827 595.195 549.843C590.967 546.815 589.957 540.966 592.89 536.7C592.925 536.649 592.959 536.599 592.995 536.547C596.059 532.269 602.012 531.285 606.292 534.35C615.087 540.649 623.699 547.387 631.883 554.378C635.626 557.573 636.281 563.045 633.552 567.013C633.364 567.286 633.162 567.554 632.941 567.81ZM552.521 523.506C543.431 518.719 534.051 514.276 524.631 510.296C519.787 508.25 517.514 502.66 519.561 497.811C521.633 492.952 527.201 490.694 532.049 492.743C541.959 496.929 551.834 501.606 561.399 506.641C566.055 509.093 567.842 514.857 565.39 519.513C565.212 519.851 565.016 520.175 564.805 520.482C562.107 524.406 556.839 525.78 552.521 523.506ZM477.217 494.051C467.317 491.415 457.182 489.177 447.088 487.401C441.906 486.489 438.443 481.546 439.355 476.364C440.272 471.187 445.208 467.722 450.392 468.631C461.022 470.502 471.697 472.859 482.121 475.636C487.207 476.99 490.23 482.211 488.878 487.297C488.589 488.381 488.124 489.371 487.523 490.245C485.304 493.471 481.218 495.117 477.217 494.051ZM397.217 482.178C386.965 481.82 376.58 481.905 366.347 482.426C361.091 482.692 356.613 478.648 356.346 473.394C356.084 468.139 360.128 463.665 365.378 463.393C376.153 462.846 387.087 462.758 397.876 463.13C403.134 463.313 407.251 467.725 407.068 472.984C407.003 474.866 406.396 476.601 405.403 478.046C403.62 480.639 400.593 482.293 397.217 482.178ZM316.565 488.423C306.515 490.347 296.402 492.728 286.515 495.505C281.446 496.925 276.187 493.97 274.765 488.904C273.341 483.834 276.299 478.575 281.367 477.157C291.769 474.236 302.409 471.731 312.985 469.707C318.152 468.716 323.145 472.104 324.134 477.275C324.633 479.879 324.02 482.439 322.627 484.465C321.255 486.458 319.129 487.933 316.565 488.423ZM239.306 512.358C229.915 516.462 220.587 521.022 211.574 525.909C206.948 528.418 201.163 526.702 198.655 522.078C196.145 517.451 197.858 511.668 202.486 509.157C211.969 504.012 221.791 499.214 231.673 494.895C236.496 492.789 242.112 494.988 244.221 499.811C245.59 502.944 245.14 506.41 243.335 509.034C242.362 510.449 240.997 511.62 239.306 512.358ZM17.263 787.868C12.082 786.948 8.62704 782.001 9.54804 776.819C11.436 766.205 13.813 755.528 16.614 745.09C17.978 740.006 23.204 736.991 28.287 738.357C33.368 739.719 36.382 744.945 35.019 750.027C32.359 759.938 30.104 770.076 28.313 780.155C28.067 781.538 27.536 782.796 26.788 783.883C24.736 786.868 21.063 788.545 17.263 787.868ZM169.316 552.799C161.078 558.886 153.004 565.404 145.32 572.176C141.369 575.654 135.347 575.274 131.869 571.326C128.388 567.376 128.789 561.372 132.721 557.876C140.814 550.746 149.316 543.881 157.992 537.472C162.224 534.346 168.19 535.241 171.319 539.475C173.799 542.832 173.748 547.28 171.509 550.538C170.926 551.385 170.191 552.151 169.316 552.799ZM38.865 707.678C34.022 705.622 31.763 700.025 33.821 695.181C38.037 685.261 42.738 675.39 47.786 665.843C50.228 661.175 56.013 659.417 60.665 661.875C65.316 664.335 67.092 670.101 64.633 674.754C59.834 683.827 55.367 693.207 51.363 702.636C51.108 703.238 50.795 703.797 50.438 704.315C47.923 707.971 43.105 709.48 38.865 707.678ZM110.131 607.857C103.467 615.629 97.051 623.79 91.061 632.119C87.99 636.394 82.0361 637.366 77.7621 634.293C73.5461 631.26 72.543 625.421 75.472 621.161C75.51 621.106 75.549 621.049 75.59 620.996C81.893 612.225 88.647 603.632 95.66 595.451C99.089 591.458 105.103 590.995 109.099 594.42C112.831 597.618 113.479 603.081 110.754 607.043C110.562 607.322 110.353 607.593 110.131 607.857Z" fill="#91B3FA"/>
<path d="M21.0871 850.551C22.1501 849.005 22.7711 847.13 22.7601 845.111C22.7331 840.198 22.8111 835.203 22.9831 830.262C23.1701 825.004 19.0571 820.587 13.7991 820.402C8.54007 820.214 4.11709 824.326 3.94009 829.589C3.75509 834.785 3.67507 840.038 3.70107 845.209C3.72807 850.47 8.01807 854.717 13.2781 854.688C16.5231 854.672 19.3791 853.035 21.0871 850.551Z" fill="#91B3FA"/>
</g>
<g opacity="0.3">
<path d="M135.929 1117.4C138.535 1113.61 138.081 1108.39 134.645 1105.11C131.088 1101.72 127.542 1098.2 124.109 1094.65C120.451 1090.87 114.419 1090.76 110.635 1094.42C106.835 1098.09 106.748 1104.11 110.404 1107.89C114.02 1111.63 117.754 1115.34 121.498 1118.91C125.308 1122.54 131.339 1122.39 134.971 1118.58C135.327 1118.21 135.646 1117.81 135.929 1117.4Z" fill="#91B3FA"/>
<path d="M686.731 1074.72C683.541 1078.9 677.561 1079.71 673.374 1076.52C669.19 1073.33 668.39 1067.36 671.576 1063.16C677.651 1055.2 683.48 1046.85 688.973 1038.25C691.779 1033.83 697.702 1032.52 702.135 1035.36C706.569 1038.19 707.865 1044.08 705.032 1048.52C702.652 1052.24 700.219 1055.91 697.735 1059.52C694.191 1064.68 690.489 1069.79 686.731 1074.72ZM717.322 1007.62C712.548 1005.41 710.466 999.748 712.675 994.972C716.913 985.8 720.813 976.353 724.259 966.888C726.042 961.944 731.527 959.393 736.473 961.194C741.415 962.994 743.965 968.463 742.164 973.406C738.536 983.372 734.433 993.319 729.97 1002.97C729.739 1003.47 729.469 1003.94 729.167 1004.38C726.585 1008.13 721.6 1009.6 717.322 1007.62ZM652.493 1113.76C644.973 1121.23 637.03 1128.48 628.882 1135.31C624.849 1138.7 618.839 1138.17 615.456 1134.13C612.076 1130.1 612.61 1124.1 616.638 1120.71C624.378 1114.22 631.919 1107.34 639.058 1100.24C642.792 1096.53 648.824 1096.55 652.536 1100.28C655.817 1103.58 656.179 1108.69 653.633 1112.39C653.302 1112.87 652.923 1113.33 652.493 1113.76ZM745.228 930.806C740.084 929.701 736.806 924.633 737.914 919.488C740.034 909.625 741.756 899.554 743.035 889.556C743.701 884.331 748.472 880.645 753.695 881.313C758.914 881.98 762.604 886.751 761.937 891.97C760.591 902.5 758.776 913.106 756.545 923.491C756.274 924.746 755.771 925.891 755.086 926.887C752.964 929.976 749.116 931.642 745.228 930.806ZM586.922 1165.84C577.948 1171.47 568.607 1176.8 559.157 1181.67C554.48 1184.08 548.736 1182.25 546.322 1177.57C543.906 1172.89 545.744 1167.15 550.421 1164.73C559.397 1160.1 568.27 1155.05 576.791 1149.7C581.249 1146.9 587.131 1148.24 589.929 1152.7C592.013 1156.02 591.797 1160.14 589.709 1163.17C588.994 1164.21 588.058 1165.12 586.922 1165.84ZM511.519 1202.27C501.507 1205.82 491.229 1208.98 480.97 1211.67C475.878 1213.01 470.67 1209.96 469.333 1204.87C467.996 1199.78 471.04 1194.57 476.132 1193.24C485.879 1190.68 495.647 1187.68 505.162 1184.31C510.123 1182.55 515.568 1185.15 517.324 1190.12C518.38 1193.11 517.857 1196.27 516.187 1198.7C515.086 1200.3 513.488 1201.58 511.519 1202.27ZM429.963 1221.41C419.412 1222.69 408.688 1223.54 398.094 1223.94C392.833 1224.13 388.414 1220.03 388.218 1214.77C388.022 1209.5 392.129 1205.09 397.386 1204.89C407.454 1204.52 417.64 1203.71 427.669 1202.5C432.893 1201.86 437.643 1205.58 438.274 1210.81C438.566 1213.21 437.939 1215.51 436.669 1217.35C435.174 1219.52 432.788 1221.07 429.963 1221.41ZM346.176 1222.31C335.601 1221.25 324.949 1219.73 314.515 1217.78C309.342 1216.81 305.929 1211.84 306.895 1206.66C307.858 1201.5 312.838 1198.08 318.011 1199.05C327.916 1200.89 338.03 1202.34 348.077 1203.34C353.313 1203.87 357.132 1208.54 356.607 1213.77C356.441 1215.43 355.862 1216.94 354.983 1218.22C353.077 1220.99 349.76 1222.66 346.176 1222.31ZM264.197 1204.76C254.14 1201.4 244.094 1197.57 234.334 1193.37C229.499 1191.29 227.265 1185.69 229.347 1180.85C231.423 1176.03 237.031 1173.78 241.865 1175.87C251.136 1179.86 260.679 1183.49 270.231 1186.68C275.222 1188.35 277.919 1193.74 276.253 1198.73C275.963 1199.6 275.561 1200.4 275.066 1201.12C272.722 1204.53 268.32 1206.13 264.197 1204.76ZM188.152 1169.67C181.457 1165.65 174.803 1161.36 168.377 1156.95C166.049 1155.34 163.749 1153.72 161.468 1152.08C157.2 1149.01 156.109 1143.05 159.307 1138.78C162.38 1134.51 168.336 1133.54 172.608 1136.62C174.774 1138.18 176.965 1139.72 179.176 1141.24C185.285 1145.45 191.607 1149.51 197.973 1153.34C202.483 1156.05 203.939 1161.91 201.227 1166.42C201.124 1166.59 201.019 1166.75 200.908 1166.92C198.077 1171.03 192.491 1172.28 188.152 1169.67Z" fill="#91B3FA"/>
<path d="M763.296 845.366C764.37 843.805 764.99 841.912 764.97 839.877C764.917 834.718 764.755 829.463 764.486 824.258C764.216 819.001 759.736 814.96 754.481 815.232C749.225 815.505 745.183 819.977 745.454 825.237C745.708 830.182 745.862 835.174 745.913 840.071C745.964 845.331 750.273 849.555 755.537 849.502C758.763 849.468 761.598 847.835 763.296 845.366Z" fill="#91B3FA"/>
</g>
<path d="M646.729 730.919C646.196 729.095 644.566 727.81 642.668 727.718L588.526 725.11C576.08 703.067 560.03 682.851 540.645 665.448L549.778 612.054C550.098 610.181 549.195 608.312 547.528 607.398L490.516 576.144C488.85 575.23 486.787 575.474 485.382 576.751L445.279 613.168C420.182 606.185 394.506 603.526 369.229 604.889L337.912 560.648C336.814 559.098 334.853 558.414 333.029 558.946L270.615 577.159C268.791 577.691 267.505 579.322 267.414 581.22L264.806 635.361C242.763 647.806 222.546 663.856 205.144 683.242L151.75 674.109C149.877 673.789 148.007 674.691 147.094 676.358L115.838 733.371C114.925 735.038 115.17 737.099 116.447 738.506L152.864 778.609C145.881 803.706 143.222 829.382 144.586 854.659L100.344 885.976C98.7937 887.074 98.1087 889.034 98.6417 890.859L116.855 953.273C117.387 955.096 119.019 956.382 120.915 956.474L175.058 959.082C187.503 981.125 203.553 1001.34 222.939 1018.74L213.806 1072.14C213.485 1074.01 214.388 1075.88 216.054 1076.79L273.067 1108.05C274.733 1108.96 276.795 1108.72 278.201 1107.44L318.304 1071.02C343.401 1078.01 369.078 1080.67 394.354 1079.3L425.671 1123.54C426.768 1125.1 428.729 1125.78 430.554 1125.25L492.968 1107.03C494.792 1106.5 496.077 1104.87 496.168 1102.97L498.776 1048.83C520.819 1036.39 541.035 1020.33 558.438 1000.95L611.832 1010.08C613.704 1010.4 615.574 1009.5 616.488 1007.83L647.743 950.821C648.656 949.155 648.413 947.093 647.135 945.686L610.719 905.584C617.702 880.487 620.36 854.811 618.997 829.534L663.239 798.217C664.79 797.12 665.473 795.158 664.941 793.335L646.729 730.919Z" fill="#91B3FA"/>
<path d="M429.667 886.584C405.135 912.981 363.704 914.502 337.303 889.97C324.514 878.088 317.119 861.935 316.481 844.49C315.84 827.048 322.029 810.396 333.918 797.609C358.45 771.212 399.881 769.691 426.282 794.223C450.298 816.541 453.723 852.847 435.671 879.096C433.881 881.698 431.878 884.203 429.667 886.584ZM331.718 843.932C332.209 857.309 337.878 869.691 347.684 878.804C367.922 897.61 399.693 896.447 418.5 876.207C437.32 855.967 436.143 824.198 415.903 805.389C395.665 786.583 363.894 787.746 345.087 807.986C343.382 809.822 341.833 811.759 340.439 813.786C334.384 822.589 331.32 833.061 331.718 843.932Z" fill="#BDD0FB"/>
<path d="M512.691 933.684C515.791 929.176 518.683 924.485 521.35 919.622C522.19 918.092 523.004 916.547 523.795 914.99C527.689 907.312 530.965 899.335 533.575 891.185C533.611 891.074 533.646 890.963 533.682 890.852C533.781 890.536 533.881 890.221 533.977 889.903C534.17 889.288 534.355 888.67 534.54 888.054C535.024 886.431 534.375 884.74 533.051 883.827C532.729 883.606 532.366 883.431 531.972 883.313C529.955 882.712 527.837 883.867 527.234 885.88C524.146 896.263 519.917 906.38 514.665 915.954C488.598 963.523 440.781 991.748 390.295 995.085C362.214 996.945 333.307 991.101 306.853 976.597C302.213 974.055 297.736 971.297 293.437 968.338C264.5 948.433 243.464 919.423 233.494 885.253C222.039 846.003 226.556 804.64 246.21 768.788C286.81 694.747 380.012 667.571 454.022 708.145C458.585 710.646 463.005 713.37 467.264 716.301C485.722 728.999 501.196 745.595 512.518 764.951C512.811 765.451 513.199 765.86 513.647 766.166C514.825 766.976 516.415 767.087 517.731 766.316C519.546 765.247 520.165 762.921 519.096 761.1C507.209 740.778 490.964 723.352 471.586 710.022C467.116 706.945 462.477 704.087 457.688 701.46C379.985 658.861 282.108 687.446 239.524 765.121C218.889 802.76 214.15 846.181 226.175 887.387C236.641 923.261 258.726 953.715 289.103 974.612C293.618 977.717 298.317 980.612 303.184 983.282C340.826 1003.92 384.247 1008.66 425.452 996.635C461.335 986.166 491.794 964.071 512.691 933.684Z" fill="#BDD0FB"/>
<g opacity="0.3">
<path d="M1024.72 441.37C1026.16 439.272 1026.12 436.399 1024.43 434.323C1021.28 430.447 1017.96 426.613 1014.58 422.93C1012.38 420.537 1008.66 420.378 1006.27 422.576C1003.86 424.768 1003.71 428.498 1005.91 430.891C1009.14 434.401 1012.29 438.055 1015.3 441.753C1017.35 444.273 1021.06 444.653 1023.58 442.605C1024.03 442.24 1024.4 441.823 1024.72 441.37Z" fill="#91B3FA"/>
<path d="M992.678 409.502C990.572 411.977 986.86 412.281 984.382 410.175C978.128 404.866 971.53 399.816 964.772 395.168C963.347 394.188 961.905 393.221 960.449 392.265C957.736 390.479 956.98 386.831 958.765 384.114C960.555 381.613 964.199 380.645 966.92 382.429C968.442 383.431 969.95 384.443 971.442 385.469C978.526 390.341 985.445 395.636 992.002 401.206C994.323 403.175 994.735 406.563 993.045 409.02C992.932 409.184 992.808 409.343 992.678 409.502ZM934.518 377.4C925.603 372.989 916.336 369.089 906.975 365.814C903.906 364.739 902.291 361.387 903.364 358.316C904.436 355.266 907.793 353.629 910.863 354.704C920.675 358.135 930.392 362.223 939.738 366.85C942.652 368.292 943.845 371.823 942.404 374.738C942.278 374.993 942.13 375.237 941.972 375.466C940.34 377.84 937.173 378.713 934.518 377.4ZM878.2 357.723C868.491 355.633 858.55 354.133 848.646 353.26C845.411 352.975 843.016 350.117 843.302 346.882C843.59 343.634 846.438 341.247 849.68 341.534C860.065 342.447 870.496 344.026 880.675 346.214C883.852 346.899 885.878 350.029 885.193 353.206C885.023 353.979 884.712 354.686 884.289 355.302C882.977 357.207 880.601 358.238 878.2 357.723ZM818.767 352.485C808.827 352.84 798.816 353.817 789.028 355.39C785.815 355.904 782.797 353.72 782.283 350.511C781.771 347.31 783.949 344.284 787.158 343.767C797.429 342.119 807.919 341.095 818.346 340.721C821.594 340.604 824.323 343.147 824.44 346.395C824.482 347.704 824.099 348.929 823.409 349.933C822.388 351.418 820.705 352.416 818.767 352.485ZM759.856 361.915C750.305 364.676 740.84 368.054 731.712 371.954C728.727 373.232 725.267 371.843 723.988 368.854C722.709 365.865 724.092 362.403 727.088 361.13C736.652 357.041 746.577 353.502 756.584 350.605C759.707 349.705 762.97 351.503 763.872 354.623C764.382 356.386 764.031 358.196 763.067 359.597C762.324 360.679 761.215 361.52 759.856 361.915ZM705.019 385.36C696.436 390.356 688.086 395.935 680.199 401.947C677.617 403.917 673.921 403.419 671.952 400.834C669.984 398.249 670.478 394.568 673.064 392.583C681.333 386.279 690.095 380.426 699.098 375.185C701.908 373.553 705.51 374.503 707.144 377.31C708.326 379.344 708.156 381.793 706.907 383.609C706.43 384.303 705.798 384.908 705.019 385.36ZM657.602 421.488C650.529 428.416 643.798 435.881 637.597 443.681C635.571 446.222 631.869 446.644 629.327 444.62C626.783 442.599 626.398 438.93 628.383 436.347C634.889 428.175 641.946 420.347 649.364 413.081C651.687 410.808 655.414 410.845 657.689 413.167C659.689 415.208 659.899 418.342 658.336 420.614C658.124 420.923 657.88 421.216 657.602 421.488ZM598.662 497.498C595.702 496.153 594.395 492.667 595.741 489.706C599.463 481.514 603.7 473.386 608.316 465.567C609.011 464.374 609.721 463.199 610.438 462.025C612.047 459.219 615.761 458.383 618.534 460.091C621.305 461.791 622.17 465.413 620.472 468.186C619.795 469.283 619.13 470.392 618.467 471.529C614.046 479.011 610.005 486.765 606.454 494.576C606.309 494.898 606.135 495.201 605.943 495.48C604.356 497.79 601.298 498.697 598.662 497.498Z" fill="#91B3FA"/>
</g>
<g opacity="0.3">
<path d="M1034.63 741.722C1028.71 750.098 1022.22 758.182 1015.36 765.759C1013.17 768.164 1009.45 768.35 1007.04 766.165C1004.63 763.98 1004.49 760.263 1006.64 757.85C1013.19 750.628 1019.37 742.915 1025.02 734.924C1026.89 732.269 1030.57 731.64 1033.22 733.516C1035.85 735.378 1036.5 739.008 1034.68 741.655C1034.66 741.677 1034.64 741.7 1034.63 741.722ZM1042.9 717.903C1040.04 716.359 1038.98 712.787 1040.52 709.93C1045.17 701.327 1049.35 692.357 1052.93 683.265C1054.12 680.263 1057.53 678.754 1060.56 679.951C1063.59 681.142 1065.07 684.556 1063.88 687.582C1060.13 697.109 1055.75 706.511 1050.88 715.523C1050.78 715.714 1050.67 715.893 1050.55 716.068C1048.87 718.513 1045.58 719.349 1042.9 717.903ZM993.289 787.29C985.515 793.99 977.267 800.273 968.772 805.962C966.071 807.77 962.412 807.046 960.606 804.346C958.794 801.646 959.519 798.005 962.217 796.181C970.322 790.755 978.189 784.764 985.609 778.375C988.072 776.253 991.788 776.531 993.906 778.989C995.69 781.06 995.779 784.015 994.3 786.165C994.02 786.572 993.683 786.95 993.289 787.29ZM1066.23 662.478C1063.09 661.667 1061.19 658.455 1062 655.308C1064.45 645.842 1066.33 636.134 1067.6 626.447C1068.03 623.229 1070.99 620.958 1074.2 621.376C1077.42 621.8 1079.7 624.755 1079.27 627.978C1077.94 638.137 1075.97 648.323 1073.4 658.25C1073.22 658.936 1072.93 659.562 1072.55 660.114C1071.19 662.093 1068.69 663.112 1066.23 662.478ZM942.18 821.504C933.044 826.127 923.528 830.238 913.895 833.727C910.839 834.834 907.463 833.252 906.356 830.196C905.249 827.139 906.825 823.763 909.887 822.657C919.078 819.334 928.151 815.411 936.863 810.999C939.762 809.533 943.303 810.692 944.772 813.596C945.778 815.582 945.547 817.875 944.367 819.591C943.828 820.374 943.09 821.042 942.18 821.504ZM884.346 842.462C874.349 844.767 864.121 846.483 853.952 847.568C850.722 847.913 847.824 845.575 847.48 842.343C847.133 839.115 849.472 836.211 852.708 835.866C862.404 834.83 872.161 833.19 881.702 830.991C884.869 830.26 888.029 832.238 888.759 835.405C889.144 837.078 888.775 838.75 887.871 840.064C887.067 841.233 885.838 842.118 884.346 842.462ZM823.154 848.97C812.888 848.816 802.542 848.027 792.41 846.633C789.187 846.188 786.939 843.219 787.382 839.998C787.824 836.779 790.799 834.532 794.013 834.971C803.677 836.305 813.541 837.055 823.327 837.197C826.578 837.246 829.175 839.921 829.123 843.171C829.108 844.378 828.727 845.49 828.092 846.414C827.015 847.981 825.199 848.999 823.154 848.97Z" fill="#91B3FA"/>
<path d="M1080.39 600.227C1081.03 599.292 1081.41 598.161 1081.42 596.94C1081.46 591.903 1081.35 586.842 1081.09 581.897C1080.92 578.652 1078.16 576.154 1074.91 576.32C1071.67 576.496 1069.17 579.256 1069.34 582.502C1069.58 587.218 1069.68 592.047 1069.65 596.854C1069.62 600.105 1072.24 602.759 1075.49 602.782C1077.52 602.795 1079.32 601.782 1080.39 600.227Z" fill="#91B3FA"/>
</g>
<path d="M1002.78 519.411C1002.42 518.19 1001.33 517.33 1000.06 517.269L963.835 515.524C955.507 500.774 944.767 487.247 931.795 475.602L937.905 439.873C938.119 438.62 937.515 437.369 936.4 436.757L898.251 415.843C897.136 415.231 895.756 415.395 894.816 416.249L867.981 440.618C851.187 435.945 834.006 434.166 817.092 435.078L796.136 405.474C795.401 404.436 794.088 403.979 792.868 404.335L751.103 416.523C749.883 416.879 749.023 417.97 748.962 419.241L747.217 455.469C732.467 463.797 718.938 474.537 707.294 487.509L671.565 481.397C670.312 481.183 669.061 481.787 668.45 482.902L647.535 521.053C646.924 522.168 647.087 523.548 647.941 524.489L672.311 551.324C667.638 568.118 665.859 585.299 666.772 602.213L637.167 623.169C636.13 623.903 635.672 625.216 636.028 626.436L648.216 668.202C648.572 669.422 649.664 670.282 650.933 670.343L687.163 672.088C695.49 686.838 706.229 700.366 719.201 712.011L713.091 747.74C712.876 748.993 713.48 750.244 714.596 750.855L752.747 771.77C753.862 772.381 755.241 772.218 756.183 771.363L783.017 746.994C799.811 751.667 816.993 753.446 833.907 752.534L854.863 782.138C855.597 783.176 856.908 783.633 858.129 783.277L899.895 771.089C901.116 770.733 901.976 769.641 902.037 768.372L903.782 732.143C918.532 723.815 932.06 713.075 943.705 700.103L979.434 706.215C980.687 706.429 981.938 705.825 982.55 704.71L1003.46 666.56C1004.07 665.445 1003.91 664.065 1003.06 663.124L978.689 636.289C983.362 619.495 985.14 602.314 984.228 585.4L1013.83 564.444C1014.87 563.71 1015.33 562.397 1014.97 561.177L1002.78 519.411Z" fill="#91B3FA"/>
<path d="M858.11 624.108C850.016 632.824 839.012 637.861 827.128 638.295C815.248 638.733 803.905 634.515 795.195 626.418C777.215 609.711 776.187 581.536 792.887 563.5C809.603 545.522 837.824 544.489 855.798 561.195C864.51 569.289 869.549 580.291 869.985 592.173C870.339 601.832 867.617 611.135 862.237 618.958C861.001 620.756 859.621 622.479 858.11 624.108ZM803.204 617.794C809.613 623.75 817.955 626.854 826.7 626.533C835.438 626.212 843.533 622.505 849.487 616.098C855.433 609.682 858.542 601.347 858.222 592.603C857.905 583.865 854.194 575.771 847.79 569.818C834.563 557.527 813.805 558.287 801.51 571.511C800.402 572.706 799.401 573.959 798.503 575.264C789.457 588.418 791.173 606.614 803.204 617.794Z" fill="#BDD0FB"/>
<path d="M915.895 656.885C918.005 653.816 919.975 650.616 921.806 647.285C925.436 640.668 928.396 633.675 930.609 626.481C930.706 626.157 930.803 625.833 930.9 625.509C931.647 623.002 930.645 620.392 928.601 618.982C928.104 618.64 927.544 618.37 926.936 618.189C923.821 617.261 920.556 619.047 919.62 622.153C917.618 628.889 914.878 635.437 911.485 641.621L911.483 641.623C911.298 641.963 911.106 642.302 910.918 642.637C902.753 657.198 891.268 669.172 877.502 677.83C870.029 682.529 861.877 686.249 853.208 688.864C853.137 688.885 853.067 688.907 852.997 688.928C852.779 688.991 852.566 689.057 852.35 689.118C826.94 696.531 800.163 693.609 776.953 680.884C773.948 679.239 771.053 677.454 768.268 675.539C749.535 662.653 735.918 643.872 729.46 621.748C722.047 596.338 724.974 569.563 737.697 546.356C750.421 523.167 771.423 506.28 796.83 498.861C822.24 491.448 849.017 494.37 872.227 507.095C875.182 508.712 878.042 510.477 880.798 512.372C892.749 520.595 902.766 531.336 910.094 543.867C910.547 544.639 911.145 545.27 911.838 545.743C913.657 546.993 916.113 547.165 918.145 545.975C920.946 544.326 921.897 540.732 920.252 537.92C912.051 523.9 900.843 511.878 887.478 502.68C884.39 500.557 881.192 498.584 877.889 496.773C851.918 482.536 821.962 479.266 793.531 487.563C765.106 495.86 741.6 514.704 727.375 540.695C713.137 566.662 709.865 596.616 718.165 625.047C725.384 649.797 740.621 670.808 761.58 685.224C764.691 687.364 767.934 689.363 771.292 691.205C821.57 718.765 884.081 703.147 915.895 656.885Z" fill="#BDD0FB"/>
<path d="M199.411 2448.36C199.411 2472.56 219.228 2492.35 243.448 2492.35H2624.77C2648.99 2492.35 2668.81 2472.56 2668.81 2448.36L2688.62 1079.88C2688.62 1055.68 2660.12 1008.44 2607.87 1011.99L280.577 951.774C250.188 950.988 220.805 962.684 199.285 984.134C177.765 1005.58 165.99 1034.91 166.708 1065.27L199.411 2448.36Z" fill="url(#paint1_linear_2089_133)"/>
<path d="M242.887 2406.15C242.887 2429.07 261.635 2447.81 284.549 2447.81H2567.35C2590.26 2447.81 2609.01 2429.07 2609.01 2406.15L2627.71 1163.83C2625.5 1089.07 2559.96 1062.2 2520.23 1063.79L289.73 1003.95C268.38 1003.37 247.738 1011.6 232.617 1026.68C217.496 1041.77 209.179 1062.41 209.715 1083.76L242.887 2406.15Z" fill="url(#paint2_linear_2089_133)"/>
<path d="M2584.34 1815.96C2584.31 1815.96 2584.28 1815.96 2584.25 1815.96C2580.88 1815.91 2578.18 1813.14 2578.23 1809.76L2579.71 1709.01C2579.76 1705.67 2582.48 1703 2585.81 1703C2585.84 1703 2585.87 1703 2585.9 1703C2589.28 1703.05 2591.97 1705.82 2591.92 1709.2L2590.44 1809.95C2590.39 1813.29 2587.67 1815.96 2584.34 1815.96Z" fill="#91B3FA"/>
<path d="M2587.97 1569.07C2587.93 1569.07 2587.91 1569.07 2587.87 1569.07C2584.5 1569.02 2581.81 1566.24 2581.86 1562.87L2587.52 1177C2587.42 1154.08 2580.46 1135.78 2566.84 1122.73C2541.42 1098.38 2501.07 1099.62 2499.37 1099.7L1786.45 1080.58C1783.08 1080.5 1780.42 1077.69 1780.51 1074.32C1780.6 1070.95 1783.19 1068.08 1786.78 1068.38L2499.27 1087.5C2503.71 1087.24 2546.67 1086.49 2575.29 1113.91C2591.39 1129.34 2599.61 1150.59 2599.73 1177.06L2594.07 1563.06C2594.02 1566.4 2591.29 1569.07 2587.97 1569.07Z" fill="#91B3FA"/>
<path d="M11.8806 2605.95H2808.06C2811.17 2605.95 2813.72 2603.41 2813.72 2600.3V2491.37C2813.72 2488.26 2811.17 2485.71 2808.06 2485.71H11.8806C8.77158 2485.71 6.22656 2488.26 6.22656 2491.37V2600.3C6.22756 2603.41 8.77158 2605.95 11.8806 2605.95Z" fill="url(#paint3_linear_2089_133)"/>
<path d="M1855.42 2280.23L2340.42 1351.07H2241.05C2222.73 1351.07 2212.65 1329.77 2224.27 1315.6L2741.19 685.589C2763.59 658.283 2807.84 675.602 2805.76 710.86L2769.43 1326.94C2767.35 1362.2 2736.07 1388.49 2700.97 1384.47L2631.69 1376.54L2150.48 2418.69C2137.95 2445.82 2110.79 2463.19 2080.91 2463.19H1914.13L1855.42 2280.23Z" fill="url(#paint4_linear_2089_133)"/>
<g opacity="0.7">
<path d="M2315.93 1285.66C2314.85 1285.66 2313.76 1285.32 2312.84 1284.61C2310.62 1282.9 2310.2 1279.71 2311.91 1277.48L2738.76 722.861C2743.79 716.314 2752.32 714 2759.98 717.098C2767.64 720.196 2772.16 727.788 2771.22 735.995L2763.69 802.475C2763.38 805.262 2760.88 807.26 2758.08 806.949C2755.29 806.635 2753.28 804.119 2753.6 801.331L2761.13 734.851C2761.64 730.387 2758.9 727.62 2756.17 726.515C2753.44 725.414 2749.54 725.5 2746.8 729.058L2319.96 1283.68C2318.96 1284.98 2317.45 1285.66 2315.93 1285.66Z" fill="white"/>
</g>
<path d="M1454.43 1628.57L1796.83 2389.17C1817.11 2434.22 1861.92 2463.19 1911.33 2463.19H2087.84C2111.26 2463.19 2132.84 2450.49 2144.2 2430.01L2150.48 2418.69C2131.51 2418.69 2114.15 2408.06 2105.53 2391.17L1649.32 1497.29L1454.43 1628.57Z" fill="url(#paint5_linear_2089_133)"/>
<path d="M1695.4 1587.58C1661.06 1560.46 1610.9 1568.44 1586.66 1604.86L1083.23 2361.21C1042.91 2421.79 974.963 2458.19 902.194 2458.19H831.356L773.706 2292.12C773.706 2292.12 1241.72 1574.51 1362.35 1465.95C1362.35 1465.95 1482.47 1357.69 1600.92 1439.55C1632.21 1461.17 1655.97 1492.04 1670.48 1527.2L1695.4 1587.58Z" fill="url(#paint6_linear_2089_133)"/>
<path d="M226.162 1845.47C226.162 1845.47 310.431 1740.14 473.729 1723.75C473.729 1723.75 551.288 1750.18 705.802 2027.05C860.317 2303.92 962.879 2430.18 1083.23 2361.21L1073.27 2377.76C1040.43 2432.28 981.434 2465.62 917.788 2465.62H851.225C777.939 2465.62 709.142 2430.38 666.346 2370.89C546.087 2203.72 300.036 1871.42 226.162 1845.47Z" fill="url(#paint7_linear_2089_133)"/>
<g opacity="0.7">
<path d="M2747.44 905.936C2747.25 905.936 2747.06 905.925 2746.86 905.902C2744.08 905.588 2742.07 903.073 2742.39 900.285L2745.8 870.206C2746.11 867.419 2748.63 865.392 2751.42 865.732C2754.2 866.046 2756.21 868.562 2755.89 871.35L2752.48 901.428C2752.19 904.02 2749.99 905.936 2747.44 905.936Z" fill="white"/>
</g>
<g opacity="0.7">
<path d="M1347.6 1867.1C1346.62 1867.1 1345.63 1866.82 1344.76 1866.23C1342.44 1864.66 1341.82 1861.5 1343.39 1859.18L1564.14 1531.96C1572.12 1520.13 1585.37 1513.69 1599.59 1514.8C1613.81 1515.88 1625.94 1524.22 1632.04 1537.11C1633.24 1539.65 1632.16 1542.67 1629.63 1543.87C1627.1 1545.08 1624.07 1543.99 1622.87 1541.46C1618.35 1531.91 1609.36 1525.73 1598.82 1524.93C1588.26 1524.09 1578.47 1528.88 1572.56 1537.64L1351.81 1864.86C1350.83 1866.31 1349.23 1867.1 1347.6 1867.1Z" fill="white"/>
</g>
<g opacity="0.7">
<path d="M1290.23 1952.12C1289.25 1952.12 1288.26 1951.84 1287.39 1951.26C1285.07 1949.69 1284.45 1946.53 1286.02 1944.21L1300.18 1923.23C1301.75 1920.9 1304.91 1920.29 1307.23 1921.86C1309.55 1923.42 1310.17 1926.58 1308.6 1928.91L1294.44 1949.89C1293.46 1951.34 1291.86 1952.12 1290.23 1952.12Z" fill="white"/>
</g>
<path d="M1274.52 1025.5C1360.68 1025.5 1430.53 955.655 1430.53 869.493C1430.53 783.331 1360.68 713.483 1274.52 713.483C1188.36 713.483 1118.51 783.331 1118.51 869.493C1118.51 955.655 1188.36 1025.5 1274.52 1025.5Z" fill="url(#paint8_linear_2089_133)"/>
<path d="M1274.52 1020.31C1357.82 1020.31 1425.34 952.79 1425.34 869.493C1425.34 786.196 1357.82 718.671 1274.52 718.671C1191.22 718.671 1123.7 786.196 1123.7 869.493C1123.7 952.79 1191.22 1020.31 1274.52 1020.31Z" fill="url(#paint9_linear_2089_133)"/>
<path opacity="0.78" d="M1149.27 813.827C1148.51 813.839 1147.73 813.679 1146.99 813.321C1144.49 812.104 1143.44 809.085 1144.66 806.584C1168.6 757.261 1217.5 726.096 1272.28 725.244C1281.02 725.108 1289.78 725.76 1298.33 727.178C1301.08 727.633 1302.94 730.23 1302.48 732.976C1302.03 735.727 1299.44 737.604 1296.68 737.125C1288.73 735.81 1280.57 735.203 1272.43 735.33C1221.48 736.122 1176 765.111 1153.73 810.985C1152.87 812.756 1151.11 813.798 1149.27 813.827Z" fill="white"/>
<path opacity="0.78" d="M1368.1 962.994C1417.95 913.143 1417.95 832.318 1368.1 782.467C1318.25 732.616 1237.43 732.616 1187.57 782.467C1137.72 832.318 1137.72 913.143 1187.57 962.994C1237.43 1012.84 1318.25 1012.85 1368.1 962.994Z" fill="white"/>
<path d="M1266.81 967.81L1266.59 953.924C1252.11 953.57 1237.74 950.376 1227.5 946.081C1223.84 944.549 1221.93 940.501 1222.91 936.662L1226.24 923.672C1227.46 918.907 1232.58 916.372 1237.15 918.203C1247.3 922.275 1259.81 925.427 1273.24 925.218C1287.18 925.001 1297.51 920.113 1297.36 910.423C1297.22 901.68 1289.1 896.607 1269.64 891.709C1241.88 884.577 1221.84 872.833 1221.46 848.491C1221.12 826.513 1236.93 809.484 1264.74 804.561L1264.53 790.674C1264.46 786.206 1268.02 782.526 1272.49 782.457L1280.65 782.33C1285.12 782.261 1288.8 785.827 1288.87 790.295L1289.06 802.764C1302.47 803.092 1312.25 805.231 1320.03 807.829C1324.02 809.16 1326.25 813.397 1325.21 817.47L1322.16 829.483C1320.98 834.115 1316.09 836.719 1311.59 835.098C1304.42 832.515 1294.31 829.866 1281.21 830.07C1264.67 830.327 1260.05 837.254 1260.15 843.399C1260.26 850.961 1270.27 856.005 1291.88 862.289C1322.74 871.028 1335.7 883.59 1336.06 906.514C1336.39 927.547 1321.08 946.695 1290.91 951.892L1291.15 967.433C1291.22 971.902 1287.65 975.58 1283.18 975.65L1275.02 975.777C1270.56 975.844 1266.88 972.279 1266.81 967.81Z" fill="url(#paint10_linear_2089_133)"/>
<path d="M1679.66 771.409C1820.28 771.409 1934.27 657.417 1934.27 516.801C1934.27 376.185 1820.28 262.193 1679.66 262.193C1539.05 262.193 1425.06 376.185 1425.06 516.801C1425.06 657.417 1539.05 771.409 1679.66 771.409Z" fill="url(#paint11_linear_2089_133)"/>
<path d="M1679.67 762.944C1815.61 762.944 1925.81 652.743 1925.81 516.802C1925.81 380.862 1815.61 270.66 1679.67 270.66C1543.72 270.66 1433.52 380.862 1433.52 516.802C1433.52 652.743 1543.72 762.944 1679.67 762.944Z" fill="url(#paint12_linear_2089_133)"/>
<path opacity="0.78" d="M1475.2 422.452C1474.49 422.463 1473.76 422.313 1473.07 421.977C1470.72 420.836 1469.74 418.006 1470.88 415.661C1509.37 336.363 1587.99 286.252 1676.06 284.883C1690.11 284.664 1704.21 285.711 1717.95 288C1720.53 288.426 1722.27 290.86 1721.84 293.44C1721.41 296.014 1718.98 297.784 1716.4 297.325C1703.22 295.134 1689.69 294.129 1676.21 294.339C1591.73 295.653 1516.31 343.724 1479.39 419.787C1478.58 421.448 1476.93 422.425 1475.2 422.452Z" fill="white"/>
<path opacity="0.78" d="M1832.4 669.398C1913.76 588.042 1913.76 456.136 1832.4 374.779C1751.04 293.423 1619.14 293.423 1537.78 374.779C1456.42 456.136 1456.42 588.042 1537.78 669.398C1619.14 750.755 1751.04 750.755 1832.4 669.398Z" fill="white"/>
<path d="M1667.08 677.254L1666.73 654.592C1643.09 654.014 1619.63 648.801 1602.92 641.795C1596.96 639.293 1593.83 632.689 1595.44 626.42L1600.87 605.221C1602.86 597.445 1611.22 593.308 1618.67 596.296C1635.24 602.942 1655.65 608.085 1677.57 607.744C1700.33 607.39 1717.18 599.411 1716.93 583.599C1716.71 569.33 1703.46 561.05 1671.71 553.057C1626.39 541.417 1593.69 522.25 1593.07 482.526C1592.51 446.656 1618.31 418.866 1663.71 410.832L1663.35 388.168C1663.24 380.875 1669.06 374.871 1676.35 374.758L1689.67 374.551C1696.96 374.438 1702.97 380.257 1703.08 387.55L1703.39 407.899C1725.27 408.434 1741.24 411.925 1753.94 416.166C1760.44 418.338 1764.09 425.253 1762.39 431.9L1757.4 451.505C1755.48 459.065 1747.5 463.313 1740.16 460.668C1728.46 456.452 1711.95 452.129 1690.59 452.462C1663.59 452.882 1656.05 464.186 1656.21 474.214C1656.4 486.555 1672.73 494.787 1707.99 505.042C1758.36 519.303 1779.51 539.806 1780.09 577.216C1780.63 611.542 1755.65 642.791 1706.41 651.273L1706.8 676.635C1706.92 683.928 1701.1 689.932 1693.8 690.045L1680.49 690.252C1673.2 690.367 1667.19 684.547 1667.08 677.254Z" fill="url(#paint13_linear_2089_133)"/>
<path d="M1864.08 1344.67C2008.77 1344.67 2126.07 1227.37 2126.07 1082.68C2126.07 937.99 2008.77 820.693 1864.08 820.693C1719.39 820.693 1602.09 937.99 1602.09 1082.68C1602.09 1227.37 1719.39 1344.67 1864.08 1344.67Z" fill="url(#paint14_linear_2089_133)"/>
<path d="M1864.08 1335.96C2003.96 1335.96 2117.36 1222.56 2117.36 1082.68C2117.36 942.8 2003.96 829.404 1864.08 829.404C1724.2 829.404 1610.8 942.8 1610.8 1082.68C1610.8 1222.56 1724.2 1335.96 1864.08 1335.96Z" fill="url(#paint15_linear_2089_133)"/>
<path opacity="0.78" d="M1653.69 985.461C1652.97 985.472 1652.24 985.322 1651.55 984.986C1649.2 983.845 1648.23 981.015 1649.37 978.67C1688.95 897.121 1769.8 845.589 1860.37 844.181C1874.82 843.956 1889.32 845.033 1903.45 847.386C1906.03 847.812 1907.77 850.247 1907.34 852.825C1906.91 855.399 1904.5 857.155 1901.9 856.71C1888.32 854.455 1874.4 853.42 1860.52 853.636C1773.54 854.989 1695.89 904.48 1657.87 982.795C1657.07 984.457 1655.42 985.434 1653.69 985.461Z" fill="white"/>
<path opacity="0.78" d="M2021.24 1239.7C2104.95 1155.98 2104.95 1020.26 2021.24 936.54C1937.52 852.825 1801.79 852.825 1718.08 936.541C1634.36 1020.26 1634.36 1155.98 1718.08 1239.7C1801.79 1323.41 1937.52 1323.41 2021.24 1239.7Z" fill="white"/>
<path d="M1851.13 1247.79L1850.77 1224.47C1826.44 1223.87 1802.31 1218.51 1785.11 1211.3C1778.97 1208.72 1775.76 1201.93 1777.41 1195.48L1783 1173.66C1785.04 1165.66 1793.65 1161.41 1801.31 1164.48C1818.37 1171.32 1839.37 1176.61 1861.92 1176.26C1885.34 1175.9 1902.68 1167.69 1902.42 1151.42C1902.19 1136.73 1888.57 1128.21 1855.89 1119.99C1809.26 1108.01 1775.61 1088.29 1774.97 1047.41C1774.4 1010.5 1800.95 981.907 1847.66 973.64L1847.3 950.318C1847.18 942.814 1853.17 936.636 1860.67 936.52L1874.37 936.307C1881.88 936.19 1888.05 942.179 1888.17 949.683L1888.49 970.622C1911 971.172 1927.44 974.765 1940.5 979.129C1947.2 981.364 1950.95 988.48 1949.21 995.319L1944.07 1015.49C1942.09 1023.27 1933.88 1027.64 1926.33 1024.92C1914.29 1020.58 1897.3 1016.14 1875.32 1016.48C1847.53 1016.91 1839.78 1028.54 1839.94 1038.86C1840.14 1051.56 1856.94 1060.03 1893.22 1070.58C1945.06 1085.26 1966.82 1106.35 1967.42 1144.85C1967.97 1180.17 1942.27 1212.33 1891.6 1221.05L1892 1247.15C1892.12 1254.65 1886.13 1260.83 1878.63 1260.95L1864.92 1261.16C1857.42 1261.28 1851.24 1255.29 1851.13 1247.79Z" fill="url(#paint16_linear_2089_133)"/>
<path d="M2184.43 850.882C2300.15 850.882 2393.95 757.073 2393.95 641.353C2393.95 525.634 2300.15 431.824 2184.43 431.824C2068.71 431.824 1974.9 525.634 1974.9 641.353C1974.9 757.073 2068.71 850.882 2184.43 850.882Z" fill="url(#paint17_linear_2089_133)"/>
<path d="M2184.43 843.915C2296.3 843.915 2386.99 753.225 2386.99 641.353C2386.99 529.481 2296.3 438.791 2184.43 438.791C2072.55 438.791 1981.86 529.481 1981.86 641.353C1981.86 753.225 2072.55 843.915 2184.43 843.915Z" fill="url(#paint18_linear_2089_133)"/>
<path opacity="0.78" d="M2016.18 564.977C2015.4 564.989 2014.6 564.825 2013.85 564.459C2011.29 563.213 2010.22 560.125 2011.46 557.565C2043.35 491.874 2108.48 450.362 2181.44 449.228C2193.06 449.047 2204.74 449.914 2216.14 451.809C2218.95 452.274 2220.85 454.932 2220.39 457.742C2219.92 460.552 2217.29 462.493 2214.45 461.988C2203.66 460.2 2192.61 459.379 2181.6 459.55C2112.56 460.624 2050.93 499.909 2020.75 562.069C2019.87 563.881 2018.07 564.947 2016.18 564.977Z" fill="white"/>
<path opacity="0.78" d="M2310.11 766.936C2377.06 699.984 2377.06 591.432 2310.11 524.48C2243.16 457.528 2134.61 457.527 2067.65 524.48C2000.7 591.432 2000.7 699.984 2067.65 766.936C2134.61 833.888 2243.16 833.888 2310.11 766.936Z" fill="white"/>
<path d="M2174.07 773.397L2173.78 754.747C2154.32 754.271 2135.02 749.982 2121.27 744.215C2116.36 742.156 2113.79 736.72 2115.11 731.562L2119.58 714.117C2121.22 707.718 2128.1 704.314 2134.23 706.772C2147.86 712.241 2164.66 716.475 2182.7 716.195C2201.43 715.904 2215.29 709.337 2215.09 696.324C2214.91 684.582 2204.01 677.766 2177.88 671.189C2140.58 661.61 2113.67 645.838 2113.16 613.147C2112.7 583.629 2133.93 560.758 2171.29 554.146L2171 535.494C2170.91 529.492 2175.7 524.551 2181.7 524.458L2192.66 524.287C2198.66 524.194 2203.6 528.984 2203.69 534.985L2203.95 551.731C2221.96 552.171 2235.1 555.045 2245.55 558.536C2250.9 560.324 2253.9 566.013 2252.51 571.483L2248.4 587.617C2246.82 593.838 2240.25 597.336 2234.21 595.159C2224.58 591.69 2211 588.132 2193.41 588.405C2171.2 588.751 2164.99 598.052 2165.12 606.306C2165.28 616.462 2178.72 623.237 2207.74 631.675C2249.19 643.412 2266.6 660.283 2267.07 691.071C2267.51 719.319 2246.96 745.037 2206.43 752.018L2206.76 772.888C2206.85 778.889 2202.06 783.831 2196.06 783.924L2185.1 784.096C2179.1 784.188 2174.16 779.398 2174.07 773.397Z" fill="url(#paint19_linear_2089_133)"/>
<path d="M350.984 2416.02C350.984 2416.02 346.25 2441.41 343.808 2466.56C342.853 2476.38 350.355 2485 360.217 2485.5C393.721 2487.22 465.392 2490.62 491.13 2489.71C494.999 2489.58 497.565 2485.64 496.169 2482.03C494.998 2479.01 492.708 2476.55 489.773 2475.16L371.864 2419.61L350.984 2416.02Z" fill="#91B3FA"/>
<path d="M347.446 2401.05L350.764 2431.5C350.764 2431.5 371.418 2441.35 385.689 2430.61L377.421 2396.64L347.446 2401.05Z" fill="url(#paint20_linear_2089_133)"/>
<path d="M355.614 1829.3C353.98 1837.23 343.467 2225.56 383.322 2400C383.972 2402.85 382.505 2405.76 379.792 2406.84C373.399 2409.38 360.88 2413.03 345.915 2413.39C341.281 2413.5 337.155 2410.45 335.891 2405.99C324.409 2365.5 269.473 2162.63 263.899 1969.28C257.67 1753.23 263.969 1961.92 263.969 1961.92L270.104 1828.47L355.614 1829.3Z" fill="url(#paint21_linear_2089_133)"/>
<path d="M214.625 2427.99C214.625 2427.99 207.353 2440.76 200.106 2474.8C198.797 2480.95 203.045 2486.88 209.294 2487.56C220.352 2488.75 237.376 2490.32 251.026 2490.35C257.317 2490.37 262.28 2484.94 261.582 2478.68C260.189 2466.22 255.674 2445.75 241.277 2429.69L214.625 2427.99Z" fill="#91B3FA"/>
<path d="M208.719 2388.81L216.711 2434.88C216.711 2434.88 224.989 2441.17 241.524 2436.83L237.971 2387.3L208.719 2388.81Z" fill="url(#paint22_linear_2089_133)"/>
<path d="M191.178 1839.65C155.269 2044.25 193.711 2346.2 207.084 2405.35C207.903 2408.97 210.793 2411.77 214.449 2412.41C220.66 2413.5 230.893 2414.44 241.017 2411.6C244.505 2410.63 246.979 2407.51 247.155 2403.89C249.48 2356.19 248.91 2063.22 281.652 1947.76C283.311 1941.9 286.943 1936.82 291.934 1933.34L353.757 1890.28L359.139 1819.75L191.178 1839.65Z" fill="url(#paint23_linear_2089_133)"/>
<path d="M411.243 1453.43C309.503 1450.78 196.956 1478.11 196.956 1478.11C187.921 1527.96 178.266 1574.46 176.249 1623.51C171.116 1748.3 188.016 1859.18 188.016 1859.18C266.596 1880.59 355.778 1848.15 355.778 1848.15C369.577 1774.3 432.653 1566.69 432.653 1566.69C482.429 1561 523.523 1547.04 557.431 1528.4C531.989 1498.33 520.222 1460.27 515.168 1437.79C479.085 1448.63 442.623 1454.25 411.243 1453.43Z" fill="white"/>
<path d="M713.242 1306.42C703.362 1294.25 690.656 1299.84 690.656 1299.84C675.078 1362.95 596.074 1413.49 515.17 1437.79C520.223 1460.27 531.99 1498.33 557.433 1528.4C692.02 1454.41 713.242 1306.42 713.242 1306.42Z" fill="url(#paint24_linear_2089_133)"/>
<path d="M710.786 1309.47C711.8 1312.8 699.64 1317.75 692.638 1304.08C692.451 1297.56 688.754 1269.6 692.699 1264.33C713.711 1236.25 754.264 1201.18 754.264 1201.18C760.997 1207.96 755.335 1214.49 755.335 1214.49L735.632 1234.63C739.642 1242.04 744.561 1248.31 746.808 1257.25C748.51 1264.02 747.361 1271.23 743.89 1277.35C740.407 1283.48 735.658 1291.46 731.181 1297.69C722.708 1309.49 710.786 1309.47 710.786 1309.47Z" fill="url(#paint25_linear_2089_133)"/>
<path d="M726.974 1247.73L709.052 1262.63L703.327 1277.58L719.01 1295.32C719.01 1295.32 724.624 1265.6 728.646 1259.19C732.669 1252.79 730.644 1249.65 726.974 1247.73Z" fill="url(#paint26_linear_2089_133)"/>
<path d="M235.045 1577.01L196.956 1478.11C196.956 1478.11 101.294 1541.78 84.8818 1623.51C102.829 1625.01 135.463 1629.99 167.296 1646.45C174.694 1607.85 235.045 1577.01 235.045 1577.01Z" fill="white"/>
<path d="M317.22 1670.52C317.22 1670.52 209.932 1729.81 174.417 1677.97C167.044 1667.2 165.357 1656.56 167.296 1646.45C135.463 1629.99 102.828 1625.01 84.8816 1623.51C79.9336 1648.15 82.1746 1674.43 96.4256 1701.1C158.397 1817.08 331.091 1696.96 331.091 1696.96L317.22 1670.52Z" fill="url(#paint27_linear_2089_133)"/>
<path d="M308.961 1369.84L275.69 1463.16C275.139 1464.71 275.76 1466.43 277.189 1467.24C285.968 1472.2 317.63 1486.61 356.181 1462.68C360.197 1460.19 362.954 1456.09 363.605 1451.41L374.863 1370.47L308.961 1369.84Z" fill="url(#paint28_linear_2089_133)"/>
<path d="M380.235 1283.81C380.235 1283.81 415.151 1351.07 410.335 1378.06C405.52 1405.05 361.475 1402.69 323.207 1380.37L297.009 1307.85L380.235 1283.81Z" fill="url(#paint29_linear_2089_133)"/>
<path d="M325.247 1344.89C326.817 1344.22 327.412 1342.31 326.49 1340.87C323.682 1336.49 318.428 1327.56 316.798 1319.77C316.798 1319.77 310.446 1315.62 333.156 1310.41C355.867 1305.2 389.738 1297.11 397.024 1277.89C404.128 1259.15 386.385 1211.69 356.998 1249.09C355.88 1250.51 353.717 1250.52 352.627 1249.08C347.928 1242.84 335.54 1229.86 318.097 1237.49C301.774 1244.63 299.829 1256.52 299.995 1262.53C300.044 1264.3 298.452 1265.65 296.719 1265.31C288.516 1263.66 268.808 1262.13 259.41 1282.27C251.67 1298.86 256.508 1308.34 260.952 1312.99C262.392 1314.5 261.731 1316.96 259.731 1317.55C254.314 1319.15 247.297 1323.66 247.874 1336.33C248.673 1353.83 268.245 1352.47 273.821 1351.73C274.735 1351.61 275.651 1351.93 276.262 1352.62C280.986 1357.95 302.284 1380.59 325.541 1383.51C327.555 1383.77 329.137 1381.79 328.494 1379.87L318.697 1350.48C318.242 1349.12 318.907 1347.63 320.228 1347.06L325.247 1344.89Z" fill="url(#paint30_linear_2089_133)"/>
<path d="M329.258 1349.09C329.258 1349.09 304.109 1331.48 302.12 1346.09C300.132 1360.7 324.713 1367.49 336.973 1362.16L329.258 1349.09Z" fill="url(#paint31_linear_2089_133)"/>
<path d="M295.294 1764.22L353.738 1560.12C354.402 1557.8 356.378 1556.11 358.772 1555.83C369.361 1554.6 400.044 1551.13 435.471 1548.13C478.143 1544.52 527.699 1541.6 557.312 1544.09C561.522 1544.44 564.066 1548.89 562.194 1552.68C545.355 1586.75 476.087 1725.33 441.4 1770.73C440.251 1772.23 438.473 1773.11 436.581 1773.1L300.981 1771.83C297.034 1771.8 294.208 1768.01 295.294 1764.22Z" fill="url(#paint32_linear_2089_133)"/>
<path d="M309.415 1714.91C309.415 1714.91 301.273 1681.43 304.557 1669.55C307.841 1657.68 314.204 1642.41 335.412 1645.8C356.621 1649.19 381.639 1658.13 381.639 1658.13C381.639 1658.13 380.375 1673.6 364.256 1668.61L374.252 1676.34C374.252 1676.34 372.823 1688.73 359.208 1682.11L368.505 1692.37C368.505 1692.37 362.657 1702.54 352.64 1696.02C342.624 1689.49 337.822 1718.94 309.415 1714.91Z" fill="url(#paint33_linear_2089_133)"/>
<path d="M431.574 1609.06C431.574 1618.54 439.255 1626.22 448.73 1626.22C458.205 1626.22 465.886 1618.54 465.886 1609.06C465.886 1599.58 458.205 1591.9 448.73 1591.9C439.255 1591.9 431.574 1599.58 431.574 1609.06Z" fill="url(#paint34_linear_2089_133)"/>
<path d="M360.351 1620.37L372.25 1580C373.71 1575.05 377.696 1571.33 382.65 1570.29C419.946 1562.51 522.026 1560.86 523.052 1560.84L522.984 1556.28C518.774 1556.35 419.438 1557.96 381.718 1565.83C375.117 1567.2 369.813 1572.14 367.874 1578.71L355.975 1619.08L360.351 1620.37Z" fill="#91B3FA"/>
<path d="M1153.19 2669.36C1153.55 2669.22 1347.78 2329.08 1374.02 2297.07C1378.44 2291.69 1385.27 2288.94 1392.19 2289.77L1446.4 2296.23L1510.09 2434.01L1403.99 2372.22C1414.49 2444.83 1278.18 2552.74 1231.43 2592.11C1226.69 2596.11 1226.3 2603.26 1230.59 2607.75L1249.25 2627.29C1218.61 2658.34 1183.25 2678.28 1143.35 2687.51L1153.19 2669.36Z" fill="url(#paint35_linear_2089_133)"/>
<path d="M1238.45 2616.74C1238.45 2616.74 1250.36 2620.59 1254.4 2631.2C1256.33 2636.28 1254.25 2642.02 1249.83 2645.19C1230.22 2659.24 1165.53 2704.6 1135.67 2713.49C1133.22 2714.22 1130.9 2712 1131.45 2709.51C1132.98 2702.57 1137.93 2688.72 1153.9 2668.45L1152.47 2671.34C1150.65 2675.01 1154.65 2678.83 1158.21 2676.82C1178.18 2665.55 1218.85 2640.88 1238.45 2616.74Z" fill="url(#paint36_linear_2089_133)"/>
<path d="M1228.84 2752.84C1229.17 2752.63 1258.31 2682.42 1258.63 2682.22C1285.35 2519.54 1350.54 2380.22 1369.76 2343.56C1373 2337.4 1379.14 2333.33 1386.07 2332.74L1440.47 2328.09L1530.73 2450.13L1414.31 2411.09C1439.29 2480.07 1327.64 2613.34 1289.83 2661.36C1286 2666.23 1287.06 2673.32 1292.17 2676.84L1314.4 2692.2C1290.68 2728.81 1260.09 2755.5 1222.88 2772.61L1228.84 2752.84Z" fill="url(#paint37_linear_2089_133)"/>
<path d="M1301.69 2684.06C1301.69 2684.06 1314.14 2685.42 1320.23 2694.99C1323.15 2699.57 1322.28 2705.62 1318.59 2709.61C1302.23 2727.34 1248.06 2784.86 1220.62 2799.6C1218.37 2800.81 1215.64 2799.11 1215.67 2796.56C1215.77 2789.46 1217.82 2774.89 1229.35 2751.8L1228.54 2754.93C1227.5 2758.89 1232.19 2761.82 1235.27 2759.13C1252.54 2744.05 1287.38 2711.66 1301.69 2684.06Z" fill="url(#paint38_linear_2089_133)"/>
<path d="M1695.11 2302.39C1695.11 2302.39 1744.32 2375.58 1748.35 2408.97C1752.39 2442.36 1734.75 2453.9 1683.24 2458.16C1529.96 2470.83 1454.41 2424.9 1454.41 2424.9C1443.92 2358.04 1436.46 2341.03 1348.89 2304.69C1348.89 2304.69 1459.65 2313.48 1481.94 2304.83C1504.23 2296.18 1695.11 2302.39 1695.11 2302.39Z" fill="white"/>
<path d="M1498.87 1892.31C1498.87 1892.31 1533.15 1851.76 1569.58 1901.51C1576.18 1910.52 1601.53 1903.09 1610.82 1921.95C1615.62 1931.69 1625.99 1937.22 1636.66 1935.25C1663.25 1930.35 1706.71 1929.93 1728.17 1971.6C1744.55 2003.41 1731.9 2022.02 1715.53 2032.63C1703.51 2040.43 1699.21 2056.25 1706.49 2068.6C1713.46 2080.44 1714.77 2096.48 1696.76 2115.78C1656.4 2159.04 1576.51 2088.33 1576.51 2088.33L1513.08 1938.44L1498.87 1892.31Z" fill="url(#paint39_linear_2089_133)"/>
<path d="M1562.02 2292.7C1562.02 2292.7 1504.72 2238.13 1476.51 2201.99C1461.26 2182.45 1456.47 2156.73 1463.52 2132.98C1476.4 2089.59 1499.29 2044.65 1501.38 2037.65C1504.58 2026.93 1568.83 2027.38 1568.83 2027.38C1568.83 2027.38 1695.27 2109.44 1744.95 2248.45L1689.16 2265.82C1689.16 2265.82 1680.53 2251.34 1667.73 2232.47C1666.97 2231.35 1665.46 2231.04 1664.31 2231.75C1663.16 2232.47 1662.79 2233.97 1663.46 2235.15C1673.28 2252.22 1681.23 2269.18 1681.95 2280.3L1562.02 2292.7Z" fill="white"/>
<path d="M1452.84 2314.23L1495.89 2267.38L1545.62 2280.77C1545.62 2280.77 1603.6 2289.76 1636.78 2280.77C1669.96 2271.79 1669.96 2271.79 1669.96 2271.79L1744.95 2248.45L1756.73 2281.73C1759.72 2290.18 1756.71 2299.56 1749.41 2304.75C1742.92 2309.36 1735.31 2314.43 1730.47 2316.55C1720.59 2320.87 1502.99 2317.92 1502.99 2317.92L1452.84 2314.23Z" fill="url(#paint40_linear_2089_133)"/>
<path d="M1524.67 1950.12L1567.86 2030.43C1565.01 2047.96 1520.85 2048.45 1514.03 2037.99C1513.34 2036.92 1512.94 2035.69 1512.68 2034.45L1486.84 1980.79C1485.74 1975.56 1500.08 1957.92 1504.8 1955.41L1521.97 1946.28C1528.58 1942.76 1501 1942.48 1524.67 1950.12Z" fill="url(#paint41_linear_2089_133)"/>
<path d="M1437.27 1931.28C1437.27 1931.28 1432.39 1958.41 1453.72 1992.9C1475.04 2027.4 1496.28 2025.84 1507.07 2013.54C1517.86 2001.24 1530.78 1980.75 1524.9 1946.34C1519.02 1911.94 1444.63 1896.68 1437.27 1931.28Z" fill="url(#paint42_linear_2089_133)"/>
<path d="M1499.08 1950.08C1499.08 1950.08 1464.55 1904.73 1438.04 1944.26L1438.49 1957.92C1438.49 1957.92 1404.02 1956.31 1407.75 1924.54C1411.49 1892.76 1439.64 1871.06 1478.66 1881.91C1517.67 1892.77 1540.47 1905.13 1544.88 1932.22C1549.28 1959.31 1527.16 1954.88 1527.16 1954.88C1527.16 1954.88 1518.72 1936.19 1508.51 1934.92C1498.31 1933.64 1502 1948.43 1502 1948.43L1499.08 1950.08Z" fill="url(#paint43_linear_2089_133)"/>
<path d="M1507.01 1948.87C1507.01 1948.87 1489.12 1925.66 1505.4 1920.84C1521.69 1916.03 1521.08 1943.59 1520.02 1953.84L1507.01 1948.87Z" fill="url(#paint44_linear_2089_133)"/>
<path d="M1595.37 2332.78C1595.22 2332.78 1595.06 2332.79 1594.91 2332.79L1396.86 2332.57C1391.96 2332.57 1388 2328.59 1388 2323.7C1388.01 2318.8 1391.99 2314.75 1396.88 2314.84L1594.93 2315.06C1599.83 2315.06 1603.79 2319.03 1603.79 2323.93C1603.78 2328.67 1600.05 2332.54 1595.37 2332.78Z" fill="url(#paint45_linear_2089_133)"/>
<path d="M1218.82 2152.95H1383.76C1395.93 2152.95 1407 2159.97 1412.19 2170.98L1488.44 2332.67H1283.46C1275.62 2332.67 1268.58 2327.88 1265.7 2320.59L1206.57 2170.97C1203.15 2162.32 1209.52 2152.95 1218.82 2152.95Z" fill="url(#paint46_linear_2089_133)"/>
<path d="M1335.02 2235.86C1338.59 2246.96 1335.95 2257.75 1329.12 2259.94C1322.29 2262.14 1313.85 2254.92 1310.28 2243.82C1306.71 2232.71 1309.35 2221.93 1316.18 2219.73C1323.01 2217.53 1331.44 2224.75 1335.02 2235.86Z" fill="url(#paint47_linear_2089_133)"/>
<defs>
<linearGradient id="paint0_linear_2089_133" x1="3034.32" y1="3156.32" x2="1093.26" y2="1090.03" gradientUnits="userSpaceOnUse">
<stop stop-color="#DAE3FE"/>
<stop offset="1" stop-color="#E9EFFD"/>
</linearGradient>
<linearGradient id="paint1_linear_2089_133" x1="1651.62" y1="2387.15" x2="1089.2" y2="699.893" gradientUnits="userSpaceOnUse">
<stop stop-color="#09005D"/>
<stop offset="1" stop-color="#1A0F91"/>
</linearGradient>
<linearGradient id="paint2_linear_2089_133" x1="209.69" y1="1725.87" x2="2627.71" y2="1725.87" gradientUnits="userSpaceOnUse">
<stop stop-color="#4F52FF"/>
<stop offset="1" stop-color="#4042E2"/>
</linearGradient>
<linearGradient id="paint3_linear_2089_133" x1="1477.47" y1="650.923" x2="1406.07" y2="2655.37" gradientUnits="userSpaceOnUse">
<stop stop-color="#09005D"/>
<stop offset="1" stop-color="#1A0F91"/>
</linearGradient>
<linearGradient id="paint4_linear_2089_133" x1="2938.67" y1="632.284" x2="1968.68" y2="2226.93" gradientUnits="userSpaceOnUse">
<stop stop-color="#FF928E"/>
<stop offset="1" stop-color="#FE7062"/>
</linearGradient>
<linearGradient id="paint5_linear_2089_133" x1="2235.16" y1="2662.26" x2="1574.96" y2="1737.97" gradientUnits="userSpaceOnUse">
<stop stop-color="#FF928E"/>
<stop offset="1" stop-color="#FE7062"/>
</linearGradient>
<linearGradient id="paint6_linear_2089_133" x1="1689.88" y1="1300.7" x2="917.946" y2="2341.8" gradientUnits="userSpaceOnUse">
<stop stop-color="#FF928E"/>
<stop offset="1" stop-color="#FE7062"/>
</linearGradient>
<linearGradient id="paint7_linear_2089_133" x1="1033.63" y1="2484.46" x2="-118.091" y2="1395.27" gradientUnits="userSpaceOnUse">
<stop stop-color="#FF928E"/>
<stop offset="1" stop-color="#FE7062"/>
</linearGradient>
<linearGradient id="paint8_linear_2089_133" x1="1064.9" y1="1120.57" x2="1270.37" y2="874.465" gradientUnits="userSpaceOnUse">
<stop stop-color="#E1473D"/>
<stop offset="1" stop-color="#E9605A"/>
</linearGradient>
<linearGradient id="paint9_linear_2089_133" x1="1385.86" y1="695.498" x2="781.636" y2="1639.78" gradientUnits="userSpaceOnUse">
<stop stop-color="#FF928E"/>
<stop offset="1" stop-color="#FE7062"/>
</linearGradient>
<linearGradient id="paint10_linear_2089_133" x1="1398.64" y1="758.539" x2="964.536" y2="1191.61" gradientUnits="userSpaceOnUse">
<stop stop-color="#FF928E"/>
<stop offset="1" stop-color="#FE7062"/>
</linearGradient>
<linearGradient id="paint11_linear_2089_133" x1="1337.57" y1="926.554" x2="1672.89" y2="524.915" gradientUnits="userSpaceOnUse">
<stop stop-color="#E1473D"/>
<stop offset="1" stop-color="#E9605A"/>
</linearGradient>
<linearGradient id="paint12_linear_2089_133" x1="1861.36" y1="232.842" x2="875.278" y2="1773.91" gradientUnits="userSpaceOnUse">
<stop stop-color="#FF928E"/>
<stop offset="1" stop-color="#FE7062"/>
</linearGradient>
<linearGradient id="paint13_linear_2089_133" x1="1882.22" y1="335.725" x2="1173.77" y2="1042.5" gradientUnits="userSpaceOnUse">
<stop stop-color="#FF928E"/>
<stop offset="1" stop-color="#FE7062"/>
</linearGradient>
<linearGradient id="paint14_linear_2089_133" x1="1512.07" y1="1504.31" x2="1857.11" y2="1091.03" gradientUnits="userSpaceOnUse">
<stop stop-color="#E1473D"/>
<stop offset="1" stop-color="#E9605A"/>
</linearGradient>
<linearGradient id="paint15_linear_2089_133" x1="2051.04" y1="790.491" x2="1036.37" y2="2376.23" gradientUnits="userSpaceOnUse">
<stop stop-color="#FF928E"/>
<stop offset="1" stop-color="#FE7062"/>
</linearGradient>
<linearGradient id="paint16_linear_2089_133" x1="2072.51" y1="896.357" x2="1343.52" y2="1623.62" gradientUnits="userSpaceOnUse">
<stop stop-color="#FF928E"/>
<stop offset="1" stop-color="#FE7062"/>
</linearGradient>
<linearGradient id="paint17_linear_2089_133" x1="1902.9" y1="978.559" x2="2178.85" y2="648.03" gradientUnits="userSpaceOnUse">
<stop stop-color="#E1473D"/>
<stop offset="1" stop-color="#E9605A"/>
</linearGradient>
<linearGradient id="paint18_linear_2089_133" x1="2333.95" y1="407.67" x2="1522.46" y2="1675.89" gradientUnits="userSpaceOnUse">
<stop stop-color="#FF928E"/>
<stop offset="1" stop-color="#FE7062"/>
</linearGradient>
<linearGradient id="paint19_linear_2089_133" x1="2351.12" y1="492.337" x2="1768.1" y2="1073.97" gradientUnits="userSpaceOnUse">
<stop stop-color="#FF928E"/>
<stop offset="1" stop-color="#FE7062"/>
</linearGradient>
<linearGradient id="paint20_linear_2089_133" x1="347.306" y1="2415.89" x2="385.827" y2="2416.25" gradientUnits="userSpaceOnUse">
<stop stop-color="#FEBBBA"/>
<stop offset="1" stop-color="#FF928E"/>
</linearGradient>
<linearGradient id="paint21_linear_2089_133" x1="113.62" y1="2451.14" x2="530.057" y2="1796.01" gradientUnits="userSpaceOnUse">
<stop stop-color="#09005D"/>
<stop offset="1" stop-color="#1A0F91"/>
</linearGradient>
<linearGradient id="paint22_linear_2089_133" x1="208.492" y1="2412.59" x2="241.751" y2="2412.9" gradientUnits="userSpaceOnUse">
<stop stop-color="#FEBBBA"/>
<stop offset="1" stop-color="#FF928E"/>
</linearGradient>
<linearGradient id="paint23_linear_2089_133" x1="40.1467" y1="2404.43" x2="456.584" y2="1749.3" gradientUnits="userSpaceOnUse">
<stop stop-color="#09005D"/>
<stop offset="1" stop-color="#1A0F91"/>
</linearGradient>
<linearGradient id="paint24_linear_2089_133" x1="515.411" y1="1412.41" x2="712.216" y2="1414.28" gradientUnits="userSpaceOnUse">
<stop stop-color="#FEBBBA"/>
<stop offset="1" stop-color="#FF928E"/>
</linearGradient>
<linearGradient id="paint25_linear_2089_133" x1="668.691" y1="1380.88" x2="533.777" y2="1680.09" gradientUnits="userSpaceOnUse">
<stop stop-color="#FEBBBA"/>
<stop offset="1" stop-color="#FF928E"/>
</linearGradient>
<linearGradient id="paint26_linear_2089_133" x1="712.537" y1="1281.22" x2="768.446" y2="1197.03" gradientUnits="userSpaceOnUse">
<stop stop-color="#FEBBBA"/>
<stop offset="1" stop-color="#FF928E"/>
</linearGradient>
<linearGradient id="paint27_linear_2089_133" x1="82.11" y1="1687.07" x2="331.163" y2="1689.43" gradientUnits="userSpaceOnUse">
<stop stop-color="#FEBBBA"/>
<stop offset="1" stop-color="#FF928E"/>
</linearGradient>
<linearGradient id="paint28_linear_2089_133" x1="275.886" y1="1422.64" x2="374.357" y2="1423.57" gradientUnits="userSpaceOnUse">
<stop stop-color="#FEBBBA"/>
<stop offset="1" stop-color="#FF928E"/>
</linearGradient>
<linearGradient id="paint29_linear_2089_133" x1="398.372" y1="1361.15" x2="290.734" y2="1294.09" gradientUnits="userSpaceOnUse">
<stop stop-color="#FEBBBA"/>
<stop offset="1" stop-color="#FF928E"/>
</linearGradient>
<linearGradient id="paint30_linear_2089_133" x1="234.088" y1="1223.94" x2="372.904" y2="1335.73" gradientUnits="userSpaceOnUse">
<stop stop-color="#09005D"/>
<stop offset="1" stop-color="#1A0F91"/>
</linearGradient>
<linearGradient id="paint31_linear_2089_133" x1="369.702" y1="1385.51" x2="272.858" y2="1325.17" gradientUnits="userSpaceOnUse">
<stop stop-color="#FEBBBA"/>
<stop offset="1" stop-color="#FF928E"/>
</linearGradient>
<linearGradient id="paint32_linear_2089_133" x1="397.946" y1="1528.82" x2="535.372" y2="2101.43" gradientUnits="userSpaceOnUse">
<stop stop-color="#09005D"/>
<stop offset="1" stop-color="#1A0F91"/>
</linearGradient>
<linearGradient id="paint33_linear_2089_133" x1="303.777" y1="1680.3" x2="381.639" y2="1680.3" gradientUnits="userSpaceOnUse">
<stop stop-color="#FEBBBA"/>
<stop offset="1" stop-color="#FF928E"/>
</linearGradient>
<linearGradient id="paint34_linear_2089_133" x1="453.331" y1="1589.89" x2="432.793" y2="1675.47" gradientUnits="userSpaceOnUse">
<stop stop-color="#4F52FF"/>
<stop offset="1" stop-color="#4042E2"/>
</linearGradient>
<linearGradient id="paint35_linear_2089_133" x1="1106.63" y1="2384.42" x2="1412.85" y2="2559.21" gradientUnits="userSpaceOnUse">
<stop stop-color="#FEBBBA"/>
<stop offset="1" stop-color="#FF928E"/>
</linearGradient>
<linearGradient id="paint36_linear_2089_133" x1="1146.66" y1="2559.18" x2="1284.59" y2="2893.01" gradientUnits="userSpaceOnUse">
<stop stop-color="#4F52FF"/>
<stop offset="1" stop-color="#4042E2"/>
</linearGradient>
<linearGradient id="paint37_linear_2089_133" x1="1136.25" y1="2428.01" x2="88.5327" y2="1772.12" gradientUnits="userSpaceOnUse">
<stop stop-color="#FEBBBA"/>
<stop offset="1" stop-color="#FF928E"/>
</linearGradient>
<linearGradient id="paint38_linear_2089_133" x1="1200.15" y1="2646.28" x2="1402.79" y2="2945.25" gradientUnits="userSpaceOnUse">
<stop stop-color="#4F52FF"/>
<stop offset="1" stop-color="#4042E2"/>
</linearGradient>
<linearGradient id="paint39_linear_2089_133" x1="1446.4" y1="1790.54" x2="1579.53" y2="1944.24" gradientUnits="userSpaceOnUse">
<stop stop-color="#09005D"/>
<stop offset="1" stop-color="#1A0F91"/>
</linearGradient>
<linearGradient id="paint40_linear_2089_133" x1="1642.96" y1="2283.67" x2="1948" y2="2283.67" gradientUnits="userSpaceOnUse">
<stop stop-color="#FEBBBA"/>
<stop offset="1" stop-color="#FF928E"/>
</linearGradient>
<linearGradient id="paint41_linear_2089_133" x1="1518.81" y1="2137.88" x2="1525.86" y2="2028.01" gradientUnits="userSpaceOnUse">
<stop stop-color="#FEBBBA"/>
<stop offset="1" stop-color="#FF928E"/>
</linearGradient>
<linearGradient id="paint42_linear_2089_133" x1="1529.19" y1="2044.92" x2="1396.46" y2="1790.9" gradientUnits="userSpaceOnUse">
<stop stop-color="#FEBBBA"/>
<stop offset="1" stop-color="#FF928E"/>
</linearGradient>
<linearGradient id="paint43_linear_2089_133" x1="1363.35" y1="1900.86" x2="1549.21" y2="1938.15" gradientUnits="userSpaceOnUse">
<stop stop-color="#09005D"/>
<stop offset="1" stop-color="#1A0F91"/>
</linearGradient>
<linearGradient id="paint44_linear_2089_133" x1="1559.57" y1="2029.04" x2="1426.84" y2="1775.02" gradientUnits="userSpaceOnUse">
<stop stop-color="#FEBBBA"/>
<stop offset="1" stop-color="#FF928E"/>
</linearGradient>
<linearGradient id="paint45_linear_2089_133" x1="1628.97" y1="2280.15" x2="1471.75" y2="2331.72" gradientUnits="userSpaceOnUse">
<stop stop-color="#09005D"/>
<stop offset="1" stop-color="#1A0F91"/>
</linearGradient>
<linearGradient id="paint46_linear_2089_133" x1="1214.81" y1="2254.47" x2="2650.01" y2="2133.72" gradientUnits="userSpaceOnUse">
<stop stop-color="#09005D"/>
<stop offset="1" stop-color="#1A0F91"/>
</linearGradient>
<linearGradient id="paint47_linear_2089_133" x1="1344.55" y1="2206.86" x2="1293.17" y2="2284.23" gradientUnits="userSpaceOnUse">
<stop stop-color="#4F52FF"/>
<stop offset="1" stop-color="#4042E2"/>
</linearGradient>
</defs>
</svg>
