<svg width="2799" height="2800" viewBox="0 0 2799 2800" fill="none" xmlns="http://www.w3.org/2000/svg">
<path d="M2431.24 2375.17C2375.18 2434.18 2322.14 2472.24 2280.23 2502.31C1787.62 2855.77 1204.73 2752.74 1080.84 2727.58C897.91 2690.42 544.303 2618.6 288.651 2317.96C-98.1288 1863.11 -37.9008 1146.52 262.111 673.484C316.988 586.958 606.864 106.718 1196.04 29.7032C1552.6 -16.9058 1968.23 77.0992 2269.22 329.27C2901.03 858.598 2856.05 1927.94 2431.24 2375.17Z" fill="url(#paint0_linear_2_320)"/>
<path d="M1335.68 1592.17C1335.68 1592.17 1318.91 1236.55 1148.64 1153.15C978.372 1069.75 663.249 1032.43 615.378 523.495C587.352 225.539 570.697 95.58 561.706 39.035C558.199 16.978 576.649 -2.33797 598.834 0.230032C755.77 18.401 1267.39 102.74 1397.26 438.624C1551.22 836.819 1335.68 1592.17 1335.68 1592.17Z" fill="#91B3FA"/>
<path d="M728.678 133.555C909.443 273.088 1125.07 527.442 1248.91 788.318C1265.5 831.583 1311.52 922.829 1340.47 1088.7C1365.63 1226.97 1368.51 1374.76 1356.93 1473.55C1356.2 1479.79 1350.54 1484.26 1344.3 1483.53C1333.56 1482.27 1334.16 1470.77 1334.28 1471.13C1343.58 1303.09 1320.08 1096.43 1258.38 912.843C1180.21 687.588 1026.42 474.737 870.309 296.033L854.303 278.481C733.659 144.355 710.31 144.962 719.943 134.331C722.218 131.819 726.037 131.527 728.678 133.555Z" fill="#BDD0FB"/>
<path d="M1641.84 1494.78C1674.42 1434.11 1736.68 1387.65 1779.06 1333.39C1913.7 1160.99 2045.24 924.398 2203.44 892.765C2335.11 866.438 2613.48 1083.25 2703.15 1156.73C2714.36 1165.91 2709.84 1183.98 2695.62 1186.76C2625.52 1200.44 2470.68 1238.54 2391.12 1319.29C2286.24 1425.73 2122.2 1439.52 2003.03 1401.85C1945.21 1383.56 1885.68 1367.52 1825.67 1385.49C1790.47 1396.03 1758.88 1416.22 1729.88 1438.31C1708.48 1454.61 1671.84 1511.47 1641.84 1494.78Z" fill="#91B3FA"/>
<path d="M2533.37 1132.21C2403.13 1067.05 2234.34 1049.45 2104.68 1119.97L2092.38 1126.74C2063.77 1142.74 1882.16 1268.54 1755.05 1385.8C1753.47 1387.27 1753.37 1389.74 1754.83 1391.32C1757.31 1394.01 1760.69 1391.51 1760.23 1391.64C1838.31 1328.87 1942.89 1252.38 2023.4 1196.46C2110.55 1135.04 2170.48 1093.96 2293.39 1090.88C2429.1 1089.41 2531.07 1138 2530.74 1137.89C2532.33 1138.57 2534.17 1137.83 2534.85 1136.24C2535.51 1134.72 2534.84 1132.95 2533.37 1132.21Z" fill="#BDD0FB"/>
<path d="M1183.1 1965.5C1197.45 1969.46 1079.99 1841.39 1045.09 1713.52C1010.19 1585.65 932.62 1371.35 792.161 1263.78C651.701 1156.21 526.948 1170.95 399.401 1324.71C293.112 1452.84 224.198 1520.86 179.349 1540.53C168.244 1545.4 165.192 1559.81 173.127 1568.98C215.362 1617.78 328.328 1726.39 469.179 1686.11C648.844 1634.74 843.652 1467.89 932.607 1551.93C1021.56 1635.96 1025.04 1693.14 1037.38 1739.5C1049.71 1785.87 1088.19 1939.3 1183.1 1965.5Z" fill="#91B3FA"/>
<path d="M485.856 1471.89C529.931 1406.15 609.292 1333.64 690.877 1326.03C797.879 1320.01 881.861 1373.93 941.946 1468.43C966.193 1508.83 977.339 1530.79 997.745 1582.36C999.375 1586.48 993.356 1589.14 991.393 1585.2C979.569 1561.47 967.546 1536.54 952.223 1511.4C859.265 1347.86 737.796 1349.72 732.484 1347.12C723.883 1349.92 661.837 1321.71 550.298 1417.49C529.502 1435.52 509.733 1455.24 491.701 1476.15L491.601 1476.27C490.296 1477.78 488.012 1477.95 486.498 1476.65C485.098 1475.44 484.849 1473.39 485.856 1471.89Z" fill="#BDD0FB"/>
<g opacity="0.3">
<path d="M621.904 2564.26C617.566 2565.71 612.744 2563.67 610.811 2559.42C606.58 2550.11 602.691 2540.49 599.251 2530.8C597.578 2526.09 600.039 2520.92 604.748 2519.25C604.805 2519.23 604.86 2519.21 604.916 2519.19C609.579 2517.63 614.652 2520.09 616.305 2524.75C619.572 2533.94 623.267 2543.09 627.285 2551.93C629.354 2556.47 627.342 2561.84 622.791 2563.91C622.499 2564.04 622.203 2564.16 621.904 2564.26ZM597.486 2489.3C597.151 2489.42 596.804 2489.51 596.448 2489.58C591.555 2490.6 586.765 2487.46 585.749 2482.56C583.665 2472.51 581.988 2462.27 580.77 2452.13C580.173 2447.17 583.697 2442.68 588.675 2442.06C593.637 2441.47 598.142 2445.01 598.738 2449.97C599.897 2459.61 601.489 2469.33 603.472 2478.89C604.413 2483.42 601.775 2487.87 597.486 2489.3ZM590.181 2410.84C589.226 2411.16 588.2 2411.32 587.135 2411.3C582.139 2411.2 578.167 2407.07 578.266 2402.07C578.468 2391.83 579.12 2381.47 580.203 2371.28C580.734 2366.31 585.193 2362.71 590.157 2363.23C595.126 2363.76 598.727 2368.22 598.199 2373.19C597.17 2382.87 596.553 2392.7 596.359 2402.43C596.282 2406.36 593.708 2409.66 590.181 2410.84ZM600.605 2332.69C599.026 2333.22 597.283 2333.32 595.548 2332.88C590.701 2331.67 587.755 2326.75 588.968 2321.91C591.461 2311.96 594.411 2302.01 597.739 2292.32C599.366 2287.59 604.511 2285.08 609.239 2286.7C613.964 2288.32 616.479 2293.47 614.857 2298.2C611.696 2307.4 608.89 2316.85 606.525 2326.3C605.744 2329.42 603.44 2331.74 600.605 2332.69ZM628.196 2258.83C625.981 2259.57 623.484 2259.46 621.239 2258.32C616.78 2256.06 614.999 2250.61 617.26 2246.16C621.884 2237.04 626.962 2227.99 632.359 2219.26C634.984 2215.01 640.56 2213.69 644.813 2216.32C649.063 2218.95 650.38 2224.52 647.753 2228.77C642.623 2237.07 637.794 2245.67 633.4 2254.34C632.277 2256.55 630.375 2258.1 628.196 2258.83ZM671.432 2192.92C668.564 2193.88 665.282 2193.38 662.782 2191.31C658.935 2188.12 658.402 2182.41 661.59 2178.57C668.126 2170.68 675.085 2162.98 682.269 2155.67C685.776 2152.11 691.503 2152.07 695.067 2155.57C698.629 2159.07 698.675 2164.8 695.171 2168.37C688.344 2175.31 681.735 2182.62 675.525 2190.12C674.407 2191.47 672.98 2192.4 671.432 2192.92ZM979.113 2067.45C977.926 2067.85 976.638 2068 975.311 2067.87C965.642 2066.85 955.798 2066.25 946.055 2066.08C941.059 2065.99 937.08 2061.86 937.171 2056.87C937.259 2051.87 941.382 2047.89 946.38 2047.98C956.641 2048.17 967.009 2048.8 977.191 2049.87C982.163 2050.39 985.77 2054.84 985.249 2059.81C984.87 2063.45 982.375 2066.36 979.113 2067.45ZM728.166 2138.27C724.605 2139.46 720.531 2138.33 718.119 2135.19C715.076 2131.22 715.827 2125.54 719.791 2122.5C727.917 2116.27 736.414 2110.31 745.046 2104.8C749.27 2102.13 754.854 2103.34 757.545 2107.55C760.235 2111.76 759.001 2117.36 754.79 2120.05C746.592 2125.28 738.524 2130.94 730.806 2136.86C729.985 2137.49 729.093 2137.96 728.166 2138.27ZM900.29 2068.15C899.724 2068.34 899.131 2068.47 898.515 2068.55C888.859 2069.73 879.127 2071.34 869.587 2073.34C864.695 2074.36 859.898 2071.23 858.874 2066.34C857.852 2061.45 860.975 2056.63 865.876 2055.63C875.914 2053.53 886.156 2051.83 896.316 2050.58C901.277 2049.98 905.791 2053.51 906.397 2058.47C906.928 2062.81 904.286 2066.81 900.29 2068.15ZM795.685 2097.66C791.353 2099.1 786.538 2097.08 784.598 2092.83C782.521 2088.29 784.522 2082.92 789.067 2080.84C798.374 2076.59 807.99 2072.68 817.649 2069.23C817.708 2069.21 817.77 2069.18 817.831 2069.16C822.487 2067.61 827.553 2070.06 829.213 2074.7C830.895 2079.41 828.446 2084.59 823.738 2086.27C814.564 2089.55 805.431 2093.26 796.589 2097.3C796.29 2097.43 795.989 2097.55 795.685 2097.66Z" fill="#91B3FA"/>
<path d="M1041.45 2079.75C1039.76 2080.32 1037.89 2080.39 1036.05 2079.85C1031.57 2078.54 1026.99 2077.3 1022.44 2076.16C1017.59 2074.95 1014.64 2070.03 1015.85 2065.19C1017.06 2060.34 1021.97 2057.38 1026.82 2058.6C1031.61 2059.8 1036.43 2061.1 1041.14 2062.48C1045.93 2063.89 1048.68 2068.92 1047.28 2073.71C1046.41 2076.67 1044.17 2078.84 1041.45 2079.75Z" fill="#91B3FA"/>
</g>
<g opacity="0.3">
<path d="M1254.83 2254.61C1250.69 2256 1246.04 2254.21 1243.95 2250.22C1241.8 2246.08 1239.51 2241.92 1237.17 2237.85C1234.68 2233.52 1236.17 2227.99 1240.5 2225.5C1244.85 2222.99 1250.36 2224.49 1252.86 2228.82C1255.32 2233.1 1257.72 2237.48 1260 2241.84C1262.31 2246.27 1260.59 2251.73 1256.17 2254.05C1255.73 2254.28 1255.28 2254.46 1254.83 2254.61Z" fill="#91B3FA"/>
<path d="M1054.52 2752.13C1050.58 2753.45 1046.59 2754.7 1042.57 2755.9C1037.77 2757.32 1032.74 2754.59 1031.31 2749.8C1029.89 2745.01 1032.64 2739.95 1037.41 2738.55C1046.7 2735.79 1055.85 2732.66 1064.71 2729.21C1069.38 2727.4 1074.61 2729.7 1076.43 2734.36C1078.24 2739.02 1075.94 2744.26 1071.28 2746.07C1065.8 2748.21 1060.16 2750.25 1054.52 2752.13ZM995.946 2766.34C995.467 2766.5 994.965 2766.62 994.448 2766.7C984.47 2768.24 974.315 2769.37 964.268 2770.07C959.284 2770.41 954.962 2766.65 954.617 2761.67C954.273 2756.68 958.04 2752.34 963.02 2752.01C972.563 2751.35 982.209 2750.27 991.691 2748.81C996.629 2748.05 1001.25 2751.44 1002.01 2756.38C1002.69 2760.8 1000.05 2764.97 995.946 2766.34ZM1114.35 2725.76C1110.3 2727.11 1105.74 2725.44 1103.59 2721.58C1101.15 2717.21 1102.72 2711.7 1107.09 2709.27C1115.44 2704.62 1123.7 2699.54 1131.65 2694.18C1135.8 2691.39 1141.42 2692.48 1144.22 2696.63C1147.01 2700.77 1145.91 2706.4 1141.77 2709.19C1133.4 2714.83 1124.69 2720.18 1115.9 2725.08C1115.39 2725.36 1114.87 2725.58 1114.35 2725.76ZM918.424 2769.65C917.334 2770.01 916.157 2770.17 914.941 2770.09C904.878 2769.4 894.722 2768.27 884.759 2766.73C879.821 2765.97 876.435 2761.35 877.197 2756.41C877.958 2751.47 882.575 2748.09 887.518 2748.85C896.978 2750.31 906.621 2751.38 916.179 2752.03C921.165 2752.37 924.929 2756.69 924.587 2761.68C924.329 2765.45 921.798 2768.52 918.424 2769.65ZM1177.47 2680.75C1174.16 2681.86 1170.35 2680.98 1167.86 2678.21C1164.53 2674.48 1164.84 2668.76 1168.57 2665.43C1175.69 2659.05 1182.63 2652.28 1189.21 2645.31C1192.64 2641.67 1198.37 2641.51 1202.01 2644.94C1205.64 2648.37 1205.81 2654.09 1202.38 2657.73C1195.45 2665.07 1188.13 2672.2 1180.64 2678.91C1179.69 2679.76 1178.61 2680.37 1177.47 2680.75ZM1229.2 2622.98C1226.54 2623.87 1223.52 2623.52 1221.07 2621.77C1217 2618.86 1216.06 2613.21 1218.96 2609.14C1224.53 2601.34 1229.84 2593.22 1234.73 2584.99C1237.28 2580.69 1242.83 2579.28 1247.13 2581.84C1251.43 2584.4 1252.84 2589.95 1250.28 2594.25C1245.13 2602.9 1239.55 2611.45 1233.69 2619.66C1232.53 2621.28 1230.95 2622.4 1229.2 2622.98ZM1267.1 2555.31C1265.08 2555.98 1262.82 2555.95 1260.7 2555.06C1256.1 2553.11 1253.95 2547.8 1255.9 2543.2C1259.64 2534.36 1263.05 2525.28 1266.04 2516.19C1267.6 2511.44 1272.7 2508.85 1277.46 2510.41C1282.2 2511.97 1284.79 2517.08 1283.23 2521.83C1280.09 2531.4 1276.5 2540.96 1272.56 2550.26C1271.51 2552.75 1269.47 2554.52 1267.1 2555.31ZM1289.33 2480.99C1287.93 2481.46 1286.4 2481.59 1284.85 2481.3C1279.93 2480.41 1276.68 2475.7 1277.57 2470.78C1279.29 2461.35 1280.63 2451.74 1281.54 2442.22C1282.02 2437.24 1286.45 2433.59 1291.41 2434.07C1296.39 2434.55 1300.03 2438.97 1299.56 2443.94C1298.59 2453.97 1297.19 2464.1 1295.38 2474.02C1294.76 2477.39 1292.36 2479.98 1289.33 2480.99ZM1294.71 2403.57C1293.93 2403.83 1293.09 2403.99 1292.22 2404.03C1287.23 2404.24 1283.01 2400.36 1282.8 2395.37C1282.4 2385.81 1281.59 2376.15 1280.38 2366.64C1279.75 2361.68 1283.27 2357.15 1288.21 2356.52C1293.17 2355.89 1297.7 2359.4 1298.33 2364.36C1299.6 2374.37 1300.46 2384.55 1300.88 2394.6C1301.06 2398.73 1298.44 2402.32 1294.71 2403.57ZM1282.96 2326.91C1282.79 2326.97 1282.61 2327.02 1282.42 2327.07C1277.6 2328.36 1272.64 2325.5 1271.35 2320.67C1269.52 2313.85 1267.47 2307.02 1265.24 2300.34C1264.43 2297.92 1263.6 2295.52 1262.74 2293.13C1261.06 2288.43 1263.5 2283.24 1268.21 2281.56C1272.94 2279.76 1278.09 2282.32 1279.78 2287.02C1280.68 2289.54 1281.55 2292.06 1282.4 2294.61C1284.75 2301.63 1286.91 2308.83 1288.83 2316C1290.07 2320.64 1287.46 2325.41 1282.96 2326.91Z" fill="#91B3FA"/>
<path d="M841.87 2755.74C840.163 2756.31 838.273 2756.38 836.421 2755.83C831.727 2754.42 826.974 2752.9 822.294 2751.28C817.568 2749.66 815.056 2744.51 816.683 2739.78C818.312 2735.06 823.455 2732.54 828.184 2734.17C832.63 2735.7 837.145 2737.15 841.601 2738.49C846.387 2739.91 849.111 2744.96 847.681 2749.74C846.803 2752.68 844.569 2754.84 841.87 2755.74Z" fill="#91B3FA"/>
</g>
<path d="M820.205 2652.32C821.729 2653.28 823.699 2653.17 825.107 2652.05L865.302 2619.89C888.012 2627.77 912.142 2632.09 936.88 2632.3L963.917 2676.06C964.865 2677.6 966.683 2678.36 968.443 2677.97L1028.68 2664.41C1030.44 2664.01 1031.75 2662.55 1031.95 2660.75L1037.64 2609.63C1059.9 2598.83 1079.85 2584.6 1097 2567.75L1147.09 2579.58C1148.85 2580 1150.67 2579.25 1151.64 2577.73L1184.64 2525.55C1185.61 2524.02 1185.5 2522.05 1184.37 2520.65L1152.22 2480.45C1160.1 2457.74 1164.41 2433.61 1164.63 2408.87L1208.39 2381.84C1209.92 2380.89 1210.69 2379.07 1210.29 2377.31L1196.74 2317.07C1196.34 2315.31 1194.87 2314 1193.08 2313.8L1141.95 2308.12C1131.16 2285.86 1116.92 2265.9 1100.07 2248.76L1111.91 2198.66C1112.32 2196.91 1111.58 2195.08 1110.05 2194.12L1057.87 2161.11C1056.35 2160.14 1054.38 2160.25 1052.97 2161.38L1012.78 2193.53C990.065 2185.65 965.935 2181.34 941.198 2181.12L914.16 2137.36C913.212 2135.83 911.395 2135.06 909.634 2135.46L849.398 2149.02C847.637 2149.41 846.323 2150.88 846.123 2152.67L840.441 2203.8C818.181 2214.59 798.226 2228.83 781.081 2245.68L730.987 2233.84C729.231 2233.43 727.404 2234.17 726.44 2235.7L693.433 2287.88C692.468 2289.4 692.578 2291.37 693.704 2292.78L725.858 2332.98C717.978 2355.69 713.664 2379.82 713.448 2404.55L669.686 2431.59C668.152 2432.54 667.387 2434.36 667.784 2436.12L681.34 2496.35C681.736 2498.11 683.205 2499.43 684.998 2499.63L736.124 2505.31C746.917 2527.57 761.153 2547.53 778.002 2564.67L766.169 2614.77C765.754 2616.52 766.499 2618.35 768.024 2619.31L820.205 2652.32Z" fill="#91B3FA"/>
<path d="M958.662 2465.6C929.967 2475.18 897.734 2462.53 883.671 2434.75C868.214 2404.22 880.478 2366.8 911.009 2351.35C925.8 2343.85 942.621 2342.58 958.371 2347.74C974.124 2352.9 986.924 2363.89 994.41 2378.68C1009.87 2409.22 997.603 2446.63 967.072 2462.09C964.319 2463.48 961.507 2464.65 958.662 2465.6ZM924.06 2361.54C921.844 2362.28 919.67 2363.19 917.547 2364.26C894.139 2376.11 884.737 2404.8 896.586 2428.21C908.438 2451.62 937.122 2461.03 960.534 2449.17C983.943 2437.32 993.344 2408.63 981.495 2385.23C975.753 2373.88 965.941 2365.46 953.862 2361.5C944.045 2358.28 933.684 2358.33 924.06 2361.54Z" fill="url(#paint1_linear_2_320)"/>
<path d="M988.261 2550.22C983.333 2551.86 978.293 2553.27 973.155 2554.43C971.538 2554.79 969.914 2555.13 968.286 2555.44C960.256 2556.98 952.117 2557.88 943.994 2558.12C943.883 2558.12 943.773 2558.13 943.662 2558.13C943.348 2558.14 943.034 2558.15 942.719 2558.15C942.107 2558.16 941.495 2558.17 940.884 2558.18C939.276 2558.19 937.903 2557.16 937.418 2555.71C937.3 2555.36 937.236 2554.98 937.232 2554.59C937.213 2552.59 938.823 2550.96 940.819 2550.94C951.105 2550.85 961.449 2549.65 971.564 2547.37C1021.82 2536.06 1060.13 2499.84 1076.43 2454.64C1085.5 2429.5 1087.76 2401.59 1081.46 2373.64C1080.36 2368.73 1079.02 2363.92 1077.45 2359.22C1066.88 2327.59 1045.93 2300.78 1017.36 2282.71C984.548 2261.95 945.614 2255.21 907.735 2263.74C829.506 2281.35 780.237 2359.28 797.835 2437.47C798.92 2442.29 800.245 2447.04 801.802 2451.69C808.545 2471.87 819.628 2490.35 834.321 2505.77C834.7 2506.16 834.971 2506.63 835.134 2507.12C835.564 2508.4 835.248 2509.88 834.198 2510.88C832.746 2512.26 830.461 2512.21 829.08 2510.76C813.655 2494.58 802.016 2475.18 794.938 2453.99C793.304 2449.1 791.913 2444.12 790.773 2439.06C772.296 2356.96 824.078 2275.15 906.144 2256.67C945.911 2247.72 986.782 2254.8 1021.23 2276.59C1051.22 2295.56 1073.22 2323.71 1084.31 2356.92C1085.96 2361.85 1087.37 2366.9 1088.53 2372.05C1097.48 2411.82 1090.4 2452.69 1068.61 2487.13C1049.64 2517.13 1021.48 2539.13 988.261 2550.22Z" fill="url(#paint2_linear_2_320)"/>
<g opacity="0.3">
<path d="M1233.48 2226.63C1230.14 2227.75 1226.42 2226.18 1224.93 2222.9C1221.67 2215.74 1218.68 2208.32 1216.03 2200.86C1214.74 2197.23 1216.63 2193.25 1220.26 2191.96C1220.31 2191.94 1220.35 2191.93 1220.39 2191.91C1223.98 2190.71 1227.89 2192.61 1229.16 2196.19C1231.68 2203.28 1234.53 2210.32 1237.62 2217.13C1239.22 2220.64 1237.67 2224.77 1234.16 2226.36C1233.94 2226.47 1233.71 2226.56 1233.48 2226.63ZM1214.67 2168.89C1214.41 2168.98 1214.14 2169.05 1213.87 2169.11C1210.1 2169.89 1206.41 2167.47 1205.63 2163.7C1204.02 2155.95 1202.73 2148.06 1201.79 2140.25C1201.33 2136.43 1204.05 2132.97 1207.88 2132.5C1211.7 2132.04 1215.17 2134.77 1215.63 2138.59C1216.53 2146.01 1217.75 2153.51 1219.28 2160.87C1220 2164.36 1217.97 2167.79 1214.67 2168.89ZM1209.04 2108.44C1208.3 2108.69 1207.51 2108.81 1206.69 2108.8C1202.84 2108.72 1199.78 2105.54 1199.86 2101.69C1200.02 2093.8 1200.52 2085.82 1201.35 2077.97C1201.76 2074.14 1205.2 2071.37 1209.02 2071.77C1212.85 2072.18 1215.62 2075.61 1215.22 2079.44C1214.42 2086.89 1213.95 2094.47 1213.8 2101.96C1213.74 2104.99 1211.76 2107.53 1209.04 2108.44ZM1217.07 2048.24C1215.86 2048.64 1214.51 2048.72 1213.18 2048.39C1209.44 2047.45 1207.17 2043.66 1208.11 2039.93C1210.03 2032.27 1212.3 2024.6 1214.86 2017.14C1216.12 2013.5 1220.08 2011.56 1223.72 2012.81C1227.36 2014.06 1229.3 2018.02 1228.05 2021.67C1225.61 2028.75 1223.45 2036.04 1221.63 2043.32C1221.03 2045.72 1219.26 2047.51 1217.07 2048.24ZM1238.33 1991.34C1236.62 1991.91 1234.7 1991.82 1232.97 1990.95C1229.53 1989.2 1228.16 1985.01 1229.9 1981.58C1233.46 1974.55 1237.37 1967.58 1241.53 1960.85C1243.55 1957.58 1247.85 1956.56 1251.13 1958.59C1254.4 1960.61 1255.41 1964.91 1253.39 1968.18C1249.44 1974.57 1245.72 1981.2 1242.33 1987.88C1241.47 1989.58 1240 1990.78 1238.33 1991.34ZM1271.63 1940.56C1269.42 1941.3 1266.9 1940.92 1264.97 1939.32C1262.01 1936.86 1261.6 1932.47 1264.05 1929.51C1269.09 1923.43 1274.45 1917.5 1279.98 1911.87C1282.68 1909.13 1287.1 1909.09 1289.84 1911.79C1292.59 1914.49 1292.62 1918.9 1289.92 1921.65C1284.66 1926.99 1279.57 1932.63 1274.79 1938.4C1273.93 1939.44 1272.83 1940.17 1271.63 1940.56ZM1508.66 1843.91C1507.75 1844.21 1506.76 1844.33 1505.73 1844.23C1498.28 1843.45 1490.7 1842.98 1483.2 1842.85C1479.35 1842.78 1476.28 1839.6 1476.35 1835.75C1476.42 1831.9 1479.6 1828.84 1483.45 1828.91C1491.35 1829.05 1499.34 1829.54 1507.18 1830.36C1511.01 1830.76 1513.79 1834.19 1513.39 1838.02C1513.1 1840.83 1511.18 1843.07 1508.66 1843.91ZM1315.34 1898.46C1312.6 1899.38 1309.46 1898.51 1307.6 1896.09C1305.26 1893.03 1305.83 1888.66 1308.89 1886.32C1315.15 1881.51 1321.7 1876.92 1328.34 1872.68C1331.6 1870.62 1335.9 1871.55 1337.97 1874.8C1340.04 1878.04 1339.09 1882.35 1335.85 1884.43C1329.53 1888.46 1323.32 1892.82 1317.37 1897.38C1316.74 1897.86 1316.05 1898.22 1315.34 1898.46ZM1447.94 1844.44C1447.5 1844.59 1447.05 1844.69 1446.57 1844.75C1439.13 1845.66 1431.64 1846.9 1424.29 1848.44C1420.52 1849.23 1416.82 1846.82 1416.03 1843.05C1415.25 1839.28 1417.65 1835.57 1421.43 1834.8C1429.16 1833.18 1437.05 1831.87 1444.88 1830.91C1448.7 1830.45 1452.18 1833.17 1452.65 1836.99C1453.05 1840.33 1451.02 1843.41 1447.94 1844.44ZM1367.35 1867.17C1364.02 1868.29 1360.31 1866.73 1358.81 1863.46C1357.21 1859.96 1358.76 1855.82 1362.26 1854.22C1369.43 1850.94 1376.83 1847.93 1384.28 1845.27C1384.32 1845.26 1384.37 1845.24 1384.42 1845.22C1388 1844.03 1391.91 1845.91 1393.18 1849.49C1394.48 1853.12 1392.59 1857.11 1388.97 1858.4C1381.9 1860.93 1374.86 1863.79 1368.05 1866.9C1367.82 1867 1367.59 1867.1 1367.35 1867.17Z" fill="#91B3FA"/>
<path d="M1556.69 1853.38C1555.39 1853.82 1553.94 1853.87 1552.52 1853.46C1549.08 1852.44 1545.55 1851.49 1542.04 1850.61C1538.31 1849.68 1536.03 1845.89 1536.97 1842.16C1537.9 1838.42 1541.68 1836.15 1545.42 1837.09C1549.11 1838.01 1552.82 1839.02 1556.45 1840.08C1560.14 1841.16 1562.26 1845.04 1561.18 1848.73C1560.51 1851.01 1558.78 1852.68 1556.69 1853.38Z" fill="#91B3FA"/>
</g>
<g opacity="0.3">
<path d="M1721.07 1988.09C1717.88 1989.16 1714.3 1987.78 1712.69 1984.7C1711.03 1981.52 1709.27 1978.31 1707.47 1975.18C1705.54 1971.84 1706.69 1967.58 1710.03 1965.66C1713.38 1963.73 1717.63 1964.89 1719.55 1968.22C1721.45 1971.52 1723.3 1974.9 1725.05 1978.25C1726.83 1981.66 1725.51 1985.87 1722.1 1987.66C1721.76 1987.83 1721.42 1987.98 1721.07 1988.09Z" fill="#91B3FA"/>
<path d="M1566.76 2371.36C1563.72 2372.38 1560.64 2373.35 1557.55 2374.27C1553.85 2375.36 1549.97 2373.26 1548.88 2369.57C1547.78 2365.88 1549.9 2361.98 1553.58 2360.9C1560.73 2358.78 1567.78 2356.37 1574.61 2353.71C1578.2 2352.32 1582.24 2354.09 1583.63 2357.67C1585.03 2361.26 1583.25 2365.3 1579.67 2366.7C1575.44 2368.35 1571.1 2369.91 1566.76 2371.36ZM1521.63 2382.31C1521.26 2382.43 1520.88 2382.53 1520.48 2382.59C1512.79 2383.77 1504.97 2384.65 1497.23 2385.18C1493.39 2385.45 1490.06 2382.55 1489.79 2378.71C1489.53 2374.87 1492.43 2371.53 1496.27 2371.27C1503.62 2370.77 1511.05 2369.94 1518.35 2368.81C1522.16 2368.22 1525.72 2370.83 1526.31 2374.64C1526.83 2378.04 1524.79 2381.25 1521.63 2382.31ZM1612.84 2351.05C1609.73 2352.09 1606.21 2350.8 1604.55 2347.83C1602.68 2344.46 1603.89 2340.22 1607.25 2338.35C1613.68 2334.76 1620.05 2330.85 1626.18 2326.72C1629.37 2324.57 1633.7 2325.42 1635.85 2328.61C1638.01 2331.8 1637.16 2336.13 1633.97 2338.28C1627.52 2342.63 1620.81 2346.75 1614.04 2350.52C1613.65 2350.74 1613.25 2350.91 1612.84 2351.05ZM1461.91 2384.86C1461.07 2385.14 1460.16 2385.26 1459.23 2385.2C1451.48 2384.67 1443.65 2383.8 1435.98 2382.62C1432.17 2382.03 1429.56 2378.47 1430.15 2374.67C1430.74 2370.86 1434.29 2368.25 1438.1 2368.84C1445.39 2369.96 1452.82 2370.79 1460.18 2371.29C1464.02 2371.55 1466.92 2374.88 1466.66 2378.72C1466.46 2381.62 1464.51 2383.99 1461.91 2384.86ZM1661.48 2316.38C1658.92 2317.23 1655.98 2316.55 1654.07 2314.42C1651.5 2311.55 1651.75 2307.14 1654.61 2304.57C1660.1 2299.66 1665.45 2294.45 1670.52 2289.07C1673.16 2286.27 1677.57 2286.14 1680.37 2288.79C1683.17 2291.43 1683.3 2295.84 1680.66 2298.64C1675.32 2304.3 1669.69 2309.79 1663.91 2314.96C1663.18 2315.61 1662.35 2316.09 1661.48 2316.38ZM1701.32 2271.87C1699.28 2272.56 1696.95 2272.28 1695.06 2270.94C1691.92 2268.7 1691.2 2264.34 1693.44 2261.21C1697.73 2255.2 1701.81 2248.94 1705.59 2242.61C1707.55 2239.29 1711.83 2238.21 1715.14 2240.18C1718.45 2242.15 1719.53 2246.43 1717.57 2249.74C1713.6 2256.4 1709.3 2262.99 1704.78 2269.31C1703.89 2270.56 1702.67 2271.42 1701.32 2271.87ZM1730.52 2219.74C1728.96 2220.26 1727.22 2220.24 1725.59 2219.54C1722.05 2218.04 1720.39 2213.95 1721.89 2210.41C1724.78 2203.6 1727.4 2196.61 1729.7 2189.6C1730.9 2185.95 1734.84 2183.95 1738.5 2185.15C1742.16 2186.36 1744.15 2190.29 1742.95 2193.95C1740.53 2201.32 1737.76 2208.69 1734.73 2215.85C1733.92 2217.76 1732.35 2219.13 1730.52 2219.74ZM1747.65 2162.49C1746.57 2162.85 1745.39 2162.95 1744.2 2162.73C1740.41 2162.04 1737.9 2158.41 1738.59 2154.62C1739.91 2147.36 1740.94 2139.95 1741.65 2132.62C1742.01 2128.78 1745.42 2125.97 1749.25 2126.34C1753.08 2126.71 1755.89 2130.11 1755.52 2133.95C1754.78 2141.68 1753.7 2149.47 1752.3 2157.12C1751.83 2159.71 1749.98 2161.71 1747.65 2162.49ZM1751.79 2102.84C1751.19 2103.05 1750.54 2103.17 1749.87 2103.19C1746.03 2103.36 1742.78 2100.37 1742.62 2096.52C1742.31 2089.16 1741.68 2081.72 1740.75 2074.39C1740.26 2070.57 1742.98 2067.09 1746.79 2066.6C1750.61 2066.12 1754.1 2068.82 1754.58 2072.64C1755.56 2080.35 1756.22 2088.19 1756.55 2095.94C1756.68 2099.11 1754.66 2101.88 1751.79 2102.84ZM1742.74 2043.79C1742.6 2043.83 1742.47 2043.87 1742.33 2043.91C1738.61 2044.91 1734.78 2042.7 1733.79 2038.98C1732.39 2033.73 1730.8 2028.46 1729.09 2023.32C1728.46 2021.45 1727.82 2019.6 1727.16 2017.76C1725.87 2014.14 1727.75 2010.15 1731.38 2008.85C1735.02 2007.46 1738.99 2009.44 1740.29 2013.06C1740.98 2015 1741.66 2016.94 1742.31 2018.9C1744.12 2024.31 1745.78 2029.86 1747.26 2035.38C1748.22 2038.96 1746.21 2042.63 1742.74 2043.79Z" fill="#91B3FA"/>
<path d="M1402.94 2374.14C1401.62 2374.58 1400.16 2374.64 1398.74 2374.21C1395.12 2373.13 1391.46 2371.95 1387.85 2370.71C1384.21 2369.46 1382.28 2365.49 1383.53 2361.85C1384.79 2358.21 1388.75 2356.28 1392.39 2357.53C1395.82 2358.71 1399.29 2359.83 1402.73 2360.85C1406.41 2361.95 1408.51 2365.84 1407.41 2369.53C1406.74 2371.79 1405.01 2373.45 1402.94 2374.14Z" fill="#91B3FA"/>
</g>
<path d="M1386.25 2294.47C1387.42 2295.22 1388.94 2295.13 1390.02 2294.27L1420.99 2269.49C1438.48 2275.56 1457.07 2278.89 1476.13 2279.06L1496.96 2312.77C1497.69 2313.95 1499.09 2314.54 1500.44 2314.23L1546.85 2303.79C1548.2 2303.49 1549.22 2302.35 1549.37 2300.97L1553.75 2261.59C1570.9 2253.27 1586.27 2242.31 1599.48 2229.33L1638.07 2238.44C1639.42 2238.76 1640.83 2238.19 1641.57 2237.01L1667 2196.82C1667.74 2195.64 1667.66 2194.12 1666.79 2193.04L1642.02 2162.07C1648.09 2144.58 1651.42 2125.99 1651.58 2106.93L1685.29 2086.1C1686.48 2085.37 1687.07 2083.97 1686.76 2082.62L1676.32 2036.21C1676.01 2034.86 1674.88 2033.84 1673.5 2033.69L1634.11 2029.31C1625.8 2012.17 1614.83 1996.79 1601.85 1983.58L1610.97 1944.99C1611.29 1943.64 1610.71 1942.23 1609.54 1941.49L1569.34 1916.06C1568.17 1915.32 1566.65 1915.4 1565.56 1916.27L1534.6 1941.04C1517.1 1934.97 1498.51 1931.65 1479.46 1931.48L1458.63 1897.77C1457.9 1896.59 1456.5 1896 1455.14 1896.3L1408.74 1906.75C1407.38 1907.05 1406.37 1908.18 1406.21 1909.56L1401.84 1948.95C1384.69 1957.26 1369.32 1968.23 1356.11 1981.21L1317.52 1972.1C1316.16 1971.78 1314.76 1972.35 1314.01 1973.53L1288.58 2013.72C1287.84 2014.9 1287.93 2016.41 1288.79 2017.5L1313.56 2048.46C1307.49 2065.96 1304.17 2084.55 1304 2103.61L1270.29 2124.43C1269.11 2125.16 1268.52 2126.57 1268.83 2127.92L1279.27 2174.32C1279.57 2175.68 1280.71 2176.69 1282.09 2176.85L1321.47 2181.22C1329.79 2198.37 1340.75 2213.75 1353.73 2226.95L1344.62 2265.55C1344.3 2266.9 1344.87 2268.3 1346.05 2269.05L1386.25 2294.47Z" fill="#91B3FA"/>
<path d="M1492.91 2150.63C1470.8 2158.01 1445.97 2148.26 1435.14 2126.86C1423.23 2103.34 1432.68 2074.52 1456.2 2062.61C1467.59 2056.84 1480.55 2055.86 1492.68 2059.83C1504.82 2063.81 1514.68 2072.28 1520.45 2083.67C1532.36 2107.19 1522.91 2136.01 1499.39 2147.92C1497.27 2149 1495.1 2149.9 1492.91 2150.63ZM1466.25 2070.47C1464.55 2071.04 1462.87 2071.73 1461.23 2072.56C1443.2 2081.69 1435.96 2103.79 1445.09 2121.82C1454.22 2139.86 1476.31 2147.11 1494.35 2137.97C1512.38 2128.84 1519.63 2106.74 1510.5 2088.71C1506.07 2079.97 1498.51 2073.48 1489.21 2070.43C1481.65 2067.96 1473.67 2067.99 1466.25 2070.47Z" fill="url(#paint3_linear_2_320)"/>
<path d="M1515.71 2215.82C1511.91 2217.09 1508.03 2218.17 1504.07 2219.06C1502.83 2219.34 1501.58 2219.6 1500.32 2219.84C1494.14 2221.03 1487.87 2221.72 1481.61 2221.9C1481.52 2221.91 1481.44 2221.91 1481.35 2221.91C1481.11 2221.92 1480.87 2221.92 1480.63 2221.93C1480.15 2221.94 1479.68 2221.94 1479.21 2221.95C1477.97 2221.96 1476.91 2221.16 1476.54 2220.05C1476.45 2219.78 1476.4 2219.49 1476.4 2219.19C1476.38 2217.65 1477.62 2216.39 1479.16 2216.37C1487.08 2216.3 1495.05 2215.38 1502.85 2213.62C1541.56 2204.91 1571.08 2177.01 1583.63 2142.19C1590.62 2122.82 1592.36 2101.31 1587.51 2079.78C1586.66 2076.01 1585.63 2072.3 1584.42 2068.68C1576.27 2044.31 1560.13 2023.66 1538.13 2009.73C1512.85 1993.74 1482.85 1988.55 1453.67 1995.12C1393.41 2008.69 1355.45 2068.72 1369.01 2128.96C1369.85 2132.67 1370.87 2136.33 1372.07 2139.92C1377.26 2155.46 1385.8 2169.7 1397.12 2181.57C1397.41 2181.88 1397.62 2182.23 1397.74 2182.61C1398.07 2183.6 1397.83 2184.74 1397.02 2185.51C1395.9 2186.57 1394.14 2186.54 1393.08 2185.42C1381.2 2172.95 1372.23 2158.01 1366.78 2141.69C1365.52 2137.92 1364.45 2134.08 1363.57 2130.18C1349.34 2066.94 1389.23 2003.91 1452.45 1989.68C1483.08 1982.78 1514.57 1988.23 1541.11 2005.02C1564.21 2019.64 1581.16 2041.32 1589.7 2066.9C1590.97 2070.71 1592.06 2074.6 1592.95 2078.56C1599.85 2109.19 1594.4 2140.68 1577.61 2167.22C1562.99 2190.33 1541.3 2207.27 1515.71 2215.82Z" fill="url(#paint4_linear_2_320)"/>
<g opacity="0.3">
<path d="M1443.29 534.24C1441.37 535.319 1438.9 535.063 1437.25 533.448C1434.16 530.437 1431.12 527.29 1428.21 524.096C1426.32 522.02 1426.47 518.808 1428.55 516.915C1430.62 515.014 1433.84 515.178 1435.73 517.253C1438.5 520.297 1441.4 523.296 1444.35 526.17C1446.36 528.126 1446.4 531.345 1444.44 533.358C1444.09 533.714 1443.7 534.007 1443.29 534.24Z" fill="#91B3FA"/>
<path d="M1417.91 504.493C1415.66 505.757 1412.78 505.141 1411.26 502.992C1406.98 496.921 1402.96 490.559 1399.31 484.088C1398.55 482.726 1397.79 481.35 1397.05 479.963C1395.72 477.484 1396.84 474.424 1399.13 473.078C1401.6 471.752 1404.68 472.685 1406.01 475.157C1406.72 476.483 1407.44 477.799 1408.17 479.101C1411.65 485.274 1415.48 491.341 1419.57 497.132C1421.19 499.427 1420.64 502.596 1418.35 504.217C1418.2 504.315 1418.06 504.409 1417.91 504.493ZM1392.99 457.962C1392.78 458.08 1392.56 458.188 1392.33 458.277C1389.71 459.291 1386.76 457.992 1385.75 455.373C1382.49 446.975 1379.72 438.3 1377.53 429.593C1376.84 426.869 1378.51 424.108 1381.22 423.421C1383.94 422.736 1386.7 424.384 1387.39 427.107C1389.48 435.414 1392.12 443.688 1395.23 451.698C1396.15 454.085 1395.16 456.742 1392.99 457.962ZM1380.1 406.779C1379.54 407.096 1378.9 407.309 1378.22 407.395C1375.44 407.739 1372.9 405.754 1372.56 402.968C1371.46 394.041 1370.91 384.946 1370.93 375.941C1370.93 373.13 1373.21 370.864 1376.02 370.868C1378.83 370.872 1381.1 373.153 1381.1 375.959C1381.08 384.548 1381.6 393.216 1382.65 401.729C1382.91 403.834 1381.84 405.798 1380.1 406.779ZM1380.18 353.99C1379.27 354.507 1378.18 354.741 1377.06 354.604C1374.28 354.252 1372.3 351.708 1372.65 348.923C1373.78 339.982 1375.47 331.036 1377.68 322.328C1378.37 319.607 1381.15 317.967 1383.86 318.655C1386.58 319.344 1388.23 322.11 1387.54 324.834C1385.43 333.133 1383.81 341.67 1382.74 350.193C1382.53 351.856 1381.54 353.227 1380.18 353.99ZM1393.16 302.826C1391.88 303.547 1390.3 303.709 1388.82 303.134C1386.2 302.117 1384.91 299.171 1385.93 296.553C1389.19 288.168 1393 279.903 1397.26 271.991C1398.59 269.512 1401.67 268.59 1404.15 269.921C1406.62 271.252 1407.55 274.336 1406.22 276.805C1402.16 284.356 1398.52 292.238 1395.4 300.241C1394.96 301.38 1394.15 302.269 1393.16 302.826ZM1418.16 256.367C1416.5 257.301 1414.38 257.258 1412.72 256.084C1410.43 254.462 1409.9 251.29 1411.52 248.998C1416.72 241.657 1422.43 234.572 1428.5 227.945C1430.4 225.874 1433.61 225.733 1435.68 227.626C1437.75 229.519 1437.89 232.737 1436 234.806C1430.22 241.127 1424.77 247.878 1419.81 254.876C1419.36 255.513 1418.79 256.01 1418.16 256.367ZM1453.75 217.441C1451.67 218.61 1449 218.188 1447.39 216.309C1445.57 214.173 1445.83 210.964 1447.96 209.14C1454.79 203.32 1462.07 197.854 1469.6 192.889C1471.98 191.381 1475.1 191.996 1476.64 194.341C1478.19 196.685 1477.54 199.836 1475.2 201.383C1468.01 206.115 1461.07 211.329 1454.56 216.878C1454.3 217.096 1454.03 217.283 1453.75 217.441ZM1522.21 178.155C1521.95 178.299 1521.68 178.424 1521.39 178.524C1514.39 180.975 1507.41 183.853 1500.63 187.077C1499.6 187.56 1498.6 188.046 1497.6 188.544C1495.08 189.791 1492.04 188.767 1490.79 186.251C1489.53 183.733 1490.54 180.603 1493.08 179.435C1494.14 178.909 1495.21 178.389 1496.29 177.883C1503.37 174.516 1510.69 171.499 1518.03 168.93C1520.68 168.002 1523.58 169.395 1524.5 172.046C1525.33 174.407 1524.32 176.968 1522.21 178.155Z" fill="#91B3FA"/>
</g>
<g opacity="0.3">
<path d="M1700.85 566.016C1698.43 567.378 1695.36 566.544 1693.96 564.136C1692.55 561.71 1693.38 558.596 1695.81 557.189C1703.12 552.947 1710.23 548.223 1716.95 543.147C1719.19 541.486 1722.38 541.896 1724.07 544.139C1725.77 546.381 1725.32 549.568 1723.08 551.261C1716.03 556.58 1708.58 561.536 1700.91 565.982C1700.89 565.993 1700.87 566.005 1700.85 566.016ZM1677.61 577.694C1677.45 577.784 1677.29 577.864 1677.12 577.938C1668.99 581.434 1660.56 584.469 1652.08 586.963C1649.38 587.751 1646.56 586.213 1645.77 583.519C1644.97 580.822 1646.53 578 1649.21 577.206C1657.31 574.828 1665.35 571.93 1673.11 568.598C1675.68 567.489 1678.67 568.682 1679.78 571.26C1680.82 573.673 1679.84 576.437 1677.61 577.694ZM1742.26 534.723C1740.3 535.829 1737.76 535.524 1736.12 533.83C1734.17 531.818 1734.22 528.6 1736.23 526.645C1742.3 520.755 1748.07 514.451 1753.36 507.897C1755.14 505.717 1758.32 505.374 1760.51 507.142C1762.69 508.904 1763.03 512.108 1761.27 514.292C1755.72 521.16 1749.67 527.77 1743.31 533.941C1742.99 534.253 1742.64 534.513 1742.26 534.723ZM1627.77 592.3C1627.27 592.584 1626.71 592.786 1626.11 592.887C1617.37 594.326 1608.45 595.238 1599.61 595.597C1596.8 595.712 1594.44 593.53 1594.32 590.723C1594.21 587.926 1596.39 585.558 1599.19 585.439C1607.63 585.095 1616.12 584.224 1624.45 582.854C1627.22 582.4 1629.84 584.276 1630.3 587.045C1630.65 589.21 1629.58 591.281 1627.77 592.3ZM1774.88 494.349C1773.31 495.232 1771.32 495.254 1769.69 494.234C1767.31 492.746 1766.58 489.61 1768.07 487.229C1772.54 480.075 1776.61 472.573 1780.18 464.923C1781.37 462.374 1784.4 461.279 1786.94 462.468C1789.48 463.656 1790.59 466.683 1789.4 469.227C1785.65 477.245 1781.38 485.113 1776.69 492.616C1776.23 493.363 1775.59 493.946 1774.88 494.349ZM1796.86 447.329C1795.66 448.005 1794.19 448.193 1792.78 447.733C1790.11 446.86 1788.66 443.988 1789.53 441.321C1792.16 433.283 1794.32 425.016 1795.96 416.754C1796.51 413.996 1799.19 412.208 1801.94 412.757C1804.69 413.303 1806.48 415.977 1805.93 418.729C1804.22 427.394 1801.95 436.06 1799.19 444.482C1798.78 445.738 1797.93 446.728 1796.86 447.329ZM1806.94 396.393C1806.1 396.868 1805.11 397.11 1804.07 397.029C1801.27 396.822 1799.17 394.381 1799.38 391.581C1800.01 383.151 1800.13 374.607 1799.73 366.19C1799.6 363.391 1801.76 361.005 1804.57 360.874C1807.37 360.741 1809.75 362.905 1809.89 365.712C1810.31 374.536 1810.18 383.498 1809.52 392.341C1809.39 394.103 1808.37 395.587 1806.94 396.393Z" fill="#91B3FA"/>
<path d="M1575.65 594.411C1574.8 594.892 1573.79 595.131 1572.74 595.045C1568.41 594.689 1564.06 594.202 1559.83 593.601C1557.05 593.205 1555.11 590.632 1555.51 587.852C1555.91 585.079 1558.47 583.144 1561.25 583.533C1565.29 584.108 1569.44 584.571 1573.58 584.913C1576.37 585.143 1578.46 587.6 1578.22 590.397C1578.08 592.142 1577.07 593.611 1575.65 594.411Z" fill="#91B3FA"/>
</g>
<path d="M1547.11 535.115C1548.13 535.516 1549.3 535.224 1550.01 534.388L1570.33 510.539C1584.81 512.631 1599.73 512.429 1614.53 509.707L1635.74 532.744C1636.48 533.552 1637.65 533.799 1638.66 533.36L1673.1 518.316C1674.1 517.876 1674.72 516.846 1674.63 515.752L1672.14 484.543C1684.2 475.527 1694.48 464.72 1702.79 452.674L1734.09 453.973C1735.19 454.018 1736.19 453.363 1736.59 452.34L1750.31 417.352C1750.71 416.329 1750.41 415.165 1749.58 414.453L1725.73 394.137C1727.82 379.656 1727.62 364.738 1724.9 349.929L1747.94 328.727C1748.74 327.983 1748.99 326.809 1748.55 325.803L1733.51 291.366C1733.07 290.359 1732.04 289.743 1730.94 289.831L1699.73 292.327C1690.72 280.267 1679.91 269.982 1667.86 261.678L1669.16 230.375C1669.21 229.278 1668.55 228.273 1667.53 227.872L1632.54 214.159C1631.52 213.758 1630.36 214.051 1629.64 214.886L1609.33 238.735C1594.85 236.642 1579.93 236.845 1565.12 239.567L1543.92 216.529C1543.17 215.721 1542 215.473 1540.99 215.913L1506.56 230.957C1505.55 231.396 1504.93 232.426 1505.02 233.521L1507.52 264.731C1495.46 273.747 1485.17 284.555 1476.87 296.601L1445.57 295.302C1444.47 295.256 1443.46 295.912 1443.06 296.935L1429.35 331.923C1428.95 332.945 1429.24 334.11 1430.08 334.822L1453.92 355.139C1451.83 369.619 1452.04 384.538 1454.76 399.347L1431.72 420.549C1430.91 421.292 1430.66 422.467 1431.1 423.473L1446.15 457.909C1446.59 458.916 1447.62 459.532 1448.71 459.445L1479.92 456.949C1488.94 469.008 1499.74 479.293 1511.79 487.598L1510.49 518.901C1510.44 519.998 1511.1 521.003 1512.12 521.404L1547.11 535.115Z" fill="#91B3FA"/>
<path d="M1608.62 408.187C1601.48 412.211 1593.27 413.833 1584.98 412.783C1574.79 411.489 1565.72 406.304 1559.43 398.184C1546.45 381.43 1549.52 357.231 1566.27 344.24C1583.08 331.267 1607.24 334.328 1620.22 351.088C1626.51 359.208 1629.27 369.291 1627.97 379.478C1626.68 389.669 1621.5 398.746 1613.37 405.035C1611.86 406.208 1610.27 407.262 1608.62 408.187ZM1575.96 349.979C1574.77 350.65 1573.61 351.415 1572.5 352.276C1560.17 361.831 1557.92 379.63 1567.47 391.96C1572.09 397.929 1578.77 401.748 1586.26 402.696C1593.76 403.647 1601.17 401.617 1607.15 396.997C1613.12 392.37 1616.94 385.692 1617.89 378.2C1618.84 370.702 1616.81 363.286 1612.19 357.311C1603.5 346.097 1587.98 343.214 1575.96 349.979Z" fill="#BDD0FB"/>
<path d="M1637.11 457.281C1634.3 458.859 1631.4 460.307 1628.39 461.624C1622.42 464.235 1616.17 466.242 1609.81 467.59C1609.53 467.649 1609.24 467.707 1608.95 467.765C1606.74 468.214 1604.57 467.151 1603.52 465.283C1603.26 464.829 1603.07 464.326 1602.96 463.789C1602.41 461.038 1604.19 458.367 1606.94 457.802C1612.89 456.6 1618.73 454.75 1624.31 452.308L1624.32 452.307C1624.62 452.174 1624.93 452.035 1625.23 451.899C1638.39 446 1649.58 437.045 1658.09 425.871C1662.71 419.805 1666.54 413.079 1669.46 405.824C1669.49 405.765 1669.51 405.706 1669.53 405.647C1669.6 405.464 1669.68 405.286 1669.75 405.105C1678.09 383.818 1677.64 360.556 1668.49 339.605C1667.31 336.892 1666 334.264 1664.56 331.72C1654.93 314.608 1639.82 301.442 1621.29 294.176C1600 285.835 1576.74 286.283 1555.79 295.435C1534.86 304.59 1518.71 321.352 1510.36 342.636C1502.02 363.923 1502.46 387.185 1511.62 408.136C1512.78 410.803 1514.08 413.4 1515.49 415.917C1521.64 426.834 1530.11 436.281 1540.32 443.554C1540.95 444.003 1541.45 444.566 1541.8 445.199C1542.74 446.86 1542.7 448.986 1541.52 450.642C1539.88 452.924 1536.71 453.465 1534.42 451.832C1522.99 443.693 1513.52 433.122 1506.64 420.913C1505.05 418.093 1503.6 415.189 1502.3 412.207C1492.06 388.764 1491.56 362.74 1500.89 338.923C1510.23 315.111 1528.26 296.345 1551.72 286.116C1575.16 275.874 1601.18 275.374 1624.99 284.712C1645.73 292.835 1662.63 307.568 1673.41 326.712C1675.01 329.554 1676.48 332.498 1677.8 335.529C1697.63 380.916 1679.36 433.487 1637.11 457.281Z" fill="#BDD0FB"/>
<path d="M648.12 1959.21L621.87 1919.92L997.453 1669.01L1023.7 1708.3L648.12 1959.21Z" fill="url(#paint5_linear_2_320)"/>
<path d="M2144.55 2010.56L1795.81 1677.87L1828.42 1643.68L2177.17 1976.37L2144.55 2010.56Z" fill="url(#paint6_linear_2_320)"/>
<path d="M1746.67 1007.23L1716.54 970.833L2169.85 595.614L2199.99 632.016L1746.67 1007.23Z" fill="url(#paint7_linear_2_320)"/>
<path d="M1191.11 1065.6L764.913 719.328L794.709 682.653L1220.91 1028.93L1191.11 1065.6Z" fill="url(#paint8_linear_2_320)"/>
<path d="M1402.48 2026.6C1757.88 2026.6 2045.98 1738.49 2045.98 1383.09C2045.98 1027.7 1757.88 739.593 1402.48 739.593C1047.09 739.593 758.979 1027.7 758.979 1383.09C758.979 1738.49 1047.09 2026.6 1402.48 2026.6Z" fill="url(#paint9_linear_2_320)"/>
<path d="M851.936 1650.61C850.674 1650.61 849.464 1649.9 848.884 1648.69C809.417 1565.82 789.407 1476.92 789.407 1384.43C789.407 1153.63 916.793 944.193 1121.85 837.861C1123.5 837.004 1125.54 837.647 1126.4 839.303C1127.26 840.958 1126.61 842.995 1124.96 843.853C922.146 949.02 796.157 1156.16 796.157 1384.43C796.157 1475.9 815.947 1563.84 854.978 1645.79C855.782 1647.47 855.067 1649.48 853.383 1650.28C852.915 1650.51 852.42 1650.61 851.936 1650.61Z" fill="#BDD0FB"/>
<path d="M1081.83 1907.71C1081.22 1907.71 1080.6 1907.54 1080.05 1907.2C1005.29 1860.68 940.055 1797.26 891.396 1723.82C890.368 1722.27 890.793 1720.17 892.345 1719.14C893.897 1718.11 895.994 1718.54 897.025 1720.09C945.151 1792.73 1009.67 1855.45 1083.62 1901.47C1085.2 1902.45 1085.68 1904.53 1084.7 1906.12C1084.06 1907.14 1082.96 1907.71 1081.83 1907.71Z" fill="#BDD0FB"/>
<path d="M1823.19 941.37C1822.37 941.37 1821.54 941.067 1820.89 940.457C1738.67 863.356 1637.16 810.724 1527.34 788.251C1525.52 787.878 1524.34 786.096 1524.71 784.269C1525.09 782.445 1526.87 781.255 1528.69 781.639C1639.74 804.362 1742.38 857.577 1825.5 935.532C1826.86 936.808 1826.93 938.943 1825.66 940.303C1824.99 941.012 1824.09 941.37 1823.19 941.37Z" fill="#BDD0FB"/>
<path d="M1404.7 1953.29C1721.14 1953.29 1977.67 1696.77 1977.67 1380.32C1977.67 1063.88 1721.14 807.351 1404.7 807.351C1088.25 807.351 831.725 1063.88 831.725 1380.32C831.725 1696.77 1088.25 1953.29 1404.7 1953.29Z" fill="url(#paint10_linear_2_320)"/>
<mask id="mask0_2_320" style="mask-type:luminance" maskUnits="userSpaceOnUse" x="844" y="840" width="1126" height="1126">
<path d="M1406.96 1965.08C1717.4 1965.08 1969.07 1713.41 1969.07 1402.97C1969.07 1092.52 1717.4 840.855 1406.96 840.855C1096.51 840.855 844.847 1092.52 844.847 1402.97C844.847 1713.41 1096.51 1965.08 1406.96 1965.08Z" fill="white"/>
</mask>
<g mask="url(#mask0_2_320)">
<path d="M1717 2210.6L1637.35 1375.97C1446.05 1305.27 1204.84 1384.28 1204.84 1384.28L1167.6 2210.6H1717Z" fill="white"/>
<path d="M1337.92 1234.57L1334.33 1353.05C1333.98 1364.76 1341.24 1375.32 1352.3 1379.22C1382.59 1389.9 1445.3 1406.15 1504.73 1384.87C1516.72 1380.58 1523.94 1368.3 1522.08 1355.7L1504.27 1234.57H1337.92Z" fill="url(#paint11_linear_2_320)"/>
<path d="M1371.67 2210.6C1392.75 2189.52 1404.46 2174.43 1404.46 2174.43L1379.51 2103.73C1379.51 2103.73 1175.73 2220.17 1109.2 2161.95C1042.66 2103.73 1154.94 1762.72 1154.94 1762.72L992.754 1467.46C992.754 1467.46 856.619 1921.33 902.395 2169.34C906.801 2193.22 927.614 2210.6 951.89 2210.6H1371.67Z" fill="url(#paint12_linear_2_320)"/>
<path d="M1335.76 1306.08L1428.35 1394.85L1361.48 1440.45L1302.38 1360.89L1335.76 1306.08Z" fill="white"/>
<path d="M1513.08 1306.08L1420.49 1394.85L1487.35 1440.45L1546.46 1360.89L1513.08 1306.08Z" fill="white"/>
<path d="M1277.33 1018.32C1277.33 1018.32 1298.13 1230.41 1343.87 1284.48C1343.87 1284.48 1481.11 1296.95 1531.01 1267.84C1531.01 1267.84 1566.36 1161.8 1562.2 1020.4C1562.2 1020.4 1569.02 891.735 1427.05 881.087C1260.7 868.612 1277.33 1018.32 1277.33 1018.32Z" fill="url(#paint13_linear_2_320)"/>
<path d="M1547.65 1084.86C1547.65 1084.86 1560.12 1047.43 1580.91 1047.43C1601.71 1047.43 1576.76 1147.24 1547.65 1147.24V1084.86Z" fill="url(#paint14_linear_2_320)"/>
<path d="M1296.26 1094.69C1296.26 1094.69 1278.85 1059.29 1258.25 1062.09C1237.64 1064.89 1275.83 1160.43 1304.67 1156.5L1296.26 1094.69Z" fill="url(#paint15_linear_2_320)"/>
<path d="M1291.69 1130.22C1291.69 1130.22 1296.35 1256.91 1352.07 1321.16C1357.19 1327.06 1364.58 1330.49 1372.38 1330.87C1400.82 1332.23 1473.53 1334.68 1514.52 1326.51C1524.73 1324.48 1533.13 1317.28 1536.49 1307.43C1546.56 1277.89 1564.06 1231.29 1558.04 1124.37L1524.6 1204.06C1499.82 1269.92 1486.38 1189.98 1474.87 1190.91H1400.01C1392.13 1191.54 1383.38 1240.81 1354.15 1226.38L1291.69 1130.22Z" fill="url(#paint16_linear_2_320)"/>
<path d="M1506.06 968.42C1506.06 968.42 1400.11 1077.39 1284.66 1076.97C1284.66 1076.97 1219.11 901.881 1348.03 872.77C1476.95 843.66 1481.11 881.087 1481.11 881.087C1481.11 881.087 1629.48 843.898 1562.42 1057.87L1506.06 968.42Z" fill="url(#paint17_linear_2_320)"/>
<path d="M1541.19 2210.6H1927.29C1944.67 2210.6 1960.83 2201.64 1970.04 2186.9C2136.39 1920.75 1899.34 1484.09 1899.34 1484.09L1774.58 1812.62C1774.58 1812.62 1882.71 1920.75 1824.49 2091.25C1766.26 2261.76 1529.22 2128.68 1529.22 2128.68L1537.54 2207.7C1537.54 2207.7 1538.82 2208.75 1541.19 2210.6Z" fill="url(#paint18_linear_2_320)"/>
<path d="M1414.66 1402.43L1380.11 1425.94L1404.46 1473.29H1444.16L1470.7 1429.27L1425.48 1398.34L1414.66 1402.43Z" fill="url(#paint19_linear_2_320)"/>
<path d="M1404.46 1473.29L1377.51 1921.94L1446.05 2045.87L1515.03 1926.42L1444.16 1473.29H1404.46Z" fill="url(#paint20_linear_2_320)"/>
<path d="M1114.35 1762.33C1143.85 1833.87 1157.94 1910.83 1155.7 1988.18L1149.26 2210.6H1461.95L1446.05 1893.74L1302.38 1360.93C1169.3 1381.73 992.754 1467.46 992.754 1467.46L1114.35 1762.33Z" fill="url(#paint21_linear_2_320)"/>
<path d="M1748.4 2210.6L1757.95 2026.07C1757.95 1931.6 1774.06 1837.82 1805.6 1748.76L1899.34 1484.09C1778.74 1375.97 1541.25 1352.38 1541.25 1352.38L1446.05 1893.74V2210.6L1748.4 2210.6Z" fill="url(#paint22_linear_2_320)"/>
<path d="M1419.71 1875.1C1419.06 1875.1 1418.42 1874.83 1417.97 1874.3L1289.95 1726.67C1289.67 1726.35 1289.49 1725.95 1289.42 1725.53L1276.52 1646.4L1229.14 1636.87C1228.1 1636.65 1227.33 1635.76 1227.29 1634.7L1217.1 1384.18C1217.05 1382.91 1218.04 1381.84 1219.31 1381.79C1220.63 1381.74 1221.65 1382.72 1221.7 1384L1231.82 1632.71L1278.99 1642.2C1279.93 1642.39 1280.65 1643.14 1280.8 1644.09L1293.86 1724.15L1421.45 1871.29C1422.28 1872.25 1422.17 1873.71 1421.21 1874.54C1420.78 1874.92 1420.24 1875.1 1419.71 1875.1Z" fill="#91B3FA"/>
<path d="M1462.64 1875.1C1462.11 1875.1 1461.57 1874.91 1461.13 1874.53C1460.17 1873.69 1460.07 1872.22 1460.9 1871.26L1588.49 1722.86L1601.54 1642.12C1601.7 1641.16 1602.42 1640.41 1603.36 1640.22L1650.53 1630.64L1660.65 1379.82C1660.7 1378.54 1661.66 1377.55 1663.04 1377.59C1664.31 1377.65 1665.3 1378.73 1665.25 1380.01L1655.06 1632.66C1655.02 1633.73 1654.25 1634.62 1653.21 1634.84L1605.83 1644.45L1592.93 1724.26C1592.86 1724.68 1592.68 1725.08 1592.4 1725.4L1464.38 1874.3C1463.92 1874.83 1463.28 1875.1 1462.64 1875.1Z" fill="#91B3FA"/>
</g>
<path d="M434.075 2590.13C657.7 2590.13 838.984 2408.85 838.984 2185.22C838.984 1961.6 657.7 1780.32 434.075 1780.32C210.451 1780.32 29.1675 1961.6 29.1675 2185.22C29.1675 2408.85 210.451 2590.13 434.075 2590.13Z" fill="url(#paint23_linear_2_320)"/>
<path d="M87.6585 2354.8C86.3965 2354.8 85.1865 2354.1 84.6095 2352.88C59.6945 2300.57 47.0605 2244.45 47.0605 2186.06C47.0605 2040.36 127.475 1908.16 256.921 1841.04C258.569 1840.18 260.609 1840.82 261.47 1842.48C262.327 1844.13 261.681 1846.17 260.026 1847.03C132.828 1912.98 53.8105 2042.89 53.8105 2186.06C53.8105 2243.43 66.2235 2298.58 90.7005 2349.98C91.5045 2351.66 90.7896 2353.67 89.1056 2354.48C88.6376 2354.7 88.1425 2354.8 87.6585 2354.8Z" fill="#BDD0FB"/>
<path d="M232.31 2516.57C231.7 2516.57 231.084 2516.41 230.53 2516.07C183.334 2486.69 142.156 2446.67 111.443 2400.31C110.415 2398.75 110.84 2396.66 112.392 2395.63C113.944 2394.6 116.041 2395.03 117.072 2396.58C147.251 2442.13 187.717 2481.47 234.095 2510.33C235.677 2511.32 236.162 2513.4 235.176 2514.98C234.538 2516.01 233.437 2516.57 232.31 2516.57Z" fill="#BDD0FB"/>
<path d="M435.468 2544.01C634.583 2544.01 795.997 2382.59 795.997 2183.48C795.997 1984.36 634.583 1822.95 435.468 1822.95C236.354 1822.95 74.9395 1984.36 74.9395 2183.48C74.9395 2382.59 236.354 2544.01 435.468 2544.01Z" fill="#BDD0FB"/>
<path d="M257.373 2375.41C240.727 2393.17 216.217 2408.53 198.971 2418.1C224.728 2449.94 259.581 2481.82 305.719 2513.03L314.402 2520.54L325.015 2525.17L361.233 2491.95C361.233 2491.95 285.316 2454.17 257.373 2375.41Z" fill="url(#paint24_linear_2_320)"/>
<path d="M645.682 2094.8C632.041 2077.7 620.09 2059.37 610.093 2040.49C596.132 2014.11 608.97 2057.56 605.155 2027.77C500.603 1952.33 343.168 1990.51 282.271 1998.19C262.302 2000.7 244.04 2010.55 230.882 2025.77C178.699 2086.16 64.1887 2251.5 198.971 2418.1C216.218 2408.53 240.727 2393.17 257.373 2375.4C242.462 2333.37 241.241 2279.65 272.491 2213.78C273.559 2219 274.879 2224.17 276.483 2229.26C319.555 2365.71 321.853 2479.26 321.757 2505.44C321.743 2508.99 317.331 2520.97 320.438 2522.7C424.35 2580.48 547.885 2534.2 547.885 2534.2C522.017 2405.56 613.44 2160.46 638.574 2105.1C640.327 2101.24 642.751 2097.77 645.682 2094.8Z" fill="url(#paint25_linear_2_320)"/>
<path d="M380.25 1888.52L369.325 2000.14C369.325 2000.14 432.118 2019.05 477.789 1986.83L445.684 1885.38L380.25 1888.52Z" fill="url(#paint26_linear_2_320)"/>
<path d="M453.11 1761.3C454.621 1762.72 516.891 1885 516.891 1885L446.313 1919.08L370.074 1811.94C370.074 1811.94 427.81 1737.48 453.11 1761.3Z" fill="url(#paint27_linear_2_320)"/>
<path d="M401.303 1814.91C400.044 1818.17 400.353 1821.8 402.15 1824.8L437.35 1883.48C437.885 1884.37 438.521 1885.17 439.281 1885.88C443.471 1889.78 457.808 1901.12 468.892 1885.68C478.339 1872.51 487.202 1860.55 496.7 1855.61C502.246 1852.73 509.071 1855.03 511.887 1860.61C517.686 1872.1 528.92 1895.54 535.978 1917.75C537.747 1923.32 534.872 1929.3 529.457 1931.5C515.167 1937.29 486.921 1947.76 461.856 1951.22C457.739 1951.79 453.662 1950.05 451.212 1946.69C440.428 1931.92 410.035 1890.63 399.662 1880.3C390.025 1870.7 372.239 1874.32 364.224 1876.62C361.182 1877.5 357.942 1877.08 355.231 1875.44C347.099 1870.55 332.909 1858.35 345.89 1837.7C349.118 1832.57 347.472 1825.73 342.405 1822.39C333.327 1816.42 323.475 1805.21 332.861 1787.06C342.363 1768.68 359.33 1767.03 370.886 1768.44C375.999 1769.07 381.19 1766.39 383.152 1761.62C384.024 1759.51 385.75 1757.7 388.961 1757.05C395.018 1755.82 398.993 1750.28 397.805 1744.22C395.767 1733.82 397.302 1720.31 413.905 1711.18C444.358 1694.44 471.033 1721.72 477.815 1744.75C484.598 1767.78 450.55 1784.05 429.132 1786.77C413.399 1788.76 404.773 1805.93 401.303 1814.91Z" fill="url(#paint28_linear_2_320)"/>
<path d="M412.882 1901.85C412.882 1901.85 399.341 1862.23 382.008 1863.68C364.674 1865.14 351.032 1882.4 372.514 1901.82C399.235 1925.96 412.882 1901.85 412.882 1901.85Z" fill="url(#paint29_linear_2_320)"/>
<path d="M266.775 2203.58C243.928 2141.05 252.215 2065.55 252.302 2064.79L258.597 2065.51C258.514 2066.25 250.402 2140.31 272.729 2201.4L266.775 2203.58Z" fill="url(#paint30_linear_2_320)"/>
<path d="M857.908 2129.91C739.658 2147.65 662.587 2073.04 605.156 2027.78C529.332 1968.02 470.326 1997.09 470.326 1997.09L551.189 2151.42C671.947 2265.28 795.76 2239.99 873.816 2203.1C875.017 2173.29 867.051 2148.34 857.908 2129.91Z" fill="url(#paint31_linear_2_320)"/>
<path d="M1024.11 2059.36L984.892 2080.46C937.862 2109.09 895.779 2124.22 857.908 2129.91C867.051 2148.34 875.017 2173.29 873.815 2203.1C923.504 2179.61 954.655 2151.42 954.655 2151.42C1043.49 2098.45 1024.11 2059.36 1024.11 2059.36Z" fill="url(#paint32_linear_2_320)"/>
<path d="M1139.63 2114.62C1137.1 2106.2 1130.88 2099.39 1122.72 2096.11L1043.14 2064.11C1043.14 2064.11 1041.94 2053.9 1059.95 2046.97C1077.97 2040.03 1073.76 2019.85 1073.76 2019.85C1073.76 2019.85 1049.14 2031.08 1013.11 2048.89C992.501 2059.07 980.939 2077.06 974.807 2090.59L995.294 2117.53C1044.34 2132.27 1093.98 2135.09 1144.03 2129.24L1139.63 2114.62Z" fill="url(#paint33_linear_2_320)"/>
<path d="M2368.48 2800C2606.08 2800 2798.7 2607.38 2798.7 2369.78C2798.7 2132.18 2606.08 1939.56 2368.48 1939.56C2130.88 1939.56 1938.26 2132.18 1938.26 2369.78C1938.26 2607.38 2130.88 2800 2368.48 2800Z" fill="url(#paint34_linear_2_320)"/>
<path d="M2736.55 2549.75C2736.06 2549.75 2735.57 2549.65 2735.1 2549.42C2733.42 2548.62 2732.7 2546.61 2733.51 2544.92C2759.53 2490.29 2772.72 2431.66 2772.72 2370.67C2772.72 2218.48 2688.72 2080.37 2553.51 2010.26C2551.85 2009.4 2551.2 2007.36 2552.06 2005.71C2552.92 2004.05 2554.96 2003.41 2556.61 2004.27C2694.08 2075.55 2779.47 2215.95 2779.47 2370.67C2779.47 2432.68 2766.06 2492.28 2739.6 2547.83C2739.02 2549.04 2737.81 2549.75 2736.55 2549.75Z" fill="#BDD0FB"/>
<path d="M2582.86 2721.63C2581.73 2721.63 2580.63 2721.07 2579.99 2720.04C2579 2718.46 2579.49 2716.38 2581.07 2715.39C2630.37 2684.71 2673.39 2642.9 2705.47 2594.47C2706.5 2592.91 2708.59 2592.48 2710.15 2593.52C2711.7 2594.55 2712.13 2596.64 2711.1 2598.2C2678.48 2647.43 2634.75 2689.93 2584.63 2721.13C2584.08 2721.47 2583.47 2721.63 2582.86 2721.63Z" fill="#BDD0FB"/>
<path d="M2367 2750.99C2578.56 2750.99 2750.06 2579.49 2750.06 2367.93C2750.06 2156.37 2578.56 1984.86 2367 1984.86C2155.44 1984.86 1983.93 2156.37 1983.93 2367.93C1983.93 2579.49 2155.44 2750.99 2367 2750.99Z" fill="#BDD0FB"/>
<path d="M1875.14 2064.14C1877.95 2058.77 1885.9 2059.61 1887.53 2065.46C1893.54 2087.08 1908.08 2124.82 1938.59 2138.22C1940.13 2138.9 1941.59 2139.58 1942.99 2140.27C1944.38 2136.12 1944.4 2131.3 1941.08 2126.23C1931.6 2111.74 1948.72 2091.93 1948.72 2091.93C1948.72 2091.93 1949.86 2109.37 1963.11 2120.35C1974.53 2129.81 1980.01 2150.86 1972.21 2168.13C1955.7 2232.28 1930.96 2317.13 2027.3 2379.11C2123.63 2441.09 2259.3 2262.13 2259.3 2262.13L2191.97 2475.59C2191.97 2475.59 2088.03 2552.29 1967.14 2444.44C1846.25 2336.59 1926.38 2179.66 1926.38 2179.66C1926.38 2179.66 1834.17 2142.47 1875.14 2064.14Z" fill="url(#paint35_linear_2_320)"/>
<path d="M2276.17 1948.49C2276.17 1948.49 2248.26 1823.3 2391.67 1856.44C2391.67 1856.44 2461.28 1845.07 2464.82 1910.77C2464.82 1910.77 2509.69 1940.33 2476.83 1997.2C2476.83 1997.2 2610.19 1945.69 2668.29 2062.57C2726.39 2179.46 2672.98 2243.77 2616.99 2260.52C2616.99 2260.52 2662.36 2283.3 2640.88 2334.72C2619.41 2386.15 2510.68 2422.4 2446.45 2359.86C2446.45 2359.86 2263.68 2384.02 2267.34 2254.92C2267.34 2254.92 2182.33 2200.02 2271.61 2093.33C2360.9 1986.64 2276.17 1948.49 2276.17 1948.49Z" fill="url(#paint36_linear_2_320)"/>
<path d="M2268.29 2238.68C2297.11 2230.04 2381.02 2214.09 2460.82 2287.74C2474.36 2300.23 2479.89 2319.21 2475.06 2336.99C2453.63 2415.91 2393.64 2641.41 2443.23 2742.29C2443.23 2742.29 2354.26 2769.75 2254.87 2732.52C2254.87 2732.52 2221.16 2582.2 2165.13 2500.36C2126.45 2443.85 2226.81 2288.17 2252.2 2250.56C2256.05 2244.87 2261.71 2240.65 2268.29 2238.68Z" fill="url(#paint37_linear_2_320)"/>
<path d="M2347.86 2081.89C2347.86 2081.89 2390.48 2202.44 2393.68 2255.62C2393.68 2255.62 2346.58 2277.04 2302.2 2240.89C2302.2 2240.89 2297.54 2120.48 2290.81 2098.92L2347.86 2081.89Z" fill="url(#paint38_linear_2_320)"/>
<path d="M2288.66 1917.53C2288.66 1917.53 2177.19 2073.52 2243.82 2118.84C2310.46 2164.15 2389.81 2053.29 2389.81 2053.29C2389.81 2053.29 2415.68 1967.91 2388.63 1938.94C2361.59 1909.97 2288.66 1917.53 2288.66 1917.53Z" fill="url(#paint39_linear_2_320)"/>
<path d="M2340.26 1880.25C2340.26 1880.25 2289.05 1892.38 2281.87 1915.55C2274.7 1938.72 2354.49 1960.21 2376.85 1961.26L2394.87 2054.76C2394.87 2054.76 2448.12 1966.8 2427.02 1916.01C2405.93 1865.21 2340.26 1880.25 2340.26 1880.25Z" fill="url(#paint40_linear_2_320)"/>
<path d="M2368.2 2041.81C2368.2 2041.81 2411.59 1991.56 2428.85 2024.32C2446.1 2057.08 2389.79 2081.67 2370.3 2065.59L2368.2 2041.81Z" fill="url(#paint41_linear_2_320)"/>
<path d="M2472.24 2303.49C2472.24 2303.49 2608.39 2416.64 2642.18 2571.25C2675.97 2725.86 2443.23 2742.29 2443.23 2742.29C2443.23 2742.29 2411.64 2707.01 2374.13 2719.59C2336.62 2732.18 2371.22 2658.02 2415.11 2658.21C2459 2658.41 2438.67 2693.11 2500.75 2664.99C2561.23 2637.59 2598.61 2552.87 2444.3 2424.44C2435.36 2416.99 2428.22 2407.5 2423.92 2396.69C2393.95 2321.23 2417.72 2271.76 2472.24 2303.49Z" fill="url(#paint42_linear_2_320)"/>
<path d="M2312.13 905.951C2536.77 905.951 2718.87 723.845 2718.87 499.207C2718.87 274.568 2536.77 92.4629 2312.13 92.4629C2087.49 92.4629 1905.38 274.568 1905.38 499.207C1905.38 723.845 2087.49 905.951 2312.13 905.951Z" fill="url(#paint43_linear_2_320)"/>
<path d="M2660.11 669.541C2659.63 669.541 2659.13 669.436 2658.67 669.213C2656.98 668.412 2656.27 666.398 2657.07 664.714C2681.66 613.081 2694.13 557.679 2694.13 500.049C2694.13 356.229 2614.75 225.723 2486.97 159.464C2485.32 158.605 2484.67 156.568 2485.53 154.914C2486.39 153.256 2488.43 152.615 2490.08 153.472C2620.11 220.896 2700.88 353.698 2700.88 500.05C2700.88 558.692 2688.19 615.069 2663.16 667.618C2662.58 668.833 2661.38 669.541 2660.11 669.541Z" fill="#BDD0FB"/>
<path d="M2514.81 832.045C2513.68 832.045 2512.58 831.481 2511.94 830.453C2510.95 828.871 2511.44 826.79 2513.02 825.804C2559.61 796.809 2600.26 757.294 2630.58 711.531C2631.61 709.977 2633.69 709.548 2635.26 710.582C2636.81 711.61 2637.24 713.705 2636.21 715.259C2605.36 761.824 2564 802.033 2516.59 831.536C2516.03 831.881 2515.42 832.045 2514.81 832.045Z" fill="#BDD0FB"/>
<path d="M2310.73 859.618C2510.75 859.618 2672.89 697.472 2672.89 497.455C2672.89 297.438 2510.75 135.292 2310.73 135.292C2110.71 135.292 1948.57 297.438 1948.57 497.455C1948.57 697.472 2110.71 859.618 2310.73 859.618Z" fill="#BDD0FB"/>
<path d="M2413.87 431.681C2420.06 434.354 2388.18 683.845 2428.21 840.128C2428.21 840.128 2361.15 863.797 2274.84 859.737C2274.84 859.737 2130.74 639.743 2126.97 614.401C2122.69 585.685 2144.76 438.423 2144.76 438.423C2144.76 438.423 2261.31 365.733 2413.87 431.681Z" fill="url(#paint44_linear_2_320)"/>
<path d="M2228.48 531.884C2157.26 534.3 2151.59 473.273 2155.65 432.576C2179.07 421.078 2238.58 397.352 2317.26 405.828C2318.72 440.566 2313.98 528.983 2228.48 531.884Z" fill="url(#paint45_linear_2_320)"/>
<path d="M2207.33 299.337C2207.33 299.337 2242.71 374.09 2263.37 405.608C2269.44 414.858 2267.58 427.246 2259 434.225C2249.2 442.193 2233.28 450.089 2208.54 450.336C2198.15 450.44 2189.01 443.404 2186.27 433.372L2162.95 347.981L2207.33 299.337Z" fill="url(#paint46_linear_2_320)"/>
<path d="M2144.76 438.422C2144.76 438.422 2040.65 628.647 1852.61 475.443L1831.19 509.395C1831.19 509.395 1968.87 722.07 2138.6 574.473L2144.76 438.422Z" fill="url(#paint47_linear_2_320)"/>
<path d="M1708.49 504.84C1710.8 497.148 1716.49 490.926 1723.94 487.929L1796.68 458.678C1796.68 458.678 1797.78 449.35 1781.31 443.01C1764.84 436.671 1768.69 418.229 1768.69 418.229C1768.69 418.229 1791.19 428.491 1824.12 444.768C1842.96 454.076 1853.53 470.51 1859.13 482.881L1840.41 507.505C1795.58 520.972 1750.21 523.547 1704.47 518.205L1708.49 504.84Z" fill="url(#paint48_linear_2_320)"/>
<path d="M2413.87 431.681C2413.87 431.681 2590.52 523.168 2571.01 695.755C2551.49 868.341 2283.92 709.901 2283.92 709.901L2290.41 668.367C2290.41 668.367 2454.11 715.871 2481.37 675.013C2501.37 645.045 2434.33 574.833 2397.17 539.535C2383.54 526.591 2379.62 506.452 2387.45 489.365L2413.87 431.681Z" fill="url(#paint49_linear_2_320)"/>
<path d="M2308 768.394L2233.92 509.689C2233.08 506.752 2230.58 504.61 2227.54 504.256C2214.12 502.69 2175.23 498.294 2130.32 494.496C2076.23 489.921 2013.42 486.214 1975.89 489.367C1970.55 489.815 1967.32 495.459 1969.7 500.26C1991.04 543.444 2078.84 719.103 2122.81 776.647C2124.27 778.553 2126.52 779.668 2128.92 779.645L2300.8 778.046C2305.8 778 2309.38 773.202 2308 768.394Z" fill="url(#paint50_linear_2_320)"/>
<path d="M2122.64 472.067L2068.93 463.118C2066.07 462.641 2063.73 465.375 2064.63 468.128L2069.95 484.239C2070.41 485.642 2071.64 486.656 2073.1 486.852L2124.79 493.756C2127.46 494.113 2129.66 491.684 2129.05 489.057L2125.76 474.991C2125.4 473.477 2124.17 472.323 2122.64 472.067Z" fill="#7D97F4"/>
<path d="M2162.85 517.537L2158.43 494.49C2157.99 492.178 2156.08 490.432 2153.74 490.194L2045.25 479.186C2041.6 478.816 2038.68 482.162 2039.54 485.73L2046.43 514.449C2046.99 516.747 2048.99 518.407 2051.35 518.525L2157.35 523.861C2160.81 524.036 2163.51 520.93 2162.85 517.537Z" fill="#7D97F4"/>
<path d="M2290.1 705.891C2290.1 705.891 2300.42 663.458 2296.26 648.403C2292.1 633.349 2284.03 613.993 2257.15 618.294C2230.27 622.595 2198.56 633.92 2198.56 633.92C2198.56 633.92 2200.16 653.529 2220.59 647.203L2207.92 657.006C2207.92 657.006 2209.73 672.707 2226.99 664.319L2215.21 677.321C2215.21 677.321 2222.62 690.216 2235.31 681.945C2248.01 673.673 2254.1 711 2290.1 705.891Z" fill="url(#paint51_linear_2_320)"/>
<path d="M2086.38 237.769C2086.38 237.769 2069.99 275.607 2089.24 333.134C2108.49 390.661 2139.94 395.66 2159.86 381.438C2179.78 367.216 2205.61 341.803 2208.82 289.692C2212.03 237.582 2108.94 189.91 2086.38 237.769Z" fill="url(#paint52_linear_2_320)"/>
<path d="M2169.95 286.303C2169.95 286.303 2135.19 208.445 2083.06 256.946L2079.04 276.986C2079.04 276.986 2029.39 262.843 2045.71 217.856C2062.02 172.869 2121.35 142.351 2174.45 171.51C2227.55 200.669 2245.6 235.015 2242.74 275.968C2239.89 316.921 2209.2 302.907 2209.2 302.907C2209.2 302.907 2203.29 272.798 2188.87 267.448C2174.45 262.098 2174.76 284.889 2174.76 284.889L2169.95 286.303Z" fill="url(#paint53_linear_2_320)"/>
<path d="M2181.9 287.254C2181.9 287.254 2163.8 247.336 2189.16 245.893C2214.51 244.45 2204.2 284.373 2199.14 298.94L2181.9 287.254Z" fill="url(#paint54_linear_2_320)"/>
<path d="M2196.3 200.366C2182.09 198.637 2176.38 181.084 2186.04 170.527C2217.23 136.449 2276.1 98.637 2359.97 156.658C2454.45 222.015 2505.56 251.585 2528.77 245.381C2544.01 241.307 2557.27 256.382 2550.07 270.421C2544.75 280.801 2533.91 291.642 2513.89 301.52C2359.45 377.725 2279.62 210.51 2196.3 200.366Z" fill="url(#paint55_linear_2_320)"/>
<path d="M555.905 943.659C771.655 943.659 946.555 768.759 946.555 553.009C946.555 337.259 771.655 162.359 555.905 162.359C340.155 162.359 165.255 337.259 165.255 553.009C165.255 768.759 340.155 943.659 555.905 943.659Z" fill="url(#paint56_linear_2_320)"/>
<path d="M221.689 716.739C220.427 716.739 219.217 716.03 218.637 714.815C194.592 664.328 182.4 610.162 182.4 553.819C182.4 413.207 260.006 285.618 384.936 220.839C386.581 219.984 388.628 220.625 389.485 222.281C390.342 223.936 389.696 225.973 388.041 226.831C265.362 290.445 189.15 415.739 189.15 553.819C189.15 609.148 201.121 662.34 224.731 711.912C225.535 713.596 224.82 715.61 223.136 716.411C222.668 716.633 222.174 716.739 221.689 716.739Z" fill="#BDD0FB"/>
<path d="M361.244 872.812C360.634 872.812 360.019 872.646 359.465 872.302C313.923 843.961 274.182 805.33 244.534 760.588C243.506 759.034 243.932 756.939 245.484 755.911C247.036 754.878 249.135 755.304 250.163 756.859C279.278 800.799 318.307 838.736 363.031 866.57C364.613 867.556 365.097 869.637 364.111 871.219C363.472 872.248 362.371 872.812 361.244 872.812Z" fill="white"/>
<path d="M557.25 899.159C749.353 899.159 905.083 743.429 905.083 551.326C905.083 359.223 749.353 203.493 557.25 203.493C365.148 203.493 209.417 359.223 209.417 551.326C209.417 743.429 365.148 899.159 557.25 899.159Z" fill="#BDD0FB"/>
<path d="M713.967 481.362C713.967 481.362 573.633 446.158 425.358 467.388C383.64 473.361 346.689 497.634 324.176 533.26C283.611 597.453 226.261 711.846 238.392 831.151L302.06 846.895C302.06 846.895 346.061 705.313 395.585 647.69C395.585 647.69 454.236 781.378 451.27 854.792C451.186 856.867 451.053 858.895 450.868 860.868C444.138 932.693 732.409 874.271 732.409 874.271L713.967 481.362Z" fill="url(#paint57_linear_2_320)"/>
<path d="M600.732 360.712L594.326 460.253C593.73 469.513 587.735 477.362 579.333 479.849C559.979 485.579 523.429 492.485 487.604 478.05C481.048 475.408 477.68 467.643 479.885 460.56L527.276 308.349L600.732 360.712Z" fill="url(#paint58_linear_2_320)"/>
<path d="M616.745 216.552C616.745 216.552 647.016 286.089 649.049 322.587C651.082 359.085 658.946 382.767 616.745 390.117C574.544 397.467 538.993 376.444 519.733 340.088C519.733 340.088 489.557 284.067 496.326 261.125C503.096 238.183 616.745 216.552 616.745 216.552Z" fill="url(#paint59_linear_2_320)"/>
<path d="M534.154 313.949H539.489C539.489 313.949 517.507 268.861 536.822 260.94C556.136 253.019 632.643 237.417 649.15 210.27C665.063 184.099 650.871 150.293 629.638 140.833C628.295 140.234 626.711 140.867 626.024 142.167L624.265 145.495C623.061 147.774 619.694 147.429 618.978 144.953C618.298 142.604 615.132 142.091 613.84 144.167C608.787 152.285 595.105 165.486 558.408 172.259C506.337 181.869 471.914 202.943 471.068 238.929C471.014 241.209 468.578 242.465 466.63 241.279C462.786 238.936 456.634 237.837 448.413 244.75C434.116 256.772 439.966 287.958 471.309 313.612C472.798 314.831 472.786 317.156 471.173 318.207C465.491 321.906 457.022 330.707 478.97 342.44C501.421 354.441 514.708 353.132 519.722 351.85C521.071 351.505 521.978 350.275 521.892 348.885L519.922 316.994C519.82 315.345 521.13 313.951 522.783 313.951H534.154V313.949Z" fill="url(#paint60_linear_2_320)"/>
<path d="M535.465 320.621C535.465 320.621 523.917 276.202 504.001 288.656C484.086 301.11 514.336 338.426 530.347 340.088L535.465 320.621Z" fill="url(#paint61_linear_2_320)"/>
<path d="M713.097 767.568C719.313 723.672 673.856 659.146 655.052 634.662C649.674 627.658 646.667 619.095 646.59 610.265C646.04 548.098 672.144 508.172 713.967 481.363C713.967 481.363 865.765 658.212 827.113 794.24C822.943 808.919 816.479 821.532 808.284 832.37C802.193 781.114 742.952 769.933 713.097 767.568Z" fill="url(#paint62_linear_2_320)"/>
<path d="M710.266 750.589L716.05 749.929C711.148 706.882 673.373 653.739 657.361 632.888L652.743 636.434C668.46 656.9 705.526 708.99 710.266 750.589Z" fill="url(#paint63_linear_2_320)"/>
<path d="M711.905 773.647C712.435 771.676 712.804 769.637 713.096 767.569C742.951 769.934 802.193 781.115 808.284 832.369C740.542 921.962 553.824 889.638 553.824 889.638V854.776C553.824 854.776 697.225 828.135 711.905 773.647Z" fill="url(#paint64_linear_2_320)"/>
<path d="M571.775 880.015C571.775 880.015 544.206 814.96 495.628 838.036C447.05 861.111 450.868 876.212 450.868 876.212L571.775 880.015Z" fill="url(#paint65_linear_2_320)"/>
<path d="M577.968 893.511C577.582 898.433 573.388 902.178 568.453 902.006L316.724 893.224C312.811 893.087 309.411 890.495 308.244 886.759L300.938 863.378C299.143 857.634 303.242 851.738 309.25 851.419L401.047 846.543C401.88 846.499 402.716 846.567 403.53 846.748L570.769 883.786C575.256 884.781 578.327 888.928 577.968 893.511Z" fill="url(#paint66_linear_2_320)"/>
<path d="M409.23 884.325L402.302 852.049L308.009 856.549L314.213 883.328L409.23 884.325Z" fill="url(#paint67_linear_2_320)"/>
<path d="M457.569 536.92C462.906 580.526 486.913 757.694 493.785 808.314C494.751 815.434 489.097 821.695 481.915 821.489L74.6633 809.835C69.3343 809.682 64.7893 805.929 63.6343 800.724L0.282305 515.421C-1.3927 507.878 4.6113 500.827 12.3253 501.279L446.699 526.721C452.314 527.049 456.886 531.336 457.569 536.92Z" fill="url(#paint68_linear_2_320)"/>
<path d="M293.869 715.835L354.059 886.671L214.103 889.638L202.45 716.861C201.903 708.753 208.628 702.022 216.736 702.56L282.096 706.9C287.453 707.256 292.085 710.77 293.869 715.835Z" fill="url(#paint69_linear_2_320)"/>
<path d="M410.799 889.105C412.341 893.806 408.84 898.64 403.892 898.64H184.713C180.699 898.64 177.444 895.386 177.444 891.371V881.971C177.444 877.834 180.892 874.531 185.025 874.709L404.203 884.11C407.228 884.239 409.855 886.229 410.799 889.105Z" fill="url(#paint70_linear_2_320)"/>
<defs>
<linearGradient id="paint0_linear_2_320" x1="3102.65" y1="3570.49" x2="662.101" y2="539.473" gradientUnits="userSpaceOnUse">
<stop stop-color="#DAE3FE"/>
<stop offset="1" stop-color="#E9EFFD"/>
</linearGradient>
<linearGradient id="paint1_linear_2_320" x1="876.986" y1="2406.7" x2="1001.1" y2="2406.7" gradientUnits="userSpaceOnUse">
<stop stop-color="#DAE3FE"/>
<stop offset="1" stop-color="#E9EFFD"/>
</linearGradient>
<linearGradient id="paint2_linear_2_320" x1="787.03" y1="2405.54" x2="1092.3" y2="2405.54" gradientUnits="userSpaceOnUse">
<stop stop-color="#DAE3FE"/>
<stop offset="1" stop-color="#E9EFFD"/>
</linearGradient>
<linearGradient id="paint3_linear_2_320" x1="1429.99" y1="2105.25" x2="1525.6" y2="2105.25" gradientUnits="userSpaceOnUse">
<stop stop-color="#DAE3FE"/>
<stop offset="1" stop-color="#E9EFFD"/>
</linearGradient>
<linearGradient id="paint4_linear_2_320" x1="1360.69" y1="2104.36" x2="1595.86" y2="2104.36" gradientUnits="userSpaceOnUse">
<stop stop-color="#DAE3FE"/>
<stop offset="1" stop-color="#E9EFFD"/>
</linearGradient>
<linearGradient id="paint5_linear_2_320" x1="621.871" y1="1814.11" x2="1023.7" y2="1814.11" gradientUnits="userSpaceOnUse">
<stop stop-color="#4F52FF"/>
<stop offset="1" stop-color="#4042E2"/>
</linearGradient>
<linearGradient id="paint6_linear_2_320" x1="1795.81" y1="1827.12" x2="2177.17" y2="1827.12" gradientUnits="userSpaceOnUse">
<stop stop-color="#4F52FF"/>
<stop offset="1" stop-color="#4042E2"/>
</linearGradient>
<linearGradient id="paint7_linear_2_320" x1="1716.54" y1="801.424" x2="2199.99" y2="801.424" gradientUnits="userSpaceOnUse">
<stop stop-color="#4F52FF"/>
<stop offset="1" stop-color="#4042E2"/>
</linearGradient>
<linearGradient id="paint8_linear_2_320" x1="764.913" y1="874.129" x2="1220.91" y2="874.129" gradientUnits="userSpaceOnUse">
<stop stop-color="#4F52FF"/>
<stop offset="1" stop-color="#4042E2"/>
</linearGradient>
<linearGradient id="paint9_linear_2_320" x1="2218.51" y1="-72.3491" x2="288.155" y2="3370.57" gradientUnits="userSpaceOnUse">
<stop stop-color="#4F52FF"/>
<stop offset="1" stop-color="#4042E2"/>
</linearGradient>
<linearGradient id="paint10_linear_2_320" x1="831.725" y1="1380.32" x2="1977.67" y2="1380.32" gradientUnits="userSpaceOnUse">
<stop stop-color="#DAE3FE"/>
<stop offset="1" stop-color="#E9EFFD"/>
</linearGradient>
<linearGradient id="paint11_linear_2_320" x1="1402.22" y1="1536.84" x2="1430.32" y2="1296.42" gradientUnits="userSpaceOnUse">
<stop stop-color="#FEBBBA"/>
<stop offset="1" stop-color="#FF928E"/>
</linearGradient>
<linearGradient id="paint12_linear_2_320" x1="1662.29" y1="1151.77" x2="1216.79" y2="1794.7" gradientUnits="userSpaceOnUse">
<stop stop-color="#09005D"/>
<stop offset="1" stop-color="#1A0F91"/>
</linearGradient>
<linearGradient id="paint13_linear_2_320" x1="1428.41" y1="1267.73" x2="1417.66" y2="957.973" gradientUnits="userSpaceOnUse">
<stop stop-color="#FEBBBA"/>
<stop offset="1" stop-color="#FF928E"/>
</linearGradient>
<linearGradient id="paint14_linear_2_320" x1="1573.59" y1="1262.69" x2="1562.84" y2="952.935" gradientUnits="userSpaceOnUse">
<stop stop-color="#FEBBBA"/>
<stop offset="1" stop-color="#FF928E"/>
</linearGradient>
<linearGradient id="paint15_linear_2_320" x1="1284" y1="1272.74" x2="1273.25" y2="962.986" gradientUnits="userSpaceOnUse">
<stop stop-color="#FEBBBA"/>
<stop offset="1" stop-color="#FF928E"/>
</linearGradient>
<linearGradient id="paint16_linear_2_320" x1="1189.59" y1="704.286" x2="1576.95" y2="1468.53" gradientUnits="userSpaceOnUse">
<stop stop-color="#09005D"/>
<stop offset="1" stop-color="#1A0F91"/>
</linearGradient>
<linearGradient id="paint17_linear_2_320" x1="1261.2" y1="667.995" x2="1648.56" y2="1432.24" gradientUnits="userSpaceOnUse">
<stop stop-color="#09005D"/>
<stop offset="1" stop-color="#1A0F91"/>
</linearGradient>
<linearGradient id="paint18_linear_2_320" x1="2166.43" y1="1501.1" x2="1720.93" y2="2144.03" gradientUnits="userSpaceOnUse">
<stop stop-color="#09005D"/>
<stop offset="1" stop-color="#1A0F91"/>
</linearGradient>
<linearGradient id="paint19_linear_2_320" x1="3556.35" y1="-1000.91" x2="2989.32" y2="-352.879" gradientUnits="userSpaceOnUse">
<stop stop-color="#FF928E"/>
<stop offset="1" stop-color="#FE7062"/>
</linearGradient>
<linearGradient id="paint20_linear_2_320" x1="3717.39" y1="-860.003" x2="3150.36" y2="-211.972" gradientUnits="userSpaceOnUse">
<stop stop-color="#FF928E"/>
<stop offset="1" stop-color="#FE7062"/>
</linearGradient>
<linearGradient id="paint21_linear_2_320" x1="1690.17" y1="1171.09" x2="1244.67" y2="1814.03" gradientUnits="userSpaceOnUse">
<stop stop-color="#09005D"/>
<stop offset="1" stop-color="#1A0F91"/>
</linearGradient>
<linearGradient id="paint22_linear_2_320" x1="1945.29" y1="1347.86" x2="1499.79" y2="1990.8" gradientUnits="userSpaceOnUse">
<stop stop-color="#09005D"/>
<stop offset="1" stop-color="#1A0F91"/>
</linearGradient>
<linearGradient id="paint23_linear_2_320" x1="947.544" y1="1269.42" x2="-267.089" y2="3435.79" gradientUnits="userSpaceOnUse">
<stop stop-color="#4F52FF"/>
<stop offset="1" stop-color="#4042E2"/>
</linearGradient>
<linearGradient id="paint24_linear_2_320" x1="198.971" y1="2450.29" x2="361.232" y2="2450.29" gradientUnits="userSpaceOnUse">
<stop stop-color="#FEBBBA"/>
<stop offset="1" stop-color="#FF928E"/>
</linearGradient>
<linearGradient id="paint25_linear_2_320" x1="14727.2" y1="-14106.1" x2="14160.2" y2="-13458.1" gradientUnits="userSpaceOnUse">
<stop stop-color="#FF928E"/>
<stop offset="1" stop-color="#FE7062"/>
</linearGradient>
<linearGradient id="paint26_linear_2_320" x1="447.303" y1="1858.65" x2="358.563" y2="2242.14" gradientUnits="userSpaceOnUse">
<stop stop-color="#FEBBBA"/>
<stop offset="1" stop-color="#FF928E"/>
</linearGradient>
<linearGradient id="paint27_linear_2_320" x1="432.598" y1="1784.41" x2="476.336" y2="2041.8" gradientUnits="userSpaceOnUse">
<stop stop-color="#FEBBBA"/>
<stop offset="1" stop-color="#FF928E"/>
</linearGradient>
<linearGradient id="paint28_linear_2_320" x1="397.438" y1="1743.31" x2="529.271" y2="2207.16" gradientUnits="userSpaceOnUse">
<stop stop-color="#09005D"/>
<stop offset="1" stop-color="#1A0F91"/>
</linearGradient>
<linearGradient id="paint29_linear_2_320" x1="394.648" y1="2065.35" x2="386.868" y2="1884.61" gradientUnits="userSpaceOnUse">
<stop stop-color="#FEBBBA"/>
<stop offset="1" stop-color="#FF928E"/>
</linearGradient>
<linearGradient id="paint30_linear_2_320" x1="3243.95" y1="-1274.26" x2="2676.92" y2="-626.23" gradientUnits="userSpaceOnUse">
<stop stop-color="#FF928E"/>
<stop offset="1" stop-color="#FE7062"/>
</linearGradient>
<linearGradient id="paint31_linear_2_320" x1="14798.2" y1="-14044.1" x2="14231.2" y2="-13396" gradientUnits="userSpaceOnUse">
<stop stop-color="#FF928E"/>
<stop offset="1" stop-color="#FE7062"/>
</linearGradient>
<linearGradient id="paint32_linear_2_320" x1="1144.25" y1="1849.29" x2="601.209" y2="2544.06" gradientUnits="userSpaceOnUse">
<stop stop-color="#FEBBBA"/>
<stop offset="1" stop-color="#FF928E"/>
</linearGradient>
<linearGradient id="paint33_linear_2_320" x1="1216.93" y1="1906.09" x2="673.885" y2="2600.86" gradientUnits="userSpaceOnUse">
<stop stop-color="#FEBBBA"/>
<stop offset="1" stop-color="#FF928E"/>
</linearGradient>
<linearGradient id="paint34_linear_2_320" x1="1822.91" y1="1396.73" x2="3113.47" y2="3698.52" gradientUnits="userSpaceOnUse">
<stop stop-color="#4F52FF"/>
<stop offset="1" stop-color="#4042E2"/>
</linearGradient>
<linearGradient id="paint35_linear_2_320" x1="1834" y1="1913.86" x2="2196.18" y2="2494.3" gradientUnits="userSpaceOnUse">
<stop stop-color="#FEBBBA"/>
<stop offset="1" stop-color="#FF928E"/>
</linearGradient>
<linearGradient id="paint36_linear_2_320" x1="2401.68" y1="1797.74" x2="2524.09" y2="2546.94" gradientUnits="userSpaceOnUse">
<stop stop-color="#09005D"/>
<stop offset="1" stop-color="#1A0F91"/>
</linearGradient>
<linearGradient id="paint37_linear_2_320" x1="4604.92" y1="-83.4162" x2="4037.89" y2="564.616" gradientUnits="userSpaceOnUse">
<stop stop-color="#FF928E"/>
<stop offset="1" stop-color="#FE7062"/>
</linearGradient>
<linearGradient id="paint38_linear_2_320" x1="2280.06" y1="2315.37" x2="2347.97" y2="2164.58" gradientUnits="userSpaceOnUse">
<stop stop-color="#FEBBBA"/>
<stop offset="1" stop-color="#FF928E"/>
</linearGradient>
<linearGradient id="paint39_linear_2_320" x1="2276.57" y1="1948.9" x2="2414.37" y2="2247.24" gradientUnits="userSpaceOnUse">
<stop stop-color="#FEBBBA"/>
<stop offset="1" stop-color="#FF928E"/>
</linearGradient>
<linearGradient id="paint40_linear_2_320" x1="2337.15" y1="1808.29" x2="2459.57" y2="2557.48" gradientUnits="userSpaceOnUse">
<stop stop-color="#09005D"/>
<stop offset="1" stop-color="#1A0F91"/>
</linearGradient>
<linearGradient id="paint41_linear_2_320" x1="2341.4" y1="1918.95" x2="2479.2" y2="2217.29" gradientUnits="userSpaceOnUse">
<stop stop-color="#FEBBBA"/>
<stop offset="1" stop-color="#FF928E"/>
</linearGradient>
<linearGradient id="paint42_linear_2_320" x1="2612.51" y1="2784.53" x2="1887.38" y2="1709.4" gradientUnits="userSpaceOnUse">
<stop stop-color="#FEBBBA"/>
<stop offset="1" stop-color="#FF928E"/>
</linearGradient>
<linearGradient id="paint43_linear_2_320" x1="1796.33" y1="-420.749" x2="3016.47" y2="1755.45" gradientUnits="userSpaceOnUse">
<stop stop-color="#4F52FF"/>
<stop offset="1" stop-color="#4042E2"/>
</linearGradient>
<linearGradient id="paint44_linear_2_320" x1="3649.97" y1="-918.995" x2="3082.94" y2="-270.963" gradientUnits="userSpaceOnUse">
<stop stop-color="#FF928E"/>
<stop offset="1" stop-color="#FE7062"/>
</linearGradient>
<linearGradient id="paint45_linear_2_320" x1="2292.68" y1="548.978" x2="2135.73" y2="257.506" gradientUnits="userSpaceOnUse">
<stop stop-color="#FEBBBA"/>
<stop offset="1" stop-color="#FF928E"/>
</linearGradient>
<linearGradient id="paint46_linear_2_320" x1="2294.32" y1="548.093" x2="2137.37" y2="256.621" gradientUnits="userSpaceOnUse">
<stop stop-color="#FEBBBA"/>
<stop offset="1" stop-color="#FF928E"/>
</linearGradient>
<linearGradient id="paint47_linear_2_320" x1="1793.87" y1="325.946" x2="2135.68" y2="601.988" gradientUnits="userSpaceOnUse">
<stop stop-color="#FEBBBA"/>
<stop offset="1" stop-color="#FF928E"/>
</linearGradient>
<linearGradient id="paint48_linear_2_320" x1="1706.67" y1="433.923" x2="2048.48" y2="709.964" gradientUnits="userSpaceOnUse">
<stop stop-color="#FEBBBA"/>
<stop offset="1" stop-color="#FF928E"/>
</linearGradient>
<linearGradient id="paint49_linear_2_320" x1="2572.51" y1="603.994" x2="2283.92" y2="603.994" gradientUnits="userSpaceOnUse">
<stop stop-color="#FEBBBA"/>
<stop offset="1" stop-color="#FF928E"/>
</linearGradient>
<linearGradient id="paint50_linear_2_320" x1="3022.92" y1="14.6771" x2="2668.54" y2="262.74" gradientUnits="userSpaceOnUse">
<stop stop-color="#09005D"/>
<stop offset="1" stop-color="#1A0F91"/>
</linearGradient>
<linearGradient id="paint51_linear_2_320" x1="2297.25" y1="662.029" x2="2198.56" y2="662.029" gradientUnits="userSpaceOnUse">
<stop stop-color="#FEBBBA"/>
<stop offset="1" stop-color="#FF928E"/>
</linearGradient>
<linearGradient id="paint52_linear_2_320" x1="2073.56" y1="312.508" x2="2293.48" y2="275.653" gradientUnits="userSpaceOnUse">
<stop stop-color="#FEBBBA"/>
<stop offset="1" stop-color="#FF928E"/>
</linearGradient>
<linearGradient id="paint53_linear_2_320" x1="2176.05" y1="197.569" x2="2343.47" y2="-83.4543" gradientUnits="userSpaceOnUse">
<stop stop-color="#09005D"/>
<stop offset="1" stop-color="#1A0F91"/>
</linearGradient>
<linearGradient id="paint54_linear_2_320" x1="2070.31" y1="293.104" x2="2290.23" y2="256.249" gradientUnits="userSpaceOnUse">
<stop stop-color="#FEBBBA"/>
<stop offset="1" stop-color="#FF928E"/>
</linearGradient>
<linearGradient id="paint55_linear_2_320" x1="2327.7" y1="287.915" x2="2495.12" y2="6.89105" gradientUnits="userSpaceOnUse">
<stop stop-color="#09005D"/>
<stop offset="1" stop-color="#1A0F91"/>
</linearGradient>
<linearGradient id="paint56_linear_2_320" x1="1051.29" y1="-330.545" x2="-120.568" y2="1759.54" gradientUnits="userSpaceOnUse">
<stop stop-color="#4F52FF"/>
<stop offset="1" stop-color="#4042E2"/>
</linearGradient>
<linearGradient id="paint57_linear_2_320" x1="-20245.5" y1="-23025.6" x2="-19678.4" y2="-22377.6" gradientUnits="userSpaceOnUse">
<stop stop-color="#FF928E"/>
<stop offset="1" stop-color="#FE7062"/>
</linearGradient>
<linearGradient id="paint58_linear_2_320" x1="481.199" y1="504.202" x2="601.522" y2="327.257" gradientUnits="userSpaceOnUse">
<stop stop-color="#FEBBBA"/>
<stop offset="1" stop-color="#FF928E"/>
</linearGradient>
<linearGradient id="paint59_linear_2_320" x1="535.912" y1="332.416" x2="637.023" y2="287.927" gradientUnits="userSpaceOnUse">
<stop stop-color="#FEBBBA"/>
<stop offset="1" stop-color="#FF928E"/>
</linearGradient>
<linearGradient id="paint60_linear_2_320" x1="330.533" y1="400.624" x2="661.166" y2="164.025" gradientUnits="userSpaceOnUse">
<stop stop-color="#09005D"/>
<stop offset="1" stop-color="#1A0F91"/>
</linearGradient>
<linearGradient id="paint61_linear_2_320" x1="526.185" y1="310.31" x2="627.296" y2="265.821" gradientUnits="userSpaceOnUse">
<stop stop-color="#FEBBBA"/>
<stop offset="1" stop-color="#FF928E"/>
</linearGradient>
<linearGradient id="paint62_linear_2_320" x1="-20095.3" y1="-23157.1" x2="-19528.3" y2="-22509" gradientUnits="userSpaceOnUse">
<stop stop-color="#FF928E"/>
<stop offset="1" stop-color="#FE7062"/>
</linearGradient>
<linearGradient id="paint63_linear_2_320" x1="2769.31" y1="-1689.58" x2="2202.28" y2="-1041.54" gradientUnits="userSpaceOnUse">
<stop stop-color="#FF928E"/>
<stop offset="1" stop-color="#FE7062"/>
</linearGradient>
<linearGradient id="paint64_linear_2_320" x1="729.059" y1="717.246" x2="618.409" y2="1008.43" gradientUnits="userSpaceOnUse">
<stop stop-color="#FEBBBA"/>
<stop offset="1" stop-color="#FF928E"/>
</linearGradient>
<linearGradient id="paint65_linear_2_320" x1="591.772" y1="665.077" x2="481.122" y2="956.261" gradientUnits="userSpaceOnUse">
<stop stop-color="#FEBBBA"/>
<stop offset="1" stop-color="#FF928E"/>
</linearGradient>
<linearGradient id="paint66_linear_2_320" x1="351.625" y1="770.812" x2="408.891" y2="844.579" gradientUnits="userSpaceOnUse">
<stop stop-color="#09005D"/>
<stop offset="1" stop-color="#1A0F91"/>
</linearGradient>
<linearGradient id="paint67_linear_2_320" x1="308.838" y1="804.029" x2="366.104" y2="877.795" gradientUnits="userSpaceOnUse">
<stop stop-color="#09005D"/>
<stop offset="1" stop-color="#1A0F91"/>
</linearGradient>
<linearGradient id="paint68_linear_2_320" x1="-18.7343" y1="284.903" x2="279.953" y2="694.966" gradientUnits="userSpaceOnUse">
<stop stop-color="#09005D"/>
<stop offset="1" stop-color="#1A0F91"/>
</linearGradient>
<linearGradient id="paint69_linear_2_320" x1="301.73" y1="656.288" x2="243.493" y2="1014.44" gradientUnits="userSpaceOnUse">
<stop stop-color="#09005D"/>
<stop offset="1" stop-color="#1A0F91"/>
</linearGradient>
<linearGradient id="paint70_linear_2_320" x1="327.948" y1="864.623" x2="156.15" y2="977.214" gradientUnits="userSpaceOnUse">
<stop stop-color="#09005D"/>
<stop offset="1" stop-color="#1A0F91"/>
</linearGradient>
</defs>
</svg>
