<svg width="2225" height="1382" viewBox="0 0 2225 1382" fill="none" xmlns="http://www.w3.org/2000/svg">
<path d="M2127.27 746.98C2089.81 708.88 2045.51 671.72 2033.96 619.991C2013.97 530.476 2099.45 454.15 2127.43 366.724C2146.78 306.272 2136.79 237.444 2101.03 184.699C2065.26 131.954 2004.44 96.3615 1940.18 90.5725C1829.6 80.6105 1721.39 153.772 1612.46 132.585C1525.25 115.62 1456.33 40.7785 1367.79 32.7615C1263.61 23.3275 1177.17 107.772 1077.69 139.566C958.691 177.595 829.676 137.852 712.683 94.2385C595.69 50.6255 472.598 1.96653 349.276 22.8395C212.004 46.0725 96.9088 163.523 78.5488 299.105C60.3538 433.472 212.955 541.333 83.0548 702.671C42.4608 753.089 15.4598 823.287 33.4048 885.095C50.8408 945.15 125.04 983.132 125.58 1045.58C126.006 1094.87 78.6688 1134.1 74.8558 1183.25C71.5828 1225.45 102.488 1264.45 140.467 1284.45C178.446 1304.45 222.512 1309.34 265.359 1313.87L252.729 1327.2C468.544 1346.22 685.702 1341.99 902.342 1337.74C1243.98 1331.03 1585.63 1324.33 1927.27 1317.63C1962.38 1316.94 1998.35 1316.09 2031.06 1303.55C2063.78 1291.02 2093.12 1264.18 2098.1 1230.05C2106.58 1171.95 2044.74 1121.54 2050.46 1063.12C2057.76 988.53 2164.73 959.753 2185.09 887.53C2199.47 836.491 2164.73 785.081 2127.27 746.98Z" fill="url(#paint0_linear_2_6)"/>
<g opacity="0.72">
<path d="M1769.16 77.6565C1797.84 163.507 1944.35 669.923 1493.83 892.765C1493.83 892.765 1311.55 584.203 1756.13 75.0245C1760.02 70.5705 1767.28 72.0485 1769.16 77.6565Z" fill="url(#paint1_linear_2_6)"/>
<path opacity="0.86" d="M1741.22 164.108C1738.97 192.965 1736.13 221.732 1733.03 250.489C1729.93 279.24 1726.49 307.956 1722.72 336.629C1715.17 393.974 1706.35 451.166 1695.76 508.056C1685.14 564.931 1672.85 621.548 1657.48 677.41C1649.88 705.362 1641.27 733.059 1631.6 760.409C1621.89 787.739 1611.09 814.748 1598.14 840.843C1597.19 842.769 1594.85 843.555 1592.93 842.601C1591 841.646 1590.22 839.311 1591.17 837.385L1591.18 837.363L1591.19 837.347C1604.11 811.72 1614.99 785.034 1624.8 757.972C1634.57 730.888 1643.32 703.401 1651.06 675.62C1666.72 620.101 1679.35 563.712 1690.32 507.024C1701.25 450.318 1710.43 393.266 1718.34 336.038C1722.29 307.424 1725.91 278.761 1729.2 250.061C1732.47 221.363 1735.5 192.616 1737.93 163.855L1737.93 163.84C1738.01 162.933 1738.81 162.259 1739.71 162.336C1740.62 162.413 1741.29 163.205 1741.22 164.108Z" fill="white"/>
</g>
<path d="M2115.02 3.62051C2111.89 -2.52949 2099.7 -0.371477 2098.59 6.53552C2087.87 73.3145 2052.79 248.347 1966.88 354.875C1827.01 528.327 1760.14 777.481 1890.28 873.115C1890.28 873.115 2455.71 673.77 2115.02 3.62051Z" fill="#91B3FA"/>
<path d="M2115.77 95.6575C2115.96 97.8675 2115.88 99.6515 2115.92 101.614L2115.85 107.37C2115.76 111.202 2115.68 115.036 2115.54 118.865C2115.27 126.525 2114.88 134.176 2114.45 141.826C2113.61 157.129 2112.4 172.404 2111.12 187.676C2108.38 218.202 2104.74 248.647 2100.4 278.992C2091.83 339.706 2079.53 399.885 2064.2 459.277C2056.53 488.978 2047.52 518.326 2037.85 547.436L2030.31 569.178C2027.77 576.416 2024.96 583.557 2022.3 590.751L2018.25 601.522L2013.91 612.181C2010.99 619.272 2008.23 626.434 2005.11 633.445C1992.94 661.624 1979.36 689.173 1964.76 716.154C1957.08 729.441 1949.59 742.833 1941.19 755.678C1933.26 768.811 1924.2 781.211 1915.5 793.823C1915.19 794.265 1914.59 794.376 1914.15 794.071C1913.71 793.769 1913.59 793.17 1913.89 792.73L1913.91 792.701C1930.96 767.309 1946.84 741.192 1961.22 714.234C1975.41 687.186 1988.56 659.603 2000.3 631.406C2011.94 603.174 2022.88 574.643 2032.44 545.626C2041.99 516.613 2050.65 487.308 2058.51 457.782C2066.28 428.231 2073.24 398.466 2079.41 368.531L2083.87 346.046L2088 323.497C2090.65 308.447 2093.26 293.382 2095.56 278.271C2100.26 248.06 2104.13 217.723 2107.35 187.313C2108.9 172.103 2110.39 156.882 2111.51 141.632C2112.08 134.009 2112.59 126.38 2113.03 118.749C2113.27 114.935 2113.43 111.118 2113.62 107.303L2113.83 101.583C2113.86 99.7185 2113.93 97.6735 2113.87 96.0615L2113.86 95.7775C2113.84 95.2485 2114.25 94.8025 2114.78 94.7815C2115.29 94.7605 2115.73 95.1505 2115.77 95.6575Z" fill="#BDD0FB"/>
<path d="M1626.53 1320.15C1626.53 1320.15 1630.48 1200.51 1752.08 1089.21C1864.9 985.951 2142.02 748.402 2206.91 609.487C2209.78 603.333 2219.2 606.008 2219.18 612.992C2219.04 687.9 2204.01 874.438 2073.01 1050.2C1904.07 1276.86 1626.53 1320.15 1626.53 1320.15Z" fill="#BDD0FB"/>
<path d="M2161.83 739.842C2159.61 755.695 2155.37 771.212 2150.29 786.386L2148.43 792.1L2146.34 797.732L2142.14 808.993C2140.65 812.712 2139.02 816.375 2137.47 820.071C2135.88 823.747 2134.4 827.482 2132.64 831.081L2127.36 841.886L2124.72 847.29C2123.86 849.1 2122.96 850.896 2121.97 852.636C2118.09 859.654 2114.29 866.719 2110.35 873.707L2097.75 894.212L2096.17 896.776L2094.48 899.26L2091.07 904.221L2084.26 914.148C2065.61 940.24 2045.38 965.314 2022.85 988.192L2014.51 996.869L2010.34 1001.21C2008.94 1002.65 2007.43 1003.97 2005.98 1005.36L1988.4 1021.8C1985.46 1024.53 1982.56 1027.31 1979.59 1030L1970.54 1037.87L1952.44 1053.61C1946.4 1058.84 1940.25 1063.96 1934.16 1069.14C1928.04 1074.28 1922 1079.52 1915.8 1084.57C1903.49 1094.77 1891.13 1104.91 1878.63 1114.88C1866.2 1124.94 1853.62 1134.78 1841.08 1144.69L1803.15 1173.99C1777.84 1193.48 1752.51 1212.91 1727.93 1233.18C1721.71 1238.17 1715.77 1243.45 1709.73 1248.65C1706.68 1251.21 1703.81 1253.96 1700.89 1256.66C1698 1259.39 1695.02 1262.04 1692.19 1264.82C1686.68 1270.53 1680.91 1276.04 1675.84 1282.14L1671.9 1286.62C1671.26 1287.38 1670.57 1288.09 1669.96 1288.88L1668.17 1291.25L1660.98 1300.75L1660.94 1300.79C1660.62 1301.22 1660.01 1301.31 1659.58 1300.98C1659.17 1300.67 1659.07 1300.09 1659.35 1299.67C1668.23 1286.27 1678.62 1273.95 1689.76 1262.4C1692.55 1259.52 1695.47 1256.77 1698.32 1253.95C1701.19 1251.16 1704.01 1248.3 1707.01 1245.65C1712.95 1240.27 1718.81 1234.79 1724.92 1229.63C1749.15 1208.69 1774.35 1189.01 1799.32 1169.1C1824.33 1149.23 1849.34 1129.4 1874.09 1109.26C1898.87 1089.16 1923.31 1068.66 1947.55 1047.92L1965.59 1032.21L1974.61 1024.35L1983.37 1016.28L2000.88 1000.09C2002.32 998.726 2003.83 997.428 2005.22 996.008L2009.37 991.737L2017.68 983.195L2025.99 974.653L2030.14 970.382C2031.5 968.931 2032.77 967.403 2034.1 965.926L2049.86 948.049L2053.79 943.57L2057.49 938.903L2064.89 929.566L2072.3 920.228C2073.57 918.696 2074.71 917.076 2075.86 915.452L2079.34 910.616L2086.3 900.944L2089.79 896.107L2091.52 893.684L2093.14 891.181L2106.09 871.156C2110.15 864.326 2114.07 857.413 2118.08 850.54C2119.11 848.836 2120.03 847.077 2120.93 845.303L2123.67 840.006L2129.15 829.409C2130.98 825.878 2132.52 822.206 2134.25 818.626C2135.92 815.017 2137.66 811.436 2139.27 807.798L2143.85 796.774L2146.13 791.251L2148.18 785.646C2149.51 781.895 2151.01 778.195 2152.2 774.396C2153.4 770.6 2154.67 766.821 2155.82 763.005C2158 755.348 2160.21 747.665 2161.59 739.806C2161.6 739.74 2161.66 739.694 2161.72 739.703C2161.79 739.715 2161.84 739.779 2161.83 739.842Z" fill="url(#paint2_linear_2_6)"/>
<path d="M188.588 269.183C159.906 355.033 13.3959 861.449 463.914 1084.29C463.914 1084.29 646.19 775.729 201.611 266.55C197.722 262.095 190.462 263.574 188.588 269.183Z" fill="#91B3FA"/>
<path d="M219.813 355.381C222.243 384.142 225.272 412.889 228.546 441.587C231.834 470.288 235.453 498.95 239.407 527.564C247.312 584.792 256.495 641.845 267.426 698.55C278.398 755.238 291.022 811.629 306.685 867.146C314.427 894.927 323.173 922.416 332.945 949.498C342.754 976.56 353.637 1003.25 366.556 1028.87L366.564 1028.89C367.531 1030.81 366.76 1033.15 364.841 1034.11C362.922 1035.08 360.582 1034.31 359.614 1032.39L359.603 1032.37C346.66 1006.27 335.855 979.265 326.147 951.935C316.478 924.584 307.865 896.889 300.269 868.937C284.898 813.074 272.61 756.457 261.983 699.582C251.398 642.692 242.572 585.5 235.028 528.155C231.255 499.482 227.818 470.765 224.712 442.014C221.62 413.257 218.777 384.491 216.526 355.634C216.455 354.727 217.134 353.933 218.041 353.862C218.945 353.792 219.735 354.464 219.812 355.366L219.813 355.381Z" fill="#BDD0FB"/>
<path d="M626.692 1337.46C626.692 1337.46 620.834 1213.6 492.748 1091.45C373.906 978.107 82.23 716.342 12.716 568.98C9.63702 562.452 -0.114974 564.662 0.00102608 571.88C1.24903 649.295 19.611 842.936 158.423 1032.26C337.429 1276.41 626.692 1337.46 626.692 1337.46Z" fill="#BDD0FB"/>
<path d="M61.7482 706.305C63.3102 714.701 65.7962 722.892 68.1992 731.069L72.1962 743.223C73.5612 747.261 75.1512 751.224 76.6172 755.225C77.3742 757.217 78.0912 759.224 78.8792 761.203L81.3642 767.095L86.3362 778.87L91.7972 790.428C93.6722 794.253 95.3052 798.189 97.3492 801.932C112.662 832.357 130.444 861.544 150.671 888.93C170.775 916.375 192.311 942.83 215.959 967.324L224.705 976.618L229.092 981.253L233.691 985.68L252.082 1003.39C255.168 1006.32 258.164 1009.33 261.324 1012.2L270.792 1020.83L289.728 1038.07C315.183 1060.84 340.821 1083.4 366.817 1105.56C392.787 1127.75 419.005 1149.65 445.225 1171.59C471.412 1193.57 497.822 1215.33 523.236 1238.32C529.649 1243.99 535.79 1249.98 542.021 1255.86C545.171 1258.77 548.129 1261.88 551.151 1264.92C554.143 1268 557.215 1270.99 560.138 1274.13C571.854 1286.67 582.801 1299.98 592.235 1314.35C592.53 1314.8 592.405 1315.4 591.955 1315.7C591.522 1315.98 590.947 1315.88 590.641 1315.47L590.609 1315.42L582.992 1305.18L581.091 1302.63C580.452 1301.78 579.722 1301 579.042 1300.18L574.893 1295.33C569.531 1288.73 563.476 1282.72 557.666 1276.51C554.694 1273.46 551.566 1270.56 548.525 1267.58C545.452 1264.63 542.45 1261.62 539.244 1258.8C532.905 1253.1 526.671 1247.3 520.143 1241.8C494.357 1219.46 467.806 1197.94 441.282 1176.38L401.518 1143.97C388.373 1133.03 375.171 1122.15 362.142 1111.06C349.044 1100.05 336.066 1088.9 323.157 1077.67C316.664 1072.1 310.307 1066.37 303.895 1060.7L284.713 1043.65L265.723 1026.38L256.228 1017.74C253.059 1014.87 250.05 1011.79 246.954 1008.82L228.503 990.861L223.891 986.371L219.489 981.673L210.714 972.247L201.941 962.822C199.04 959.66 196.014 956.61 193.329 953.254L176.79 933.51C171.129 927.051 166.182 920.012 160.934 913.221C155.795 906.345 150.395 899.665 145.73 892.444C125.929 864.392 108.633 834.584 93.8742 803.622C91.8992 799.815 90.3232 795.814 88.5882 791.894L83.4892 780.087L78.8872 768.075L76.5912 762.072C75.8662 760.056 75.2122 758.013 74.5192 755.986C68.8902 739.812 64.1482 723.268 61.5102 706.341C61.5002 706.275 61.5452 706.214 61.6102 706.204C61.6752 706.192 61.7362 706.241 61.7482 706.305Z" fill="url(#paint3_linear_2_6)"/>
<path d="M1084.69 1010.73L1050.33 1318.89H1448.96L1397.04 1010.73H1084.69Z" fill="url(#paint4_linear_2_6)"/>
<path d="M343.711 258.569V1027.61C343.711 1090.87 394.125 1142.61 457.367 1144.24C738.258 1151.48 1720.68 1169.05 1988.07 1165.1C2034.03 1164.43 2071.26 1127.65 2072.58 1081.71C2077.74 903.048 2086.11 473.434 2055.12 273.981C2048.6 231.978 2013.14 200.57 1970.66 199.21C1735.31 191.681 693.876 167.774 426.611 173.776C380.517 174.812 343.711 212.464 343.711 258.569Z" fill="url(#paint5_linear_2_6)"/>
<path d="M391.966 254.826V985.467C391.966 1022.4 421.617 1052.5 458.549 1053.05L1949.6 1071.47C1986.22 1072.02 2016.23 1042.56 2016.37 1005.94L2018.86 281.829C2018.96 255.645 1998.1 234.19 1971.92 233.553L445.362 202.713C416.085 202.001 391.966 225.54 391.966 254.826Z" fill="url(#paint6_linear_2_6)"/>
<path d="M2027.59 1101.3C2027.58 1101.3 2027.57 1101.3 2027.56 1101.3L391.933 1073.43C390.858 1073.41 390.002 1072.52 390.02 1071.45C390.038 1070.37 390.88 1069.59 391.999 1069.54L2027.63 1097.4C2028.7 1097.42 2029.56 1098.31 2029.54 1099.38C2029.52 1100.45 2028.65 1101.3 2027.59 1101.3Z" fill="#91B3FA"/>
<path d="M391.966 254.826V985.467C391.966 1022.4 421.617 1052.5 458.549 1053.05L1949.6 1071.47C1986.22 1072.02 2016.23 1042.56 2016.37 1005.94L2018.86 281.829C2018.96 255.645 1998.1 234.19 1971.92 233.553L445.362 202.713C416.085 202.001 391.966 225.54 391.966 254.826Z" fill="url(#paint7_linear_2_6)"/>
<path d="M1225.92 1135.33C1215.46 1135.33 1206.95 1126.83 1206.95 1116.37C1206.95 1105.91 1215.46 1097.41 1225.92 1097.41C1236.37 1097.41 1244.88 1105.91 1244.88 1116.37C1244.88 1126.83 1236.37 1135.33 1225.92 1135.33ZM1225.92 1101.3C1217.61 1101.3 1210.84 1108.06 1210.84 1116.37C1210.84 1124.68 1217.61 1131.44 1225.92 1131.44C1234.23 1131.44 1240.99 1124.68 1240.99 1116.37C1240.99 1108.06 1234.23 1101.3 1225.92 1101.3Z" fill="#91B3FA"/>
<path d="M1866.77 58.8745L1107.79 55.2255C1098.64 55.1425 1091.21 65.2605 1091.28 77.7075L1092.96 377.999C1093.03 390.518 1100.65 400.508 1109.85 400.132L1864.51 383.97C1873.29 383.611 1880.3 373.903 1880.41 361.953L1883.06 81.4725C1883.18 69.0975 1875.87 58.9575 1866.77 58.8745Z" fill="#7D97F4"/>
<path d="M1109.37 380.873C1107.97 380.873 1106.87 379.545 1106.86 377.85L1105.18 77.5615C1105.18 76.7725 1105.39 76.0815 1105.81 75.5035C1106.42 74.6695 1107.17 74.4945 1107.69 74.4945L1866.68 78.1445C1867.2 78.1485 1867.93 78.3305 1868.54 79.1665C1868.96 79.7475 1869.16 80.4375 1869.16 81.2205L1866.51 361.7C1866.5 363.361 1865.46 364.653 1864.1 364.708H1864.09L1109.37 380.873ZM1107.68 76.4405C1107.63 76.4405 1107.54 76.4405 1107.38 76.6515C1107.21 76.8895 1107.13 77.1835 1107.13 77.5505L1108.81 377.839C1108.81 378.504 1109.17 378.928 1109.35 378.928L1864.04 362.763C1864.24 362.748 1864.56 362.315 1864.57 361.682L1867.21 81.2045C1867.21 80.8395 1867.13 80.5465 1866.96 80.3055C1866.8 80.0925 1866.71 80.0905 1866.67 80.0905L1107.68 76.4405Z" fill="url(#paint8_linear_2_6)"/>
<g opacity="0.6">
<path d="M1175.5 214.047H1138.56V355.195H1175.5V214.047Z" fill="url(#paint9_linear_2_6)"/>
<path d="M1237.21 262.557H1200.28V355.195H1237.21V262.557Z" fill="url(#paint10_linear_2_6)"/>
<path d="M1298.93 142.667H1262V355.195H1298.93V142.667Z" fill="url(#paint11_linear_2_6)"/>
<path d="M1360.65 304.138H1323.71V355.195H1360.65V304.138Z" fill="url(#paint12_linear_2_6)"/>
<path d="M1422.37 171.081H1385.43V355.195H1422.37V171.081Z" fill="url(#paint13_linear_2_6)"/>
<path d="M1484.08 202.959H1447.15V355.195H1484.08V202.959Z" fill="url(#paint14_linear_2_6)"/>
<path d="M1545.8 237.609H1508.86V355.195H1545.8V237.609Z" fill="url(#paint15_linear_2_6)"/>
<path d="M1607.52 99.7005H1570.58V355.195H1607.52V99.7005Z" fill="url(#paint16_linear_2_6)"/>
<path d="M1669.23 126.728H1632.3V355.195H1669.23V126.728Z" fill="url(#paint17_linear_2_6)"/>
<path d="M1730.95 167.615H1694.01V355.195H1730.95V167.615Z" fill="url(#paint18_linear_2_6)"/>
<path d="M1792.67 308.876H1755.73V355.195H1792.67V308.876Z" fill="url(#paint19_linear_2_6)"/>
<path d="M1854.38 218.898H1817.45V355.195H1854.38V218.898Z" fill="url(#paint20_linear_2_6)"/>
</g>
<path d="M1866.77 463.084L1107.79 459.435C1098.64 459.352 1091.21 469.47 1091.28 481.917L1092.96 782.208C1093.03 794.727 1100.65 804.717 1109.85 804.341L1864.51 788.179C1873.29 787.82 1880.3 778.112 1880.41 766.162L1883.06 485.682C1883.18 473.307 1875.87 463.167 1866.77 463.084Z" fill="url(#paint21_linear_2_6)"/>
<path opacity="0.5" d="M1109.37 785.082C1107.97 785.082 1106.87 783.754 1106.86 782.059L1105.18 481.771C1105.18 480.984 1105.39 480.293 1105.81 479.713C1106.42 478.879 1107.17 478.704 1107.69 478.704L1866.68 482.354C1867.2 482.358 1867.93 482.54 1868.54 483.376C1868.95 483.957 1869.16 484.647 1869.16 485.43L1866.51 765.909C1866.5 767.57 1865.46 768.862 1864.1 768.917H1864.09L1109.37 785.082ZM1107.68 480.65C1107.63 480.65 1107.54 480.65 1107.38 480.861C1107.21 481.097 1107.13 481.393 1107.13 481.76L1108.81 782.048C1108.81 782.713 1109.17 783.137 1109.35 783.137L1864.04 766.972C1864.24 766.959 1864.56 766.525 1864.57 765.891L1867.21 485.414C1867.21 485.049 1867.13 484.757 1866.96 484.515C1866.8 484.302 1866.71 484.3 1866.67 484.3L1107.68 480.65Z" fill="white"/>
<path opacity="0.73" d="M1242.35 671.222C1285.75 671.222 1320.93 636.04 1320.93 592.642C1320.93 549.243 1285.75 514.062 1242.35 514.062C1198.95 514.062 1163.77 549.243 1163.77 592.642C1163.77 636.04 1198.95 671.222 1242.35 671.222Z" fill="white"/>
<path opacity="0.73" d="M1436.97 671.222C1480.37 671.222 1515.55 636.04 1515.55 592.642C1515.55 549.243 1480.37 514.062 1436.97 514.062C1393.57 514.062 1358.39 549.243 1358.39 592.642C1358.39 636.04 1393.57 671.222 1436.97 671.222Z" fill="white"/>
<path opacity="0.73" d="M1632.27 673.794C1675.67 673.794 1710.85 638.612 1710.85 595.214C1710.85 551.815 1675.67 516.634 1632.27 516.634C1588.87 516.634 1553.69 551.815 1553.69 595.214C1553.69 638.612 1588.87 673.794 1632.27 673.794Z" fill="white"/>
<path d="M1289.04 576.035C1291.48 581.949 1292.83 588.423 1292.83 595.214C1292.83 623.09 1270.23 645.688 1242.35 645.688C1214.48 645.688 1191.88 623.09 1191.88 595.214C1191.88 567.338 1214.48 544.74 1242.35 544.74C1243.21 544.74 1244.06 544.763 1244.9 544.804V532.009C1244.05 531.976 1243.21 531.954 1242.35 531.954C1207.41 531.954 1179.09 560.276 1179.09 595.214C1179.09 630.152 1207.41 658.474 1242.35 658.474C1277.29 658.474 1305.61 630.152 1305.61 595.214C1305.61 586.611 1303.89 578.412 1300.78 570.935L1289.04 576.035Z" fill="url(#paint22_linear_2_6)"/>
<path d="M1463.68 637.918C1455.9 642.833 1446.68 645.688 1436.79 645.688C1408.91 645.688 1386.32 623.09 1386.32 595.214C1386.32 567.338 1408.91 544.74 1436.79 544.74C1437.64 544.74 1438.49 544.763 1439.34 544.804V532.009C1438.49 531.976 1437.64 531.954 1436.79 531.954C1401.85 531.954 1373.53 560.276 1373.53 595.214C1373.53 630.152 1401.85 658.474 1436.79 658.474C1448.98 658.474 1460.37 655.021 1470.03 649.044L1463.68 637.918Z" fill="url(#paint23_linear_2_6)"/>
<path d="M1675.06 623.592C1665.98 636.928 1650.67 645.688 1633.32 645.688C1605.44 645.688 1582.85 623.09 1582.85 595.214C1582.85 567.338 1605.44 544.74 1633.32 544.74C1634.17 544.74 1635.02 544.763 1635.87 544.804V532.009C1635.02 531.976 1634.17 531.954 1633.32 531.954C1598.38 531.954 1570.06 560.276 1570.06 595.214C1570.06 630.152 1598.38 658.474 1633.32 658.474C1654.93 658.474 1674.01 647.633 1685.42 631.094L1675.06 623.592Z" fill="url(#paint24_linear_2_6)"/>
<path opacity="0.5" d="M1306.94 704.508H1178.89C1170.85 704.508 1164.33 711.024 1164.33 719.062C1164.33 727.099 1170.85 733.615 1178.89 733.615H1306.94C1314.98 733.615 1321.49 727.099 1321.49 719.062C1321.49 711.024 1314.98 704.508 1306.94 704.508Z" fill="white"/>
<path opacity="0.5" d="M1502.23 704.508H1374.18C1366.14 704.508 1359.63 711.024 1359.63 719.062C1359.63 727.099 1366.14 733.615 1374.18 733.615H1502.23C1510.27 733.615 1516.79 727.099 1516.79 719.062C1516.79 711.024 1510.27 704.508 1502.23 704.508Z" fill="white"/>
<path opacity="0.5" d="M1568.24 733.615H1696.29C1704.33 733.615 1710.85 727.099 1710.85 719.062C1710.85 711.024 1704.33 704.508 1696.29 704.508H1568.24C1560.2 704.508 1553.69 711.024 1553.69 719.062C1553.69 727.099 1560.2 733.615 1568.24 733.615Z" fill="white"/>
<path d="M562.194 742.735H987.645C1001.21 742.735 1012.21 731.737 1012.21 718.17V80.9425C1012.21 67.4015 1001.25 56.4135 987.711 56.3775L558.857 55.2265C545.213 55.1905 534.154 66.2785 534.227 79.9225L537.629 718.301C537.702 731.816 548.679 742.735 562.194 742.735Z" fill="#7D97F4"/>
<path d="M583.043 86.6696L963.465 89.0115C977.216 89.0965 988.301 100.302 988.237 114.053L985.582 685.987C985.519 699.531 974.653 710.546 961.111 710.793L591.484 717.537C577.679 717.789 566.3 706.771 566.106 692.965L557.966 111.945C557.771 97.9825 569.08 86.5836 583.043 86.6696Z" fill="#BDD0FB"/>
<path d="M598.51 118.712V121.335C598.51 125.453 601.849 128.792 605.967 128.792H899.08C903.198 128.792 906.537 125.453 906.537 121.335V118.712C906.537 114.594 903.199 111.255 899.08 111.255H605.967C601.849 111.256 598.51 114.594 598.51 118.712Z" fill="url(#paint25_linear_2_6)"/>
<path d="M631.215 151.701C631.427 155.604 634.617 158.682 638.525 158.753L894.867 163.425C899.038 163.501 902.46 160.141 902.46 155.97V155.361C902.46 151.289 899.193 147.97 895.121 147.905L638.779 143.842C634.456 143.773 630.981 147.384 631.215 151.701Z" fill="url(#paint26_linear_2_6)"/>
<path d="M605.05 698.354C593.323 698.354 583.66 688.888 583.452 677.134L575.134 209.363C574.922 197.476 584.423 187.614 596.312 187.382L942.424 180.644C948.222 180.572 953.664 182.673 957.824 186.677C961.984 190.681 964.334 196.062 964.443 201.833L973.364 672.18C973.474 677.979 971.312 683.465 967.275 687.628C963.239 691.791 957.824 694.12 952.025 694.19L605.309 698.352C605.224 698.352 605.136 698.354 605.05 698.354ZM942.852 188.423C942.76 188.423 942.669 188.425 942.576 188.427L596.464 195.165C588.858 195.311 582.78 201.62 582.915 209.226L591.233 676.998C591.367 684.515 597.549 690.571 605.051 690.571C605.106 690.571 605.161 690.571 605.216 690.569L951.932 686.408C955.641 686.364 959.105 684.873 961.687 682.211C964.269 679.547 965.653 676.037 965.582 672.328L956.661 201.981C956.591 198.289 955.087 194.846 952.427 192.286C949.833 189.789 946.441 188.423 942.852 188.423Z" fill="url(#paint27_linear_2_6)"/>
<path d="M961.116 235.488H583.516C581.367 235.488 579.625 233.745 579.625 231.596C579.625 229.447 581.367 227.704 583.516 227.704H961.116C963.265 227.704 965.007 229.446 965.007 231.596C965.007 233.745 963.265 235.488 961.116 235.488Z" fill="url(#paint28_linear_2_6)"/>
<path d="M782.929 607.815C701.112 607.815 634.549 541.252 634.549 459.434C634.549 377.617 701.112 311.054 782.929 311.054C864.747 311.054 931.309 377.617 931.309 459.434C931.309 541.252 864.746 607.815 782.929 607.815ZM782.929 357.587C726.771 357.587 681.082 403.275 681.082 459.434C681.082 515.593 726.771 561.282 782.929 561.282C839.088 561.282 884.776 515.593 884.776 459.434C884.776 403.275 839.088 357.587 782.929 357.587Z" fill="url(#paint29_linear_2_6)"/>
<path d="M930.895 448.333L884.492 451.815C884.679 454.331 884.777 456.871 884.777 459.434C884.777 471.569 882.64 483.214 878.728 494.016L922.498 509.816C928.196 494.079 931.31 477.114 931.31 459.434C931.309 455.7 931.167 451.999 930.895 448.333Z" fill="url(#paint30_linear_2_6)"/>
<path d="M782.929 561.282C726.771 561.282 681.082 515.593 681.082 459.434C681.082 403.275 726.771 357.587 782.929 357.587C791.485 357.587 799.796 358.653 807.741 360.649L819.077 315.515C807.501 312.607 795.394 311.054 782.929 311.054C701.112 311.054 634.549 377.617 634.549 459.434C634.549 541.252 701.112 607.815 782.929 607.815C847.067 607.815 901.825 566.908 922.498 509.815L878.728 494.014C864.538 533.202 826.953 561.282 782.929 561.282Z" fill="url(#paint31_linear_2_6)"/>
<path d="M884.492 451.815L930.895 448.333C929.468 429.136 924.37 410.948 916.306 394.461L874.478 414.837C880.013 426.153 883.513 438.638 884.492 451.815Z" fill="url(#paint32_linear_2_6)"/>
<mask id="mask0_2_6" style="mask-type:luminance" maskUnits="userSpaceOnUse" x="391" y="202" width="1628" height="870">
<path d="M391.966 254.826V985.467C391.966 1022.4 421.617 1052.5 458.549 1053.05L1949.6 1071.47C1986.22 1072.02 2016.23 1042.56 2016.37 1005.94L2018.86 281.829C2018.96 255.645 1998.1 234.19 1971.92 233.553L445.362 202.713C416.085 202.001 391.966 225.54 391.966 254.826Z" fill="white"/>
</mask>
<g mask="url(#mask0_2_6)">
<path d="M575.28 1480.27H1000.73C1014.3 1480.27 1025.3 1469.27 1025.3 1455.7V818.477C1025.3 804.936 1014.34 793.949 1000.8 793.912L571.944 792.761C558.3 792.724 547.241 803.813 547.314 817.457L550.716 1455.84C550.788 1469.35 561.764 1480.27 575.28 1480.27Z" fill="#91B3FA"/>
<path d="M596.128 824.203L976.55 826.545C990.301 826.63 1001.39 837.835 1001.32 851.586L998.667 1423.52C998.604 1437.06 987.738 1448.08 974.196 1448.33L604.569 1455.07C590.764 1455.32 579.385 1444.3 579.191 1430.5L571.051 849.479C570.856 835.516 582.166 824.117 596.128 824.203Z" fill="#BDD0FB"/>
<path d="M611.596 856.247V858.87C611.596 862.988 614.935 866.327 619.053 866.327H912.166C916.284 866.327 919.623 862.988 919.623 858.87V856.247C919.623 852.129 916.285 848.79 912.166 848.79H619.053C614.934 848.79 611.596 852.129 611.596 856.247Z" fill="url(#paint33_linear_2_6)"/>
<path d="M644.3 889.234C644.511 893.137 647.702 896.215 651.61 896.286L907.952 900.958C912.123 901.034 915.545 897.674 915.545 893.502V892.893C915.545 888.821 912.278 885.502 908.206 885.437L651.864 881.374C647.541 881.307 644.066 884.917 644.3 889.234Z" fill="url(#paint34_linear_2_6)"/>
<path d="M618.132 1435.89C606.408 1435.89 596.747 1426.42 596.538 1414.67L588.22 946.897C588.008 935.01 597.509 925.148 609.398 924.916L955.51 918.177C961.297 918.118 966.75 920.207 970.91 924.211C975.069 928.215 977.42 933.596 977.529 939.367L986.45 1409.71C986.56 1415.51 984.398 1421 980.361 1425.16C976.325 1429.32 970.91 1431.65 965.111 1431.72L618.395 1435.89C618.308 1435.89 618.219 1435.89 618.132 1435.89ZM955.937 925.957C955.845 925.957 955.754 925.959 955.661 925.961L609.549 932.699C601.943 932.845 595.865 939.154 596 946.76L604.318 1414.53C604.454 1422.1 610.76 1428.18 618.3 1428.1L965.017 1423.94C968.726 1423.9 972.19 1422.41 974.772 1419.74C977.354 1417.08 978.738 1413.57 978.667 1409.86L969.746 939.514C969.676 935.822 968.172 932.379 965.512 929.82C962.918 927.323 959.527 925.957 955.937 925.957Z" fill="url(#paint35_linear_2_6)"/>
<path d="M974.201 973.022H596.601C594.452 973.022 592.709 971.279 592.709 969.13C592.709 966.981 594.451 965.24 596.601 965.24H974.201C976.35 965.24 978.092 966.981 978.092 969.13C978.093 971.278 976.35 973.022 974.201 973.022Z" fill="url(#paint36_linear_2_6)"/>
</g>
<mask id="mask1_2_6" style="mask-type:luminance" maskUnits="userSpaceOnUse" x="391" y="202" width="1628" height="870">
<path d="M391.966 254.826V985.467C391.966 1022.4 421.617 1052.5 458.549 1053.05L1949.6 1071.47C1986.22 1072.02 2016.23 1042.56 2016.37 1005.94L2018.86 281.829C2018.96 255.645 1998.1 234.19 1971.92 233.553L445.362 202.713C416.085 202.001 391.966 225.54 391.966 254.826Z" fill="white"/>
</mask>
<g mask="url(#mask1_2_6)">
<path d="M1866.77 847.691L1107.79 844.042C1098.64 843.959 1091.21 854.077 1091.28 866.524L1092.96 1166.82C1093.03 1179.33 1100.65 1189.33 1109.85 1188.95L1864.51 1172.79C1873.29 1172.43 1880.3 1162.72 1880.41 1150.77L1883.06 870.29C1883.18 857.914 1875.87 847.773 1866.77 847.691Z" fill="#91B3FA"/>
<path d="M1109.37 1169.69C1107.97 1169.69 1106.87 1168.36 1106.86 1166.67L1105.18 866.378C1105.18 865.589 1105.39 864.897 1105.81 864.319C1106.42 863.487 1107.17 863.312 1107.69 863.312L1866.68 866.961C1867.2 866.965 1867.93 867.146 1868.54 867.984C1868.96 868.562 1869.16 869.251 1869.16 870.036L1866.51 1150.52C1866.5 1152.18 1865.46 1153.47 1864.1 1153.53H1864.09L1109.37 1169.69ZM1107.68 865.258C1107.63 865.258 1107.54 865.258 1107.38 865.469C1107.21 865.701 1107.13 866.006 1107.13 866.367L1108.81 1166.65C1108.81 1167.32 1109.17 1167.74 1109.35 1167.74L1864.04 1151.58C1864.24 1151.57 1864.56 1151.13 1864.57 1150.5L1867.21 870.021C1867.21 869.662 1867.13 869.361 1866.96 869.125C1866.8 868.908 1866.7 868.906 1866.67 868.906L1107.68 865.258Z" fill="#BDD0FB"/>
<path d="M1470.2 1063.92H1406.75V1076.11H1470.2V1063.92Z" fill="#BDD0FB"/>
<path d="M1470.2 1043.56H1241.42V1055.74H1470.2V1043.56Z" fill="#BDD0FB"/>
<path d="M1470.2 1023.19H1281.03V1035.38H1470.2V1023.19Z" fill="#BDD0FB"/>
<path d="M1470.2 1002.82H1324.08V1015.01H1470.2V1002.82Z" fill="#BDD0FB"/>
<path d="M1470.2 982.457H1152.72V994.646H1470.2V982.457Z" fill="#BDD0FB"/>
<path d="M1470.2 962.091H1186.3V974.28H1470.2V962.091Z" fill="#BDD0FB"/>
<path d="M1470.2 941.725H1237.11V953.914H1470.2V941.725Z" fill="#BDD0FB"/>
<path d="M1470.2 921.359H1412.64V933.548H1470.2V921.359Z" fill="#BDD0FB"/>
<path d="M1470.2 900.993H1300.83V913.182H1470.2V900.993Z" fill="#BDD0FB"/>
<path d="M1576.02 1063.92H1512.57V1076.11H1576.02V1063.92Z" fill="#BDD0FB"/>
<path d="M1741.36 1043.56H1512.57V1055.74H1741.36V1043.56Z" fill="#BDD0FB"/>
<path d="M1701.75 1023.19H1512.57V1035.38H1701.75V1023.19Z" fill="#BDD0FB"/>
<path d="M1658.69 1002.82H1512.57V1015.01H1658.69V1002.82Z" fill="#BDD0FB"/>
<path d="M1830.06 982.457H1512.57V994.646H1830.06V982.457Z" fill="#BDD0FB"/>
<path d="M1796.47 962.091H1512.57V974.28H1796.47V962.091Z" fill="#BDD0FB"/>
<path d="M1745.66 941.725H1512.57V953.914H1745.66V941.725Z" fill="#BDD0FB"/>
<path d="M1570.13 921.359H1512.57V933.548H1570.13V921.359Z" fill="#BDD0FB"/>
<path d="M1681.94 900.993H1512.57V913.182H1681.94V900.993Z" fill="#BDD0FB"/>
</g>
<path d="M1808.05 554.08C1808 561.176 1802.21 566.892 1795.11 566.845C1788.02 566.798 1782.3 561.007 1782.35 553.911C1782.4 546.814 1788.19 541.099 1795.28 541.146C1802.38 541.192 1808.1 546.983 1808.05 554.08Z" fill="url(#paint37_linear_2_6)"/>
<path d="M1807.62 554.077C1807.58 560.938 1801.98 566.463 1795.12 566.418C1788.26 566.373 1782.73 560.774 1782.78 553.914C1782.82 547.053 1788.42 541.528 1795.28 541.573C1802.14 541.618 1807.67 547.216 1807.62 554.077Z" fill="url(#paint38_linear_2_6)"/>
<path d="M1808.05 631.978C1808 639.075 1802.21 644.79 1795.11 644.743C1788.02 644.696 1782.3 638.905 1782.35 631.809C1782.4 624.712 1788.19 618.997 1795.28 619.044C1802.38 619.09 1808.1 624.881 1808.05 631.978Z" fill="url(#paint39_linear_2_6)"/>
<path d="M1807.62 631.975C1807.58 638.836 1801.98 644.361 1795.12 644.316C1788.26 644.271 1782.73 638.672 1782.78 631.812C1782.82 624.951 1788.42 619.426 1795.28 619.471C1802.14 619.516 1807.67 625.114 1807.62 631.975Z" fill="url(#paint40_linear_2_6)"/>
<path d="M1808.05 709.875C1808 716.971 1802.21 722.687 1795.11 722.64C1788.02 722.593 1782.3 716.802 1782.35 709.706C1782.4 702.609 1788.19 696.894 1795.28 696.941C1802.38 696.987 1808.1 702.778 1808.05 709.875Z" fill="url(#paint41_linear_2_6)"/>
<path d="M1807.62 709.872C1807.58 716.733 1801.98 722.258 1795.12 722.212C1788.26 722.167 1782.73 716.568 1782.78 709.708C1782.82 702.847 1788.42 697.322 1795.28 697.368C1802.14 697.413 1807.67 703.011 1807.62 709.872Z" fill="url(#paint42_linear_2_6)"/>
<path d="M1827.82 553.411L1827.88 555.6C1828.04 561.524 1831.74 566.225 1836.26 566.248L2180.42 566.769C2185.09 566.793 2188.89 561.832 2188.88 555.711C2188.87 549.708 2185.2 544.813 2180.63 544.692L1836.4 541.982C1831.57 541.854 1827.65 547.077 1827.82 553.411Z" fill="url(#paint43_linear_2_6)"/>
<path d="M1827.82 630.929L1827.88 633.118C1828.04 639.042 1831.74 643.744 1836.26 643.766L2180.42 644.288C2185.09 644.312 2188.89 639.351 2188.88 633.229C2188.87 627.226 2185.2 622.331 2180.63 622.21L1836.4 619.5C1831.57 619.372 1827.65 624.595 1827.82 630.929Z" fill="url(#paint44_linear_2_6)"/>
<path d="M1827.82 708.447L1827.88 710.636C1828.04 716.561 1831.74 721.261 1836.26 721.284L2180.42 721.806C2185.09 721.83 2188.89 716.869 2188.88 710.748C2188.87 704.745 2185.2 699.85 2180.63 699.729L1836.4 697.019C1831.57 696.89 1827.65 702.113 1827.82 708.447Z" fill="url(#paint45_linear_2_6)"/>
<path d="M996.57 1353.43C885.183 1363.71 778.318 1337.71 685.015 1202.9C685.015 1202.9 952.67 1140.07 996.57 1353.43Z" fill="#BDD0FB"/>
<path d="M933.371 1317.68C932.819 1317.68 932.271 1317.44 931.886 1316.99C868.983 1242.84 728.285 1218.92 726.872 1218.69C725.812 1218.51 725.093 1217.52 725.268 1216.46C725.443 1215.4 726.43 1214.66 727.504 1214.85C728.932 1215.09 871.036 1239.25 934.854 1314.47C935.549 1315.29 935.448 1316.52 934.629 1317.22C934.263 1317.53 933.816 1317.68 933.371 1317.68Z" fill="url(#paint46_linear_2_6)"/>
<path d="M1497.05 1375.04C1422.79 1214.45 1405.01 1041.4 1556.58 830.996C1556.58 830.996 1791.85 1196.71 1497.05 1375.04Z" fill="#BDD0FB"/>
<path d="M1516.58 1277.64C1516.38 1277.64 1516.18 1277.61 1515.99 1277.54C1514.96 1277.22 1514.4 1276.12 1514.72 1275.1C1570.4 1100.68 1554.63 896.525 1554.46 894.484C1554.38 893.412 1555.17 892.474 1556.24 892.386C1557.34 892.291 1558.25 893.099 1558.34 894.168C1558.51 896.218 1574.34 1101.14 1518.43 1276.28C1518.17 1277.11 1517.4 1277.64 1516.58 1277.64Z" fill="url(#paint47_linear_2_6)"/>
<path d="M1071.58 1365.83C913.105 1287.16 790.847 1163.41 777.208 904.457C777.208 904.457 1189.68 1042.17 1071.58 1365.83Z" fill="#91B3FA"/>
<path d="M1045.95 1307.58C1045.15 1307.58 1044.39 1307.08 1044.11 1306.28C972.067 1100.9 832.371 982.06 830.969 980.884C830.145 980.192 830.038 978.965 830.729 978.142C831.418 977.319 832.644 977.209 833.47 977.901C834.881 979.085 975.37 1098.56 1047.79 1304.99C1048.14 1306.01 1047.61 1307.12 1046.59 1307.47C1046.38 1307.55 1046.16 1307.58 1045.95 1307.58Z" fill="#BDD0FB"/>
<path d="M1534.83 1381.93H951.405C935.555 1381.93 923.653 1370.65 926.717 1358.53L934.203 1328.92C936.454 1320.02 946.25 1313.48 957.884 1313.12L1520.33 1295.57C1532.48 1295.19 1543.24 1301.64 1545.89 1310.89L1559.39 1358.05C1562.9 1370.31 1550.94 1381.93 1534.83 1381.93Z" fill="url(#paint48_linear_2_6)"/>
<path d="M1265.47 1321.19C1264.41 1321.19 1263.54 1320.33 1263.53 1319.27C1263.51 1318.19 1264.37 1317.31 1265.45 1317.29L1289.55 1316.94C1290.59 1316.91 1291.5 1317.79 1291.52 1318.86C1291.54 1319.93 1290.68 1320.82 1289.6 1320.83L1265.5 1321.19C1265.49 1321.19 1265.48 1321.19 1265.47 1321.19Z" fill="#91B3FA"/>
<path d="M948.317 1365.66C948.215 1365.66 948.112 1365.65 948.008 1365.63C946.947 1365.46 946.224 1364.46 946.394 1363.4L949.832 1341.87C951.683 1330.28 961.546 1321.74 973.285 1321.57L1228.92 1317.83C1230.01 1317.9 1230.87 1318.67 1230.89 1319.74C1230.91 1320.82 1230.05 1321.7 1228.97 1321.72L973.342 1325.46C963.498 1325.6 955.227 1332.76 953.675 1342.48L950.237 1364.02C950.083 1364.97 949.256 1365.66 948.317 1365.66Z" fill="#91B3FA"/>
<path d="M1756.14 837.021C1756.93 835.499 1759.19 835.738 1759.65 837.394C1761.35 843.522 1765.47 854.215 1774.11 858.012C1774.55 858.203 1774.96 858.397 1775.36 858.591C1775.75 857.415 1775.76 856.049 1774.82 854.613C1772.13 850.505 1776.98 844.895 1776.98 844.895C1776.98 844.895 1777.31 849.836 1781.06 852.948C1784.3 855.628 1785.85 861.592 1783.64 866.485C1778.96 884.661 1771.95 908.701 1799.25 926.264C1826.54 943.827 1864.98 893.119 1864.98 893.119L1845.9 953.603C1845.9 953.603 1816.46 975.333 1782.2 944.776C1747.95 914.219 1770.65 869.754 1770.65 869.754C1770.65 869.754 1744.53 859.215 1756.14 837.021Z" fill="url(#paint49_linear_2_6)"/>
<path d="M1869.76 804.254C1869.76 804.254 1861.86 768.781 1902.49 778.172C1902.49 778.172 1922.21 774.949 1923.22 793.565C1923.22 793.565 1935.93 801.943 1926.62 818.054C1926.62 818.054 1964.41 803.46 1980.87 836.578C1997.33 869.696 1982.2 887.919 1966.34 892.666C1966.34 892.666 1979.19 899.119 1973.1 913.691C1967.02 928.262 1936.21 938.534 1918.01 920.814C1918.01 920.814 1866.23 927.658 1867.26 891.079C1867.26 891.079 1843.18 875.525 1868.47 845.295C1893.77 815.063 1869.76 804.254 1869.76 804.254Z" fill="url(#paint50_linear_2_6)"/>
<path d="M1867.53 886.476C1875.7 884.028 1899.47 879.509 1922.09 900.377C1925.92 903.916 1927.49 909.294 1926.12 914.33C1920.05 936.691 1904.02 1002.75 1918.07 1031.34C1918.07 1031.34 1893.31 1058.63 1866.3 1036.63C1866.3 1036.63 1854.18 983.81 1838.3 960.62C1827.34 944.61 1855.78 900.499 1862.97 889.842C1864.06 888.229 1865.67 887.035 1867.53 886.476Z" fill="url(#paint51_linear_2_6)"/>
<path d="M1890.08 842.051C1890.08 842.051 1902.15 876.207 1903.06 891.276C1903.06 891.276 1889.72 897.345 1877.14 887.102C1877.14 887.102 1875.82 852.985 1873.91 846.876L1890.08 842.051Z" fill="url(#paint52_linear_2_6)"/>
<path d="M1873.3 795.48C1873.3 795.48 1841.72 839.681 1860.6 852.519C1879.48 865.358 1901.96 833.946 1901.96 833.946C1901.96 833.946 1909.29 809.753 1901.63 801.547C1893.97 793.339 1873.3 795.48 1873.3 795.48Z" fill="url(#paint53_linear_2_6)"/>
<path d="M1887.92 784.917C1887.92 784.917 1873.41 788.354 1871.38 794.919C1869.35 801.484 1891.96 807.572 1898.29 807.87L1903.4 834.362C1903.4 834.362 1918.49 809.441 1912.51 795.048C1906.53 780.654 1887.92 784.917 1887.92 784.917Z" fill="url(#paint54_linear_2_6)"/>
<path d="M1895.84 830.693C1895.84 830.693 1908.13 816.456 1913.02 825.737C1917.91 835.019 1901.96 841.987 1896.43 837.43L1895.84 830.693Z" fill="url(#paint55_linear_2_6)"/>
<path d="M1834.76 1147.55C1834.85 1149.94 1830.64 1168.97 1828.35 1179.11C1827.43 1183.19 1828.07 1187.47 1830.15 1191.1L1909.51 1324.66C1910.47 1326.28 1911.17 1328.03 1911.59 1329.86C1913.05 1336.13 1916.06 1351.49 1914.49 1365.46L1910.38 1373.99L1928.14 1369.96L1932 1322.27L1926.98 1319.21C1922.63 1316.56 1919.25 1312.6 1917.32 1307.9C1910.14 1290.47 1892.32 1246.1 1887.73 1224.48C1882.51 1199.9 1855.22 1179.94 1855.22 1179.94L1860.01 1168.61L1834.76 1147.55Z" fill="url(#paint56_linear_2_6)"/>
<path d="M1947.87 1353.55C1947.87 1353.55 1938.28 1338.35 1937.15 1332.43C1936.03 1326.51 1932.89 1316.07 1926.97 1319.21C1926.97 1319.21 1924.19 1347.95 1925.15 1359.19C1926.11 1370.42 1912.45 1370.06 1912.45 1370.06C1912.45 1370.06 1908.69 1370.59 1905.93 1373.34C1904.03 1375.24 1905.39 1378.55 1908.08 1378.72C1912.54 1379.01 1919.64 1379.08 1927.1 1377.64C1929.7 1377.14 1931.63 1374.92 1931.79 1372.27L1933.76 1339.19L1945.85 1354.46L1947.87 1353.55Z" fill="url(#paint57_linear_2_6)"/>
<path d="M1882.17 1168.82C1882.17 1168.82 1884.97 1288.29 1885.35 1305.26C1885.73 1322.23 1882.67 1359.83 1865.66 1371.07L1873.06 1376.55C1873.06 1376.55 1882.31 1368.69 1891.35 1353.56C1901.5 1336.56 1904.57 1333.45 1904.57 1333.45L1901.2 1326.56C1899.72 1323.54 1899.29 1320.12 1899.97 1316.83C1903.64 1299.04 1915.9 1239.86 1919.25 1227.12C1923.2 1212.07 1923.48 1191.99 1909.74 1175.17C1896 1158.36 1882.17 1168.82 1882.17 1168.82Z" fill="url(#paint58_linear_2_6)"/>
<path d="M1897.88 1381.93C1898.41 1381.94 1898.85 1381.56 1898.93 1381.04C1899.49 1377.06 1901.85 1361.09 1903.78 1356.95C1905.99 1352.22 1913.2 1332.29 1903.78 1330.59C1903.78 1330.59 1880.34 1364.84 1875.84 1369.46C1871.34 1374.07 1865.66 1371.07 1865.66 1371.07C1865.66 1371.07 1861.28 1372.36 1857.97 1376.59C1856.4 1378.6 1857.86 1381.55 1860.41 1381.58L1876.2 1381.73C1880.79 1381.77 1884.91 1378.99 1886.62 1374.73C1889.39 1367.79 1894.17 1357.61 1899.73 1353.09L1896.84 1380.77C1896.78 1381.39 1897.26 1381.93 1897.88 1381.93Z" fill="url(#paint59_linear_2_6)"/>
<path d="M1862.56 1023.75C1862.56 1023.75 1866.12 1035.09 1860.65 1053.77L1826.75 1172.17C1826.21 1174.03 1827.22 1175.98 1829.04 1176.63C1839.18 1180.27 1872.52 1190.56 1918.03 1187.42C1920.32 1187.26 1922.25 1185.64 1922.74 1183.4C1925.74 1169.9 1935.97 1123.85 1938.08 1114.38C1946.11 1078.33 1955.07 1039.44 1915.64 1015.93C1897.47 1023.72 1880.52 1028.3 1862.56 1023.75Z" fill="url(#paint60_linear_2_6)"/>
<path d="M1925.32 904.838C1925.32 904.838 1963.9 936.898 1973.47 980.706C1983.04 1024.51 1917.1 1029.17 1917.1 1029.17C1917.1 1029.17 1908.15 1019.17 1897.52 1022.74C1886.89 1026.3 1896.7 1005.29 1909.13 1005.35C1921.57 1005.4 1915.81 1015.23 1933.4 1007.27C1950.53 999.503 1961.13 975.498 1917.4 939.108C1914.87 936.999 1912.85 934.309 1911.63 931.244C1903.14 909.863 1909.87 895.848 1925.32 904.838Z" fill="url(#paint61_linear_2_6)"/>
<path d="M503.689 964.092C503.689 964.092 501.388 977.118 500.26 990.013C499.819 995.052 503.705 999.428 508.759 999.639C525.931 1000.35 562.663 1001.74 575.843 1001.16C577.824 1001.07 579.12 999.04 578.387 997.197C577.772 995.653 576.587 994.404 575.077 993.71L514.403 965.824L503.689 964.092Z" fill="url(#paint62_linear_2_6)"/>
<path d="M501.804 956.438L503.652 972.019C503.652 972.019 514.281 976.967 521.539 971.396L517.138 954.031L501.804 956.438Z" fill="url(#paint63_linear_2_6)"/>
<path d="M503.193 663.504C502.394 667.573 498.907 866.556 520.176 955.727C520.523 957.182 519.786 958.682 518.401 959.247C515.139 960.58 508.743 962.51 501.079 962.768C498.706 962.848 496.577 961.305 495.908 959.027C489.828 938.338 460.694 834.68 456.894 735.659C452.647 625.012 456.894 731.891 456.894 731.891L459.385 663.496L503.193 663.504Z" fill="url(#paint64_linear_2_6)"/>
<path d="M433.894 970.888C433.894 970.888 430.231 977.464 426.685 994.939C426.045 998.095 428.25 1001.11 431.455 1001.43C437.125 1001.99 445.854 1002.7 452.847 1002.66C456.07 1002.63 458.586 999.827 458.197 996.627C457.423 990.248 455.01 979.783 447.556 971.627L433.894 970.888Z" fill="url(#paint65_linear_2_6)"/>
<path d="M430.676 950.847L434.996 974.41C434.996 974.41 439.267 977.587 447.716 975.284L445.654 949.932L430.676 950.847Z" fill="url(#paint66_linear_2_6)"/>
<path d="M419.007 669.609C401.611 774.594 422.781 929.088 429.92 959.326C430.357 961.177 431.851 962.595 433.728 962.906C436.915 963.435 442.162 963.866 447.334 962.363C449.116 961.846 450.368 960.238 450.441 958.384C451.399 933.937 449.675 783.859 465.884 724.547C466.706 721.541 468.541 718.919 471.081 717.113L502.541 694.747L504.953 658.595L419.007 669.609Z" fill="url(#paint67_linear_2_6)"/>
<path d="M529.854 470.683C477.722 469.822 420.2 484.371 420.2 484.371C404.661 575.043 417.483 679.628 417.483 679.628C457.842 690.212 503.37 673.157 503.37 673.157C510.078 635.258 541.376 528.598 541.376 528.598C566.848 525.437 587.831 518.088 605.11 508.372C591.929 493.094 585.716 473.653 583.017 462.161C564.584 467.889 545.933 470.949 529.854 470.683Z" fill="url(#paint68_linear_2_6)"/>
<path d="M683.842 393.896C678.721 387.71 672.239 390.636 672.239 390.636C664.567 423.042 624.342 449.318 583.016 462.161C585.715 473.653 591.928 493.093 605.109 508.372C673.694 469.81 683.842 393.896 683.842 393.896Z" fill="url(#paint69_linear_2_6)"/>
<path d="M682.599 395.469C683.135 397.172 676.93 399.766 673.276 392.799C673.148 389.46 671.118 375.155 673.113 372.434C683.74 357.946 704.343 339.785 704.343 339.785C707.825 343.221 704.956 346.596 704.956 346.596L694.961 357.008C697.052 360.786 699.602 363.975 700.797 368.544C701.702 372.005 701.149 375.703 699.401 378.852C697.646 382.013 695.253 386.122 692.99 389.337C688.707 395.423 682.599 395.469 682.599 395.469Z" fill="url(#paint70_linear_2_6)"/>
<path d="M690.59 363.764L681.482 371.485L678.623 379.172L686.743 388.181C686.743 388.181 689.474 372.928 691.503 369.626C693.532 366.325 692.48 364.729 690.59 363.764Z" fill="url(#paint71_linear_2_6)"/>
<path d="M440.195 534.851L420.2 484.372C420.2 484.372 371.506 517.458 363.498 559.407C372.699 560.085 389.441 562.478 405.829 570.752C409.43 550.944 440.195 534.851 440.195 534.851Z" fill="url(#paint72_linear_2_6)"/>
<path d="M482.749 582.35C482.749 582.35 428.078 613.248 409.631 586.865C405.801 581.387 404.885 575.942 405.828 570.752C389.441 562.478 372.698 560.084 363.497 559.407C361.083 572.053 362.359 585.503 369.79 599.097C402.103 658.206 489.983 595.83 489.983 595.83L482.749 582.35Z" fill="url(#paint73_linear_2_6)"/>
<path d="M476.18 621.439L506.018 517.239C506.357 516.056 507.366 515.194 508.588 515.051C513.994 514.421 529.658 512.65 547.745 511.12C569.531 509.277 594.83 507.784 609.948 509.054C612.097 509.234 613.396 511.508 612.44 513.442C603.843 530.835 568.479 601.586 550.771 624.763C550.184 625.531 549.277 625.98 548.311 625.971L479.083 625.327C477.068 625.308 475.626 623.375 476.18 621.439Z" fill="url(#paint74_linear_2_6)"/>
<path d="M550.84 502.086L572.473 498.481C573.625 498.289 574.569 499.39 574.203 500.499L572.061 506.988C571.875 507.553 571.382 507.962 570.792 508.04L549.975 510.821C548.898 510.965 548.01 509.986 548.258 508.928L549.583 503.263C549.726 502.654 550.221 502.189 550.84 502.086Z" fill="#7D97F4"/>
<path d="M534.641 520.4L536.423 511.117C536.602 510.186 537.37 509.483 538.313 509.387L582.006 504.953C583.477 504.804 584.654 506.151 584.309 507.589L581.531 519.156C581.309 520.082 580.503 520.75 579.552 520.798L536.855 522.947C535.467 523.017 534.379 521.767 534.641 520.4Z" fill="#7D97F4"/>
<path d="M483.389 596.264C483.389 596.264 479.233 579.173 480.91 573.109C482.586 567.045 485.835 559.25 496.663 560.982C507.491 562.714 520.263 567.276 520.263 567.276C520.263 567.276 519.618 575.174 511.389 572.626L516.492 576.574C516.492 576.574 515.763 582.898 508.812 579.519L513.558 584.756C513.558 584.756 510.573 589.95 505.459 586.618C500.343 583.288 497.892 598.322 483.389 596.264Z" fill="url(#paint75_linear_2_6)"/>
<path d="M479.048 432.363L462.46 480.333C462.185 481.128 462.512 482.008 463.248 482.414C467.77 484.914 484.06 492.14 503.691 479.694C505.736 478.397 507.128 476.283 507.439 473.881L512.811 432.363H479.048Z" fill="url(#paint76_linear_2_6)"/>
<path d="M513.141 383.938C513.141 383.938 531.356 418.226 529.021 432.076C526.686 445.926 504.112 444.932 484.399 433.683L470.624 396.66L513.141 383.938Z" fill="url(#paint77_linear_2_6)"/>
<path d="M485.27 415.501C486.071 415.146 486.367 414.166 485.887 413.433C484.428 411.204 481.692 406.656 480.819 402.673C480.819 402.673 477.545 400.576 489.153 397.798C500.762 395.019 518.073 390.707 521.712 380.826C525.26 371.192 515.939 346.965 501.067 366.269C500.501 367.004 499.393 367.02 498.828 366.285C496.39 363.112 489.981 356.526 481.082 360.519C472.755 364.255 471.817 370.357 471.931 373.433C471.965 374.338 471.156 375.041 470.266 374.872C466.056 374.069 455.953 373.378 451.237 383.743C447.353 392.28 449.877 397.114 452.176 399.477C452.921 400.243 452.595 401.503 451.573 401.816C448.806 402.663 445.233 405.009 445.591 411.492C446.085 420.454 456.105 419.664 458.958 419.256C459.426 419.19 459.896 419.349 460.213 419.699C462.659 422.406 473.68 433.901 485.608 435.287C486.641 435.407 487.441 434.387 487.103 433.404L481.941 418.397C481.701 417.7 482.035 416.937 482.708 416.638L485.27 415.501Z" fill="url(#paint78_linear_2_6)"/>
<path d="M487.345 417.631C487.345 417.631 474.376 408.734 473.428 416.227C472.48 423.72 485.107 427.081 491.361 424.287L487.345 417.631Z" fill="url(#paint79_linear_2_6)"/>
<path d="M227.799 1381.93H723.88C739.699 1381.93 752.523 1375.84 752.523 1368.33V1015.37C752.523 1007.87 739.746 1001.79 723.957 1001.77L223.909 1001.13C208 1001.11 195.105 1007.25 195.19 1014.81L199.157 1368.4C199.241 1375.89 212.04 1381.93 227.799 1381.93Z" fill="#7D97F4"/>
<path d="M252.108 1018.55L695.685 1019.84C711.719 1019.89 724.644 1026.1 724.569 1033.71L721.474 1350.5C721.401 1358 708.73 1364.11 692.941 1364.24L261.952 1367.98C245.855 1368.12 232.586 1362.01 232.361 1354.37L222.869 1032.55C222.641 1024.81 235.828 1018.5 252.108 1018.55Z" fill="#91B3FA"/>
<path d="M270.144 1036.29V1037.75C270.144 1040.03 274.036 1041.88 278.838 1041.88H620.611C625.413 1041.88 629.306 1040.03 629.306 1037.75V1036.29C629.306 1034.01 625.413 1032.16 620.611 1032.16H278.839C274.037 1032.16 270.144 1034.01 270.144 1036.29Z" fill="#BDD0FB"/>
<path d="M308.278 1054.57C308.525 1056.73 312.244 1058.43 316.801 1058.47L615.699 1061.06C620.562 1061.1 624.552 1059.24 624.552 1056.93V1056.59C624.552 1054.34 620.743 1052.5 615.995 1052.46L317.097 1050.21C312.057 1050.18 308.005 1052.18 308.278 1054.57Z" fill="#BDD0FB"/>
<path d="M277.744 1359.09C263.814 1359.09 253.526 1353.49 253.234 1345.71L243.536 1086.61C243.441 1084.09 244.445 1081.65 246.44 1079.56C250.462 1075.35 258.583 1072.68 267.634 1072.6L671.206 1068.86C685.181 1068.68 695.869 1074.48 696.18 1082.22L706.582 1342.74C706.683 1345.28 705.678 1347.73 703.674 1349.82C699.62 1354.06 691.435 1356.73 682.315 1356.78L278.041 1359.09C277.941 1359.09 277.842 1359.09 277.744 1359.09ZM251.313 1086.32L261.011 1345.42C261.09 1347.51 267.501 1351.3 277.759 1351.3C277.839 1351.3 277.917 1351.3 277.996 1351.3L682.27 1349C690.203 1348.96 695.909 1346.68 698.046 1344.44C698.337 1344.14 698.823 1343.55 698.803 1343.05L688.401 1082.53C688.317 1080.4 681.701 1076.5 671.277 1076.64L267.705 1080.38C259.839 1080.45 254.184 1082.72 252.069 1084.93C251.778 1085.24 251.295 1085.82 251.313 1086.32Z" fill="#BDD0FB"/>
<path d="M692.947 1102.71H252.661C250.512 1102.71 248.77 1100.97 248.77 1098.82C248.77 1096.67 250.512 1094.93 252.661 1094.93H692.947C695.096 1094.93 696.838 1096.67 696.838 1098.82C696.838 1100.97 695.096 1102.71 692.947 1102.71Z" fill="#BDD0FB"/>
<path d="M730.041 1075.71C729.777 1076.21 713.156 1088.44 713.156 1088.44C713.156 1088.44 716.826 1114.69 731.731 1125.06C748.118 1136.46 771.26 1115.67 771.26 1115.67C771.26 1115.67 789.678 1120.05 799.472 1081.71C801.719 1072.92 788.748 1072.17 773.094 1073.79C752.907 1075.88 730.041 1075.71 730.041 1075.71Z" fill="url(#paint80_linear_2_6)"/>
<path d="M698.975 1165.29C705.477 1160.82 712.666 1157.45 720.288 1155.38C723.151 1154.6 738.607 1159.09 748.162 1158.87C761.278 1158.57 774.629 1152.6 785.44 1155.3C796.179 1157.97 804.969 1161.47 810.044 1165.08C825.235 1175.88 834.154 1196.03 839.589 1215.98C829.297 1226.55 816.345 1231.24 816.345 1231.24L813.952 1328.24L756.595 1357.59L691.128 1324.72L693.473 1229.93C693.473 1229.93 672.684 1220.25 671.159 1216.73C669.633 1213.2 680.633 1177.9 698.975 1165.29Z" fill="url(#paint81_linear_2_6)"/>
<path d="M672.127 1216.3C672.127 1216.3 644.269 1293.54 707.796 1325.28C720.987 1323.53 715.914 1301.62 715.914 1301.62C715.914 1301.62 688.311 1295.51 696.601 1231.08C688.968 1224.81 672.127 1216.3 672.127 1216.3Z" fill="url(#paint82_linear_2_6)"/>
<path d="M838.249 1216.3C838.249 1216.3 857.418 1296.92 802.58 1325.28C789.389 1323.53 794.463 1301.62 794.463 1301.62C794.463 1301.62 816.71 1290.67 813.776 1231.08C821.408 1224.81 838.249 1216.3 838.249 1216.3Z" fill="url(#paint83_linear_2_6)"/>
<path d="M807.816 1330.7H698.707C694.123 1330.7 690.373 1326.95 690.373 1322.37V1254.1C690.373 1249.51 694.123 1245.76 698.707 1245.76H807.816C812.4 1245.76 816.15 1249.51 816.15 1254.1V1322.37C816.151 1326.95 812.4 1330.7 807.816 1330.7Z" fill="url(#paint84_linear_2_6)"/>
<path d="M871.319 1355.89C856.925 1352.58 823.656 1354.36 823.656 1354.36L822.303 1358.02L820.062 1376.24C820.062 1376.24 851.745 1381.95 867.361 1381.93C868.954 1381.93 870.412 1381.69 871.743 1381.28C872.219 1380.85 872.685 1380.41 873.125 1379.93C879.751 1372.69 877.837 1362.06 871.319 1355.89Z" fill="url(#paint85_linear_2_6)"/>
<path d="M814.096 1353.33L819.73 1353.57C822.757 1353.7 825.609 1355.18 827.644 1357.67C829.679 1360.15 830.725 1363.45 830.547 1366.8C830.405 1369.47 829.308 1371.97 827.499 1373.75C825.69 1375.52 823.317 1376.42 820.907 1376.25L812.287 1375.64L814.096 1353.33Z" fill="url(#paint86_linear_2_6)"/>
<path d="M624.671 1354.13C639.142 1351.27 672.353 1354.07 672.353 1354.07L673.614 1357.78L675.4 1376.05C675.4 1376.05 643.587 1380.79 627.976 1380.29C626.383 1380.24 624.932 1379.96 623.612 1379.51C623.147 1379.06 622.692 1378.61 622.265 1378.11C615.823 1370.68 618.001 1360.11 624.671 1354.13Z" fill="url(#paint87_linear_2_6)"/>
<path d="M681.935 1353.34L676.298 1353.41C673.269 1353.44 670.381 1354.83 668.285 1357.25C666.189 1359.68 665.061 1362.94 665.155 1366.29C665.23 1368.97 666.265 1371.5 668.029 1373.33C669.794 1375.16 672.142 1376.14 674.556 1376.04L683.187 1375.69L681.935 1353.34Z" fill="url(#paint88_linear_2_6)"/>
<path d="M875.344 1298.79C868.816 1283.76 852.85 1281.32 839.261 1288.35C839.025 1288.66 752.965 1332.77 677.07 1352.1C679.243 1359.06 680.36 1366.47 680.604 1373.76C680.648 1375.38 680.62 1376.98 680.525 1378.56C738.725 1375.57 801.89 1356.16 856.167 1339.11C872.999 1333.68 882.579 1315.44 875.344 1298.79Z" fill="url(#paint89_linear_2_6)"/>
<path d="M814.51 1374.9C814.283 1366.5 815.915 1358.69 819.408 1351.45C819.508 1351.12 819.627 1350.8 819.733 1350.47C815.399 1349.13 809.8 1347.31 802.445 1344.82C748.552 1326.37 707.438 1307.75 668.2 1286.31C652.956 1277.98 635.624 1283.56 630.745 1301.6C626.389 1317.7 635.955 1331.45 650.473 1336.28C693.908 1350.74 671.293 1346.72 685.479 1351.29C723.576 1363.07 770.984 1373.8 814.601 1376.73C814.568 1376.12 814.53 1375.51 814.51 1374.9Z" fill="url(#paint90_linear_2_6)"/>
<path d="M720.287 1155.38C720.287 1155.38 726.083 1180.49 754.223 1179.97C782.884 1179.45 785.439 1155.29 785.439 1155.29L766.717 1151.29L765.152 1130.43L736.989 1132.51L736.468 1152.33L720.287 1155.38Z" fill="url(#paint91_linear_2_6)"/>
<path d="M740.944 1071.32C740.944 1071.32 708.67 1133.84 746.954 1149.01C773.958 1159.7 790.889 1107.49 785.839 1093.35C778.031 1071.48 772.888 1074.08 772.888 1074.08L740.944 1071.32Z" fill="url(#paint92_linear_2_6)"/>
<path d="M793.606 1065.63C809.55 1070.01 795.924 1104.59 771.919 1096.42C747.914 1088.24 738.481 1088.36 734.741 1094.95C731 1101.54 730.197 1124.95 722.081 1113.38C713.183 1100.7 708.221 1075.23 719.131 1067.03C728.882 1059.69 731.157 1048.32 742.852 1048.71C758.375 1049.24 770.38 1042.36 777.386 1047.32C785.432 1053.02 781.874 1062.41 793.606 1065.63Z" fill="url(#paint93_linear_2_6)"/>
<path d="M733.265 1100.33C733.265 1100.33 726.382 1092.92 725.28 1101.85C724.178 1110.77 727.716 1122.27 731.859 1115.97C736.004 1109.67 733.265 1100.33 733.265 1100.33Z" fill="url(#paint94_linear_2_6)"/>
<path d="M760.681 1268.76C761.348 1273.27 758.934 1277.36 754.427 1278.03C749.921 1278.7 745.727 1275.58 745.06 1271.08C744.393 1266.57 746.456 1262.09 750.963 1261.43C755.468 1260.76 760.014 1264.26 760.681 1268.76Z" fill="#7D97F4"/>
<defs>
<linearGradient id="paint0_linear_2_6" x1="27.7518" y1="679.607" x2="2188.41" y2="679.607" gradientUnits="userSpaceOnUse">
<stop stop-color="#DAE3FE"/>
<stop offset="1" stop-color="#E9EFFD"/>
</linearGradient>
<linearGradient id="paint1_linear_2_6" x1="1780.84" y1="707.049" x2="1480.33" y2="260.166" gradientUnits="userSpaceOnUse">
<stop stop-color="#A737D5"/>
<stop offset="1" stop-color="#EF497A"/>
</linearGradient>
<linearGradient id="paint2_linear_2_6" x1="1659.19" y1="1020.44" x2="2161.83" y2="1020.44" gradientUnits="userSpaceOnUse">
<stop stop-color="#DAE3FE"/>
<stop offset="1" stop-color="#E9EFFD"/>
</linearGradient>
<linearGradient id="paint3_linear_2_6" x1="61.5086" y1="1011.03" x2="592.394" y2="1011.03" gradientUnits="userSpaceOnUse">
<stop stop-color="#DAE3FE"/>
<stop offset="1" stop-color="#E9EFFD"/>
</linearGradient>
<linearGradient id="paint4_linear_2_6" x1="1289.16" y1="980.923" x2="1238.15" y2="1400.96" gradientUnits="userSpaceOnUse">
<stop stop-color="#09005D"/>
<stop offset="1" stop-color="#1A0F91"/>
</linearGradient>
<linearGradient id="paint5_linear_2_6" x1="1568.54" y1="-110.025" x2="1364.52" y2="331.019" gradientUnits="userSpaceOnUse">
<stop stop-color="#09005D"/>
<stop offset="1" stop-color="#1A0F91"/>
</linearGradient>
<linearGradient id="paint6_linear_2_6" x1="1308.59" y1="-32.0785" x2="1055.28" y2="1575.92" gradientUnits="userSpaceOnUse">
<stop stop-color="#FDF53F"/>
<stop offset="1" stop-color="#D93C65"/>
</linearGradient>
<linearGradient id="paint7_linear_2_6" x1="482.013" y1="1213.35" x2="1517.12" y2="382.27" gradientUnits="userSpaceOnUse">
<stop stop-color="#4042E2"/>
<stop offset="1" stop-color="#4F52FF"/>
</linearGradient>
<linearGradient id="paint8_linear_2_6" x1="1105.18" y1="227.684" x2="1869.16" y2="227.684" gradientUnits="userSpaceOnUse">
<stop stop-color="#DAE3FE"/>
<stop offset="1" stop-color="#E9EFFD"/>
</linearGradient>
<linearGradient id="paint9_linear_2_6" x1="1138.56" y1="284.62" x2="1175.5" y2="284.62" gradientUnits="userSpaceOnUse">
<stop stop-color="#DAE3FE"/>
<stop offset="1" stop-color="#E9EFFD"/>
</linearGradient>
<linearGradient id="paint10_linear_2_6" x1="1200.28" y1="308.876" x2="1237.21" y2="308.876" gradientUnits="userSpaceOnUse">
<stop stop-color="#DAE3FE"/>
<stop offset="1" stop-color="#E9EFFD"/>
</linearGradient>
<linearGradient id="paint11_linear_2_6" x1="1262" y1="248.931" x2="1298.93" y2="248.931" gradientUnits="userSpaceOnUse">
<stop stop-color="#DAE3FE"/>
<stop offset="1" stop-color="#E9EFFD"/>
</linearGradient>
<linearGradient id="paint12_linear_2_6" x1="1323.71" y1="329.666" x2="1360.65" y2="329.666" gradientUnits="userSpaceOnUse">
<stop stop-color="#DAE3FE"/>
<stop offset="1" stop-color="#E9EFFD"/>
</linearGradient>
<linearGradient id="paint13_linear_2_6" x1="1385.43" y1="263.137" x2="1422.37" y2="263.137" gradientUnits="userSpaceOnUse">
<stop stop-color="#DAE3FE"/>
<stop offset="1" stop-color="#E9EFFD"/>
</linearGradient>
<linearGradient id="paint14_linear_2_6" x1="1447.15" y1="279.076" x2="1484.08" y2="279.076" gradientUnits="userSpaceOnUse">
<stop stop-color="#DAE3FE"/>
<stop offset="1" stop-color="#E9EFFD"/>
</linearGradient>
<linearGradient id="paint15_linear_2_6" x1="1508.86" y1="296.402" x2="1545.8" y2="296.402" gradientUnits="userSpaceOnUse">
<stop stop-color="#DAE3FE"/>
<stop offset="1" stop-color="#E9EFFD"/>
</linearGradient>
<linearGradient id="paint16_linear_2_6" x1="1570.58" y1="227.448" x2="1607.52" y2="227.448" gradientUnits="userSpaceOnUse">
<stop stop-color="#DAE3FE"/>
<stop offset="1" stop-color="#E9EFFD"/>
</linearGradient>
<linearGradient id="paint17_linear_2_6" x1="1632.3" y1="240.961" x2="1669.23" y2="240.961" gradientUnits="userSpaceOnUse">
<stop stop-color="#DAE3FE"/>
<stop offset="1" stop-color="#E9EFFD"/>
</linearGradient>
<linearGradient id="paint18_linear_2_6" x1="1694.01" y1="261.405" x2="1730.95" y2="261.405" gradientUnits="userSpaceOnUse">
<stop stop-color="#DAE3FE"/>
<stop offset="1" stop-color="#E9EFFD"/>
</linearGradient>
<linearGradient id="paint19_linear_2_6" x1="1755.73" y1="332.035" x2="1792.67" y2="332.035" gradientUnits="userSpaceOnUse">
<stop stop-color="#DAE3FE"/>
<stop offset="1" stop-color="#E9EFFD"/>
</linearGradient>
<linearGradient id="paint20_linear_2_6" x1="1817.45" y1="287.046" x2="1854.38" y2="287.046" gradientUnits="userSpaceOnUse">
<stop stop-color="#DAE3FE"/>
<stop offset="1" stop-color="#E9EFFD"/>
</linearGradient>
<linearGradient id="paint21_linear_2_6" x1="1091.28" y1="631.893" x2="1883.06" y2="631.893" gradientUnits="userSpaceOnUse">
<stop stop-color="#FE7062"/>
<stop offset="1" stop-color="#FF928E"/>
</linearGradient>
<linearGradient id="paint22_linear_2_6" x1="1918.88" y1="-223.387" x2="1618.85" y2="139.649" gradientUnits="userSpaceOnUse">
<stop stop-color="#E1473D"/>
<stop offset="1" stop-color="#E9605A"/>
</linearGradient>
<linearGradient id="paint23_linear_2_6" x1="2033.12" y1="-128.975" x2="1733.09" y2="234.061" gradientUnits="userSpaceOnUse">
<stop stop-color="#E1473D"/>
<stop offset="1" stop-color="#E9605A"/>
</linearGradient>
<linearGradient id="paint24_linear_2_6" x1="2151.18" y1="-31.403" x2="1851.15" y2="331.634" gradientUnits="userSpaceOnUse">
<stop stop-color="#E1473D"/>
<stop offset="1" stop-color="#E9605A"/>
</linearGradient>
<linearGradient id="paint25_linear_2_6" x1="598.51" y1="120.023" x2="906.536" y2="120.023" gradientUnits="userSpaceOnUse">
<stop stop-color="#DAE3FE"/>
<stop offset="1" stop-color="#E9EFFD"/>
</linearGradient>
<linearGradient id="paint26_linear_2_6" x1="631.203" y1="153.633" x2="902.459" y2="153.633" gradientUnits="userSpaceOnUse">
<stop stop-color="#DAE3FE"/>
<stop offset="1" stop-color="#E9EFFD"/>
</linearGradient>
<linearGradient id="paint27_linear_2_6" x1="575.131" y1="439.497" x2="973.368" y2="439.497" gradientUnits="userSpaceOnUse">
<stop stop-color="#DAE3FE"/>
<stop offset="1" stop-color="#E9EFFD"/>
</linearGradient>
<linearGradient id="paint28_linear_2_6" x1="579.625" y1="231.596" x2="965.008" y2="231.596" gradientUnits="userSpaceOnUse">
<stop stop-color="#DAE3FE"/>
<stop offset="1" stop-color="#E9EFFD"/>
</linearGradient>
<linearGradient id="paint29_linear_2_6" x1="634.549" y1="459.434" x2="931.309" y2="459.434" gradientUnits="userSpaceOnUse">
<stop stop-color="#DAE3FE"/>
<stop offset="1" stop-color="#E9EFFD"/>
</linearGradient>
<linearGradient id="paint30_linear_2_6" x1="926.179" y1="421.485" x2="900.826" y2="487.793" gradientUnits="userSpaceOnUse">
<stop stop-color="#E1473D"/>
<stop offset="1" stop-color="#E9605A"/>
</linearGradient>
<linearGradient id="paint31_linear_2_6" x1="883.371" y1="350.688" x2="583.474" y2="675.369" gradientUnits="userSpaceOnUse">
<stop stop-color="#FE7062"/>
<stop offset="1" stop-color="#FF928E"/>
</linearGradient>
<linearGradient id="paint32_linear_2_6" x1="905.096" y1="399.265" x2="888.096" y2="627.265" gradientUnits="userSpaceOnUse">
<stop stop-color="#FE7062"/>
<stop offset="1" stop-color="#FF928E"/>
</linearGradient>
<linearGradient id="paint33_linear_2_6" x1="611.596" y1="857.558" x2="919.622" y2="857.558" gradientUnits="userSpaceOnUse">
<stop stop-color="#DAE3FE"/>
<stop offset="1" stop-color="#E9EFFD"/>
</linearGradient>
<linearGradient id="paint34_linear_2_6" x1="644.289" y1="891.167" x2="915.544" y2="891.167" gradientUnits="userSpaceOnUse">
<stop stop-color="#DAE3FE"/>
<stop offset="1" stop-color="#E9EFFD"/>
</linearGradient>
<linearGradient id="paint35_linear_2_6" x1="588.216" y1="1177.03" x2="986.453" y2="1177.03" gradientUnits="userSpaceOnUse">
<stop stop-color="#DAE3FE"/>
<stop offset="1" stop-color="#E9EFFD"/>
</linearGradient>
<linearGradient id="paint36_linear_2_6" x1="592.71" y1="969.13" x2="978.093" y2="969.13" gradientUnits="userSpaceOnUse">
<stop stop-color="#DAE3FE"/>
<stop offset="1" stop-color="#E9EFFD"/>
</linearGradient>
<linearGradient id="paint37_linear_2_6" x1="1816.24" y1="533.788" x2="1776.71" y2="571.751" gradientUnits="userSpaceOnUse">
<stop stop-color="#53D8FF"/>
<stop offset="1" stop-color="#3840F7"/>
</linearGradient>
<linearGradient id="paint38_linear_2_6" x1="1804.68" y1="539.869" x2="1753.21" y2="616.528" gradientUnits="userSpaceOnUse">
<stop stop-color="#E1473D"/>
<stop offset="1" stop-color="#E9605A"/>
</linearGradient>
<linearGradient id="paint39_linear_2_6" x1="1816.24" y1="611.686" x2="1776.71" y2="649.649" gradientUnits="userSpaceOnUse">
<stop stop-color="#53D8FF"/>
<stop offset="1" stop-color="#3840F7"/>
</linearGradient>
<linearGradient id="paint40_linear_2_6" x1="1804.68" y1="617.767" x2="1753.21" y2="694.426" gradientUnits="userSpaceOnUse">
<stop stop-color="#E1473D"/>
<stop offset="1" stop-color="#E9605A"/>
</linearGradient>
<linearGradient id="paint41_linear_2_6" x1="1816.24" y1="689.584" x2="1776.71" y2="727.547" gradientUnits="userSpaceOnUse">
<stop stop-color="#53D8FF"/>
<stop offset="1" stop-color="#3840F7"/>
</linearGradient>
<linearGradient id="paint42_linear_2_6" x1="1804.68" y1="695.665" x2="1753.21" y2="772.323" gradientUnits="userSpaceOnUse">
<stop stop-color="#E1473D"/>
<stop offset="1" stop-color="#E9605A"/>
</linearGradient>
<linearGradient id="paint43_linear_2_6" x1="2003.88" y1="103.484" x2="2006.88" y2="406.518" gradientUnits="userSpaceOnUse">
<stop stop-color="#FF928E"/>
<stop offset="1" stop-color="#FEB3B1"/>
</linearGradient>
<linearGradient id="paint44_linear_2_6" x1="2003.11" y1="103.491" x2="2006.11" y2="406.524" gradientUnits="userSpaceOnUse">
<stop stop-color="#FF928E"/>
<stop offset="1" stop-color="#FEB3B1"/>
</linearGradient>
<linearGradient id="paint45_linear_2_6" x1="2002.35" y1="103.497" x2="2005.35" y2="406.53" gradientUnits="userSpaceOnUse">
<stop stop-color="#FF928E"/>
<stop offset="1" stop-color="#FEB3B1"/>
</linearGradient>
<linearGradient id="paint46_linear_2_6" x1="725.242" y1="1266.25" x2="935.316" y2="1266.25" gradientUnits="userSpaceOnUse">
<stop stop-color="#DAE3FE"/>
<stop offset="1" stop-color="#E9EFFD"/>
</linearGradient>
<linearGradient id="paint47_linear_2_6" x1="1514.63" y1="1085.01" x2="1560.54" y2="1085.01" gradientUnits="userSpaceOnUse">
<stop stop-color="#DAE3FE"/>
<stop offset="1" stop-color="#E9EFFD"/>
</linearGradient>
<linearGradient id="paint48_linear_2_6" x1="1362.76" y1="785.242" x2="1311.76" y2="1031.27" gradientUnits="userSpaceOnUse">
<stop stop-color="#09005D"/>
<stop offset="1" stop-color="#1A0F91"/>
</linearGradient>
<linearGradient id="paint49_linear_2_6" x1="1744.48" y1="794.44" x2="1847.1" y2="958.903" gradientUnits="userSpaceOnUse">
<stop stop-color="#FF928E"/>
<stop offset="1" stop-color="#FEB3B1"/>
</linearGradient>
<linearGradient id="paint50_linear_2_6" x1="2029.35" y1="779.302" x2="1925.7" y2="848.411" gradientUnits="userSpaceOnUse">
<stop stop-color="#09005D"/>
<stop offset="1" stop-color="#1A0F91"/>
</linearGradient>
<linearGradient id="paint51_linear_2_6" x1="1945.23" y1="909.511" x2="1681.21" y2="1155.54" gradientUnits="userSpaceOnUse">
<stop stop-color="#FE7062"/>
<stop offset="1" stop-color="#FF928E"/>
</linearGradient>
<linearGradient id="paint52_linear_2_6" x1="1872.66" y1="811.946" x2="1897.32" y2="918.613" gradientUnits="userSpaceOnUse">
<stop stop-color="#FF928E"/>
<stop offset="1" stop-color="#FEB3B1"/>
</linearGradient>
<linearGradient id="paint53_linear_2_6" x1="5633.9" y1="-2200.65" x2="5594" y2="-2168.52" gradientUnits="userSpaceOnUse">
<stop stop-color="#FF928E"/>
<stop offset="1" stop-color="#FEB3B1"/>
</linearGradient>
<linearGradient id="paint54_linear_2_6" x1="2001.5" y1="737.523" x2="1897.84" y2="806.633" gradientUnits="userSpaceOnUse">
<stop stop-color="#09005D"/>
<stop offset="1" stop-color="#1A0F91"/>
</linearGradient>
<linearGradient id="paint55_linear_2_6" x1="5648.06" y1="-2183.07" x2="5608.16" y2="-2150.94" gradientUnits="userSpaceOnUse">
<stop stop-color="#FF928E"/>
<stop offset="1" stop-color="#FEB3B1"/>
</linearGradient>
<linearGradient id="paint56_linear_2_6" x1="2016.93" y1="1152.64" x2="1587.89" y2="1488.67" gradientUnits="userSpaceOnUse">
<stop stop-color="#FF928E"/>
<stop offset="1" stop-color="#FEB3B1"/>
</linearGradient>
<linearGradient id="paint57_linear_2_6" x1="1989.2" y1="1252.24" x2="1962.54" y2="1295.57" gradientUnits="userSpaceOnUse">
<stop stop-color="#09005D"/>
<stop offset="1" stop-color="#1A0F91"/>
</linearGradient>
<linearGradient id="paint58_linear_2_6" x1="2165.29" y1="1010.59" x2="2030.27" y2="1133.6" gradientUnits="userSpaceOnUse">
<stop stop-color="#FF928E"/>
<stop offset="1" stop-color="#FEB3B1"/>
</linearGradient>
<linearGradient id="paint59_linear_2_6" x1="1955.63" y1="1225.98" x2="1922.3" y2="1291.98" gradientUnits="userSpaceOnUse">
<stop stop-color="#09005D"/>
<stop offset="1" stop-color="#1A0F91"/>
</linearGradient>
<linearGradient id="paint60_linear_2_6" x1="1788.85" y1="1192.02" x2="1458.81" y2="1471.05" gradientUnits="userSpaceOnUse">
<stop stop-color="#FE7062"/>
<stop offset="1" stop-color="#FF928E"/>
</linearGradient>
<linearGradient id="paint61_linear_2_6" x1="2093.31" y1="899.312" x2="2010.65" y2="931.312" gradientUnits="userSpaceOnUse">
<stop stop-color="#FF928E"/>
<stop offset="1" stop-color="#FEB3B1"/>
</linearGradient>
<linearGradient id="paint62_linear_2_6" x1="701.09" y1="776.674" x2="594.596" y2="913.167" gradientUnits="userSpaceOnUse">
<stop stop-color="#09005D"/>
<stop offset="1" stop-color="#1A0F91"/>
</linearGradient>
<linearGradient id="paint63_linear_2_6" x1="501.804" y1="964.038" x2="521.54" y2="964.038" gradientUnits="userSpaceOnUse">
<stop stop-color="#A22B25"/>
<stop offset="1" stop-color="#C0423C"/>
</linearGradient>
<linearGradient id="paint64_linear_2_6" x1="829.402" y1="601.08" x2="625.382" y2="727.093" gradientUnits="userSpaceOnUse">
<stop stop-color="#09005D"/>
<stop offset="1" stop-color="#1A0F91"/>
</linearGradient>
<linearGradient id="paint65_linear_2_6" x1="643.601" y1="731.819" x2="537.106" y2="868.312" gradientUnits="userSpaceOnUse">
<stop stop-color="#09005D"/>
<stop offset="1" stop-color="#1A0F91"/>
</linearGradient>
<linearGradient id="paint66_linear_2_6" x1="430.677" y1="963.026" x2="447.717" y2="963.026" gradientUnits="userSpaceOnUse">
<stop stop-color="#A22B25"/>
<stop offset="1" stop-color="#C0423C"/>
</linearGradient>
<linearGradient id="paint67_linear_2_6" x1="816.11" y1="579.558" x2="612.09" y2="705.57" gradientUnits="userSpaceOnUse">
<stop stop-color="#09005D"/>
<stop offset="1" stop-color="#1A0F91"/>
</linearGradient>
<linearGradient id="paint68_linear_2_6" x1="519.46" y1="480.839" x2="243.432" y2="1110.9" gradientUnits="userSpaceOnUse">
<stop stop-color="#FE7062"/>
<stop offset="1" stop-color="#FF928E"/>
</linearGradient>
<linearGradient id="paint69_linear_2_6" x1="583.016" y1="449.158" x2="683.842" y2="449.158" gradientUnits="userSpaceOnUse">
<stop stop-color="#A22B25"/>
<stop offset="1" stop-color="#C0423C"/>
</linearGradient>
<linearGradient id="paint70_linear_2_6" x1="661.382" y1="432.257" x2="593.724" y2="586.192" gradientUnits="userSpaceOnUse">
<stop stop-color="#A22B25"/>
<stop offset="1" stop-color="#C0423C"/>
</linearGradient>
<linearGradient id="paint71_linear_2_6" x1="749.747" y1="197.385" x2="668.75" y2="422.375" gradientUnits="userSpaceOnUse">
<stop stop-color="#A22B25"/>
<stop offset="1" stop-color="#C0423C"/>
</linearGradient>
<linearGradient id="paint72_linear_2_6" x1="444.328" y1="447.924" x2="168.3" y2="1077.99" gradientUnits="userSpaceOnUse">
<stop stop-color="#FE7062"/>
<stop offset="1" stop-color="#FF928E"/>
</linearGradient>
<linearGradient id="paint73_linear_2_6" x1="362.388" y1="591.976" x2="489.984" y2="591.976" gradientUnits="userSpaceOnUse">
<stop stop-color="#A22B25"/>
<stop offset="1" stop-color="#C0423C"/>
</linearGradient>
<linearGradient id="paint74_linear_2_6" x1="528.586" y1="501.259" x2="598.747" y2="793.595" gradientUnits="userSpaceOnUse">
<stop stop-color="#09005D"/>
<stop offset="1" stop-color="#1A0F91"/>
</linearGradient>
<linearGradient id="paint75_linear_2_6" x1="480.511" y1="578.597" x2="520.262" y2="578.597" gradientUnits="userSpaceOnUse">
<stop stop-color="#A22B25"/>
<stop offset="1" stop-color="#C0423C"/>
</linearGradient>
<linearGradient id="paint76_linear_2_6" x1="494.511" y1="423.865" x2="471.511" y2="551.865" gradientUnits="userSpaceOnUse">
<stop stop-color="#A22B25"/>
<stop offset="1" stop-color="#C0423C"/>
</linearGradient>
<linearGradient id="paint77_linear_2_6" x1="9319.87" y1="3170.72" x2="9223.15" y2="3140.44" gradientUnits="userSpaceOnUse">
<stop stop-color="#A22B25"/>
<stop offset="1" stop-color="#C0423C"/>
</linearGradient>
<linearGradient id="paint78_linear_2_6" x1="437.982" y1="353.982" x2="509.639" y2="410.579" gradientUnits="userSpaceOnUse">
<stop stop-color="#09005D"/>
<stop offset="1" stop-color="#1A0F91"/>
</linearGradient>
<linearGradient id="paint79_linear_2_6" x1="9315.53" y1="3184.58" x2="9218.8" y2="3154.31" gradientUnits="userSpaceOnUse">
<stop stop-color="#A22B25"/>
<stop offset="1" stop-color="#C0423C"/>
</linearGradient>
<linearGradient id="paint80_linear_2_6" x1="829.32" y1="986.061" x2="761.179" y2="1082.9" gradientUnits="userSpaceOnUse">
<stop stop-color="#09005D"/>
<stop offset="1" stop-color="#1A0F91"/>
</linearGradient>
<linearGradient id="paint81_linear_2_6" x1="753.097" y1="1149.15" x2="769.547" y2="1646.78" gradientUnits="userSpaceOnUse">
<stop stop-color="#FE7062"/>
<stop offset="1" stop-color="#FF928E"/>
</linearGradient>
<linearGradient id="paint82_linear_2_6" x1="657.893" y1="1195.54" x2="766.888" y2="1458.82" gradientUnits="userSpaceOnUse">
<stop stop-color="#FF928E"/>
<stop offset="1" stop-color="#FEB3B1"/>
</linearGradient>
<linearGradient id="paint83_linear_2_6" x1="851.116" y1="1194.97" x2="742.121" y2="1458.26" gradientUnits="userSpaceOnUse">
<stop stop-color="#FF928E"/>
<stop offset="1" stop-color="#FEB3B1"/>
</linearGradient>
<linearGradient id="paint84_linear_2_6" x1="687.921" y1="1228.83" x2="871.254" y2="1395.5" gradientUnits="userSpaceOnUse">
<stop stop-color="#09005D"/>
<stop offset="1" stop-color="#1A0F91"/>
</linearGradient>
<linearGradient id="paint85_linear_2_6" x1="820.128" y1="1367.63" x2="879.69" y2="1368.09" gradientUnits="userSpaceOnUse">
<stop stop-color="#09005D"/>
<stop offset="1" stop-color="#1A0F91"/>
</linearGradient>
<linearGradient id="paint86_linear_2_6" x1="859.441" y1="1260.24" x2="796.569" y2="1430.54" gradientUnits="userSpaceOnUse">
<stop stop-color="#FF928E"/>
<stop offset="1" stop-color="#FEB3B1"/>
</linearGradient>
<linearGradient id="paint87_linear_2_6" x1="675.575" y1="1367.34" x2="615.999" y2="1366.15" gradientUnits="userSpaceOnUse">
<stop stop-color="#09005D"/>
<stop offset="1" stop-color="#1A0F91"/>
</linearGradient>
<linearGradient id="paint88_linear_2_6" x1="733.476" y1="1208.92" x2="670.57" y2="1379.31" gradientUnits="userSpaceOnUse">
<stop stop-color="#FF928E"/>
<stop offset="1" stop-color="#FEB3B1"/>
</linearGradient>
<linearGradient id="paint89_linear_2_6" x1="804.36" y1="1280.12" x2="715.027" y2="1460.79" gradientUnits="userSpaceOnUse">
<stop stop-color="#4042E2"/>
<stop offset="1" stop-color="#4F52FF"/>
</linearGradient>
<linearGradient id="paint90_linear_2_6" x1="773.45" y1="1253.39" x2="765.45" y2="1266.72" gradientUnits="userSpaceOnUse">
<stop stop-color="#4042E2"/>
<stop offset="1" stop-color="#4F52FF"/>
</linearGradient>
<linearGradient id="paint91_linear_2_6" x1="755.315" y1="1141.62" x2="741.315" y2="1220.29" gradientUnits="userSpaceOnUse">
<stop stop-color="#FF928E"/>
<stop offset="1" stop-color="#FEB3B1"/>
</linearGradient>
<linearGradient id="paint92_linear_2_6" x1="772.388" y1="1059.83" x2="748.392" y2="1135.82" gradientUnits="userSpaceOnUse">
<stop stop-color="#FF928E"/>
<stop offset="1" stop-color="#FEB3B1"/>
</linearGradient>
<linearGradient id="paint93_linear_2_6" x1="832.104" y1="971.324" x2="755.431" y2="1080.28" gradientUnits="userSpaceOnUse">
<stop stop-color="#09005D"/>
<stop offset="1" stop-color="#1A0F91"/>
</linearGradient>
<linearGradient id="paint94_linear_2_6" x1="746.76" y1="1051.74" x2="722.76" y2="1127.74" gradientUnits="userSpaceOnUse">
<stop stop-color="#FF928E"/>
<stop offset="1" stop-color="#FEB3B1"/>
</linearGradient>
</defs>
</svg>
