<?xml version="1.0" standalone="no"?>
<!DOCTYPE svg PUBLIC "-//W3C//DTD SVG 20010904//EN"
 "http://www.w3.org/TR/2001/REC-SVG-20010904/DTD/svg10.dtd">
<svg version="1.0" xmlns="http://www.w3.org/2000/svg"
 width="6000.000000pt" height="4000.000000pt" viewBox="0 0 6000.000000 4000.000000"
 preserveAspectRatio="xMidYMid meet">

<g transform="translate(0.000000,4000.000000) scale(0.100000,-0.100000)"
fill="#ffffff" stroke="none">
<path d="M39868 39106 c-20 -7 -50 -22 -67 -32 -16 -10 -530 -514 -1142 -1119
-613 -605 -1256 -1240 -1429 -1412 l-316 -312 -110 40 c-369 136 -891 306
-1304 424 -2166 620 -4444 867 -6740 730 -2709 -162 -5355 -885 -7870 -2151
-1418 -713 -2722 -1584 -3835 -2563 -526 -463 -1130 -1064 -1590 -1581 -688
-774 -1340 -1651 -1877 -2525 -290 -472 -506 -860 -771 -1385 -148 -293 -184
-358 -212 -377 -71 -48 -406 -249 -579 -348 -367 -208 -725 -388 -1321 -663
-757 -349 -1550 -766 -2223 -1168 -275 -165 -439 -273 -605 -398 -121 -90
-211 -146 -238 -146 -24 0 -112 -75 -175 -148 -129 -151 -288 -269 -389 -288
-56 -10 -101 21 -264 184 -84 84 -185 176 -224 203 -79 55 -173 89 -249 89
-155 0 -434 -167 -575 -344 -50 -63 -93 -139 -193 -342 -178 -360 -191 -373
-449 -448 -270 -79 -341 -61 -661 164 -218 153 -454 290 -501 290 -9 0 -43
-14 -77 -31 -156 -77 -366 -402 -472 -729 -108 -333 -127 -469 -95 -680 10
-67 15 -132 11 -153 -10 -54 -66 -129 -218 -294 -154 -166 -303 -348 -383
-468 -176 -265 -591 -1071 -730 -1419 -68 -170 -62 -218 39 -324 67 -70 92
-125 107 -228 20 -148 -13 -331 -90 -489 -115 -234 -417 -640 -698 -937 -151
-159 -283 -316 -569 -673 -128 -159 -263 -320 -300 -356 -72 -69 -84 -78 -275
-202 -120 -78 -209 -163 -209 -200 0 -81 128 -211 284 -287 115 -56 168 -104
185 -165 13 -49 51 -97 114 -144 198 -149 567 -282 863 -311 350 -34 386 -46
527 -177 169 -159 215 -163 188 -17 -27 146 -19 156 183 238 106 42 288 147
394 225 176 131 295 201 420 250 93 37 112 24 92 -65 -29 -127 -164 -352 -303
-502 -90 -98 -127 -161 -135 -228 -8 -73 5 -108 62 -172 30 -34 57 -70 61 -82
9 -29 -11 -50 -50 -50 -49 0 -114 50 -191 147 l-69 88 -5 -101 c-5 -101 -16
-134 -47 -134 -8 0 -48 32 -89 71 -42 39 -79 67 -85 63 -19 -12 -4 -84 40
-185 56 -132 56 -134 -29 -245 -53 -70 -66 -104 -49 -137 61 -114 333 -322
574 -438 169 -81 216 -93 340 -86 253 13 518 99 976 317 383 183 612 270 870
334 407 101 656 69 809 -104 68 -76 100 -92 165 -83 47 6 47 6 60 -51 6 -29
50 -77 115 -125 50 -38 54 -60 34 -194 -18 -122 -14 -147 21 -133 21 8 55 83
55 124 0 41 14 41 42 -3 13 -19 29 -35 35 -35 7 0 22 18 33 40 23 46 45 60 94
60 50 0 104 58 241 265 128 192 207 285 243 285 36 0 204 170 375 380 298 363
353 414 466 430 71 10 102 27 127 69 27 46 62 56 144 42 38 -6 91 -11 117 -11
154 0 339 100 633 340 488 398 659 473 1480 651 242 53 747 176 791 194 14 5
19 -9 34 -92 58 -328 182 -894 269 -1224 l44 -167 -68 -308 c-87 -400 -121
-535 -175 -714 -144 -474 -416 -1188 -557 -1463 -84 -164 -342 -482 -793 -977
-581 -637 -844 -993 -1185 -1599 -246 -437 -349 -570 -510 -655 -150 -79 -290
-104 -795 -141 -397 -30 -592 -69 -775 -156 -112 -53 -280 -162 -395 -254
-265 -213 -962 -903 -1131 -1120 -44 -57 -45 -60 -24 -63 28 -5 112 26 265 96
212 97 435 171 519 172 13 0 -10 -30 -75 -100 -240 -256 -326 -356 -317 -365
5 -6 100 23 463 140 337 108 406 127 449 123 50 -5 45 -38 -24 -158 -74 -129
-87 -165 -69 -186 19 -24 70 -13 265 52 266 88 324 86 514 -21 180 -101 331
-139 555 -139 176 0 233 10 535 89 263 69 373 86 690 105 272 16 767 13 881
-6 135 -23 172 -15 267 51 114 80 334 211 528 313 201 106 360 202 465 282
100 76 153 103 188 95 24 -5 34 1 74 48 49 58 75 72 149 82 32 4 54 14 72 33
93 99 112 114 188 150 101 48 167 98 279 214 54 56 93 88 106 88 39 0 212 143
655 541 224 202 374 326 421 350 20 11 79 63 130 115 77 80 355 320 403 347
10 6 33 -23 86 -105 1529 -2384 3652 -4371 6262 -5860 142 -81 263 -149 268
-150 5 -2 62 -680 128 -1508 65 -828 124 -1520 129 -1539 18 -60 60 -109 118
-137 45 -23 62 -26 109 -21 30 3 75 15 100 27 31 16 333 303 1045 995 l1001
973 66 -25 c37 -14 198 -72 357 -129 2797 -991 5830 -1333 8855 -998 2101 232
4114 793 6140 1709 264 119 908 437 1165 575 1343 721 2535 1558 3645 2559
238 215 789 758 1030 1016 1453 1555 2602 3321 3450 5305 126 296 294 720 287
727 -3 2 -16 -28 -30 -66 -14 -38 -71 -177 -125 -308 -714 -1712 -1731 -3324
-2990 -4741 -244 -273 -667 -720 -674 -712 -9 9 -296 605 -330 685 -56 130
-77 155 -255 302 -91 76 -248 205 -347 287 -222 183 -507 467 -594 591 -131
186 -198 343 -229 537 -21 132 -24 576 -5 723 46 349 148 703 410 1425 197
543 230 670 241 915 l7 160 107 154 c205 294 331 534 537 1016 148 349 268
590 321 648 l44 48 90 -34 c228 -86 1013 -337 1052 -337 9 0 33 -11 53 -25 47
-33 163 -44 445 -45 382 0 749 45 1054 130 102 29 106 29 126 11 11 -10 196
-168 410 -352 869 -744 1267 -1063 1535 -1230 l100 -63 -5 -90 c-18 -265 -90
-631 -191 -962 -57 -190 -93 -273 -137 -321 -87 -94 -280 -221 -560 -369 -206
-109 -223 -122 -232 -176 -4 -24 -22 -128 -41 -233 l-34 -190 -47 -44 c-27
-24 -127 -107 -223 -184 -406 -326 -471 -433 -426 -697 85 -490 506 -1067 894
-1224 71 -28 87 -31 192 -31 128 0 171 11 274 73 60 36 75 34 76 -9 0 -27 40
-69 65 -69 32 0 50 20 90 100 73 146 180 520 230 812 20 111 28 195 30 309 3
146 5 161 38 265 19 60 74 254 121 430 174 652 237 818 395 1034 238 325 352
500 711 1099 148 247 291 483 319 525 61 94 66 120 58 330 -7 178 -28 301
-117 661 -110 447 -250 895 -398 1275 -269 689 -395 1131 -463 1620 -26 191
-23 296 9 360 30 58 162 246 280 398 317 410 827 931 1357 1388 195 168 523
434 535 434 5 0 79 -66 162 -146 247 -237 475 -411 808 -614 287 -175 393
-283 501 -507 53 -110 69 -187 79 -377 9 -169 15 -200 47 -228 56 -51 201 -68
403 -48 204 19 551 117 617 174 l25 22 -27 32 c-15 18 -26 34 -24 36 2 1 40
24 84 51 44 27 82 50 83 51 2 1 -57 104 -132 228 -75 124 -136 228 -136 230 0
2 28 7 63 11 77 8 257 -11 275 -29 10 -10 15 -68 19 -228 l6 -215 216 -100
216 -101 0 -95 0 -96 30 -5 c136 -24 495 -11 542 20 12 8 45 47 72 87 108 160
299 297 397 283 48 -6 113 -35 133 -59 8 -10 -6 -8 -46 9 -66 27 -91 25 -168
-14 -207 -104 -345 -294 -345 -474 0 -173 90 -314 246 -389 213 -101 448 -68
599 85 74 75 128 153 160 232 l24 59 111 13 c265 29 415 128 516 338 24 51 79
196 121 321 72 212 77 234 78 313 l0 85 -84 140 c-47 77 -106 185 -132 240
-161 343 -305 903 -371 1450 -29 244 -32 690 -5 870 39 258 83 422 202 745 46
124 93 258 105 298 38 127 17 180 -135 343 -224 239 -387 518 -509 868 -20 57
-36 104 -36 106 0 7 63 16 260 35 1025 103 1793 331 2338 694 485 322 760 698
872 1191 28 120 36 345 21 555 -13 180 -21 231 -36 231 -5 1 -30 -48 -55 -108
-98 -228 -155 -317 -300 -467 -238 -246 -484 -415 -810 -555 -552 -236 -1221
-374 -2060 -426 l-105 -7 -190 55 c-104 30 -280 76 -390 101 -516 117 -587
122 -907 58 -114 -23 -231 -45 -261 -48 l-54 -6 -7 33 c-32 159 -77 462 -87
589 -16 209 -6 658 16 757 95 429 350 734 802 962 259 130 545 221 1418 452
270 71 498 132 509 135 32 10 3 23 -89 39 -288 49 -602 68 -1155 69 -465 1
-532 -3 -893 -59 -624 -97 -1154 -298 -1542 -588 -129 -96 -327 -289 -412
-402 -128 -170 -224 -356 -292 -567 -48 -149 -178 -655 -217 -848 -15 -74 -30
-139 -34 -143 -4 -5 -10 14 -14 42 -6 47 -12 55 -98 136 -421 396 -1148 731
-1998 919 -407 90 -836 149 -1435 197 -71 5 -293 13 -492 16 l-362 6 -103 59
c-320 184 -755 361 -1193 486 l-100 28 -53 99 c-549 1024 -1086 1855 -1740
2688 -1219 1554 -2783 2954 -4547 4070 l-150 95 -192 2198 c-105 1210 -194
2222 -198 2250 -18 151 -162 248 -297 200z m-123 -1786 c41 -476 107 -1225
145 -1665 82 -935 96 -1090 155 -1765 25 -278 45 -521 45 -542 l0 -36 -462
154 c-351 116 -475 154 -513 154 -91 0 -194 -64 -253 -158 -17 -27 -1597
-4222 -3643 -9672 -1987 -5294 -3614 -9626 -3615 -9628 -2 -4 -1696 556 -1702
562 -2 2 1147 3068 2553 6812 1461 3889 2561 6835 2567 6869 29 166 -73 315
-216 315 -107 0 -229 -89 -281 -203 -13 -29 -1202 -3188 -2641 -7022 l-2618
-6970 0 -85 c-1 -66 4 -95 20 -130 47 -102 -30 -71 1218 -485 1246 -413 1194
-399 1293 -350 64 32 137 110 168 178 13 29 1644 4370 3625 9647 1981 5277
3606 9599 3610 9603 4 5 263 -76 576 -178 512 -169 573 -187 616 -182 100 12
206 96 254 201 48 106 48 113 -5 726 -28 310 -48 566 -46 568 2 3 105 -58 227
-134 2554 -1583 4631 -3719 6081 -6254 36 -63 64 -116 62 -118 -2 -2 -95 17
-207 42 -462 103 -963 177 -1328 196 -233 12 -1165 12 -1405 0 -99 -5 -284
-21 -410 -35 -901 -102 -1676 -261 -2520 -515 -493 -149 -702 -232 -851 -338
-105 -75 -227 -221 -309 -371 -29 -54 -54 -85 -95 -116 -110 -85 -319 -215
-477 -298 -88 -47 -231 -129 -317 -181 -85 -53 -167 -101 -182 -106 -63 -24
-535 -91 -1339 -190 -275 -34 -503 -65 -508 -69 -4 -4 -893 -2345 -1976 -5202
l-1969 -5194 242 -7 c308 -8 3382 -28 4386 -28 423 0 830 5 910 11 178 12 316
39 435 85 49 19 219 79 377 133 l287 98 15 -41 c23 -66 299 -790 398 -1046
140 -361 246 -614 358 -855 353 -757 545 -1214 690 -1643 100 -293 113 -352
113 -517 0 -144 -16 -260 -74 -564 -52 -270 -64 -447 -49 -703 10 -176 29
-320 44 -335 3 -3 47 -10 98 -14 166 -15 253 -78 323 -232 29 -62 86 -280 130
-492 37 -177 32 -293 -25 -580 -97 -492 -103 -649 -29 -696 120 -77 556 -167
1134 -235 184 -22 787 -27 870 -7 81 19 115 23 115 14 0 -22 -543 -512 -869
-785 -1976 -1655 -4278 -2877 -6786 -3600 -1350 -389 -2795 -635 -4210 -716
-749 -43 -1606 -41 -2340 5 -1921 121 -3756 511 -5538 1178 l-297 111 67 67
c38 36 406 394 818 795 413 401 760 741 772 755 12 14 34 48 47 76 69 136 58
280 -28 371 l-42 44 -565 192 c-419 143 -563 196 -561 207 1 8 152 401 334
874 l332 860 0 90 c1 83 -2 94 -30 145 -64 113 -185 147 -302 87 -64 -33 -126
-95 -157 -157 -51 -101 -808 -2084 -818 -2145 -19 -109 21 -221 96 -272 18
-12 239 -92 491 -177 253 -86 461 -158 463 -160 2 -2 -387 -383 -864 -847
-477 -464 -954 -927 -1058 -1029 -1323 -1287 -1688 -1641 -1691 -1637 -4 3
-103 1230 -149 1842 -9 110 -49 621 -90 1135 -120 1509 -145 1827 -145 1864
l0 35 473 -161 c420 -142 477 -159 519 -154 102 11 194 76 245 173 17 32 1687
4358 3711 9613 2024 5255 3686 9569 3693 9586 l14 30 842 -286 c463 -157 845
-289 848 -292 3 -3 -1170 -3056 -2606 -6784 -1436 -3728 -2615 -6792 -2621
-6809 -5 -16 -10 -64 -10 -105 -2 -290 311 -356 477 -101 13 20 1233 3175
2711 7011 l2687 6975 1 95 c1 87 -1 99 -28 147 -16 29 -45 63 -65 77 -21 15
-486 178 -1146 403 -1249 425 -1185 408 -1294 348 -57 -31 -122 -98 -151 -155
-9 -19 -1679 -4350 -3710 -9625 -2031 -5274 -3694 -9591 -3695 -9593 -1 -1
-249 82 -551 184 -375 128 -567 188 -607 192 -50 4 -66 0 -122 -27 -76 -38
-125 -91 -168 -181 -26 -53 -32 -80 -34 -150 -2 -47 23 -413 55 -815 32 -401
58 -731 56 -733 -7 -10 -506 343 -814 576 -1800 1363 -3331 3056 -4458 4934
l-22 36 42 34 c153 120 267 246 328 361 60 114 102 164 149 177 52 14 244 130
339 205 96 76 116 112 107 190 -7 52 -6 56 23 83 16 15 62 41 101 56 143 56
223 127 331 291 29 44 139 256 245 470 210 423 297 569 403 675 93 92 179 134
276 134 84 1 130 -18 223 -88 110 -84 214 -221 328 -438 91 -171 147 -237 282
-330 223 -154 435 -330 636 -527 145 -142 218 -229 247 -293 29 -66 107 -136
405 -363 723 -551 1102 -912 1160 -1107 35 -120 5 -245 -73 -305 -65 -50 -106
-60 -577 -153 -392 -77 -743 -238 -1011 -462 -185 -156 -448 -459 -596 -688
-66 -101 -77 -130 -52 -130 10 0 67 23 127 51 59 28 111 48 115 45 12 -13 -32
-77 -144 -205 -63 -72 -114 -133 -114 -135 0 -3 27 6 60 20 81 33 214 64 273
64 72 0 60 -20 -75 -125 -150 -115 -150 -116 -102 -104 78 18 243 39 258 33 9
-3 16 -15 16 -26 0 -26 22 -19 130 43 129 74 178 83 405 75 480 -16 796 -18
907 -7 62 7 205 27 318 46 404 68 510 79 730 79 198 0 209 -1 339 -32 73 -18
147 -32 164 -30 l31 3 3248 8569 c1786 4714 3247 8571 3245 8572 -1 1 -99 12
-217 23 -849 84 -1771 213 -3885 540 -1229 191 -1441 217 -1835 226 -707 16
-1162 76 -1559 207 -133 44 -399 174 -916 448 -316 168 -635 325 -825 405
-678 288 -1273 442 -1950 504 -206 19 -648 33 -875 28 -199 -4 -254 -9 -405
-36 -212 -38 -441 -89 -610 -135 -69 -19 -126 -33 -128 -31 -9 9 344 560 559
870 1708 2470 4051 4482 6809 5849 2743 1360 5777 2031 8891 1965 1755 -37
3438 -298 5093 -790 109 -32 201 -60 203 -63 2 -2 -268 -273 -601 -602 -413
-409 -611 -612 -625 -642 -34 -67 -54 -160 -48 -220 7 -69 49 -155 92 -187 22
-17 220 -87 594 -211 314 -103 561 -190 561 -196 0 -7 -144 -395 -320 -862
-176 -468 -325 -877 -331 -909 -31 -154 55 -302 187 -322 96 -14 218 51 281
151 18 28 202 502 425 1094 l393 1045 0 95 c0 78 -4 102 -22 135 -24 46 -65
86 -108 108 -16 8 -231 81 -477 161 -247 81 -448 148 -448 150 0 2 507 505
1128 1118 1950 1927 2456 2427 2459 2425 1 -2 36 -392 78 -867z m16276 -18431
c179 -135 368 -176 668 -145 261 27 333 21 392 -35 l32 -30 -6 -102 c-9 -160
-53 -261 -160 -366 -105 -103 -212 -151 -331 -150 l-61 0 85 25 c103 30 178
74 234 135 78 87 136 239 136 361 0 47 -4 59 -19 68 -26 13 -138 13 -317 -1
-214 -17 -357 8 -513 91 -63 34 -157 113 -191 161 -29 40 -14 36 51 -12z m214
-1063 c66 -14 173 -29 238 -32 168 -10 167 -28 -1 -44 -83 -7 -88 -9 -112 -41
-73 -98 -146 -142 -230 -142 -179 0 -233 122 -115 262 33 38 22 38 220 -3z
m-32440 -3296 c-78 -10 -224 -20 -205 -14 26 8 163 21 215 21 l50 0 -60 -7z"/>
<path d="M35471 30848 c-106 -55 -181 -170 -227 -350 -37 -143 18 -287 128
-333 127 -52 287 31 362 189 63 131 79 191 74 287 -3 71 -9 93 -32 132 -40 69
-93 101 -175 105 -59 3 -73 0 -130 -30z"/>
<path d="M25052 9789 c-104 -40 -197 -169 -247 -343 -38 -131 -3 -270 83 -331
35 -24 55 -30 113 -33 59 -4 77 -1 124 22 98 49 163 139 221 312 86 256 -73
457 -294 373z"/>
<path d="M47996 13755 c-9 -26 -7 -32 5 -12 6 10 9 21 6 23 -2 3 -7 -2 -11
-11z"/>
<path d="M47966 13675 c-9 -26 -7 -32 5 -12 6 10 9 21 6 23 -2 3 -7 -2 -11
-11z"/>
</g>
</svg>
