<svg width="2765" height="2767" viewBox="0 0 2765 2767" fill="none" xmlns="http://www.w3.org/2000/svg">
<path d="M2415.92 2366.01C2345.03 2439.07 2281.61 2482.02 2233.05 2514.45C1759.48 2830.66 1218.13 2739.52 1050.75 2708.37C780.717 2658.11 552.771 2622.65 356.924 2445.71C-88.099 2043.65 -66.454 1204.92 273.598 685.365C313.918 623.761 653.455 120.461 1195.98 49.542C1209.25 47.807 1219.15 46.82 1227.82 45.901C1311.75 37.015 1831.83 -9.883 2255.9 345.405C2316.6 396.263 2414.29 487.997 2504.88 627.907C2836.12 1139.48 2837.17 1931.79 2415.92 2366.01Z" fill="url(#paint0_linear_2_1000)"/>
<path d="M2264.56 15.4711C2265.22 1.03114 2246.77 -5.62488 2237.88 5.77412C2147.61 121.523 1939.89 458.395 2084.11 968.11C2265.06 1607.62 2166.31 1866.64 2019.88 2038.06C2019.88 2038.06 2241.39 1933.67 2349.85 1669.56C2616.14 1021.11 2252.83 272.214 2264.56 15.4711Z" fill="#91B3FA"/>
<path d="M2215.81 231.61C2213.89 306.241 2213.43 380.869 2215.71 455.408C2217.6 529.945 2221.74 604.392 2228.2 678.602C2234.94 752.781 2243.08 826.822 2254.34 900.408C2265.28 974.041 2279.36 1047.12 2293.76 1120.45C2307.74 1193.81 2322.25 1267.64 2329.23 1343.17C2336.28 1418.54 2334.43 1495.96 2318.5 1570.75C2314.51 1589.4 2310.16 1608.04 2304.76 1626.24C2299.69 1644.55 2293.82 1662.64 2287.62 1680.61C2275.03 1716.51 2260.05 1751.64 2242.52 1785.49C2207.29 1853.12 2161.8 1915.33 2109.53 1970.13C2104.03 1975.89 2094.9 1976.11 2089.13 1970.61C2083.47 1965.21 2083.16 1956.3 2088.36 1950.52L2088.4 1950.48C2100.73 1936.79 2112.89 1922.98 2124.4 1908.68C2130.26 1901.61 2135.81 1894.31 2141.48 1887.1C2146.88 1879.7 2152.57 1872.5 2157.73 1864.93C2178.89 1835.03 2197.92 1803.68 2214.54 1771.07C2248.07 1706.09 2272.06 1635.77 2287.4 1564.35C2294.68 1528.54 2299.3 1492.26 2301.11 1455.74C2302.9 1419.23 2301.88 1382.52 2298.77 1345.84C2292.54 1272.43 2278.79 1199.24 2265.34 1125.78C2251.98 1052.29 2239.06 978.348 2229.2 903.988C2224.17 866.826 2219.81 829.577 2216.12 792.269C2214.16 773.627 2212.57 754.95 2210.95 736.279C2209.5 717.592 2208.16 698.9 2206.97 680.201C2202.35 605.392 2200.01 530.478 2200.05 455.595C2200.44 380.713 2202.82 305.866 2208.08 231.237C2208.23 229.103 2210.08 227.497 2212.21 227.647C2214.28 227.795 2215.86 229.556 2215.81 231.61Z" fill="white"/>
<path d="M2405.39 1871.23C2416.78 1895.31 2449.06 1899.92 2467 1880.24C2565.99 1771.62 2818.12 1439.23 2742.67 937.548C2678.97 513.902 2684.68 278.129 2694.69 171.277C2696.81 148.682 2668.85 136.518 2653.73 153.439C2486.89 340.132 1992.56 998.898 2405.39 1871.23Z" fill="#BDD0FB"/>
<path d="M2441.31 1868.04C2441.89 1868.35 2442.51 1868.61 2443.16 1868.81C2448.65 1870.5 2454.47 1867.42 2456.16 1861.93C2458.07 1855.71 2646.87 1232.9 2584.89 639.843C2584.3 634.136 2579.18 629.989 2573.47 630.58C2567.76 631.179 2563.61 636.292 2564.21 642.005C2625.73 1230.74 2438.18 1849.63 2436.28 1855.81C2434.8 1860.65 2437.01 1865.74 2441.31 1868.04Z" fill="white"/>
<g opacity="0.3">
<path d="M796.159 2219.74C791.239 2222.05 785.372 2219.94 783.056 2215.02C778.555 2205.46 773.573 2195.96 768.246 2186.77C765.551 2182.12 767.085 2176.19 771.662 2173.41C771.716 2173.38 771.77 2173.35 771.826 2173.31C776.53 2170.59 782.554 2172.19 785.282 2176.9C790.888 2186.57 796.134 2196.57 800.871 2206.63C803.038 2211.23 801.329 2216.67 797.073 2219.24C796.78 2219.42 796.476 2219.59 796.159 2219.74ZM739.253 2143.83C732.727 2135.46 725.781 2127.29 718.602 2119.54C714.909 2115.55 715.145 2109.32 719.134 2105.62C723.15 2101.93 729.354 2102.17 733.049 2106.16C740.602 2114.31 747.915 2122.91 754.783 2131.72C758.126 2136.01 757.358 2142.2 753.07 2145.54C752.758 2145.78 752.436 2146 752.107 2146.2C747.898 2148.75 742.353 2147.81 739.253 2143.83ZM680.853 2084.08C672.65 2077.39 664.057 2070.98 655.305 2065.02C650.812 2061.95 649.652 2055.83 652.713 2051.33C655.777 2046.85 661.898 2045.68 666.394 2048.74C675.609 2055.02 684.662 2061.78 693.298 2068.82C697.512 2072.26 698.14 2078.46 694.706 2082.68C693.973 2083.58 693.115 2084.31 692.177 2084.88C688.716 2086.98 684.168 2086.79 680.853 2084.08ZM610.557 2038.9C601.054 2034.21 591.237 2029.87 581.379 2026.01C576.316 2024.03 573.817 2018.32 575.799 2013.26C577.786 2008.2 583.496 2005.7 588.556 2007.68C598.936 2011.74 609.271 2016.31 619.274 2021.24C624.148 2023.65 626.15 2029.55 623.743 2034.43C622.882 2036.17 621.573 2037.55 620.024 2038.49C617.242 2040.17 613.688 2040.44 610.557 2038.9ZM531.948 2010.5C521.665 2008.04 511.129 2005.99 500.637 2004.4C495.259 2003.58 491.563 1998.57 492.377 1993.19C493.191 1987.81 498.211 1984.11 503.587 1984.93C514.624 1986.6 525.71 1988.77 536.53 1991.35C541.818 1992.62 545.079 1997.93 543.813 2003.22C543.176 2005.88 541.511 2008.03 539.338 2009.35C537.2 2010.65 534.571 2011.13 531.948 2010.5ZM449.014 2000.21C438.426 2000.08 427.702 2000.41 417.137 2001.18C411.715 2001.58 406.995 1997.51 406.599 1992.08C406.201 1986.66 410.273 1981.94 415.698 1981.54C426.815 1980.73 438.105 1980.39 449.248 1980.52C454.685 1980.58 459.039 1985.04 458.976 1990.48C458.934 1994.01 457.037 1997.09 454.222 1998.79C452.704 1999.71 450.921 2000.23 449.014 2000.21ZM122.803 2165.3C118.315 2162.23 117.163 2156.1 120.233 2151.61C126.522 2142.42 133.299 2133.38 140.373 2124.74C143.818 2120.53 150.022 2119.91 154.228 2123.36C158.434 2126.8 159.052 2133 155.608 2137.21C148.891 2145.41 142.458 2154 136.487 2162.73C135.668 2163.93 134.632 2164.89 133.466 2165.6C130.266 2167.53 126.093 2167.55 122.803 2165.3ZM365.912 2008.55C355.567 2010.78 345.193 2013.48 335.077 2016.6C329.878 2018.19 324.368 2015.27 322.771 2010.08C321.172 2004.88 324.101 1999.39 329.29 1997.77C339.942 1994.5 350.867 1991.65 361.762 1989.3C367.077 1988.15 372.315 1991.53 373.462 1996.85C374.371 2001.06 372.432 2005.23 368.939 2007.35C368.029 2007.9 367.011 2008.31 365.912 2008.55ZM177.229 2098.96C173.542 2094.97 173.794 2088.73 177.79 2085.05C185.977 2077.5 194.599 2070.2 203.411 2063.35C207.695 2060 213.89 2060.8 217.227 2065.09C220.561 2069.38 219.784 2075.57 215.49 2078.91C207.115 2085.41 198.92 2092.35 191.142 2099.52C190.646 2099.98 190.113 2100.38 189.557 2100.71C185.635 2103.09 180.457 2102.46 177.229 2098.96ZM286.773 2035.24C277.194 2039.73 267.682 2044.69 258.501 2049.99C253.791 2052.71 247.772 2051.09 245.052 2046.38C242.37 2041.73 243.908 2035.81 248.477 2033.04C248.536 2033 248.597 2032.97 248.658 2032.93C258.321 2027.35 268.335 2022.13 278.416 2017.41C283.342 2015.1 289.203 2017.22 291.51 2022.15C293.665 2026.75 291.954 2032.17 287.703 2034.74C287.406 2034.92 287.094 2035.09 286.773 2035.24Z" fill="#91B3FA"/>
<path d="M99.7621 2225.96C101.42 2224.95 102.802 2223.45 103.65 2221.55C105.713 2216.91 107.909 2212.24 110.172 2207.66C112.583 2202.78 110.586 2196.88 105.713 2194.47C100.84 2192.05 94.927 2194.05 92.523 2198.93C90.14 2203.74 87.8321 2208.66 85.6601 2213.54C83.4501 2218.5 85.6841 2224.33 90.6501 2226.53C93.7131 2227.9 97.0981 2227.57 99.7621 2225.96Z" fill="#91B3FA"/>
</g>
<g opacity="0.3">
<path d="M94.499 2526.08C98.564 2523.62 100.357 2518.5 98.513 2513.96C96.603 2509.26 94.7601 2504.44 93.0371 2499.63C91.2011 2494.51 85.5631 2491.85 80.4461 2493.68C75.3061 2495.53 72.6671 2501.16 74.5011 2506.28C76.3171 2511.34 78.2571 2516.41 80.2661 2521.37C82.3111 2526.41 88.0531 2528.83 93.0921 2526.79C93.5881 2526.59 94.057 2526.35 94.499 2526.08Z" fill="#91B3FA"/>
<path d="M631.366 2719.99C626.583 2722.57 620.608 2720.79 618.022 2716C615.438 2711.22 617.221 2705.26 622.005 2702.66C631.113 2697.74 640.151 2692.36 648.977 2686.6C653.499 2683.63 659.632 2684.91 662.603 2689.47C665.574 2694.02 664.29 2700.12 659.737 2703.09C655.913 2705.59 652.063 2708.01 648.188 2710.35C642.66 2713.7 637 2716.94 631.366 2719.99ZM688.695 2669.8C685.137 2665.69 685.583 2659.47 689.693 2655.91C697.583 2649.08 705.271 2641.84 712.539 2634.39C716.32 2630.49 722.569 2630.42 726.462 2634.21C730.352 2638.01 730.428 2644.24 726.631 2648.13C718.978 2655.98 710.887 2663.6 702.582 2670.79C702.151 2671.17 701.697 2671.5 701.226 2671.78C697.2 2674.22 691.884 2673.48 688.695 2669.8ZM582.53 2742.2C572.272 2746.04 561.708 2749.5 551.131 2752.47C545.896 2753.94 540.46 2750.89 538.989 2745.65C537.52 2740.42 540.574 2734.99 545.807 2733.51C555.853 2730.69 565.882 2727.41 575.622 2723.76C580.715 2721.85 586.389 2724.43 588.297 2729.53C589.983 2734.03 588.155 2738.99 584.185 2741.4C583.669 2741.71 583.116 2741.98 582.53 2742.2ZM747.623 2609.32C743.248 2606.09 742.316 2599.92 745.545 2595.55C751.734 2587.16 757.636 2578.41 763.09 2569.54C765.938 2564.9 771.998 2563.46 776.633 2566.31C781.265 2569.15 782.712 2575.21 779.866 2579.85C774.122 2589.19 767.906 2598.41 761.391 2607.24C760.603 2608.31 759.643 2609.17 758.573 2609.82C755.262 2611.82 750.93 2611.76 747.623 2609.32ZM498.642 2763.38C487.797 2764.87 476.736 2765.92 465.765 2766.49C460.335 2766.77 455.705 2762.6 455.419 2757.18C455.133 2751.74 459.306 2747.11 464.736 2746.83C475.157 2746.28 485.663 2745.29 495.962 2743.87C501.35 2743.13 506.317 2746.9 507.057 2752.29C507.608 2756.3 505.657 2760.08 502.4 2762.05C501.284 2762.73 500.014 2763.19 498.642 2763.38ZM412.142 2765.65C401.207 2764.73 390.184 2763.34 379.378 2761.51C374.016 2760.6 370.404 2755.53 371.308 2750.16C372.216 2744.79 377.295 2741.18 382.656 2742.1C392.923 2743.83 403.399 2745.15 413.791 2746.02C419.21 2746.48 423.233 2751.24 422.778 2756.66C422.502 2759.93 420.663 2762.68 418.059 2764.26C416.342 2765.3 414.293 2765.83 412.142 2765.65ZM327.201 2749.01C316.72 2745.73 306.261 2741.97 296.117 2737.84C291.08 2735.78 288.663 2730.04 290.712 2725C292.766 2719.96 298.51 2717.55 303.544 2719.6C313.184 2723.53 323.12 2727.1 333.082 2730.21C338.271 2731.84 341.162 2737.36 339.537 2742.55C338.791 2744.94 337.225 2746.83 335.244 2748.03C332.912 2749.44 330.007 2749.89 327.201 2749.01ZM247.913 2714.24C238.404 2708.75 229.019 2702.78 220.02 2696.52C215.558 2693.41 214.459 2687.27 217.568 2682.81C220.67 2678.35 226.812 2677.25 231.274 2680.36C239.817 2686.31 248.728 2691.97 257.762 2697.19C262.47 2699.9 264.083 2705.92 261.363 2710.63C260.503 2712.12 259.317 2713.3 257.945 2714.13C254.973 2715.93 251.137 2716.1 247.913 2714.24ZM178.168 2662.87C170.122 2655.43 162.289 2647.56 154.882 2639.45C151.213 2635.44 151.492 2629.21 155.507 2625.54C159.509 2621.89 165.747 2622.15 169.416 2626.17C176.451 2633.86 183.892 2641.35 191.533 2648.41C195.526 2652.1 195.772 2658.33 192.081 2662.32C191.438 2663.01 190.72 2663.6 189.948 2664.06C186.29 2666.28 181.465 2665.91 178.168 2662.87ZM121.463 2597.5C116.869 2590.87 112.422 2584 108.249 2577.11C106.737 2574.62 105.259 2572.11 103.81 2569.59C101.097 2564.88 102.604 2558.81 107.427 2556.15C112.137 2553.43 118.157 2555.05 120.874 2559.77C122.251 2562.16 123.658 2564.54 125.094 2566.91C129.062 2573.47 133.286 2579.99 137.654 2586.3C140.749 2590.77 139.632 2596.9 135.162 2600C134.993 2600.11 134.823 2600.22 134.651 2600.33C130.232 2603 124.439 2601.81 121.463 2597.5Z" fill="#91B3FA"/>
<path d="M800.955 2536.53C802.63 2535.52 804.018 2534 804.865 2532.07C807.008 2527.19 809.088 2522.18 811.048 2517.16C813.028 2512.09 810.526 2506.38 805.462 2504.41C800.396 2502.43 794.688 2504.92 792.708 2509.99C790.846 2514.76 788.869 2519.52 786.836 2524.16C784.649 2529.13 786.912 2534.94 791.891 2537.13C794.943 2538.47 798.306 2538.14 800.955 2536.53Z" fill="#91B3FA"/>
</g>
<path d="M739.819 2379.21C740.092 2377.26 739.103 2375.36 737.355 2374.47L687.475 2349C685.122 2322.95 678.599 2297.09 667.74 2272.46L699.035 2226.06C700.133 2224.43 700.076 2222.29 698.895 2220.72L658.487 2167.05C657.307 2165.48 655.26 2164.83 653.393 2165.44L600.148 2182.69C579.481 2165.45 556.429 2152.03 532.045 2142.57L521.355 2087.6C520.98 2085.67 519.424 2084.19 517.48 2083.92L450.959 2074.54C449.016 2074.27 447.111 2075.26 446.219 2077.01L420.752 2126.89C394.703 2129.24 368.841 2135.76 344.213 2146.62L297.81 2115.33C296.182 2114.23 294.038 2114.28 292.469 2115.47L238.801 2155.87C237.233 2157.06 236.587 2159.1 237.192 2160.97L254.444 2214.21C237.201 2234.88 223.784 2257.93 214.324 2282.32L159.348 2293.01C157.421 2293.38 155.943 2294.94 155.67 2296.88L146.295 2363.4C146.021 2365.35 147.011 2367.25 148.758 2368.14L198.64 2393.61C200.991 2419.66 207.515 2445.52 218.375 2470.15L187.08 2516.55C185.982 2518.18 186.038 2520.32 187.218 2521.89L227.627 2575.56C228.808 2577.13 230.854 2577.77 232.721 2577.17L285.967 2559.92C306.634 2577.16 329.686 2590.58 354.07 2600.04L364.76 2655.01C365.134 2656.94 366.69 2658.42 368.635 2658.69L435.156 2668.07C437.1 2668.34 439.003 2667.35 439.896 2665.6L465.364 2615.72C491.413 2613.37 517.274 2606.85 541.903 2595.99L588.306 2627.28C589.933 2628.38 592.078 2628.32 593.647 2627.14L647.313 2586.73C648.881 2585.55 649.528 2583.51 648.922 2581.64L631.671 2528.39C648.914 2507.73 662.33 2484.68 671.791 2460.29L726.767 2449.6C728.694 2449.23 730.171 2447.67 730.445 2445.73L739.819 2379.21Z" fill="#91B3FA"/>
<path d="M469.235 2433.55C434.913 2447.98 395.248 2431.81 380.811 2397.48C373.817 2380.86 373.718 2362.5 380.531 2345.8C387.341 2329.1 400.247 2316.05 416.878 2309.06C451.201 2294.63 490.866 2310.8 505.302 2345.13C518.434 2376.35 506.228 2412 478.071 2429.05C475.28 2430.74 472.329 2432.25 469.235 2433.55ZM395.118 2351.75C389.895 2364.56 389.971 2378.63 395.333 2391.38C406.4 2417.69 436.815 2430.1 463.129 2419.03C489.456 2407.97 501.85 2377.55 490.782 2351.23C479.715 2324.92 449.3 2312.51 422.986 2323.58C420.6 2324.58 418.318 2325.75 416.144 2327.07C406.7 2332.78 399.364 2341.34 395.118 2351.75Z" fill="#BDD0FB"/>
<path d="M527.405 2513.19C532.241 2510.27 536.958 2507.08 541.536 2503.63C542.977 2502.55 544.401 2501.44 545.807 2500.31C552.738 2494.73 559.213 2488.61 565.135 2482.05C565.216 2481.96 565.296 2481.87 565.377 2481.78C565.605 2481.52 565.833 2481.27 566.058 2481.01C566.501 2480.51 566.938 2480.01 567.374 2479.51C568.52 2478.19 568.627 2476.32 567.768 2474.89C567.559 2474.55 567.292 2474.23 566.971 2473.95C565.327 2472.53 562.842 2472.72 561.418 2474.36C554.097 2482.82 545.814 2490.55 536.798 2497.34C492.031 2531.06 435.002 2537.32 386.038 2519C358.802 2508.82 334.062 2491.03 315.313 2466.12C312.024 2461.76 308.98 2457.26 306.189 2452.64C287.397 2421.6 279.916 2385.34 285.05 2348.92C290.945 2307.09 312.779 2270.05 346.527 2244.64C416.232 2192.17 515.558 2206.19 568.012 2275.85C571.247 2280.15 574.252 2284.59 577.017 2289.16C589.003 2308.97 596.523 2331.17 598.958 2354.22C599.021 2354.81 599.213 2355.36 599.505 2355.84C600.27 2357.1 601.72 2357.88 603.288 2357.72C605.451 2357.48 607.023 2355.55 606.79 2353.38C604.233 2329.19 596.34 2305.88 583.756 2285.09C580.854 2280.29 577.7 2275.63 574.306 2271.12C519.233 2197.97 414.907 2183.29 341.789 2238.35C306.358 2265.02 283.44 2303.9 277.251 2347.82C271.86 2386.05 279.715 2424.12 299.442 2456.71C302.374 2461.55 305.569 2466.28 309.018 2470.86C335.698 2506.29 374.575 2529.21 418.491 2535.4C456.733 2540.79 494.81 2532.93 527.405 2513.19Z" fill="#BDD0FB"/>
<g opacity="0.3">
<path d="M1218.86 2267.17C1221.11 2265.81 1222.29 2263.09 1221.58 2260.41C1220.26 2255.42 1218.77 2250.41 1217.15 2245.5C1216.1 2242.31 1212.66 2240.58 1209.47 2241.63C1206.27 2242.67 1204.55 2246.12 1205.6 2249.31C1207.15 2253.99 1208.57 2258.77 1209.83 2263.53C1210.69 2266.78 1214.02 2268.71 1217.26 2267.85C1217.84 2267.7 1218.37 2267.47 1218.86 2267.17Z" fill="#91B3FA"/>
<path d="M1202.23 2223.54C1199.2 2224.98 1195.57 2223.69 1194.13 2220.65C1190.5 2212.99 1186.43 2205.43 1182.05 2198.18C1181.12 2196.65 1180.17 2195.13 1179.21 2193.61C1177.41 2190.78 1178.25 2187.02 1181.09 2185.22C1183.84 2183.62 1187.68 2184.26 1189.48 2187.1C1190.49 2188.69 1191.48 2190.28 1192.45 2191.88C1197.05 2199.48 1201.32 2207.41 1205.12 2215.44C1206.47 2218.28 1205.42 2221.65 1202.78 2223.25C1202.61 2223.35 1202.42 2223.45 1202.23 2223.54ZM1161.1 2168.59C1154.58 2160.65 1147.51 2153.04 1140.09 2145.97C1137.65 2143.66 1137.56 2139.81 1139.87 2137.38C1142.18 2134.96 1146.04 2134.85 1148.47 2137.16C1156.25 2144.57 1163.67 2152.54 1170.5 2160.87C1172.63 2163.47 1172.26 2167.3 1169.66 2169.44C1169.43 2169.62 1169.19 2169.79 1168.95 2169.94C1166.4 2171.48 1163.05 2170.96 1161.1 2168.59ZM1116.43 2126.12C1108.17 2120.03 1099.45 2114.39 1090.49 2109.36C1087.57 2107.71 1086.52 2104.01 1088.17 2101.08C1089.82 2098.15 1093.52 2097.11 1096.45 2098.75C1105.84 2104.03 1114.99 2109.95 1123.65 2116.34C1126.35 2118.33 1126.93 2122.14 1124.93 2124.84C1124.44 2125.5 1123.85 2126.03 1123.19 2126.43C1121.15 2127.67 1118.47 2127.63 1116.43 2126.12ZM1062.68 2095.93C1053.17 2092.04 1043.33 2088.7 1033.44 2086.02C1030.2 2085.14 1028.28 2081.8 1029.16 2078.56C1030.04 2075.33 1033.38 2073.41 1036.62 2074.28C1046.99 2077.1 1057.31 2080.59 1067.29 2084.67C1070.39 2085.94 1071.88 2089.5 1070.61 2092.6C1070.1 2093.85 1069.22 2094.85 1068.14 2095.5C1066.55 2096.46 1064.54 2096.69 1062.68 2095.93ZM1003.19 2079.77C993.026 2078.31 982.676 2077.47 972.422 2077.26C969.068 2077.2 966.399 2074.42 966.466 2071.06C966.532 2067.7 969.306 2065.03 972.669 2065.11C983.414 2065.32 994.265 2066.21 1004.92 2067.73C1008.24 2068.21 1010.55 2071.29 1010.08 2074.61C1009.81 2076.49 1008.71 2078.04 1007.2 2078.95C1006.04 2079.66 1004.64 2079.98 1003.19 2079.77ZM941.587 2078.54C931.38 2079.6 921.146 2081.31 911.162 2083.62C907.893 2084.37 904.624 2082.33 903.869 2079.06C903.114 2075.79 905.145 2072.53 908.423 2071.76C918.89 2069.34 929.629 2067.56 940.336 2066.45C943.676 2066.1 946.665 2068.53 947.01 2071.87C947.259 2074.28 946.057 2076.52 944.109 2077.7C943.364 2078.15 942.512 2078.45 941.587 2078.54ZM881.575 2092.42C871.97 2095.93 862.457 2100.1 853.302 2104.81C850.314 2106.35 846.649 2105.17 845.115 2102.18C843.578 2099.2 844.775 2095.58 847.742 2093.99C857.342 2089.06 867.316 2084.69 877.39 2081C880.544 2079.84 884.038 2081.46 885.194 2084.62C886.21 2087.39 885.076 2090.43 882.638 2091.91C882.306 2092.1 881.952 2092.28 881.575 2092.42ZM793.761 2138.95C791.545 2136.42 791.796 2132.58 794.321 2130.37C801.308 2124.23 808.753 2118.38 816.424 2112.98C817.585 2112.15 818.754 2111.35 819.928 2110.55C822.636 2108.59 826.489 2109.38 828.375 2112.17C830.262 2114.95 829.537 2118.72 826.759 2120.61C825.655 2121.36 824.558 2122.12 823.45 2122.91C816.106 2128.08 809.005 2133.66 802.341 2139.51C802.067 2139.75 801.775 2139.96 801.476 2140.14C798.999 2141.64 795.733 2141.2 793.761 2138.95Z" fill="#91B3FA"/>
</g>
<g opacity="0.3">
<path d="M1100.54 2554.25C1091.4 2559.62 1081.86 2564.47 1072.17 2568.69C1069.1 2570.03 1065.51 2568.62 1064.17 2565.54C1062.83 2562.46 1064.28 2558.9 1067.32 2557.54C1076.56 2553.52 1085.66 2548.89 1094.38 2543.76C1097.27 2542.06 1101 2543.03 1102.7 2545.92C1104.39 2548.79 1103.45 2552.49 1100.61 2554.21C1100.59 2554.22 1100.56 2554.23 1100.54 2554.25ZM1118.45 2535.33C1116.42 2532.66 1116.93 2528.85 1119.6 2526.81C1127.64 2520.69 1135.38 2514.01 1142.62 2506.97C1145.01 2504.65 1148.87 2504.68 1151.22 2507.1C1153.56 2509.5 1153.5 2513.35 1151.1 2515.69C1143.51 2523.07 1135.4 2530.07 1126.98 2536.48C1126.8 2536.62 1126.62 2536.74 1126.43 2536.85C1123.81 2538.44 1120.36 2537.83 1118.45 2535.33ZM1042.24 2579.59C1032.07 2582.6 1021.63 2585.01 1011.21 2586.76C1007.9 2587.31 1004.76 2585.07 1004.21 2581.76C1003.65 2578.45 1005.88 2575.33 1009.2 2574.76C1019.14 2573.09 1029.09 2570.79 1038.8 2567.93C1042.02 2566.98 1045.4 2568.82 1046.35 2572.04C1047.15 2574.74 1045.98 2577.56 1043.67 2578.96C1043.23 2579.23 1042.75 2579.44 1042.24 2579.59ZM1163.98 2493.05C1161.36 2490.95 1160.95 2487.12 1163.05 2484.5C1169.37 2476.62 1175.27 2468.28 1180.59 2459.7C1182.36 2456.85 1186.11 2455.97 1188.95 2457.73C1191.81 2459.5 1192.69 2463.25 1190.92 2466.1C1185.35 2475.1 1179.16 2483.86 1172.53 2492.12C1172.07 2492.69 1171.53 2493.15 1170.94 2493.51C1168.82 2494.8 1166.03 2494.69 1163.98 2493.05ZM979.564 2590.09C968.995 2590.56 958.286 2590.39 947.731 2589.58C944.382 2589.32 941.876 2586.4 942.132 2583.05C942.388 2579.7 945.308 2577.19 948.662 2577.45C958.73 2578.23 968.942 2578.39 979.023 2577.94C982.376 2577.79 985.219 2580.38 985.368 2583.74C985.472 2586.04 984.279 2588.1 982.438 2589.22C981.597 2589.73 980.618 2590.04 979.564 2590.09ZM916.19 2585.25C905.795 2583.17 895.433 2580.44 885.396 2577.14C882.207 2576.09 880.472 2572.66 881.521 2569.47C882.566 2566.28 886.003 2564.54 889.198 2565.59C898.77 2568.73 908.655 2571.34 918.576 2573.32C921.869 2573.98 924.005 2577.18 923.346 2580.48C922.997 2582.21 921.939 2583.63 920.53 2584.49C919.275 2585.25 917.741 2585.56 916.19 2585.25ZM855.795 2565.37C846.193 2560.86 836.784 2555.72 827.835 2550.1C824.989 2548.31 824.133 2544.56 825.92 2541.72C827.704 2538.87 831.461 2538.02 834.302 2539.8C842.836 2545.16 851.807 2550.06 860.963 2554.35C864.004 2555.78 865.312 2559.4 863.882 2562.44C863.355 2563.57 862.524 2564.46 861.533 2565.06C859.852 2566.08 857.709 2566.26 855.795 2565.37Z" fill="#91B3FA"/>
<path d="M1203.77 2440.44C1204.77 2439.83 1205.61 2438.93 1206.14 2437.78C1208.32 2433.06 1210.36 2428.24 1212.23 2423.48C1213.45 2420.35 1211.9 2416.82 1208.77 2415.6C1205.65 2414.39 1202.12 2415.93 1200.9 2419.05C1199.12 2423.6 1197.17 2428.19 1195.09 2432.7C1193.69 2435.75 1195.02 2439.36 1198.07 2440.77C1199.98 2441.64 1202.1 2441.45 1203.77 2440.44Z" fill="#91B3FA"/>
</g>
<path d="M1165.03 2331.35C1165.22 2330.05 1164.55 2328.77 1163.38 2328.17L1130.01 2311.13C1128.43 2293.7 1124.07 2276.4 1116.8 2259.92L1137.74 2228.87C1138.47 2227.78 1138.44 2226.34 1137.65 2225.29L1110.61 2189.38C1109.82 2188.33 1108.45 2187.9 1107.2 2188.3L1071.57 2199.85C1057.74 2188.31 1042.32 2179.33 1026 2173L1018.85 2136.21C1018.6 2134.92 1017.55 2133.94 1016.25 2133.75L971.74 2127.48C970.439 2127.3 969.165 2127.96 968.568 2129.13L951.527 2162.51C934.096 2164.08 916.791 2168.45 900.31 2175.71L869.26 2154.77C868.171 2154.04 866.736 2154.07 865.686 2154.86L829.774 2181.9C828.724 2182.7 828.293 2184.06 828.697 2185.31L840.241 2220.94C828.703 2234.77 819.724 2250.2 813.395 2266.52L776.607 2273.67C775.318 2273.92 774.329 2274.96 774.146 2276.26L767.872 2320.78C767.689 2322.08 768.351 2323.35 769.521 2323.95L802.9 2340.99C804.473 2358.42 808.838 2375.72 816.105 2392.2L795.164 2423.26C794.429 2424.34 794.466 2425.78 795.257 2426.83L822.297 2462.74C823.087 2463.79 824.456 2464.22 825.706 2463.82L861.335 2452.27C875.165 2463.81 890.59 2472.79 906.907 2479.12L914.06 2515.91C914.31 2517.2 915.352 2518.18 916.653 2518.37L961.166 2524.64C962.467 2524.82 963.741 2524.16 964.338 2522.99L981.379 2489.61C998.81 2488.04 1016.12 2483.67 1032.6 2476.41L1063.65 2497.35C1064.74 2498.08 1066.17 2498.05 1067.22 2497.26L1103.13 2470.22C1104.18 2469.43 1104.61 2468.06 1104.21 2466.81L1092.67 2431.18C1104.2 2417.35 1113.18 2401.92 1119.51 2385.61L1156.3 2378.45C1157.59 2378.2 1158.58 2377.16 1158.76 2375.86L1165.03 2331.35Z" fill="#91B3FA"/>
<path d="M984.289 2368.46C972.962 2373.22 960.458 2373.29 949.081 2368.65C937.707 2364.01 928.818 2355.22 924.055 2343.89C914.222 2320.52 925.23 2293.54 948.623 2283.66C972.007 2273.83 999.024 2284.85 1008.85 2308.22C1013.62 2319.55 1013.69 2332.05 1009.05 2343.43C1005.27 2352.68 998.755 2360.28 990.364 2365.36C988.435 2366.53 986.404 2367.56 984.289 2368.46ZM935.263 2339.17C938.768 2347.51 945.305 2353.98 953.676 2357.39C962.041 2360.8 971.24 2360.75 979.571 2357.25C987.898 2353.73 994.368 2347.21 997.784 2338.83C1001.2 2330.47 1001.14 2321.27 997.643 2312.94C990.41 2295.75 970.538 2287.64 953.339 2294.87C951.788 2295.52 950.312 2296.28 948.912 2297.12C934.802 2305.67 928.684 2323.53 935.263 2339.17Z" fill="#BDD0FB"/>
<path d="M1024.78 2423.89C1028.07 2421.89 1031.29 2419.72 1034.43 2417.36C1040.66 2412.67 1046.42 2407.34 1051.56 2401.51C1051.79 2401.24 1052.02 2400.98 1052.25 2400.72C1054.01 2398.67 1054.18 2395.79 1052.85 2393.59C1052.53 2393.06 1052.12 2392.57 1051.62 2392.14C1049.08 2389.94 1045.25 2390.23 1043.05 2392.76C1038.3 2398.25 1032.94 2403.26 1027.11 2407.64L1027.11 2407.64C1026.79 2407.88 1026.47 2408.12 1026.15 2408.35C1012.27 2418.6 996.363 2424.99 979.719 2427.29C970.684 2428.54 961.425 2428.58 952.15 2427.36C952.074 2427.35 951.999 2427.34 951.924 2427.33C951.692 2427.3 951.463 2427.27 951.234 2427.23C924.153 2423.42 900.177 2409.28 883.728 2387.43C881.597 2384.61 879.629 2381.7 877.82 2378.71C865.655 2358.61 860.813 2335.14 864.134 2311.56C867.952 2284.47 882.089 2260.5 903.935 2244.06C925.775 2227.63 952.731 2220.65 979.811 2224.46C1006.89 2228.28 1030.87 2242.41 1047.32 2264.26C1049.41 2267.04 1051.36 2269.92 1053.15 2272.87C1060.91 2285.7 1065.77 2300.07 1067.35 2314.99C1067.45 2315.9 1067.74 2316.75 1068.2 2317.49C1069.38 2319.44 1071.62 2320.65 1074.04 2320.39C1077.38 2320.03 1079.8 2317.05 1079.44 2313.7C1077.68 2297.01 1072.23 2280.93 1063.56 2266.58C1061.55 2263.27 1059.38 2260.06 1057.04 2256.95C1038.63 2232.5 1011.81 2216.69 981.506 2212.42C951.21 2208.15 921.064 2215.91 896.621 2234.34C872.176 2252.74 856.362 2279.56 852.096 2309.86C848.375 2336.24 853.795 2362.5 867.405 2384.99C869.426 2388.33 871.629 2391.59 874.009 2394.75C909.645 2442.07 975.153 2453.93 1024.78 2423.89Z" fill="#BDD0FB"/>
<path d="M1171.29 2132.98L1113.27 2653.32H1786.39L1698.72 2132.98H1171.29Z" fill="url(#paint1_linear_2_1000)"/>
<path d="M0 813.784V2040.07C0 2140.95 80.388 2223.44 181.232 2226.04C629.131 2237.59 2195.67 2265.6 2622.04 2259.31C2695.32 2258.23 2754.68 2199.59 2756.8 2126.33C2765.02 1841.45 2778.37 1156.4 2728.96 838.359C2718.55 771.383 2662.02 721.3 2594.27 719.133C2218.99 707.128 558.36 669.006 132.189 678.577C58.69 680.227 0 740.266 0 813.784Z" fill="url(#paint2_linear_2_1000)"/>
<path d="M76.947 807.814V1972.87C76.947 2031.77 124.226 2079.76 183.118 2080.64L2560.7 2110.01C2619.08 2110.89 2666.94 2063.91 2667.16 2005.52L2671.14 850.874C2671.29 809.122 2638.03 774.912 2596.29 773.895L162.09 724.718C115.405 723.582 76.947 761.117 76.947 807.814Z" fill="#91B3FA"/>
<path d="M2685.06 2158.29C2685.04 2158.29 2685.02 2158.29 2684.99 2158.29L76.8819 2113.85C74.7729 2113.81 73.0899 2112.07 73.1269 2109.96C73.1609 2107.85 74.882 2106.19 77.012 2106.21L2685.12 2150.64C2687.23 2150.68 2688.92 2152.42 2688.88 2154.53C2688.85 2156.62 2687.14 2158.29 2685.06 2158.29Z" fill="#7D97F4"/>
<path d="M1931.38 2759.78H946.222C919.458 2759.78 899.36 2740.73 904.535 2720.26L917.176 2670.27C920.977 2655.23 937.518 2644.2 957.163 2643.58L1906.89 2613.95C1927.42 2613.31 1945.59 2624.2 1950.06 2639.83L1972.85 2719.46C1978.77 2740.14 1958.58 2759.78 1931.38 2759.78Z" fill="url(#paint3_linear_2_1000)"/>
<g opacity="0.4">
<path d="M294.861 1612.69H144.126V1960.85H294.861V1612.69Z" fill="white"/>
<path d="M546.725 1305.49H395.99V1960.85H546.725V1305.49Z" fill="white"/>
<path d="M798.589 1598.59H647.854V1960.85H798.589V1598.59Z" fill="white"/>
<path d="M1050.45 1419.91H899.718V1960.85H1050.45V1419.91Z" fill="white"/>
<path d="M1302.32 1462.01H1151.58V1960.85H1302.32V1462.01Z" fill="white"/>
<path d="M1554.18 1411.7H1403.45V1960.85H1554.18V1411.7Z" fill="white"/>
<path d="M1806.05 1059.24H1655.31V1960.85H1806.05V1059.24Z" fill="white"/>
<path d="M2057.91 1213.04H1907.18V1960.85H2057.91V1213.04Z" fill="white"/>
<path d="M2309.77 1376.5H2159.04V1960.85H2309.77V1376.5Z" fill="white"/>
<path d="M2561.64 967.043H2410.9V1960.85H2561.64V967.043Z" fill="white"/>
</g>
<path d="M2490.7 1035.57C2496.23 1035.63 2500.71 1036.19 2500.71 1036.8V1359.59C2500.71 1360.2 2496.23 1360.75 2490.7 1360.8C2485.16 1360.86 2480.67 1360.4 2480.67 1359.78V1036.57C2480.67 1035.95 2485.16 1035.5 2490.7 1035.57Z" fill="url(#paint4_linear_2_1000)"/>
<path d="M2409.48 797.606L2564.1 799.73V1128.38L2409.48 1129.67V797.606Z" fill="url(#paint5_linear_2_1000)"/>
<path d="M2234.82 1005.05C2240.21 1005.13 2244.58 1005.59 2244.58 1006.07V1256.21C2244.58 1256.68 2240.21 1257.08 2234.82 1257.09C2229.42 1257.1 2225.04 1256.72 2225.04 1256.24V1005.76C2225.04 1005.28 2229.42 1004.96 2234.82 1005.05Z" fill="url(#paint6_linear_2_1000)"/>
<path d="M2159.04 937.064L2309.78 939.917V1134.07L2159.04 1133.3V937.064Z" fill="url(#paint7_linear_2_1000)"/>
<path d="M1982.76 1384.09C1988.17 1384.11 1992.55 1384.49 1992.55 1384.95V1624.61C1992.55 1625.07 1988.17 1625.51 1982.76 1625.59C1977.35 1625.67 1972.96 1625.36 1972.96 1624.9V1384.9C1972.96 1384.44 1977.35 1384.08 1982.76 1384.09Z" fill="url(#paint8_linear_2_1000)"/>
<path d="M1906.75 1106.88L2057.88 1105.95V1393.27L1906.75 1397.38V1106.88Z" fill="url(#paint9_linear_2_1000)"/>
<path d="M1730.21 1093.24C1735.05 1093.24 1738.98 1093.61 1738.98 1094.06V1329.24C1738.98 1329.69 1735.05 1330.14 1730.21 1330.23C1725.36 1330.32 1721.42 1330.04 1721.42 1329.58V1094.06C1721.42 1093.61 1725.36 1093.24 1730.21 1093.24Z" fill="url(#paint10_linear_2_1000)"/>
<path d="M1655.31 1020.3L1806.05 1019.03V1208.23L1655.31 1211.63V1020.3Z" fill="url(#paint11_linear_2_1000)"/>
<path d="M1476.75 981.185C1481.72 981.211 1485.76 981.701 1485.76 982.277V1283.61C1485.76 1284.19 1481.72 1284.74 1476.75 1284.83C1471.76 1284.93 1467.72 1284.54 1467.72 1283.96V982.184C1467.72 981.606 1471.76 981.158 1476.75 981.185Z" fill="url(#paint12_linear_2_1000)"/>
<path d="M1406.77 928.182L1554.18 927.843V1145.21L1406.77 1148.03V928.182Z" fill="url(#paint13_linear_2_1000)"/>
<path d="M1230.43 1454.7C1235.6 1454.69 1239.79 1454.99 1239.79 1455.37V1652.39C1239.79 1652.76 1235.6 1653.14 1230.43 1653.23C1225.25 1653.32 1221.05 1653.08 1221.05 1652.71V1455.39C1221.05 1455.01 1225.25 1454.7 1230.43 1454.7Z" fill="url(#paint14_linear_2_1000)"/>
<path d="M1143.27 1210.88L1302.26 1208.66V1459.43L1143.27 1464.62V1210.88Z" fill="url(#paint15_linear_2_1000)"/>
<path d="M899.545 1287.08L1050.33 1286.42V1430.87L899.545 1433.27V1287.08Z" fill="url(#paint16_linear_2_1000)"/>
<path d="M645.264 1239.19L796.105 1234.33V1449.67L645.264 1457.22V1239.19Z" fill="url(#paint17_linear_2_1000)"/>
<path d="M460.354 1543.32C465.508 1543.18 469.684 1543.43 469.684 1543.88V1775.08C469.684 1775.53 465.508 1776.08 460.354 1776.32C455.195 1776.56 451.008 1776.39 451.008 1775.95V1544.36C451.009 1543.92 455.196 1543.45 460.354 1543.32Z" fill="url(#paint18_linear_2_1000)"/>
<path d="M391.797 1632.85L548.315 1625.85V1785.04L391.797 1794.07V1632.85Z" fill="url(#paint19_linear_2_1000)"/>
<path d="M143.81 1224.42L293.498 1221.1V1368.77L143.81 1374.01V1224.42Z" fill="url(#paint20_linear_2_1000)"/>
<path d="M219.137 1889.89C213.778 1890.34 209.427 1889.58 209.427 1888.18V1157.86C209.427 1156.46 213.777 1155.23 219.137 1155.12C224.491 1155.01 228.831 1156.05 228.831 1157.44V1886.54C228.831 1887.93 224.492 1889.43 219.137 1889.89Z" fill="url(#paint21_linear_2_1000)"/>
<path d="M293.498 1648.97L143.81 1659.07V1367.16L293.498 1360.8V1648.97Z" fill="url(#paint22_linear_2_1000)"/>
<path d="M477.052 1871.24C471.893 1871.69 467.706 1871.26 467.706 1870.28V1356.81C467.706 1355.83 471.893 1354.85 477.052 1354.63C482.206 1354.42 486.382 1355.03 486.382 1356.01V1868.64C486.382 1869.62 482.205 1870.78 477.052 1871.24Z" fill="url(#paint23_linear_2_1000)"/>
<path d="M548.634 1687.13L395.99 1697.52V1525.71L548.634 1517.48V1687.13Z" fill="url(#paint24_linear_2_1000)"/>
<path d="M723.653 1956.12C718.684 1956.71 714.651 1955.93 714.651 1954.4V1151.24C714.651 1149.7 718.684 1148.27 723.653 1148.04C728.617 1147.82 732.641 1148.88 732.641 1150.42V1952.28C732.641 1953.82 728.618 1955.54 723.653 1956.12Z" fill="url(#paint25_linear_2_1000)"/>
<path d="M796.104 1736.29L641.466 1749.43V1399.37L796.104 1390.56V1736.29Z" fill="url(#paint26_linear_2_1000)"/>
<path d="M967.662 1758.49C962.308 1759.24 957.963 1759.07 957.963 1758.1V1253C957.963 1252.03 962.308 1250.82 967.662 1250.29C973.011 1249.76 977.345 1250.12 977.345 1251.09V1755.39C977.346 1756.35 973.011 1757.74 967.662 1758.49Z" fill="url(#paint27_linear_2_1000)"/>
<path d="M1050.33 1527.86L892.444 1537.21V1426.71L1050.33 1418.7V1527.86Z" fill="url(#paint28_linear_2_1000)"/>
<path d="M1229.46 1361.08C1224.22 1361.29 1219.96 1360.51 1219.96 1359.34V749.823C1219.96 748.656 1224.22 747.75 1229.46 747.8C1234.71 747.85 1238.96 748.835 1238.96 750V1358.59C1238.96 1359.76 1234.71 1360.87 1229.46 1361.08Z" fill="url(#paint29_linear_2_1000)"/>
<path d="M1302.32 1210.04L1149.63 1214.36V906.668L1302.32 905.954V1210.04Z" fill="url(#paint30_linear_2_1000)"/>
<path d="M1477.31 1657.14C1472.37 1657.46 1468.36 1656.42 1468.36 1654.82V817.346C1468.36 815.742 1472.37 814.465 1477.31 814.493C1482.25 814.521 1486.25 815.842 1486.25 817.443V1653.66C1486.25 1655.26 1482.25 1656.82 1477.31 1657.14Z" fill="url(#paint31_linear_2_1000)"/>
<path d="M1554.18 1415.12L1403.45 1421.43V1044.02L1554.18 1042.05V1415.12Z" fill="url(#paint32_linear_2_1000)"/>
<path d="M1729.21 1575.48C1724.43 1575.89 1720.55 1575.19 1720.55 1573.91V907.035C1720.55 905.759 1724.43 904.611 1729.21 904.473C1733.98 904.335 1737.85 905.257 1737.85 906.532V1572.43C1737.85 1573.7 1733.98 1575.07 1729.21 1575.48Z" fill="url(#paint33_linear_2_1000)"/>
<path d="M1806.05 1426.44L1655.31 1433.89V1195.48L1806.05 1190.71V1426.44Z" fill="url(#paint34_linear_2_1000)"/>
<path d="M1982.75 1093.23C1977.34 1093.34 1972.95 1092.7 1972.95 1091.8V621.794C1972.95 620.894 1977.34 620.22 1982.75 620.289C1988.16 620.357 1992.54 621.142 1992.54 622.04V1091.39C1992.54 1092.29 1988.16 1093.11 1982.75 1093.23Z" fill="url(#paint35_linear_2_1000)"/>
<path d="M2057.91 1113.42L1906.78 1116.5V755.356L2057.91 756.162V1113.42Z" fill="url(#paint36_linear_2_1000)"/>
<path d="M2234.81 1568.18C2229.41 1568.26 2225.03 1567.13 2225.03 1565.66V799.879C2225.03 798.413 2229.41 797.403 2234.81 797.624C2240.2 797.845 2244.57 799.211 2244.57 800.675V1565.4C2244.57 1566.86 2240.2 1568.11 2234.81 1568.18Z" fill="url(#paint37_linear_2_1000)"/>
<path d="M2309.77 1394.43L2159.04 1394.26V1109.24L2309.77 1112.43V1394.43Z" fill="url(#paint38_linear_2_1000)"/>
<path d="M2490.69 1003.42C2485.16 1003.54 2480.66 1002.88 2480.66 1001.95V513.65C2480.66 512.715 2485.16 512.004 2490.69 512.061C2496.22 512.118 2500.71 512.922 2500.71 513.855V1001.5C2500.71 1002.44 2496.22 1003.29 2490.69 1003.42Z" fill="url(#paint39_linear_2_1000)"/>
<path d="M2567.6 814.069L2412.98 815.796V633.385L2567.6 633.531V814.069Z" fill="url(#paint40_linear_2_1000)"/>
<path d="M2419.86 1733.84L1830.15 1730.02C1803.9 1729.85 1782.56 1708.23 1782.73 1681.98C1782.9 1655.73 1804.52 1634.39 1830.77 1634.56L2420.48 1638.38C2446.73 1638.55 2468.07 1660.17 2467.9 1686.42C2467.73 1712.67 2446.11 1734.01 2419.86 1733.84Z" fill="url(#paint41_linear_2_1000)"/>
<path d="M2364.74 1207.39L1898.45 1204.36C1787.51 1203.64 1696.15 1293.83 1695.43 1404.77L1694.23 1589.46C1693.96 1631.28 1727.95 1665.71 1769.77 1665.98L2487.43 1670.64C2529.24 1670.91 2563.68 1636.92 2563.95 1595.1L2565.15 1410.41C2565.87 1299.47 2475.68 1208.11 2364.74 1207.39Z" fill="url(#paint42_linear_2_1000)"/>
<path d="M2456.29 1695.89L1800.58 1691.64C1741.73 1691.26 1693.26 1739.1 1692.88 1797.95L1692.32 1883.98C1690.77 2123.15 1883.79 2536.48 2122.96 2538.03C2362.13 2539.58 2560.49 2128.79 2562.04 1889.62L2562.6 1803.59C2562.98 1744.74 2515.14 1696.27 2456.29 1695.89Z" fill="url(#paint43_linear_2_1000)"/>
<path d="M2444.28 1472.47C2444.07 1504.75 2419.39 1531.67 2387.24 1534.49C2213.22 1549.74 2032.8 1549.06 1847.18 1530.82C1814.97 1527.66 1790.46 1500.4 1790.67 1468.04L1790.89 1434.11C1791.1 1401.93 1815.65 1375.09 1847.69 1372.11C2028.29 1355.35 2208.88 1353.38 2389.44 1374.76C2421.04 1378.5 2444.71 1405.56 2444.51 1437.38L2444.28 1472.47Z" fill="url(#paint44_linear_2_1000)"/>
<path d="M1980.91 1452.49C1980.77 1474.42 1962.87 1492.08 1940.95 1491.94C1919.02 1491.8 1901.36 1473.91 1901.5 1451.98C1901.64 1430.05 1919.54 1412.39 1941.46 1412.53C1963.39 1412.68 1981.05 1430.57 1980.91 1452.49Z" fill="#91B3FA"/>
<path d="M2333.67 1454.78C2333.53 1476.71 2315.64 1494.37 2293.71 1494.23C2271.78 1494.09 2254.12 1476.19 2254.27 1454.27C2254.41 1432.34 2272.3 1414.68 2294.22 1414.82C2316.15 1414.96 2333.81 1432.86 2333.67 1454.78Z" fill="#91B3FA"/>
<path d="M1942.04 1507.46C1941.97 1506.14 1942.95 1505.05 1944.22 1504.97C1945.54 1504.89 1946.64 1505.88 1946.71 1507.19C1946.79 1508.46 1945.81 1509.56 1944.49 1509.64C1944.45 1509.64 1944.4 1509.64 1944.36 1509.64C1943.13 1509.63 1942.08 1508.69 1942.04 1507.46ZM1930.11 1508.7C1928.84 1508.43 1928.04 1507.2 1928.26 1505.93C1928.53 1504.66 1929.76 1503.82 1931.03 1504.08C1932.31 1504.34 1933.1 1505.53 1932.88 1506.85C1932.66 1507.95 1931.68 1508.75 1930.58 1508.74C1930.41 1508.74 1930.28 1508.7 1930.11 1508.7ZM1955.72 1505.51C1955.34 1504.28 1955.99 1502.97 1957.26 1502.59C1958.5 1502.18 1959.81 1502.87 1960.18 1504.1C1960.6 1505.33 1959.91 1506.64 1958.68 1507.06C1958.42 1507.14 1958.17 1507.14 1957.95 1507.14C1956.94 1507.13 1956.05 1506.53 1955.72 1505.51ZM1916.44 1504.15C1915.25 1503.59 1914.8 1502.19 1915.36 1501.05C1915.87 1499.86 1917.27 1499.36 1918.46 1499.93C1919.64 1500.48 1920.1 1501.89 1919.54 1503.03C1919.15 1503.92 1918.3 1504.38 1917.41 1504.37C1917.12 1504.37 1916.78 1504.33 1916.44 1504.15ZM1968.52 1500.25C1967.81 1499.14 1968.16 1497.7 1969.26 1496.99C1970.33 1496.32 1971.77 1496.66 1972.48 1497.73C1973.16 1498.84 1972.85 1500.28 1971.74 1500.99C1971.36 1501.24 1970.89 1501.33 1970.47 1501.32C1969.7 1501.32 1968.94 1500.93 1968.52 1500.25ZM1904.31 1496.35C1903.34 1495.54 1903.18 1494.05 1904.04 1493.04C1904.85 1492.07 1906.33 1491.95 1907.35 1492.77C1908.32 1493.58 1908.44 1495.06 1907.62 1496.08C1907.15 1496.63 1906.47 1496.92 1905.79 1496.91C1905.29 1496.91 1904.73 1496.74 1904.31 1496.35ZM1979.57 1491.96C1978.64 1491.06 1978.6 1489.58 1979.5 1488.61C1980.4 1487.68 1981.88 1487.65 1982.81 1488.55C1983.74 1489.44 1983.77 1490.93 1982.87 1491.86C1982.41 1492.36 1981.81 1492.57 1981.17 1492.57C1980.58 1492.56 1980.03 1492.35 1979.57 1491.96ZM1894.5 1485.81C1893.74 1484.74 1894 1483.3 1895.02 1482.55C1896.09 1481.79 1897.57 1482.01 1898.33 1483.08C1899.09 1484.14 1898.83 1485.58 1897.76 1486.34C1897.37 1486.64 1896.87 1486.8 1896.4 1486.8C1895.68 1486.79 1894.96 1486.45 1894.5 1485.81ZM1988.25 1481.16C1987.11 1480.51 1986.73 1479.11 1987.33 1477.97C1987.98 1476.83 1989.42 1476.45 1990.52 1477.06C1991.66 1477.7 1992.08 1479.14 1991.43 1480.24C1991 1481.05 1990.2 1481.47 1989.35 1481.46C1989.01 1481.46 1988.59 1481.37 1988.25 1481.16ZM1887.62 1473.16C1887.16 1471.97 1887.76 1470.58 1888.95 1470.12C1890.14 1469.66 1891.5 1470.26 1892 1471.45C1892.46 1472.64 1891.86 1474.04 1890.67 1474.5C1890.37 1474.58 1890.07 1474.67 1889.77 1474.66C1888.88 1474.66 1887.99 1474.1 1887.62 1473.16ZM1993.97 1468.55C1992.7 1468.25 1991.95 1466.97 1992.29 1465.7C1992.64 1464.47 1993.92 1463.71 1995.15 1464.02C1996.42 1464.37 1997.17 1465.64 1996.82 1466.87C1996.82 1466.87 1996.82 1466.87 1996.82 1466.91C1996.56 1467.93 1995.58 1468.65 1994.52 1468.64C1994.35 1468.64 1994.14 1468.59 1993.97 1468.55ZM1884.1 1459.18C1883.94 1457.91 1884.88 1456.73 1886.16 1456.56C1887.43 1456.41 1888.61 1457.34 1888.77 1458.62C1888.94 1459.89 1887.99 1461.07 1886.72 1461.24C1886.64 1461.24 1886.51 1461.23 1886.42 1461.23C1885.28 1461.23 1884.27 1460.37 1884.1 1459.18ZM1994.03 1452.6C1994.03 1452.56 1994.03 1452.56 1994.03 1452.51C1994.03 1452.47 1994.03 1452.43 1994.03 1452.34C1994.04 1451.07 1995.07 1450.02 1996.38 1450.02C1997.65 1450.03 1998.71 1451.1 1998.7 1452.37C1998.7 1452.42 1998.7 1452.46 1998.7 1452.5C1998.7 1452.54 1998.7 1452.59 1998.7 1452.63C1998.69 1453.9 1997.67 1454.95 1996.35 1454.95C1995.08 1454.94 1994.02 1453.87 1994.03 1452.6ZM1994.03 1452.34L1994.03 1452.39C1994.03 1452.34 1994.03 1452.39 1994.03 1452.34ZM1886.22 1447.4C1884.9 1447.22 1884.02 1446.07 1884.15 1444.8C1884.33 1443.49 1885.53 1442.6 1886.8 1442.78C1888.07 1442.92 1888.99 1444.11 1888.82 1445.38C1888.68 1446.57 1887.66 1447.45 1886.47 1447.45C1886.39 1447.45 1886.3 1447.4 1886.22 1447.4ZM1992.42 1439.22C1992.09 1437.99 1992.86 1436.68 1994.09 1436.39C1995.37 1436.06 1996.64 1436.83 1996.97 1438.07C1997.26 1439.34 1996.53 1440.61 1995.25 1440.94C1995.04 1440.98 1994.87 1440.98 1994.66 1440.98C1993.64 1440.97 1992.67 1440.29 1992.42 1439.22ZM1889.1 1433.89C1887.92 1433.41 1887.33 1432.05 1887.81 1430.82C1888.28 1429.64 1889.65 1429.05 1890.87 1429.53C1892.06 1430 1892.64 1431.37 1892.17 1432.59C1891.78 1433.48 1890.89 1434.07 1889.95 1434.06C1889.7 1434.06 1889.4 1433.97 1889.1 1433.89ZM1987.58 1426.93C1986.95 1425.78 1987.38 1424.34 1988.49 1423.75C1989.64 1423.13 1991.04 1423.52 1991.67 1424.67C1992.3 1425.82 1991.91 1427.21 1990.76 1427.84C1990.37 1428.05 1989.99 1428.13 1989.61 1428.13C1988.8 1428.13 1988 1427.7 1987.58 1426.93ZM1895.34 1421.54C1894.28 1420.72 1894.04 1419.28 1894.81 1418.23C1895.58 1417.21 1897.06 1416.97 1898.08 1417.74C1899.13 1418.51 1899.38 1419.95 1898.61 1421.01C1898.14 1421.64 1897.41 1421.98 1896.69 1421.97C1896.23 1421.97 1895.72 1421.84 1895.34 1421.54ZM1979.8 1416.19C1978.92 1415.25 1978.97 1413.76 1979.91 1412.88C1980.89 1411.99 1982.37 1412.05 1983.26 1412.99C1984.14 1413.93 1984.09 1415.41 1983.15 1416.3C1982.68 1416.72 1982.09 1416.93 1981.54 1416.92C1980.9 1416.92 1980.26 1416.7 1979.8 1416.19ZM1904.4 1411.07C1903.6 1410.09 1903.74 1408.61 1904.72 1407.77C1905.74 1406.97 1907.18 1407.1 1908.02 1408.09C1908.82 1409.11 1908.69 1410.59 1907.71 1411.39C1907.24 1411.77 1906.73 1411.94 1906.18 1411.93C1905.54 1411.93 1904.86 1411.63 1904.4 1411.07ZM1969.63 1407.72C1968.53 1407.04 1968.24 1405.55 1968.93 1404.49C1969.62 1403.4 1971.1 1403.06 1972.16 1403.75C1973.26 1404.48 1973.59 1405.92 1972.9 1407.02C1972.43 1407.7 1971.66 1408.07 1970.9 1408.07C1970.48 1408.07 1970.05 1407.98 1969.63 1407.72ZM1915.78 1403.22C1915.23 1402.02 1915.75 1400.63 1916.9 1400.08C1918.09 1399.54 1919.49 1400.06 1920.03 1401.25C1920.58 1402.4 1920.06 1403.79 1918.87 1404.34C1918.57 1404.51 1918.23 1404.59 1917.89 1404.59C1917 1404.58 1916.15 1404.07 1915.78 1403.22ZM1957.7 1402.04C1956.48 1401.61 1955.81 1400.29 1956.19 1399.07C1956.59 1397.84 1957.91 1397.17 1959.17 1397.6C1959.17 1397.6 1959.17 1397.6 1959.13 1397.6C1960.4 1397.99 1961.07 1399.31 1960.64 1400.54C1960.34 1401.55 1959.4 1402.18 1958.42 1402.18C1958.17 1402.17 1957.91 1402.13 1957.7 1402.04ZM1928.75 1398.42C1928.5 1397.14 1929.36 1395.92 1930.63 1395.72C1931.91 1395.47 1933.13 1396.28 1933.38 1397.56C1933.58 1398.83 1932.77 1400.06 1931.49 1400.3C1931.32 1400.34 1931.2 1400.34 1931.03 1400.34C1929.97 1400.34 1928.95 1399.57 1928.75 1398.42ZM1944.69 1399.54C1943.42 1399.45 1942.41 1398.34 1942.5 1397.02C1942.6 1395.75 1943.71 1394.78 1945.02 1394.83C1946.29 1394.93 1947.26 1396.04 1947.21 1397.35C1947.12 1398.58 1946.05 1399.55 1944.86 1399.54C1944.78 1399.54 1944.74 1399.54 1944.69 1399.54Z" fill="#91B3FA"/>
<path d="M2294.61 1509.74C2294.54 1508.43 2295.52 1507.33 2296.79 1507.26C2298.11 1507.18 2299.2 1508.16 2299.28 1509.48C2299.36 1510.75 2298.37 1511.85 2297.06 1511.93C2297.02 1511.93 2296.97 1511.93 2296.93 1511.92C2295.7 1511.92 2294.65 1510.98 2294.61 1509.74ZM2282.68 1510.98C2281.41 1510.72 2280.61 1509.48 2280.83 1508.21C2281.1 1506.94 2282.33 1506.1 2283.6 1506.37C2284.87 1506.63 2285.67 1507.82 2285.45 1509.13C2285.23 1510.23 2284.25 1511.03 2283.15 1511.03C2282.98 1511.03 2282.85 1510.98 2282.68 1510.98ZM2308.29 1507.8C2307.91 1506.56 2308.56 1505.25 2309.83 1504.88C2311.07 1504.46 2312.38 1505.15 2312.75 1506.38C2313.17 1507.62 2312.48 1508.93 2311.25 1509.34C2310.99 1509.43 2310.74 1509.42 2310.52 1509.42C2309.51 1509.42 2308.62 1508.82 2308.29 1507.8ZM2269.01 1506.44C2267.82 1505.88 2267.37 1504.48 2267.92 1503.34C2268.44 1502.15 2269.84 1501.65 2271.03 1502.21C2272.21 1502.77 2272.67 1504.17 2272.11 1505.32C2271.72 1506.2 2270.87 1506.66 2269.98 1506.66C2269.68 1506.66 2269.35 1506.61 2269.01 1506.44ZM2321.09 1502.54C2320.38 1501.43 2320.72 1499.99 2321.83 1499.27C2322.9 1498.6 2324.34 1498.95 2325.05 1500.02C2325.72 1501.12 2325.42 1502.56 2324.31 1503.28C2323.93 1503.53 2323.46 1503.61 2323.03 1503.61C2322.27 1503.6 2321.51 1503.22 2321.09 1502.54ZM2256.88 1498.64C2255.91 1497.83 2255.75 1496.34 2256.61 1495.33C2257.42 1494.36 2258.9 1494.24 2259.92 1495.05C2260.89 1495.86 2261.01 1497.35 2260.19 1498.36C2259.72 1498.91 2259.04 1499.2 2258.36 1499.2C2257.85 1499.2 2257.3 1499.02 2256.88 1498.64ZM2332.13 1494.25C2331.21 1493.35 2331.17 1491.87 2332.07 1490.9C2332.97 1489.97 2334.45 1489.94 2335.38 1490.83C2336.31 1491.73 2336.34 1493.22 2335.44 1494.14C2334.98 1494.65 2334.38 1494.86 2333.74 1494.85C2333.15 1494.85 2332.6 1494.63 2332.13 1494.25ZM2247.06 1488.1C2246.31 1487.03 2246.57 1485.59 2247.59 1484.83C2248.66 1484.08 2250.14 1484.3 2250.9 1485.36C2251.66 1486.43 2251.39 1487.87 2250.33 1488.63C2249.94 1488.92 2249.43 1489.09 2248.97 1489.08C2248.25 1489.08 2247.53 1488.74 2247.06 1488.1ZM2340.82 1483.44C2339.67 1482.8 2339.3 1481.4 2339.9 1480.25C2340.55 1479.11 2341.99 1478.74 2343.09 1479.34C2344.23 1479.99 2344.65 1481.43 2344 1482.53C2343.57 1483.33 2342.77 1483.75 2341.92 1483.75C2341.58 1483.75 2341.15 1483.66 2340.82 1483.44ZM2240.19 1475.45C2239.73 1474.26 2240.33 1472.86 2241.52 1472.41C2242.71 1471.95 2244.07 1472.55 2244.57 1473.74C2245.03 1474.93 2244.43 1476.33 2243.24 1476.79C2242.94 1476.87 2242.64 1476.95 2242.34 1476.95C2241.45 1476.94 2240.56 1476.39 2240.19 1475.45ZM2346.54 1470.84C2345.27 1470.53 2344.51 1469.25 2344.86 1467.98C2345.21 1466.75 2346.49 1466 2347.72 1466.31C2348.99 1466.65 2349.74 1467.93 2349.39 1469.16C2349.39 1469.16 2349.39 1469.16 2349.39 1469.2C2349.13 1470.22 2348.15 1470.93 2347.09 1470.93C2346.92 1470.92 2346.71 1470.88 2346.54 1470.84ZM2236.67 1461.47C2236.51 1460.2 2237.45 1459.01 2238.73 1458.85C2240 1458.69 2241.18 1459.63 2241.34 1460.9C2241.5 1462.18 2240.56 1463.36 2239.29 1463.52C2239.2 1463.52 2239.08 1463.52 2238.99 1463.52C2237.85 1463.51 2236.83 1462.66 2236.67 1461.47ZM2346.6 1454.89C2346.6 1454.84 2346.6 1454.84 2346.6 1454.8C2346.6 1454.76 2346.6 1454.72 2346.6 1454.63C2346.61 1453.36 2347.64 1452.3 2348.95 1452.31C2350.22 1452.32 2351.28 1453.39 2351.27 1454.66C2351.27 1454.7 2351.27 1454.75 2351.27 1454.79C2351.27 1454.83 2351.27 1454.87 2351.27 1454.92C2351.26 1456.19 2350.24 1457.24 2348.92 1457.23C2347.65 1457.22 2346.59 1456.16 2346.6 1454.89ZM2346.6 1454.63V1454.67C2346.6 1454.63 2346.6 1454.67 2346.6 1454.63ZM2238.78 1449.69C2237.47 1449.51 2236.59 1448.36 2236.72 1447.09C2236.9 1445.77 2238.09 1444.89 2239.37 1445.07C2240.64 1445.2 2241.56 1446.4 2241.39 1447.67C2241.25 1448.85 2240.23 1449.74 2239.04 1449.73C2238.95 1449.73 2238.87 1449.69 2238.78 1449.69ZM2344.99 1441.51C2344.66 1440.28 2345.43 1438.97 2346.66 1438.68C2347.94 1438.35 2349.21 1439.12 2349.54 1440.35C2349.83 1441.63 2349.1 1442.89 2347.82 1443.23C2347.61 1443.27 2347.44 1443.27 2347.23 1443.26C2346.21 1443.26 2345.24 1442.57 2344.99 1441.51ZM2241.67 1436.17C2240.49 1435.7 2239.9 1434.34 2240.38 1433.11C2240.85 1431.93 2242.22 1431.34 2243.44 1431.81C2244.63 1432.29 2245.21 1433.65 2244.74 1434.88C2244.35 1435.77 2243.45 1436.35 2242.52 1436.35C2242.27 1436.35 2241.97 1436.26 2241.67 1436.17ZM2340.15 1429.22C2339.52 1428.07 2339.95 1426.63 2341.06 1426.04C2342.21 1425.41 2343.61 1425.8 2344.24 1426.95C2344.87 1428.1 2344.47 1429.5 2343.32 1430.13C2342.94 1430.34 2342.56 1430.42 2342.18 1430.42C2341.37 1430.41 2340.57 1429.98 2340.15 1429.22ZM2247.9 1423.82C2246.85 1423.01 2246.61 1421.57 2247.37 1420.51C2248.15 1419.5 2249.63 1419.25 2250.64 1420.02C2251.7 1420.79 2251.95 1422.24 2251.17 1423.29C2250.7 1423.93 2249.98 1424.26 2249.26 1424.26C2248.79 1424.25 2248.29 1424.12 2247.9 1423.82ZM2332.37 1418.48C2331.49 1417.54 2331.54 1416.05 2332.48 1415.17C2333.46 1414.28 2334.94 1414.33 2335.83 1415.27C2336.71 1416.21 2336.66 1417.7 2335.72 1418.58C2335.25 1419 2334.66 1419.21 2334.1 1419.21C2333.47 1419.2 2332.83 1418.99 2332.37 1418.48ZM2256.97 1413.36C2256.17 1412.38 2256.31 1410.9 2257.29 1410.05C2258.31 1409.25 2259.75 1409.39 2260.59 1410.37C2261.39 1411.4 2261.26 1412.88 2260.28 1413.68C2259.8 1414.06 2259.3 1414.22 2258.74 1414.22C2258.11 1414.22 2257.43 1413.92 2256.97 1413.36ZM2322.2 1410.01C2321.1 1409.32 2320.81 1407.83 2321.5 1406.78C2322.19 1405.68 2323.67 1405.35 2324.73 1406.04C2325.83 1406.76 2326.16 1408.21 2325.47 1409.31C2325 1409.98 2324.23 1410.36 2323.47 1410.36C2323.05 1410.35 2322.62 1410.27 2322.2 1410.01ZM2268.35 1405.5C2267.8 1404.31 2268.32 1402.91 2269.47 1402.37C2270.66 1401.82 2272.06 1402.34 2272.6 1403.53C2273.15 1404.68 2272.63 1406.08 2271.44 1406.62C2271.14 1406.79 2270.8 1406.87 2270.46 1406.87C2269.57 1406.87 2268.72 1406.35 2268.35 1405.5ZM2310.27 1404.33C2309.04 1403.9 2308.37 1402.58 2308.76 1401.35C2309.15 1400.12 2310.47 1399.45 2311.74 1399.89C2311.74 1399.89 2311.74 1399.89 2311.7 1399.89C2312.97 1400.28 2313.64 1401.59 2313.21 1402.82C2312.9 1403.84 2311.97 1404.47 2310.99 1404.46C2310.74 1404.46 2310.48 1404.42 2310.27 1404.33ZM2281.32 1400.71C2281.07 1399.43 2281.93 1398.21 2283.2 1398C2284.48 1397.76 2285.7 1398.57 2285.95 1399.84C2286.15 1401.12 2285.34 1402.35 2284.06 1402.59C2283.89 1402.63 2283.77 1402.63 2283.6 1402.63C2282.54 1402.62 2281.52 1401.85 2281.32 1400.71ZM2297.26 1401.83C2295.99 1401.73 2294.98 1400.63 2295.07 1399.31C2295.17 1398.04 2296.28 1397.07 2297.59 1397.12C2298.86 1397.21 2299.83 1398.32 2299.78 1399.64C2299.69 1400.87 2298.62 1401.84 2297.43 1401.83C2297.35 1401.83 2297.31 1401.83 2297.26 1401.83Z" fill="#91B3FA"/>
<path d="M1757.61 1110.93C1757.53 1123.1 1747.61 1132.9 1735.44 1132.82C1723.27 1132.74 1713.47 1122.81 1713.55 1110.64C1713.63 1098.48 1723.56 1088.68 1735.72 1088.75C1747.89 1088.83 1757.69 1098.76 1757.61 1110.93Z" fill="url(#paint45_linear_2_1000)"/>
<path d="M1734.4 1292.84C1734.4 1292.84 1786.97 1299.91 1816.19 1231.41L1802.39 1202.49C1797.69 1192.65 1785.86 1188.54 1776.07 1193.35L1745.77 1208.26C1739.12 1211.53 1734.88 1218.29 1734.84 1225.7L1734.4 1292.84Z" fill="url(#paint46_linear_2_1000)"/>
<path d="M1739.88 1121C1739.31 1119.66 1737.29 1120.26 1737.55 1121.69L1755.06 1218.51C1755.45 1220.71 1756.93 1222.57 1758.99 1223.45C1761.05 1224.33 1763.41 1224.12 1765.28 1222.89L1770.91 1219.19C1775.58 1216.12 1777.4 1210.14 1775.23 1204.98L1739.88 1121Z" fill="url(#paint47_linear_2_1000)"/>
<path d="M2506.69 1115.79C2506.61 1127.95 2516.41 1137.88 2528.58 1137.96C2540.75 1138.04 2550.68 1128.24 2550.76 1116.07C2550.84 1103.9 2541.04 1093.98 2528.87 1093.9C2516.7 1093.82 2506.77 1103.62 2506.69 1115.79Z" fill="url(#paint48_linear_2_1000)"/>
<path d="M2527.54 1297.98C2527.54 1297.98 2474.89 1304.37 2446.56 1235.5L2460.73 1206.76C2465.56 1196.98 2477.44 1193.02 2487.16 1197.96L2517.27 1213.26C2523.88 1216.62 2528.03 1223.43 2527.98 1230.85L2527.54 1297.98Z" fill="url(#paint49_linear_2_1000)"/>
<path d="M2526.61 1126.81L2507.94 1222.97C2507.49 1225.26 2505.93 1227.17 2503.77 1228.07C2501.61 1228.96 2499.16 1228.71 2497.22 1227.4L2492 1223.87C2487.36 1220.73 2485.62 1214.74 2487.86 1209.6L2524.29 1126.09C2524.88 1124.75 2526.89 1125.38 2526.61 1126.81Z" fill="url(#paint50_linear_2_1000)"/>
<path d="M1884.59 1316.79C1872.64 1316.71 1862.51 1307.51 1861.51 1295.36C1860.46 1282.52 1870.02 1271.25 1882.86 1270.19C2052.56 1256.24 2207.57 1256.76 2356.74 1271.77C2369.56 1273.06 2378.91 1284.5 2377.62 1297.33C2376.33 1310.15 2364.93 1319.5 2352.07 1318.21C2205.76 1303.48 2053.53 1302.99 1886.68 1316.71C1885.98 1316.77 1885.28 1316.79 1884.59 1316.79Z" fill="#7D97F4"/>
<path d="M2120.3 1557.99C2026 1557.38 1930.99 1552.09 1835.87 1542.13C1801 1538.48 1774.89 1507.46 1775.13 1469.99L1775.37 1432.18C1775.61 1395 1801.89 1364.36 1836.5 1360.91C2040.59 1340.54 2225.19 1341.42 2400.85 1363.6C2434.84 1367.89 2460.29 1398.82 2460.05 1435.55L2459.8 1474.66C2459.56 1512.03 2433.17 1542.69 2398.41 1545.96C2306.88 1554.59 2213.95 1558.6 2120.3 1557.99ZM2133.51 1350.71C2038.75 1350.09 1940.35 1354.95 1836.93 1365.28C1804.57 1368.51 1779.99 1397.28 1779.76 1432.21L1779.52 1470.02C1779.29 1505.23 1803.71 1534.35 1836.33 1537.77C2025.63 1557.59 2214.6 1558.88 2398 1541.59C2430.5 1538.53 2455.18 1509.74 2455.41 1474.63L2455.66 1435.52C2455.88 1401.02 2432.08 1371.97 2400.29 1367.96C2313.96 1357.05 2225.45 1351.3 2133.51 1350.71Z" fill="#91B3FA"/>
<path d="M2277.34 1957.78L1971.87 1955.8C1942.63 1955.61 1919 1931.67 1919.19 1902.42L1919.75 1815.45C1919.94 1786.21 1943.88 1762.58 1973.13 1762.76L2278.59 1764.74C2307.83 1764.93 2331.47 1788.88 2331.28 1818.12L2330.71 1905.09C2330.52 1934.33 2306.58 1957.97 2277.34 1957.78ZM1973.1 1767.01C1946.2 1766.83 1924.17 1788.58 1923.99 1815.48L1923.43 1902.45C1923.26 1929.35 1945 1951.38 1971.9 1951.56L2277.36 1953.54C2304.27 1953.71 2326.3 1931.97 2326.47 1905.06L2327.03 1818.09C2327.21 1791.19 2305.46 1769.16 2278.56 1768.99L1973.1 1767.01Z" fill="#7D97F4"/>
<path d="M2001.76 1815.98C2001.21 1815.98 2000.66 1815.93 2000.11 1815.8C1999.56 1815.71 1999.05 1815.54 1998.54 1815.33C1998.03 1815.11 1997.52 1814.85 1997.06 1814.51C1996.59 1814.21 1996.17 1813.87 1995.79 1813.44C1994.23 1811.86 1993.32 1809.65 1993.33 1807.44C1993.34 1805.19 1994.29 1803.04 1995.87 1801.43C1999.03 1798.31 2004.72 1798.35 2007.88 1801.51C2008.26 1801.94 2008.59 1802.36 2008.93 1802.83C2009.22 1803.3 2009.48 1803.77 2009.68 1804.28C2009.89 1804.83 2010.06 1805.34 2010.14 1805.9C2010.26 1806.45 2010.3 1807 2010.3 1807.55C2010.29 1808.1 2010.25 1808.65 2010.12 1809.2C2010.03 1809.76 2009.86 1810.26 2009.64 1810.77C2009.43 1811.32 2009.17 1811.79 2008.87 1812.25C2008.53 1812.72 2008.18 1813.14 2007.8 1813.52C2007.42 1813.94 2006.95 1814.28 2006.48 1814.57C2006.01 1814.91 2005.54 1815.16 2005.03 1815.37C2004.52 1815.58 2003.97 1815.74 2003.41 1815.82C2002.9 1815.95 2002.31 1815.99 2001.76 1815.98Z" fill="url(#paint51_linear_2_1000)"/>
<path d="M2193.7 1808.74C2193.73 1804.08 2197.53 1800.28 2202.2 1800.31C2206.91 1800.34 2210.7 1804.19 2210.67 1808.85C2210.64 1813.52 2206.8 1817.31 2202.09 1817.28C2197.42 1817.25 2193.67 1813.41 2193.7 1808.74ZM2153.61 1808.48C2153.64 1803.82 2157.48 1800.02 2162.15 1800.05C2166.86 1800.08 2170.61 1803.93 2170.58 1808.59C2170.55 1813.26 2166.75 1817.05 2162.04 1817.02C2157.37 1816.99 2153.58 1813.15 2153.61 1808.48ZM2113.56 1808.22C2113.59 1803.56 2117.39 1799.76 2122.1 1799.79C2126.77 1799.82 2130.56 1803.67 2130.53 1808.33C2130.5 1813 2126.66 1816.79 2121.99 1816.76C2117.28 1816.73 2113.53 1812.89 2113.56 1808.22ZM2073.47 1807.96C2073.5 1803.3 2077.34 1799.5 2082.01 1799.53C2086.72 1799.56 2090.47 1803.41 2090.44 1808.07C2090.41 1812.74 2086.61 1816.53 2081.9 1816.5C2077.23 1816.47 2073.44 1812.63 2073.47 1807.96ZM2033.42 1807.7C2033.45 1803.04 2037.25 1799.24 2041.96 1799.27C2046.63 1799.3 2050.42 1803.15 2050.39 1807.81C2050.36 1812.48 2046.52 1816.27 2041.85 1816.24C2037.14 1816.21 2033.39 1812.37 2033.42 1807.7Z" fill="url(#paint52_linear_2_1000)"/>
<path d="M2242.18 1817.54C2239.93 1817.53 2237.78 1816.62 2236.22 1815C2235.79 1814.62 2235.46 1814.19 2235.16 1813.72C2234.87 1813.25 2234.58 1812.78 2234.37 1812.27C2234.16 1811.72 2233.99 1811.21 2233.91 1810.66C2233.79 1810.1 2233.75 1809.55 2233.75 1809C2233.77 1806.75 2234.67 1804.6 2236.29 1803.04C2236.68 1802.61 2237.1 1802.28 2237.57 1801.98C2238.04 1801.65 2238.51 1801.4 2239.06 1801.19C2239.57 1800.98 2240.08 1800.81 2240.64 1800.73C2243.4 1800.2 2246.32 1801.11 2248.3 1803.11C2249.86 1804.7 2250.74 1806.86 2250.72 1809.11C2250.72 1809.66 2250.67 1810.22 2250.54 1810.77C2250.45 1811.32 2250.28 1811.82 2250.06 1812.38C2249.85 1812.88 2249.59 1813.35 2249.25 1813.81C2248.95 1814.28 2248.61 1814.7 2248.22 1815.08C2247.8 1815.5 2247.37 1815.84 2246.9 1816.13C2246.43 1816.47 2245.96 1816.72 2245.45 1816.93C2244.9 1817.14 2244.39 1817.3 2243.84 1817.39C2243.29 1817.51 2242.73 1817.55 2242.18 1817.54Z" fill="url(#paint53_linear_2_1000)"/>
<path d="M2497.66 1820.72L2462.03 1827.18C2454.26 1828.58 2449.19 1836.14 2450.82 1843.87L2526.6 2206.44C2528.17 2213.85 2535.35 2218.67 2542.8 2217.32L2561.39 2213.95L2497.66 1820.72Z" fill="url(#paint54_linear_2_1000)"/>
<path d="M2639.45 2286.25L2601.9 2293.06C2586.75 2295.8 2572.19 2285.93 2569.14 2270.84L2481.67 1823.62L2586.39 1804.64C2594.88 1803.11 2602.98 1808.86 2604.31 1817.39L2662.33 2253.96C2664.77 2269.16 2654.6 2283.51 2639.45 2286.25Z" fill="url(#paint55_linear_2_1000)"/>
<path d="M2622.24 2135.68L2595 1943.87C2592.6 1930.63 2579.91 1921.83 2566.67 1924.23C2553.42 1926.63 2544.63 1939.32 2547.03 1952.56L2574.27 2144.37C2576.67 2157.61 2589.36 2166.41 2602.6 2164.01C2615.85 2161.61 2624.64 2148.92 2622.24 2135.68Z" fill="#7D97F4"/>
<path opacity="0.39" d="M2572.2 1923.23L2561.13 1925.24L2597.07 2165.01L2608.14 2163L2572.2 1923.23Z" fill="white"/>
<path d="M2525.76 1920.46C2580.87 1920.46 2625.55 1875.79 2625.55 1820.68C2625.55 1765.57 2580.87 1720.9 2525.76 1720.9C2470.65 1720.9 2425.98 1765.57 2425.98 1820.68C2425.98 1875.79 2470.65 1920.46 2525.76 1920.46Z" fill="url(#paint56_linear_2_1000)"/>
<path d="M2600.76 1807.09C2593.26 1765.67 2553.6 1738.18 2512.17 1745.68C2470.75 1753.19 2443.26 1792.85 2450.76 1834.27C2458.27 1875.69 2497.93 1903.19 2539.35 1895.68C2580.77 1888.18 2608.27 1848.51 2600.76 1807.09Z" fill="#7D97F4"/>
<path d="M2584.15 2334.22C2625 2348.45 2669.65 2326.88 2683.89 2286.03C2698.12 2245.18 2676.54 2200.52 2635.69 2186.29C2594.84 2172.06 2550.18 2193.64 2535.95 2234.49C2521.72 2275.34 2543.3 2319.99 2584.15 2334.22Z" fill="url(#paint57_linear_2_1000)"/>
<path d="M2590.24 2316.76C2621.44 2327.63 2655.55 2311.14 2666.42 2279.94C2677.29 2248.74 2660.81 2214.63 2629.6 2203.76C2598.4 2192.89 2564.29 2209.37 2553.42 2240.57C2542.55 2271.78 2559.03 2305.89 2590.24 2316.76Z" fill="#7D97F4"/>
<path d="M2467.9 2114.84L2584.64 2129.28L2560.19 2293.51L2446.56 2278.28L2449.22 2250.39L2527.98 2251.92L2538.96 2150.9L2467.9 2138.74V2114.84Z" fill="#91B3FA"/>
<path d="M2186.11 2460.02C2376.75 2460.02 2531.29 2305.47 2531.29 2114.83C2531.29 1924.2 2376.75 1769.65 2186.11 1769.65C1995.47 1769.65 1840.92 1924.2 1840.92 2114.83C1840.92 2305.47 1995.47 2460.02 2186.11 2460.02Z" fill="url(#paint58_linear_2_1000)"/>
<path d="M2186.11 2448.54C2370.41 2448.54 2519.81 2299.14 2519.81 2114.83C2519.81 1930.53 2370.41 1781.13 2186.11 1781.13C2001.8 1781.13 1852.4 1930.53 1852.4 2114.83C1852.4 2299.14 2001.8 2448.54 2186.11 2448.54Z" fill="url(#paint59_linear_2_1000)"/>
<path d="M1910.93 1979.55C1910.43 1979.55 1909.91 1979.43 1909.43 1979.19C1907.79 1978.36 1907.13 1976.35 1907.96 1974.71C1961.28 1869.07 2067.86 1803.45 2186.1 1803.45C2204.97 1803.45 2223.87 1805.15 2242.28 1808.51C2244.09 1808.84 2245.29 1810.57 2244.96 1812.39C2244.63 1814.2 2242.93 1815.43 2241.08 1815.06C2223.07 1811.78 2204.57 1810.12 2186.1 1810.12C2070.39 1810.12 1966.09 1874.34 1913.91 1977.71C1913.32 1978.88 1912.15 1979.55 1910.93 1979.55Z" fill="white"/>
<path opacity="0.78" d="M2393.06 2321.82C2503.35 2211.52 2503.35 2032.69 2393.05 1922.39C2282.76 1812.09 2103.93 1812.09 1993.63 1922.39C1883.33 2032.69 1883.33 2211.52 1993.63 2321.82C2103.93 2432.12 2282.76 2432.12 2393.06 2321.82Z" fill="white"/>
<path d="M1785.56 1811.57L1816.77 1829.91C1823.59 1833.91 1825.74 1842.75 1821.54 1849.44L1625.41 2163.66C1621.38 2170.07 1612.98 2172.12 1606.45 2168.29L1590.17 2158.72L1785.56 1811.57Z" fill="url(#paint60_linear_2_1000)"/>
<path d="M1491.97 2199.68L1524.87 2219.01C1538.14 2226.81 1555.21 2222.56 1563.28 2209.45L1799.57 1819.8L1707.81 1765.89C1700.37 1761.51 1690.79 1764.13 1686.6 1771.67L1481.62 2161.47C1474.1 2174.9 1478.69 2191.88 1491.97 2199.68Z" fill="url(#paint61_linear_2_1000)"/>
<path d="M1560.03 2064.26L1651.73 1893.61C1658.55 1882 1673.49 1878.12 1685.09 1884.94C1696.7 1891.76 1700.58 1906.7 1693.76 1918.31L1602.06 2088.96C1595.24 2100.57 1580.31 2104.45 1568.7 2097.63C1557.09 2090.81 1553.21 2075.87 1560.03 2064.26Z" fill="#7D97F4"/>
<path opacity="0.39" d="M1680.24 1882.09L1689.94 1887.79L1573.55 2100.48L1563.85 2094.78L1680.24 1882.09Z" fill="white"/>
<path d="M1759.19 1901.62C1814.3 1901.62 1858.97 1856.95 1858.97 1801.84C1858.97 1746.73 1814.3 1702.06 1759.19 1702.06C1704.08 1702.06 1659.41 1746.73 1659.41 1801.84C1659.41 1856.95 1704.08 1901.62 1759.19 1901.62Z" fill="url(#paint62_linear_2_1000)"/>
<path d="M1693.47 1763.23C1714.8 1726.93 1761.51 1714.8 1797.8 1736.12C1834.1 1757.45 1846.23 1804.16 1824.91 1840.45C1803.58 1876.75 1756.87 1888.88 1720.58 1867.56C1684.29 1846.23 1672.15 1799.52 1693.47 1763.23Z" fill="#7D97F4"/>
<path d="M1765.47 2305.35L1777.59 2277.96C1782.48 2266.91 1779.8 2254.94 1771.56 2251.02L1553.21 2141.57L1519.4 2217.96C1516.66 2224.16 1518.31 2230.84 1523.05 2232.76L1741.48 2319.01C1749.92 2322.47 1760.58 2316.4 1765.47 2305.35Z" fill="url(#paint63_linear_2_1000)"/>
<path d="M1517.64 2263.75C1478.08 2246.25 1460.2 2199.99 1477.71 2160.43C1495.21 2120.87 1541.47 2102.99 1581.03 2120.5C1620.59 2138 1638.47 2184.26 1620.96 2223.82C1603.46 2263.38 1557.2 2281.25 1517.64 2263.75Z" fill="url(#paint64_linear_2_1000)"/>
<path d="M1525.12 2246.84C1494.91 2233.47 1481.25 2198.13 1494.62 2167.91C1507.99 2137.69 1543.33 2124.04 1573.54 2137.41C1603.76 2150.78 1617.42 2186.12 1604.05 2216.33C1590.68 2246.55 1555.34 2260.21 1525.12 2246.84Z" fill="#7D97F4"/>
<path d="M1769.49 2345.71L1740.68 2332.83C1739.58 2332.34 1739.09 2331.05 1739.58 2329.95L1779.76 2240.09C1780.25 2238.98 1781.54 2238.49 1782.64 2238.98L1811.45 2251.86C1812.56 2252.36 1813.05 2253.65 1812.56 2254.75L1772.38 2344.61C1771.89 2345.71 1770.59 2346.21 1769.49 2345.71Z" fill="url(#paint65_linear_2_1000)"/>
<path d="M1840.23 2267.02C1856.97 2271.77 1870.82 2285.03 1875.49 2303.09C1882.51 2330.19 1866.22 2357.84 1839.13 2364.85C1825.41 2368.39 1811.56 2365.98 1800.31 2359.21L1840.23 2267.02Z" fill="url(#paint66_linear_2_1000)"/>
<path d="M1809.2 2253.53L1815.74 2238.89C1816.92 2236.25 1820.17 2235.14 1822.99 2236.4L1850.13 2248.53C1852.95 2249.79 1854.29 2252.96 1853.11 2255.6L1800.94 2372.28C1799.76 2374.92 1796.51 2376.04 1793.68 2374.78L1766.55 2362.65C1763.72 2361.38 1762.39 2358.22 1763.57 2355.58L1769.57 2342.17L1809.2 2253.53Z" fill="url(#paint67_linear_2_1000)"/>
<path d="M1944.51 2446.83L1832.95 2409.55L1889.46 2253.41L1997.81 2290.86L1989.68 2317.67L1912.78 2300.57L1882 2397.41L1949.24 2423.41L1944.51 2446.83Z" fill="#91B3FA"/>
<path d="M462.517 280.684C462.566 279.278 462.61 277.987 462.645 276.868C462.745 273.71 461.465 270.688 459.115 268.578C445.342 256.211 393.763 213.794 320.87 200.581C316.942 199.869 313.534 201.644 311.622 204.447C317.697 205.184 325.841 206.734 336.813 209.616C372.845 219.081 425.233 244.267 462.517 280.684Z" fill="url(#paint68_linear_2_1000)"/>
<path d="M336.814 209.616C325.842 206.734 317.698 205.184 311.623 204.447C309.698 207.269 309.287 211.131 311.388 214.555C312.57 216.482 314.024 218.567 315.811 220.804C327.219 235.088 419.417 329.684 419.417 329.684C419.417 329.684 448.687 333.256 457.635 328.07C460.535 326.389 461.974 296.007 462.519 280.684C425.233 244.267 372.845 219.081 336.814 209.616Z" fill="url(#paint69_linear_2_1000)"/>
<path d="M459.011 378.936V322.594C459.011 317.823 455.981 313.536 451.437 312.078C444.445 309.834 433.694 307.733 423.918 311.397C418.182 313.546 414.327 318.987 413.839 325.092L409.641 377.714L459.011 378.936Z" fill="url(#paint70_linear_2_1000)"/>
<path d="M235.56 329.047C234.886 326.828 233.584 324.972 231.916 323.585C220.092 325.92 195.461 332.436 145 350.253C86.5009 370.908 69.378 388.945 64.443 398.591C89.51 405.93 146.476 417.151 228.196 401.181L244.341 393.611C244.342 393.609 243.21 354.238 235.56 329.047Z" fill="url(#paint71_linear_2_1000)"/>
<path d="M145.001 350.253C195.462 332.436 220.092 325.921 231.917 323.586C229.316 321.423 225.806 320.424 222.265 321.162C193.213 327.207 105.427 347.873 59.5489 385.066C54.9689 388.78 56.3089 396.107 61.9449 397.842C62.7369 398.086 63.575 398.337 64.444 398.591C69.378 388.944 86.501 370.908 145.001 350.253Z" fill="url(#paint72_linear_2_1000)"/>
<path d="M274.578 427.638L240.194 386.434C236.846 382.422 231.401 380.835 226.437 382.465C220.934 384.273 213.621 388.002 206.545 395.695C203.245 399.283 202.596 404.6 204.831 408.932L229.844 457.405L274.578 427.638Z" fill="url(#paint73_linear_2_1000)"/>
<path d="M402.108 359.32C402.108 359.32 444.065 351.265 467.348 359.32C467.348 359.32 498.033 543.48 492.76 602.694L402.108 621.12C402.108 621.12 399.533 413.63 402.108 359.32Z" fill="url(#paint74_linear_2_1000)"/>
<path d="M774.158 681.989C774.158 681.989 477.716 698.633 357.4 690.332C345.614 689.518 335.161 682.545 329.882 671.977C304.094 620.353 226.759 465.44 219.975 450.655C219.975 450.655 251.386 424.412 274.578 420.788C274.578 420.788 384.372 542.933 388.965 605.251C388.965 605.251 643.225 532.123 668.338 532.817C693.45 533.51 770.461 567.872 770.461 567.872L774.158 681.989Z" fill="url(#paint75_linear_2_1000)"/>
<path d="M1169.32 450.926C1169.32 450.926 1158.44 428.314 1167.88 416.38C1177.31 404.445 1211.32 367.51 1211.32 367.51L1215.27 341.984L1229.25 383.563L1199.26 446.289C1199.26 446.287 1181.7 465.28 1169.32 450.926Z" fill="url(#paint76_linear_2_1000)"/>
<path d="M1245.49 556.118C1234.5 517.518 1219.38 480.776 1199.26 446.288L1169.32 450.927L1184.09 554.704C1195.39 558.12 1226.22 565.912 1245.49 556.118Z" fill="url(#paint77_linear_2_1000)"/>
<path d="M1264.88 657.167C1261.05 622.3 1254.72 588.556 1245.49 556.118C1226.22 565.912 1195.39 558.12 1184.09 554.703L1188.33 584.502L1176.99 544.372C1163.19 495.561 1133.83 452.589 1093.38 421.981L1065.21 400.664C1037.52 379.717 993.26 386.953 965.017 407.14C902.309 451.958 809.228 527.099 777.448 552.945C770.615 558.502 761.255 559.744 753.201 556.178L747.899 553.83C742.887 551.611 737.357 555.666 737.965 561.112L751.457 684.475L966.874 681.989C992.704 681.989 1067.53 679.328 1079.43 656.405L1099.35 607.511C1146.03 647.211 1205.91 674.483 1237.99 682.431C1252.78 686.094 1266.63 673.184 1264.88 657.167Z" fill="url(#paint78_linear_2_1000)"/>
<path d="M1113.58 334.488L1047.36 398.818C1042.94 403.107 1042.53 410.107 1046.48 414.822C1066.91 439.16 1084.44 451.922 1099.01 452.884C1105.2 453.291 1111.05 450.028 1114.37 444.795L1149.57 389.293L1113.58 334.488Z" fill="url(#paint79_linear_2_1000)"/>
<path d="M1247.24 651.476L1304.21 629.306L1370.44 681.989L1251.84 682.431L1247.24 651.476Z" fill="url(#paint80_linear_2_1000)"/>
<path d="M1224.62 319.614C1224.62 319.614 1215.59 383.158 1191.18 402.699C1166.77 422.241 1119.21 407.527 1103.15 359.623L1135.15 277.716L1224.62 319.614Z" fill="url(#paint81_linear_2_1000)"/>
<path d="M1131.55 330.718C1133.4 331.316 1135.35 330.127 1135.64 328.197C1136.52 322.332 1138.72 310.723 1143.17 302.816C1143.17 302.816 1140.84 294.48 1164.24 307.074C1187.64 319.668 1222.78 338.168 1243.47 327.152C1263.65 316.411 1284.08 262.357 1230.77 272.372C1228.74 272.753 1226.87 271.137 1227.02 269.079C1227.68 260.195 1226.8 239.756 1206.1 233.196C1186.73 227.057 1176.13 235.801 1171.76 241.078C1170.47 242.63 1168.09 242.6 1166.86 241C1161.06 233.425 1145.3 217.303 1122.11 227.525C1103 235.945 1100.03 247.713 1100.34 255.047C1100.45 257.422 1098.04 259.033 1095.88 258.038C1090.02 255.343 1080.61 253.943 1071.6 265.239C1059.13 280.856 1076.94 294.398 1082.29 297.949C1083.16 298.531 1083.71 299.495 1083.71 300.546C1083.76 308.668 1085.03 344.095 1102.78 364.078C1104.32 365.809 1107.16 365.301 1108.06 363.167L1121.73 330.594C1122.37 329.08 1124.05 328.305 1125.61 328.808L1131.55 330.718Z" fill="url(#paint82_linear_2_1000)"/>
<path d="M1131.83 337.331C1131.83 337.331 1123.49 303.328 1110.8 314.368C1098.12 325.408 1114.11 349.706 1128.64 354.337L1131.83 337.331Z" fill="url(#paint83_linear_2_1000)"/>
<path d="M1036.46 480.765C1036.46 480.765 1039.01 402.098 1006.7 400.518C966.569 398.555 902.066 427.638 940.464 542.933C961.679 606.631 993.648 653.895 1081.42 673.919C1085.69 641.639 1100.32 619.146 1111.14 606.461C1075.38 581.263 1045.08 541.999 1036.46 480.765Z" fill="url(#paint84_linear_2_1000)"/>
<path d="M1107.11 606.686C1106.48 606.686 1105.85 606.499 1105.3 606.112C1064.12 577.096 1041.26 537.403 1033.35 481.205C1033.32 481.027 1033.31 480.846 1033.32 480.665C1033.99 459.642 1030.5 404.831 1006.54 403.658C994.961 403.103 982.81 405.276 972.327 409.815C970.732 410.502 968.882 409.772 968.192 408.177C967.502 406.583 968.235 404.732 969.829 404.041C981.177 399.128 994.326 396.785 1006.85 397.374C1041.18 399.054 1039.78 474.531 1039.61 480.59C1047.3 534.81 1069.33 573.069 1108.92 600.97C1110.34 601.971 1110.68 603.934 1109.68 605.352C1109.07 606.223 1108.1 606.686 1107.11 606.686Z" fill="url(#paint85_linear_2_1000)"/>
<path d="M1053.48 669.158C1053.14 669.158 1052.8 669.103 1052.46 668.986C979.644 643.858 954.166 594.028 937.48 543.929C933.701 532.579 930.784 521.647 928.809 511.431C928.478 509.726 929.594 508.077 931.298 507.749C933.006 507.417 934.653 508.535 934.983 510.24C936.907 520.186 939.754 530.851 943.446 541.94C959.623 590.513 984.275 638.804 1054.51 663.042C1056.15 663.61 1057.02 665.397 1056.46 667.04C1056.01 668.341 1054.79 669.158 1053.48 669.158Z" fill="url(#paint86_linear_2_1000)"/>
<path d="M1263.36 681.989L1263.23 651.476C1263.23 651.476 1177.71 653.369 1111.14 606.461C1100.32 619.146 1085.69 641.639 1081.42 673.919C1125.83 684.051 1184.52 687.215 1263.36 681.989Z" fill="url(#paint87_linear_2_1000)"/>
<path d="M1153.73 692.636C1153.94 692.646 1154.15 692.652 1154.36 692.65L1426.38 692.353C1433.1 692.348 1438.55 686.89 1438.54 680.166C1438.53 673.439 1433.06 667.882 1426.35 668.003L1154.33 668.3C1147.61 668.306 1142.16 673.763 1142.17 680.487C1142.17 687.003 1147.3 692.318 1153.73 692.636Z" fill="url(#paint88_linear_2_1000)"/>
<path d="M1670.91 445.66H1444.37C1427.66 445.66 1412.45 455.304 1405.32 470.42L1300.59 692.492H1582.12C1592.89 692.492 1602.56 685.912 1606.52 675.896L1687.74 470.401C1692.43 458.527 1683.68 445.66 1670.91 445.66Z" fill="url(#paint89_linear_2_1000)"/>
<path d="M1511.31 559.522C1506.4 574.775 1510.03 589.587 1519.41 592.607C1528.79 595.627 1540.38 585.711 1545.29 570.459C1550.2 555.207 1546.57 540.394 1537.19 537.374C1527.81 534.355 1516.22 544.271 1511.31 559.522Z" fill="#91B3FA"/>
<path d="M2152.54 2355.99V2318.2C2111.61 2316.62 2071.12 2307.33 2042.37 2295.21C2032.1 2290.89 2026.87 2279.8 2029.82 2269.39L2039.79 2234.2C2043.45 2221.29 2058.04 2214.61 2070.87 2219.78C2099.39 2231.29 2134.61 2240.39 2172.59 2240.39C2212.01 2240.39 2241.41 2227.53 2241.41 2201.16C2241.41 2177.37 2218.7 2163.23 2163.9 2149.08C2085.72 2128.51 2029.59 2095.71 2029.59 2029.48C2029.59 1969.67 2075.03 1924.02 2153.88 1911.8V1874.01C2153.88 1861.86 2164.12 1852 2176.76 1852H2199.83C2212.46 1852 2222.7 1861.86 2222.7 1874.01V1907.94C2260.58 1909.4 2288.15 1915.64 2310.03 1923.03C2321.24 1926.82 2327.37 1938.44 2324.26 1949.48L2315.08 1982.03C2311.54 1994.58 2297.6 2001.46 2284.96 1996.86C2264.82 1989.53 2236.34 1981.89 2199.32 1981.89C2152.54 1981.89 2139.18 2000.54 2139.18 2017.26C2139.18 2037.83 2167.24 2051.98 2228.05 2069.99C2314.92 2095.07 2351 2129.79 2351 2192.16C2351 2249.39 2306.9 2300.84 2221.37 2313.7V2355.99C2221.37 2368.14 2211.12 2378 2198.49 2378H2175.42C2162.79 2378 2152.54 2368.14 2152.54 2355.99Z" fill="url(#paint90_linear_2_1000)"/>
<defs>
<linearGradient id="paint0_linear_2_1000" x1="2992.41" y1="3186.04" x2="1072.34" y2="1142.09" gradientUnits="userSpaceOnUse">
<stop stop-color="#DAE3FE"/>
<stop offset="1" stop-color="#E9EFFD"/>
</linearGradient>
<linearGradient id="paint1_linear_2_1000" x1="1288.32" y1="2635.2" x2="2083.31" y2="1625.21" gradientUnits="userSpaceOnUse">
<stop stop-color="#09005D"/>
<stop offset="1" stop-color="#1A0F91"/>
</linearGradient>
<linearGradient id="paint2_linear_2_1000" x1="1402.19" y1="525.984" x2="1362.19" y2="2115.96" gradientUnits="userSpaceOnUse">
<stop stop-color="#09005D"/>
<stop offset="1" stop-color="#1A0F91"/>
</linearGradient>
<linearGradient id="paint3_linear_2_1000" x1="1478.32" y1="3582.98" x2="1448.32" y2="2932.99" gradientUnits="userSpaceOnUse">
<stop stop-color="#09005D"/>
<stop offset="1" stop-color="#1A0F91"/>
</linearGradient>
<linearGradient id="paint4_linear_2_1000" x1="2480.67" y1="1198.18" x2="2500.71" y2="1198.18" gradientUnits="userSpaceOnUse">
<stop stop-color="#FEBBBA"/>
<stop offset="1" stop-color="#FF928E"/>
</linearGradient>
<linearGradient id="paint5_linear_2_1000" x1="2409.48" y1="963.638" x2="2564.1" y2="963.638" gradientUnits="userSpaceOnUse">
<stop stop-color="#FEBBBA"/>
<stop offset="1" stop-color="#FF928E"/>
</linearGradient>
<linearGradient id="paint6_linear_2_1000" x1="2225.04" y1="1131.06" x2="2244.58" y2="1131.06" gradientUnits="userSpaceOnUse">
<stop stop-color="#FEBBBA"/>
<stop offset="1" stop-color="#FF928E"/>
</linearGradient>
<linearGradient id="paint7_linear_2_1000" x1="2159.04" y1="1035.57" x2="2309.78" y2="1035.57" gradientUnits="userSpaceOnUse">
<stop stop-color="#FEBBBA"/>
<stop offset="1" stop-color="#FF928E"/>
</linearGradient>
<linearGradient id="paint8_linear_2_1000" x1="1972.96" y1="1504.85" x2="1992.55" y2="1504.85" gradientUnits="userSpaceOnUse">
<stop stop-color="#FEBBBA"/>
<stop offset="1" stop-color="#FF928E"/>
</linearGradient>
<linearGradient id="paint9_linear_2_1000" x1="1906.75" y1="1251.66" x2="2057.88" y2="1251.66" gradientUnits="userSpaceOnUse">
<stop stop-color="#FEBBBA"/>
<stop offset="1" stop-color="#FF928E"/>
</linearGradient>
<linearGradient id="paint10_linear_2_1000" x1="1721.42" y1="1211.74" x2="1738.98" y2="1211.74" gradientUnits="userSpaceOnUse">
<stop stop-color="#FEBBBA"/>
<stop offset="1" stop-color="#FF928E"/>
</linearGradient>
<linearGradient id="paint11_linear_2_1000" x1="1655.31" y1="1115.33" x2="1806.05" y2="1115.33" gradientUnits="userSpaceOnUse">
<stop stop-color="#FEBBBA"/>
<stop offset="1" stop-color="#FF928E"/>
</linearGradient>
<linearGradient id="paint12_linear_2_1000" x1="1467.72" y1="1133.02" x2="1485.76" y2="1133.02" gradientUnits="userSpaceOnUse">
<stop stop-color="#FEBBBA"/>
<stop offset="1" stop-color="#FF928E"/>
</linearGradient>
<linearGradient id="paint13_linear_2_1000" x1="1406.77" y1="1037.94" x2="1554.18" y2="1037.94" gradientUnits="userSpaceOnUse">
<stop stop-color="#FEBBBA"/>
<stop offset="1" stop-color="#FF928E"/>
</linearGradient>
<linearGradient id="paint14_linear_2_1000" x1="1221.05" y1="1553.97" x2="1239.79" y2="1553.97" gradientUnits="userSpaceOnUse">
<stop stop-color="#FEBBBA"/>
<stop offset="1" stop-color="#FF928E"/>
</linearGradient>
<linearGradient id="paint15_linear_2_1000" x1="1143.27" y1="1336.64" x2="1302.26" y2="1336.64" gradientUnits="userSpaceOnUse">
<stop stop-color="#FEBBBA"/>
<stop offset="1" stop-color="#FF928E"/>
</linearGradient>
<linearGradient id="paint16_linear_2_1000" x1="899.544" y1="1359.84" x2="1050.33" y2="1359.84" gradientUnits="userSpaceOnUse">
<stop stop-color="#FEBBBA"/>
<stop offset="1" stop-color="#FF928E"/>
</linearGradient>
<linearGradient id="paint17_linear_2_1000" x1="645.264" y1="1345.77" x2="796.105" y2="1345.77" gradientUnits="userSpaceOnUse">
<stop stop-color="#FEBBBA"/>
<stop offset="1" stop-color="#FF928E"/>
</linearGradient>
<linearGradient id="paint18_linear_2_1000" x1="451.008" y1="1659.85" x2="469.685" y2="1659.85" gradientUnits="userSpaceOnUse">
<stop stop-color="#FEBBBA"/>
<stop offset="1" stop-color="#FF928E"/>
</linearGradient>
<linearGradient id="paint19_linear_2_1000" x1="391.797" y1="1709.96" x2="548.315" y2="1709.96" gradientUnits="userSpaceOnUse">
<stop stop-color="#FEBBBA"/>
<stop offset="1" stop-color="#FF928E"/>
</linearGradient>
<linearGradient id="paint20_linear_2_1000" x1="143.81" y1="1297.55" x2="293.498" y2="1297.55" gradientUnits="userSpaceOnUse">
<stop stop-color="#FEBBBA"/>
<stop offset="1" stop-color="#FF928E"/>
</linearGradient>
<linearGradient id="paint21_linear_2_1000" x1="1704" y1="-1008.82" x2="1410.65" y2="-508.798" gradientUnits="userSpaceOnUse">
<stop stop-color="#FF928E"/>
<stop offset="1" stop-color="#FE7062"/>
</linearGradient>
<linearGradient id="paint22_linear_2_1000" x1="1697.47" y1="-1012.64" x2="1404.12" y2="-512.624" gradientUnits="userSpaceOnUse">
<stop stop-color="#FF928E"/>
<stop offset="1" stop-color="#FE7062"/>
</linearGradient>
<linearGradient id="paint23_linear_2_1000" x1="1935.37" y1="-873.068" x2="1642.03" y2="-373.052" gradientUnits="userSpaceOnUse">
<stop stop-color="#FF928E"/>
<stop offset="1" stop-color="#FE7062"/>
</linearGradient>
<linearGradient id="paint24_linear_2_1000" x1="1929.1" y1="-876.743" x2="1635.76" y2="-376.727" gradientUnits="userSpaceOnUse">
<stop stop-color="#FF928E"/>
<stop offset="1" stop-color="#FE7062"/>
</linearGradient>
<linearGradient id="paint25_linear_2_1000" x1="2092.23" y1="-781.049" x2="1798.89" y2="-281.032" gradientUnits="userSpaceOnUse">
<stop stop-color="#FF928E"/>
<stop offset="1" stop-color="#FE7062"/>
</linearGradient>
<linearGradient id="paint26_linear_2_1000" x1="2095.62" y1="-779.056" x2="1802.28" y2="-279.039" gradientUnits="userSpaceOnUse">
<stop stop-color="#FF928E"/>
<stop offset="1" stop-color="#FE7062"/>
</linearGradient>
<linearGradient id="paint27_linear_2_1000" x1="2252.99" y1="-686.73" x2="1959.65" y2="-186.713" gradientUnits="userSpaceOnUse">
<stop stop-color="#FF928E"/>
<stop offset="1" stop-color="#FE7062"/>
</linearGradient>
<linearGradient id="paint28_linear_2_1000" x1="2244.02" y1="-691.989" x2="1950.68" y2="-191.972" gradientUnits="userSpaceOnUse">
<stop stop-color="#FF928E"/>
<stop offset="1" stop-color="#FE7062"/>
</linearGradient>
<linearGradient id="paint29_linear_2_1000" x1="2251.37" y1="-687.686" x2="1958.03" y2="-187.67" gradientUnits="userSpaceOnUse">
<stop stop-color="#FF928E"/>
<stop offset="1" stop-color="#FE7062"/>
</linearGradient>
<linearGradient id="paint30_linear_2_1000" x1="2250.59" y1="-688.145" x2="1957.24" y2="-188.128" gradientUnits="userSpaceOnUse">
<stop stop-color="#FF928E"/>
<stop offset="1" stop-color="#FE7062"/>
</linearGradient>
<linearGradient id="paint31_linear_2_1000" x1="2514.88" y1="-533.093" x2="2221.53" y2="-33.0771" gradientUnits="userSpaceOnUse">
<stop stop-color="#FF928E"/>
<stop offset="1" stop-color="#FE7062"/>
</linearGradient>
<linearGradient id="paint32_linear_2_1000" x1="2513.41" y1="-533.952" x2="2220.07" y2="-33.9337" gradientUnits="userSpaceOnUse">
<stop stop-color="#FF928E"/>
<stop offset="1" stop-color="#FE7062"/>
</linearGradient>
<linearGradient id="paint33_linear_2_1000" x1="2704.13" y1="-422.067" x2="2410.78" y2="77.9507" gradientUnits="userSpaceOnUse">
<stop stop-color="#FF928E"/>
<stop offset="1" stop-color="#FE7062"/>
</linearGradient>
<linearGradient id="paint34_linear_2_1000" x1="2736.31" y1="-403.186" x2="2442.96" y2="96.83" gradientUnits="userSpaceOnUse">
<stop stop-color="#FF928E"/>
<stop offset="1" stop-color="#FE7062"/>
</linearGradient>
<linearGradient id="paint35_linear_2_1000" x1="2725.53" y1="-409.512" x2="2432.19" y2="90.505" gradientUnits="userSpaceOnUse">
<stop stop-color="#FF928E"/>
<stop offset="1" stop-color="#FE7062"/>
</linearGradient>
<linearGradient id="paint36_linear_2_1000" x1="2759.18" y1="-389.769" x2="2465.84" y2="110.247" gradientUnits="userSpaceOnUse">
<stop stop-color="#FF928E"/>
<stop offset="1" stop-color="#FE7062"/>
</linearGradient>
<linearGradient id="paint37_linear_2_1000" x1="3055.35" y1="-216.015" x2="2762.01" y2="284.002" gradientUnits="userSpaceOnUse">
<stop stop-color="#FF928E"/>
<stop offset="1" stop-color="#FE7062"/>
</linearGradient>
<linearGradient id="paint38_linear_2_1000" x1="3085.25" y1="-198.474" x2="2791.91" y2="301.542" gradientUnits="userSpaceOnUse">
<stop stop-color="#FF928E"/>
<stop offset="1" stop-color="#FE7062"/>
</linearGradient>
<linearGradient id="paint39_linear_2_1000" x1="3060.19" y1="-213.174" x2="2766.85" y2="286.842" gradientUnits="userSpaceOnUse">
<stop stop-color="#FF928E"/>
<stop offset="1" stop-color="#FE7062"/>
</linearGradient>
<linearGradient id="paint40_linear_2_1000" x1="3045.13" y1="-222.012" x2="2751.78" y2="278.006" gradientUnits="userSpaceOnUse">
<stop stop-color="#FF928E"/>
<stop offset="1" stop-color="#FE7062"/>
</linearGradient>
<linearGradient id="paint41_linear_2_1000" x1="1662.18" y1="787.054" x2="2150.6" y2="1733.18" gradientUnits="userSpaceOnUse">
<stop stop-color="#09005D"/>
<stop offset="1" stop-color="#1A0F91"/>
</linearGradient>
<linearGradient id="paint42_linear_2_1000" x1="2239.63" y1="1009.56" x2="2339.63" y2="569.543" gradientUnits="userSpaceOnUse">
<stop stop-color="#4F52FF"/>
<stop offset="1" stop-color="#4042E2"/>
</linearGradient>
<linearGradient id="paint43_linear_2_1000" x1="2162.82" y1="2563.66" x2="2121.15" y2="1721.97" gradientUnits="userSpaceOnUse">
<stop stop-color="#4F52FF"/>
<stop offset="1" stop-color="#4042E2"/>
</linearGradient>
<linearGradient id="paint44_linear_2_1000" x1="1790.67" y1="1452.2" x2="2444.51" y2="1452.2" gradientUnits="userSpaceOnUse">
<stop stop-color="#09005D"/>
<stop offset="1" stop-color="#1A0F91"/>
</linearGradient>
<linearGradient id="paint45_linear_2_1000" x1="1735.77" y1="1109.16" x2="1706.2" y2="1360.4" gradientUnits="userSpaceOnUse">
<stop stop-color="#4F52FF"/>
<stop offset="1" stop-color="#4042E2"/>
</linearGradient>
<linearGradient id="paint46_linear_2_1000" x1="1734.73" y1="1242.02" x2="1816.12" y2="1242.55" gradientUnits="userSpaceOnUse">
<stop stop-color="#09005D"/>
<stop offset="1" stop-color="#1A0F91"/>
</linearGradient>
<linearGradient id="paint47_linear_2_1000" x1="1759.8" y1="1140.6" x2="1731.61" y2="1380.1" gradientUnits="userSpaceOnUse">
<stop stop-color="#4F52FF"/>
<stop offset="1" stop-color="#4042E2"/>
</linearGradient>
<linearGradient id="paint48_linear_2_1000" x1="2529.15" y1="1112.35" x2="2499.57" y2="1363.6" gradientUnits="userSpaceOnUse">
<stop stop-color="#4F52FF"/>
<stop offset="1" stop-color="#4042E2"/>
</linearGradient>
<linearGradient id="paint49_linear_2_1000" x1="2446.49" y1="1246.63" x2="2527.87" y2="1247.16" gradientUnits="userSpaceOnUse">
<stop stop-color="#09005D"/>
<stop offset="1" stop-color="#1A0F91"/>
</linearGradient>
<linearGradient id="paint50_linear_2_1000" x1="2509.06" y1="1150.58" x2="2480.58" y2="1392.52" gradientUnits="userSpaceOnUse">
<stop stop-color="#4F52FF"/>
<stop offset="1" stop-color="#4042E2"/>
</linearGradient>
<linearGradient id="paint51_linear_2_1000" x1="1682.95" y1="1490.32" x2="2433.29" y2="2236.61" gradientUnits="userSpaceOnUse">
<stop stop-color="#4F52FF"/>
<stop offset="1" stop-color="#4042E2"/>
</linearGradient>
<linearGradient id="paint52_linear_2_1000" x1="1695.24" y1="1437.53" x2="2538.63" y2="2170.17" gradientUnits="userSpaceOnUse">
<stop stop-color="#4F52FF"/>
<stop offset="1" stop-color="#4042E2"/>
</linearGradient>
<linearGradient id="paint53_linear_2_1000" x1="1801.71" y1="1370.9" x2="2552.07" y2="2117.19" gradientUnits="userSpaceOnUse">
<stop stop-color="#4F52FF"/>
<stop offset="1" stop-color="#4042E2"/>
</linearGradient>
<linearGradient id="paint54_linear_2_1000" x1="2513.16" y1="2480.07" x2="2503.16" y2="1851.71" gradientUnits="userSpaceOnUse">
<stop stop-color="#4F52FF"/>
<stop offset="1" stop-color="#4042E2"/>
</linearGradient>
<linearGradient id="paint55_linear_2_1000" x1="3017.61" y1="1949.48" x2="2670.94" y2="2029.48" gradientUnits="userSpaceOnUse">
<stop stop-color="#4F52FF"/>
<stop offset="1" stop-color="#4042E2"/>
</linearGradient>
<linearGradient id="paint56_linear_2_1000" x1="2508.37" y1="1936.4" x2="2460.04" y2="2258.08" gradientUnits="userSpaceOnUse">
<stop stop-color="#4F52FF"/>
<stop offset="1" stop-color="#4042E2"/>
</linearGradient>
<linearGradient id="paint57_linear_2_1000" x1="2666.44" y1="2145.28" x2="2519.77" y2="2443.62" gradientUnits="userSpaceOnUse">
<stop stop-color="#4F52FF"/>
<stop offset="1" stop-color="#4042E2"/>
</linearGradient>
<linearGradient id="paint58_linear_2_1000" x1="1713.75" y1="2663.1" x2="2176.75" y2="2125.69" gradientUnits="userSpaceOnUse">
<stop stop-color="#E1473D"/>
<stop offset="1" stop-color="#E9605A"/>
</linearGradient>
<linearGradient id="paint59_linear_2_1000" x1="2438.38" y1="1733.72" x2="1069.27" y2="3802.05" gradientUnits="userSpaceOnUse">
<stop stop-color="#FF928E"/>
<stop offset="1" stop-color="#FE7062"/>
</linearGradient>
<linearGradient id="paint60_linear_2_1000" x1="2098.11" y1="1883.17" x2="1540.31" y2="2034.29" gradientUnits="userSpaceOnUse">
<stop stop-color="#09005D"/>
<stop offset="1" stop-color="#1A0F91"/>
</linearGradient>
<linearGradient id="paint61_linear_2_1000" x1="1523.8" y1="2252.27" x2="1668.8" y2="1927.26" gradientUnits="userSpaceOnUse">
<stop stop-color="#4F52FF"/>
<stop offset="1" stop-color="#4042E2"/>
</linearGradient>
<linearGradient id="paint62_linear_2_1000" x1="1807.48" y1="1849.52" x2="1545.81" y2="1591.17" gradientUnits="userSpaceOnUse">
<stop stop-color="#4F52FF"/>
<stop offset="1" stop-color="#4042E2"/>
</linearGradient>
<linearGradient id="paint63_linear_2_1000" x1="1514.78" y1="2179.6" x2="1798.13" y2="2287.94" gradientUnits="userSpaceOnUse">
<stop stop-color="#4F52FF"/>
<stop offset="1" stop-color="#4042E2"/>
</linearGradient>
<linearGradient id="paint64_linear_2_1000" x1="1560.28" y1="2110.01" x2="1536.95" y2="2285.02" gradientUnits="userSpaceOnUse">
<stop stop-color="#4F52FF"/>
<stop offset="1" stop-color="#4042E2"/>
</linearGradient>
<linearGradient id="paint65_linear_2_1000" x1="1791.67" y1="2183.74" x2="1837.7" y2="1863.24" gradientUnits="userSpaceOnUse">
<stop stop-color="#4F52FF"/>
<stop offset="1" stop-color="#4042E2"/>
</linearGradient>
<linearGradient id="paint66_linear_2_1000" x1="1819.93" y1="2312.91" x2="1872.78" y2="2336.29" gradientUnits="userSpaceOnUse">
<stop stop-color="#09005D"/>
<stop offset="1" stop-color="#1A0F91"/>
</linearGradient>
<linearGradient id="paint67_linear_2_1000" x1="1898.13" y1="2131.99" x2="2031.47" y2="1874.2" gradientUnits="userSpaceOnUse">
<stop stop-color="#4F52FF"/>
<stop offset="1" stop-color="#4042E2"/>
</linearGradient>
<linearGradient id="paint68_linear_2_1000" x1="311.623" y1="240.554" x2="462.651" y2="240.554" gradientUnits="userSpaceOnUse">
<stop stop-color="#4F52FF"/>
<stop offset="1" stop-color="#4042E2"/>
</linearGradient>
<linearGradient id="paint69_linear_2_1000" x1="309.986" y1="267.665" x2="462.518" y2="267.665" gradientUnits="userSpaceOnUse">
<stop stop-color="#09005D"/>
<stop offset="1" stop-color="#1A0F91"/>
</linearGradient>
<linearGradient id="paint70_linear_2_1000" x1="422.787" y1="270.791" x2="462.616" y2="543.311" gradientUnits="userSpaceOnUse">
<stop stop-color="#FEBBBA"/>
<stop offset="1" stop-color="#FF928E"/>
</linearGradient>
<linearGradient id="paint71_linear_2_1000" x1="64.4436" y1="366.45" x2="244.342" y2="366.45" gradientUnits="userSpaceOnUse">
<stop stop-color="#09005D"/>
<stop offset="1" stop-color="#1A0F91"/>
</linearGradient>
<linearGradient id="paint72_linear_2_1000" x1="56.7882" y1="359.756" x2="231.916" y2="359.756" gradientUnits="userSpaceOnUse">
<stop stop-color="#4F52FF"/>
<stop offset="1" stop-color="#4042E2"/>
</linearGradient>
<linearGradient id="paint73_linear_2_1000" x1="222.11" y1="300.119" x2="261.941" y2="572.643" gradientUnits="userSpaceOnUse">
<stop stop-color="#FEBBBA"/>
<stop offset="1" stop-color="#FF928E"/>
</linearGradient>
<linearGradient id="paint74_linear_2_1000" x1="572.875" y1="225.801" x2="508.428" y2="356.916" gradientUnits="userSpaceOnUse">
<stop stop-color="#4F52FF"/>
<stop offset="1" stop-color="#4042E2"/>
</linearGradient>
<linearGradient id="paint75_linear_2_1000" x1="622.385" y1="470.771" x2="295.707" y2="719.668" gradientUnits="userSpaceOnUse">
<stop stop-color="#4F52FF"/>
<stop offset="1" stop-color="#4042E2"/>
</linearGradient>
<linearGradient id="paint76_linear_2_1000" x1="1164.03" y1="399.137" x2="1229.25" y2="399.137" gradientUnits="userSpaceOnUse">
<stop stop-color="#FEBBBA"/>
<stop offset="1" stop-color="#FF928E"/>
</linearGradient>
<linearGradient id="paint77_linear_2_1000" x1="1169.32" y1="503.585" x2="1245.49" y2="503.585" gradientUnits="userSpaceOnUse">
<stop stop-color="#FEBBBA"/>
<stop offset="1" stop-color="#FF928E"/>
</linearGradient>
<linearGradient id="paint78_linear_2_1000" x1="1888.94" y1="-900.308" x2="1595.59" y2="-400.291" gradientUnits="userSpaceOnUse">
<stop stop-color="#FF928E"/>
<stop offset="1" stop-color="#FE7062"/>
</linearGradient>
<linearGradient id="paint79_linear_2_1000" x1="1043.76" y1="393.703" x2="1149.57" y2="393.703" gradientUnits="userSpaceOnUse">
<stop stop-color="#FEBBBA"/>
<stop offset="1" stop-color="#FF928E"/>
</linearGradient>
<linearGradient id="paint80_linear_2_1000" x1="1383.16" y1="604.971" x2="1099.37" y2="840.809" gradientUnits="userSpaceOnUse">
<stop stop-color="#FEBBBA"/>
<stop offset="1" stop-color="#FF928E"/>
</linearGradient>
<linearGradient id="paint81_linear_2_1000" x1="1178.28" y1="387.107" x2="1140.52" y2="262.577" gradientUnits="userSpaceOnUse">
<stop stop-color="#FEBBBA"/>
<stop offset="1" stop-color="#FF928E"/>
</linearGradient>
<linearGradient id="paint82_linear_2_1000" x1="1144.21" y1="158.448" x2="1179.31" y2="358.668" gradientUnits="userSpaceOnUse">
<stop stop-color="#09005D"/>
<stop offset="1" stop-color="#1A0F91"/>
</linearGradient>
<linearGradient id="paint83_linear_2_1000" x1="1139.17" y1="398.963" x2="1101.42" y2="274.434" gradientUnits="userSpaceOnUse">
<stop stop-color="#FEBBBA"/>
<stop offset="1" stop-color="#FF928E"/>
</linearGradient>
<linearGradient id="paint84_linear_2_1000" x1="1390.13" y1="323.016" x2="1960.12" y2="-16.9788" gradientUnits="userSpaceOnUse">
<stop stop-color="#FF928E"/>
<stop offset="1" stop-color="#FE7062"/>
</linearGradient>
<linearGradient id="paint85_linear_2_1000" x1="1594.99" y1="170.004" x2="939.994" y2="564.998" gradientUnits="userSpaceOnUse">
<stop stop-color="#FF928E"/>
<stop offset="1" stop-color="#FE7062"/>
</linearGradient>
<linearGradient id="paint86_linear_2_1000" x1="1871.93" y1="-910.286" x2="1578.59" y2="-410.269" gradientUnits="userSpaceOnUse">
<stop stop-color="#FF928E"/>
<stop offset="1" stop-color="#FE7062"/>
</linearGradient>
<linearGradient id="paint87_linear_2_1000" x1="1322.42" y1="531.892" x2="1038.64" y2="767.728" gradientUnits="userSpaceOnUse">
<stop stop-color="#FEBBBA"/>
<stop offset="1" stop-color="#FF928E"/>
</linearGradient>
<linearGradient id="paint88_linear_2_1000" x1="-8449.19" y1="-18645.7" x2="-8576.84" y2="-18899" gradientUnits="userSpaceOnUse">
<stop stop-color="#09005D"/>
<stop offset="1" stop-color="#1A0F91"/>
</linearGradient>
<linearGradient id="paint89_linear_2_1000" x1="1375.78" y1="802.593" x2="1515.78" y2="555.918" gradientUnits="userSpaceOnUse">
<stop stop-color="#09005D"/>
<stop offset="1" stop-color="#1A0F91"/>
</linearGradient>
<linearGradient id="paint90_linear_2_1000" x1="3964.52" y1="-835.279" x2="3386" y2="202.051" gradientUnits="userSpaceOnUse">
<stop stop-color="#FF928E"/>
<stop offset="1" stop-color="#FE7062"/>
</linearGradient>
</defs>
</svg>
