<svg width="2756" height="2754" viewBox="0 0 2756 2754" fill="none" xmlns="http://www.w3.org/2000/svg">
<path d="M2423.99 2354.69C2352.27 2428.62 2288.09 2472.08 2238.96 2504.89C1759.75 2824.86 1211.96 2732.64 1042.6 2701.11C769.354 2650.26 538.698 2614.38 340.522 2435.34C-109.792 2028.5 -87.8886 1179.8 256.205 654.064C297.004 591.727 640.578 82.4436 1189.55 10.6816C1202.98 8.92662 1213 7.92663 1221.77 6.99763C1306.7 -1.99437 1832.96 -49.4503 2262.07 310.062C2323.5 361.524 2422.35 454.349 2514.02 595.922C2849.2 1113.58 2850.26 1915.31 2423.99 2354.69Z" fill="url(#paint0_linear_2_677)"/>
<path d="M2402.79 93.5397C2458.34 368.669 2716.2 1982.96 1244.84 2497.04C1244.84 2497.04 801.5 1477.99 2363.72 80.4757C2377.38 68.2497 2399.16 75.5657 2402.79 93.5397Z" fill="#BDD0FB"/>
<path opacity="0.45" d="M2328.33 395.092C2299.66 480.118 2269.27 564.449 2238.14 648.548C2206.98 732.622 2174.85 816.339 2141.74 899.671C2075.53 1066.34 2005.58 1231.56 1930.57 1394.53C1855.46 1557.43 1775.54 1718.27 1686.96 1874.49C1642.92 1952.73 1596.02 2029.42 1546.22 2104.25C1496.32 2178.99 1443.37 2251.92 1384.73 2320.45C1381.27 2324.5 1375.18 2324.97 1371.13 2321.51C1367.08 2318.04 1366.61 2311.95 1370.07 2307.9L1370.1 2307.87L1370.13 2307.83C1428.43 2240.41 1481.37 2168.31 1531.35 2094.27C1581.23 2020.14 1628.32 1944.04 1672.61 1866.3C1761.69 1711.09 1842.28 1550.99 1918.11 1388.75C1993.83 1226.43 2064.56 1061.76 2131.57 895.601C2165.07 812.519 2197.61 729.041 2229.18 645.198C2260.71 561.352 2291.53 477.182 2320.58 392.495L2320.59 392.459C2321.32 390.323 2323.65 389.186 2325.78 389.919C2327.91 390.649 2329.05 392.962 2328.33 395.092Z" fill="white"/>
<path d="M1495.2 2606.89C1495.2 2606.89 1476.43 2333.01 1726.88 2031.64C1959.26 1752.02 2533.79 1101.84 2649 760.007C2654.1 744.865 2676.11 747.233 2677.7 763.134C2694.74 933.695 2703.85 1364.22 2446.97 1816.05C2115.72 2398.7 1495.2 2606.89 1495.2 2606.89Z" fill="#91B3FA"/>
<path opacity="0.45" d="M2576.79 1074.55C2575.27 1112.44 2569.03 1150.02 2560.76 1187.02C2559.75 1191.65 2558.83 1196.31 2557.75 1200.93L2554.22 1214.71L2547.15 1242.29L2538.93 1269.54C2536.11 1278.6 2533.67 1287.8 2530.29 1296.68C2505.71 1368.51 2475.27 1438.45 2438.86 1505.17C2430.44 1522.23 2420.28 1538.3 2410.73 1554.72L2396.24 1579.27C2393.77 1583.33 2391.53 1587.53 2388.87 1591.47L2381.04 1603.37L2349.71 1651C2344.66 1659.06 2338.78 1666.54 2333.21 1674.23L2316.33 1697.19L2299.44 1720.16L2290.96 1731.61L2281.97 1742.66L2245.98 1786.86C2239.93 1794.17 2234.1 1801.71 2227.87 1808.84L2209.2 1830.25L2171.85 1873.09L2134.03 1915.5C2121.38 1929.59 2108.87 1943.81 2096.01 1957.72C2070.49 1985.72 2044.81 2013.57 2018.83 2041.12C1993.01 2068.84 1966.77 2096.14 1940.66 2123.57L1861.53 2205.02C1808.73 2259.25 1755.85 2313.35 1704.87 2369.1C1691.93 2382.88 1679.71 2397.24 1667.24 2411.41C1660.91 2418.43 1655.08 2425.83 1649.08 2433.11C1643.16 2440.44 1637.03 2447.62 1631.27 2455.08C1620.09 2470.23 1608.31 2485.01 1598.22 2500.91L1590.34 2512.65C1589.06 2514.62 1587.65 2516.52 1586.46 2518.55L1582.94 2524.67L1568.82 2549.15L1568.77 2549.24C1568.2 2550.22 1566.95 2550.56 1565.97 2549.99C1565.03 2549.45 1564.68 2548.26 1565.16 2547.29C1582.26 2513.31 1602.95 2481.27 1625.52 2450.71C1631.15 2443.06 1637.15 2435.71 1642.94 2428.18C1648.82 2420.73 1654.53 2413.12 1660.72 2405.94C1672.92 2391.43 1684.9 2376.68 1697.56 2362.58L1716.33 2341.21C1722.64 2334.13 1729.11 2327.22 1735.5 2320.22L1754.71 2299.27L1774.12 2278.53C1799.96 2250.83 1826.1 2223.46 1852.12 2195.98C1904.19 2141.05 1956.27 2086.18 2007.71 2030.75C2059.23 1975.39 2109.85 1919.22 2160.01 1862.65L2197.25 1819.89L2215.87 1798.5C2222.08 1791.38 2227.9 1783.99 2233.94 1776.75L2269.86 1733.09L2278.84 1722.18L2287.3 1710.86L2304.16 1688.18C2349.91 1628.25 2390.5 1564.54 2427.68 1499.03C2465.13 1433.6 2496.75 1364.84 2522.61 1293.99C2526.15 1285.24 2528.73 1276.16 2531.87 1267.26L2540.9 1240.44L2548.81 1213.27L2552.75 1199.67C2553.98 1195.11 2555.04 1190.51 2556.19 1185.94C2558.38 1176.76 2560.86 1167.64 2562.82 1158.41L2568.48 1130.65C2571.66 1112.05 2575.01 1093.4 2576.28 1074.53C2576.28 1074.39 2576.4 1074.28 2576.54 1074.28C2576.68 1074.28 2576.79 1074.41 2576.79 1074.55Z" fill="white"/>
<path d="M39.2605 499.753C39.2605 404.196 116.724 326.733 212.281 326.733H1683.66C1764.83 326.733 1831.77 390.347 1835.89 471.416L1944.5 2604.63C1947.73 2668.07 1897.79 2721.58 1834.28 2722.74L147.9 2753.39C88.2235 2754.47 39.2615 2706.39 39.2615 2646.71L39.2605 499.753Z" fill="url(#paint1_linear_2_677)"/>
<path d="M394.368 2717.12C394.35 2717.12 394.333 2717.12 394.315 2717.12L205.619 2714.69C142.523 2713.87 91.1924 2661.87 91.1924 2598.77V2313.87C91.1924 2311.65 92.9963 2309.84 95.2203 2309.84C97.4453 2309.84 99.2493 2311.65 99.2493 2313.87V2598.77C99.2493 2657.48 147.012 2705.86 205.724 2706.63L394.418 2709.07C396.643 2709.09 398.423 2710.92 398.395 2713.15C398.365 2715.35 396.567 2717.12 394.368 2717.12Z" fill="#91B3FA"/>
<path d="M95.2194 2229.65C92.9954 2229.65 91.1914 2227.85 91.1914 2225.62V2179.49C91.1914 2177.26 92.9954 2175.46 95.2194 2175.46C97.4444 2175.46 99.2484 2177.26 99.2484 2179.49V2225.62C99.2484 2227.85 97.4444 2229.65 95.2194 2229.65Z" fill="#91B3FA"/>
<path d="M159.803 359.567C159.623 328.995 186.51 305.333 216.806 309.441C417.736 336.689 1108.68 420.962 1679.94 377.109C1706 375.109 1728.61 394.848 1729.99 420.939L1843.87 2563.67C1845.43 2593.05 1823 2618.17 1793.63 2619.91C1553.37 2634.13 563.886 2689.09 210.954 2652.12C189.474 2649.87 173.169 2631.79 173.042 2610.19L159.803 359.567Z" fill="url(#paint2_linear_2_677)"/>
<path d="M183.472 413.261C183.299 383.84 209.173 361.069 238.328 365.023C431.691 391.245 1096.62 472.345 1646.37 430.143C1671.44 428.219 1693.2 447.214 1694.53 472.323L1804.13 2534.37C1805.63 2562.64 1784.04 2586.82 1755.77 2588.49C1524.56 2602.17 572.34 2655.07 232.698 2619.49C212.027 2617.33 196.336 2599.92 196.214 2579.14L183.472 413.261Z" fill="#BDD0FB"/>
<path opacity="0.58" d="M1614.94 720.775H322.493C316.737 720.775 312.07 716.109 312.07 710.352V554.409C312.07 548.653 316.736 543.986 322.493 543.986H1614.94C1620.69 543.986 1625.36 548.652 1625.36 554.409V710.352C1625.36 716.108 1620.69 720.775 1614.94 720.775Z" fill="white"/>
<path opacity="0.58" d="M1641.06 1548.31H315.027C311.79 1548.31 309.165 1545.68 309.165 1542.45V1465.77C309.165 1462.54 311.789 1459.91 315.027 1459.91H1641.06C1644.3 1459.91 1646.93 1462.54 1646.93 1465.77V1542.45C1646.93 1545.68 1644.3 1548.31 1641.06 1548.31Z" fill="white"/>
<path opacity="0.58" d="M1642.65 1684.69H313.445C311.081 1684.69 309.166 1682.77 309.166 1680.41V1600.57C309.166 1598.21 311.082 1596.29 313.445 1596.29H1642.65C1645.01 1596.29 1646.93 1598.21 1646.93 1600.57V1680.41C1646.93 1682.77 1645.01 1684.69 1642.65 1684.69Z" fill="white"/>
<path opacity="0.58" d="M1670.83 2463.41H315.436C312.586 2463.41 310.275 2461.09 310.275 2458.24V2380.17C310.275 2377.32 312.586 2375.01 315.436 2375.01H1670.83C1673.68 2375.01 1675.99 2377.32 1675.99 2380.17V2458.24C1675.99 2461.09 1673.68 2463.41 1670.83 2463.41Z" fill="white"/>
<path opacity="0.25" d="M1613.37 1367.31H341.236C323.524 1367.31 309.165 1352.95 309.165 1335.24V858.914C309.165 841.202 323.524 826.843 341.236 826.843H1591.8C1608.95 826.843 1623.06 840.333 1623.84 857.463L1645.41 1333.79C1646.24 1352.05 1631.65 1367.31 1613.37 1367.31Z" fill="white"/>
<path d="M1614.11 1372.3H341.977C321.544 1372.3 304.922 1355.67 304.922 1335.24V858.915C304.922 838.482 321.544 821.856 341.977 821.856H1592.54C1612.4 821.856 1628.66 837.398 1629.56 857.24L1651.13 1333.57C1651.59 1343.77 1647.96 1353.46 1640.9 1360.84C1633.84 1368.23 1624.33 1372.3 1614.11 1372.3ZM341.977 831.828C327.043 831.828 314.894 843.981 314.894 858.915V1335.24C314.894 1350.18 327.043 1362.32 341.977 1362.32H1614.11C1621.58 1362.32 1628.53 1359.35 1633.69 1353.95C1638.85 1348.56 1641.51 1341.47 1641.17 1334.02L1619.6 857.688C1618.94 843.189 1607.06 831.828 1592.54 831.828H341.977Z" fill="white"/>
<path opacity="0.25" d="M1633.7 2321.09H350.953C328.487 2321.09 310.275 2302.88 310.275 2280.41V1821.3C310.275 1798.84 328.487 1780.62 350.953 1780.62H1615.91C1637.76 1780.62 1655.71 1797.89 1656.55 1819.73L1674.35 2278.84C1675.25 2301.9 1656.79 2321.09 1633.7 2321.09Z" fill="white"/>
<path d="M1633.7 2326.08H350.956C325.775 2326.08 305.29 2305.59 305.29 2280.41V1821.3C305.29 1796.12 325.774 1775.64 350.956 1775.64H1615.91C1640.54 1775.64 1660.58 1794.92 1661.54 1819.53L1679.34 2278.64C1679.82 2291.17 1675.3 2303.04 1666.61 2312.07C1657.92 2321.1 1646.24 2326.08 1633.7 2326.08ZM350.956 1785.61C331.273 1785.61 315.262 1801.62 315.262 1821.3V2280.41C315.262 2300.09 331.274 2316.1 350.956 2316.1H1633.71C1643.5 2316.1 1652.64 2312.22 1659.43 2305.16C1666.22 2298.1 1669.75 2288.82 1669.37 2279.03L1651.57 1819.92C1650.83 1800.68 1635.16 1785.61 1615.91 1785.61L350.956 1785.61Z" fill="white"/>
<path d="M710.404 826.819L700.432 826.984L709.405 1367.47L719.377 1367.31L710.404 826.819Z" fill="white"/>
<path d="M1199.74 826.647L1189.77 826.917L1204.37 1367.37L1214.33 1367.1L1199.74 826.647Z" fill="white"/>
<path d="M1630.23 979.391L709.775 992.555L709.917 1002.53L1630.37 989.362L1630.23 979.391Z" fill="white"/>
<path d="M1639.1 1196.67H711.775V1206.64H1639.1V1196.67Z" fill="white"/>
<path d="M707.101 1780.68L700.398 2321.14L710.369 2321.26L717.071 1780.81L707.101 1780.68Z" fill="white"/>
<path d="M1662.37 1904.62H715.099V1914.59H1662.37V1904.62Z" fill="white"/>
<path d="M1665.69 2034.25H708.452V2044.22H1665.69V2034.25Z" fill="white"/>
<path d="M709.933 2170.57L709.808 2180.54L1670.72 2192.55L1670.85 2182.58L709.933 2170.57Z" fill="white"/>
<path d="M1039.22 35.8787C986.077 -1.09527 939.864 -0.363273 907.332 9.23673C877.656 17.9927 858.422 46.6447 861.244 77.4567L875.274 230.589L1042.22 245.405C1042.22 245.405 1143.46 108.391 1039.22 35.8787ZM965.809 159.419C942.819 159.419 924.182 140.782 924.182 117.792C924.182 94.8017 942.819 76.1637 965.809 76.1637C988.8 76.1637 1007.44 94.8007 1007.44 117.792C1007.44 140.783 988.799 159.419 965.809 159.419Z" fill="url(#paint3_linear_2_677)"/>
<path d="M891.95 166.172C889.891 166.172 888.134 164.602 887.943 162.509L885.708 138.122C885.504 135.907 887.136 133.948 889.351 133.743C891.611 133.531 893.529 135.171 893.729 137.39L895.963 161.777C896.168 163.992 894.535 165.951 892.32 166.155C892.197 166.168 892.072 166.172 891.95 166.172ZM887.572 118.381C885.513 118.381 883.756 116.811 883.565 114.718L881.867 96.2045C879.176 66.8525 897.646 39.5225 925.781 31.2175C945.707 25.3365 966.237 24.4945 986.796 28.7115C988.975 29.1555 990.38 31.2885 989.933 33.4675C989.486 35.6435 987.374 37.0356 985.179 36.6026C965.92 32.6606 946.706 33.4435 928.061 38.9435C903.605 46.1625 887.55 69.9355 889.889 95.4715L891.586 113.985C891.791 116.2 890.158 118.159 887.943 118.364C887.818 118.378 887.694 118.381 887.572 118.381Z" fill="#91B3FA"/>
<path d="M647.423 329.55V252.56C647.423 225.983 669.45 204.697 696.012 205.607L1226.82 223.794C1250.38 224.601 1269.46 243.195 1270.87 266.724L1275.31 340.7L647.423 329.55Z" fill="url(#paint4_linear_2_677)"/>
<path d="M845.35 234.617H822.523C820.298 234.617 818.494 232.815 818.494 230.589C818.494 228.362 820.298 226.56 822.523 226.56H845.35C847.575 226.56 849.379 228.362 849.379 230.589C849.378 232.815 847.575 234.617 845.35 234.617Z" fill="#91B3FA"/>
<path d="M676.153 305.374C673.929 305.374 672.125 303.572 672.125 301.345V270.199C672.125 246.134 691.702 226.559 715.767 226.559H799.693C801.918 226.559 803.721 228.361 803.721 230.588C803.721 232.815 801.918 234.616 799.693 234.616H715.767C696.146 234.616 680.182 250.58 680.182 270.2V301.346C680.182 303.573 678.378 305.374 676.153 305.374Z" fill="#91B3FA"/>
<path d="M431.14 348.991C432.421 322.331 454.409 301.373 481.101 301.372L1409.32 301.347C1442.7 301.346 1471.24 325.365 1476.93 358.252L1477.71 362.79C1483.95 398.812 1456.22 431.76 1419.66 431.76H467.355C445.476 431.76 428.041 413.467 429.092 391.614L431.14 348.991Z" fill="url(#paint5_linear_2_677)"/>
<path d="M1484.72 1758.12C1293.09 1867.12 1133.12 1860.32 952.219 1765.25C940.513 1759.1 933.398 1746.75 934.028 1733.54L934.393 1725.89C935.507 1702.5 959.419 1687.23 981.105 1696.06C1138.18 1760.07 1256.32 1795.18 1453.01 1698.12C1474.66 1687.44 1500.22 1702.23 1501.84 1726.32C1502.71 1739.33 1496.05 1751.68 1484.72 1758.12Z" fill="url(#paint6_linear_2_677)"/>
<path d="M1448.4 1846.45L1554.19 1696.53C1557.41 1691.96 1554.6 1685.61 1549.05 1684.93L1373.83 1663.49C1367.31 1662.69 1362.35 1669.22 1364.88 1675.29C1404.91 1730.82 1427.45 1787.46 1435.58 1845.03C1437.81 1850.39 1445.06 1851.19 1448.4 1846.45Z" fill="url(#paint7_linear_2_677)"/>
<path d="M887.252 558.098C1080.17 438.93 1244.86 439.961 1434.34 530.945C1446.6 536.833 1454.37 549.26 1454.22 562.861L1454.13 570.742C1453.86 594.826 1429.84 611.413 1407.23 603.137C1243.38 543.189 1120.65 511.506 922.079 618.596C900.223 630.383 873.398 616.128 870.84 591.428C869.458 578.091 875.844 565.145 887.252 558.098Z" fill="url(#paint8_linear_2_677)"/>
<path d="M921.287 465.956L818.132 624C814.99 628.814 818.121 635.238 823.849 635.729L1004.76 651.242C1011.49 651.819 1016.34 644.919 1013.52 638.781C970.307 583.193 945.028 525.805 934.52 466.932C932.028 461.515 924.546 460.963 921.287 465.956Z" fill="url(#paint9_linear_2_677)"/>
<path d="M2568.47 2654.91C2568.47 2654.91 2580.86 2674.44 2583.98 2729.13C2584.27 2734.22 2580.23 2738.56 2575.13 2738.56H2478.22C2474.32 2738.56 2471.53 2734.74 2472.78 2731.04C2478.46 2714.24 2495.63 2673.26 2533.95 2649.84L2568.47 2654.91Z" fill="url(#paint10_linear_2_677)"/>
<path d="M2572.68 2617.85L2567.2 2663.81C2566.73 2667.78 2563.62 2670.95 2559.65 2671.41C2554.35 2672.02 2546.65 2672.45 2539.16 2671.22C2532.35 2670.09 2527.46 2664.03 2527.46 2657.13V2612.76L2572.68 2617.85Z" fill="url(#paint11_linear_2_677)"/>
<path d="M2328.69 2649.84C2328.69 2649.84 2347.24 2678.67 2346.84 2718.25C2346.75 2727.57 2338.94 2735 2329.62 2735H2179.11C2172.06 2735 2169.2 2725.94 2174.96 2721.89C2203.45 2701.89 2259.43 2664.53 2299.92 2649.84H2328.69Z" fill="url(#paint12_linear_2_677)"/>
<path d="M2344.19 2600.2L2332.5 2656.97C2331.19 2663.32 2324.98 2667.59 2318.65 2666.17C2314.81 2665.32 2310.27 2663.67 2305.42 2660.64C2300.81 2657.76 2298.48 2652.28 2299.42 2646.93L2311.51 2578.16L2344.19 2600.2Z" fill="url(#paint13_linear_2_677)"/>
<path d="M2551.21 1810.98C2551.21 1810.98 2591.86 1846.82 2599.51 1889.94C2607.16 1933.06 2577.83 2633.91 2577.83 2633.91C2577.83 2633.91 2537.18 2640.67 2516.23 2627.97C2516.23 2627.97 2491.37 2173.13 2472.48 2068.03C2472.48 2068.03 2373.41 2539.19 2345.95 2624.32C2345.95 2624.32 2306.79 2629.08 2294.16 2621.63C2294.16 2621.63 2320.11 2010.88 2352.73 1902.3L2551.21 1810.98Z" fill="url(#paint14_linear_2_677)"/>
<path d="M2473.67 2052.91C2473.32 2052.91 2472.98 2052.87 2472.63 2052.78C2470.45 2052.21 2469.15 2049.98 2469.71 2047.8L2486.98 1981.56C2487.24 1980.57 2487.86 1979.71 2488.72 1979.16L2526.03 1955.23C2527.94 1954.01 2530.46 1954.56 2531.67 1956.46C2532.88 1958.35 2532.34 1960.88 2530.44 1962.09L2494.47 1985.16L2477.61 2049.86C2477.13 2051.69 2475.48 2052.91 2473.67 2052.91Z" fill="url(#paint15_linear_2_677)"/>
<path d="M2150.04 1406.02C2321.17 1391.82 2365.9 1427.23 2365.9 1427.23L2283.66 1557.06C2283.66 1557.06 2115.5 1553.74 1995.01 1460.87C2017.56 1436.59 2033.22 1409.75 2043.27 1388.85C2074.34 1401.77 2110.12 1409.34 2150.04 1406.02Z" fill="url(#paint16_linear_2_677)"/>
<path d="M1882.05 1154.82C1882.28 1149.34 1889.71 1147.85 1892.04 1152.82L1913.87 1199.41C1918.09 1208.42 1919.45 1218.5 1917.75 1228.3L1910.09 1255.42C1907.8 1268.64 1911.25 1282.2 1919.64 1292.68C1939.7 1317.76 1982.43 1363.57 2043.27 1388.85C2033.22 1409.75 2017.56 1436.59 1995.01 1460.87C1950.8 1426.8 1913 1380.68 1892.29 1318.23C1882.37 1315.19 1875.74 1305.84 1876.13 1295.47L1882.05 1154.82Z" fill="url(#paint17_linear_2_677)"/>
<path d="M2093.71 1481.3C2153.95 1416.38 2268.7 1387.05 2335.14 1375C2364.25 1369.72 2392.94 1385.92 2403.26 1413.65C2433.15 1494.02 2514.47 1703.12 2530.23 1739.06C2543.16 1768.54 2556.66 1797.34 2565.24 1815.34C2570.37 1826.09 2565.89 1838.96 2555.16 1844.14C2499.26 1871.08 2398.68 1901.56 2357.9 1913.45C2348.93 1916.07 2340 1909.34 2340 1899.99C2340 1892.07 2337.85 1884.29 2333.77 1877.5L2179.34 1620.15C2083.08 1726.88 1998.78 1736.64 1934.03 1713.28C1944.92 1679.63 1952.04 1645.91 1955.46 1612.14C2051.12 1595.75 2093.71 1481.3 2093.71 1481.3Z" fill="url(#paint18_linear_2_677)"/>
<path d="M1770.41 1575.35L1801.68 1557.06C1857.57 1595.45 1917.21 1618.69 1955.46 1612.13C1952.04 1645.91 1944.92 1679.62 1934.03 1713.28C1848.72 1682.5 1770.41 1575.35 1770.41 1575.35Z" fill="url(#paint19_linear_2_677)"/>
<path d="M1621.88 1581.93C1641.33 1571.34 1699.04 1562.24 1699.04 1562.24C1699.04 1562.24 1765.37 1523.43 1784.47 1515.79C1800.33 1509.45 1807.15 1533.17 1809.01 1541.39C1809.39 1543.06 1809.56 1544.1 1809.56 1544.1L1807.11 1559.87L1740.09 1589.66C1725.75 1596.03 1709.92 1598.33 1694.36 1596.29L1622.8 1586.93C1621.66 1586.78 1620.73 1585.9 1620.52 1584.76C1620.31 1583.62 1620.86 1582.48 1621.88 1581.93Z" fill="url(#paint20_linear_2_677)"/>
<path d="M2243.76 1255.78L2295.08 1381.01C2295.08 1381.01 2236.11 1421.82 2188.67 1417.94L2163.06 1305.33L2243.76 1255.78Z" fill="url(#paint21_linear_2_677)"/>
<path d="M2157.07 1170.41C2155.9 1172.07 2119.95 1301.95 2119.95 1301.95L2194.54 1320.9L2246.9 1202.87C2246.9 1202.87 2176.75 1142.53 2157.07 1170.41Z" fill="url(#paint22_linear_2_677)"/>
<path d="M2218.81 1220.8L2196.11 1285.09C2195.82 1285.92 2195.43 1286.68 2194.93 1287.39C2191.85 1291.77 2180.15 1306.05 2166.27 1293.19C2153.67 1281.52 2142 1271.05 2131.23 1269.15C2126.39 1268.3 2121.7 1271.25 2120.39 1275.99C2117.13 1287.79 2110.27 1314.52 2107.85 1338.65C2107.36 1343.54 2110.74 1347.97 2115.58 1348.89C2130.14 1351.66 2161.03 1356.63 2186.82 1354.81C2190.32 1354.57 2193.39 1352.47 2194.85 1349.28C2201.96 1333.76 2223.73 1286.64 2231.83 1274.45C2239.43 1263 2258.06 1263.32 2265.88 1264.02C2268.44 1264.24 2270.96 1263.42 2272.9 1261.72C2279.73 1255.73 2292.74 1240.43 2274.44 1222.11C2270.61 1218.28 2270.71 1212.1 2274.66 1208.38C2282.52 1200.99 2290.93 1187.89 2277.83 1171.63C2264.52 1155.1 2246.95 1157.73 2236.18 1161.66C2231.83 1163.25 2227.08 1161.41 2224.72 1157.43C2223.37 1155.16 2221.02 1153.44 2216.94 1153.79C2211.45 1154.26 2206.84 1149.68 2206.94 1144.17C2207.13 1133.59 2203.34 1120.21 2184.97 1114.5C2152.39 1104.36 2132.07 1135.84 2130.06 1159.33C2128.04 1182.82 2164 1191.8 2185.14 1190.22C2201.21 1189.02 2213.15 1204.95 2217.94 1212.65C2219.46 1215.1 2219.77 1218.09 2218.81 1220.8Z" fill="url(#paint23_linear_2_677)"/>
<path d="M2223.33 1297.77C2223.33 1297.77 2228.59 1256.99 2245.56 1254.99C2262.52 1253 2279.03 1266.94 2262.17 1289.83C2241.19 1318.3 2223.33 1297.77 2223.33 1297.77Z" fill="url(#paint24_linear_2_677)"/>
<path d="M1986.29 994.16L817.149 997.901L818.905 1546.61L1988.05 1542.87L1986.29 994.16Z" fill="#7D97F4"/>
<path opacity="0.5" d="M1922.13 1110.3L1923.13 1422.21C1898.03 1422.29 1877.16 1446.56 1877.25 1474.36C1877.25 1475.24 1877.43 1475.02 1877.49 1478.61L933.803 1481.65C933.836 1478.06 933.881 1478.28 933.878 1477.4C933.788 1449.6 913.206 1426.3 887.681 1426.38C887.306 1426.38 886.691 1425.59 886.691 1425.59L885.709 1120.7C928.744 1120.56 932.818 1091.44 932.728 1063.64C932.726 1062.76 932.497 1062.05 932.452 1062.05L1876.13 1059.01C1876.09 1059.01 1875.91 1059.72 1875.91 1060.6C1876 1088.4 1897.02 1110.38 1922.13 1110.3Z" fill="white"/>
<path d="M1403.48 1439.64C1498.19 1439.64 1574.98 1362.86 1574.98 1268.14C1574.98 1173.43 1498.19 1096.65 1403.48 1096.65C1308.77 1096.65 1231.99 1173.43 1231.99 1268.14C1231.99 1362.86 1308.77 1439.64 1403.48 1439.64Z" fill="url(#paint25_linear_2_677)"/>
<path d="M1386.52 1383.88L1386.46 1365.75C1367.55 1365.05 1348.84 1360.65 1335.54 1354.88C1330.79 1352.82 1328.36 1347.5 1329.7 1342.51L1334.26 1325.6C1335.93 1319.4 1342.66 1316.17 1348.59 1318.63C1361.78 1324.11 1378.06 1328.43 1395.6 1328.38C1413.81 1328.32 1427.36 1322.1 1427.32 1309.45C1427.29 1298.03 1416.77 1291.27 1391.44 1284.57C1355.31 1274.81 1329.33 1259.15 1329.23 1227.37C1329.14 1198.66 1350.05 1176.69 1386.45 1170.71L1386.39 1152.57C1386.37 1146.73 1391.09 1141.99 1396.92 1141.97L1407.58 1141.94C1413.41 1141.92 1418.16 1146.63 1418.18 1152.47L1418.23 1168.75C1435.72 1169.39 1448.47 1172.34 1458.58 1175.86C1463.77 1177.66 1466.61 1183.23 1465.19 1188.53L1461.01 1204.17C1459.39 1210.2 1452.97 1213.52 1447.12 1211.33C1437.81 1207.84 1424.64 1204.22 1407.54 1204.28C1385.94 1204.34 1379.8 1213.31 1379.82 1221.34C1379.85 1231.21 1392.84 1237.96 1420.95 1246.51C1461.11 1258.42 1477.82 1275.03 1477.92 1304.96C1478.01 1332.43 1457.72 1357.18 1418.24 1363.48L1418.3 1383.78C1418.32 1389.61 1413.61 1394.36 1407.77 1394.38L1397.12 1394.41C1391.28 1394.43 1386.54 1389.72 1386.52 1383.88Z" fill="white"/>
<path d="M849.52 1138.47C849.419 1138.21 849.362 1137.93 849.36 1137.63L849.02 1031.83C849.018 1030.54 850.056 1029.5 851.346 1029.49L1136.45 1028.58C1137.74 1028.57 1138.8 1029.61 1138.8 1030.9C1138.8 1032.19 1137.76 1033.24 1136.47 1033.24L853.692 1034.15L854.028 1137.61C854.03 1138.9 852.992 1139.95 851.702 1139.95C850.71 1139.96 849.859 1139.34 849.52 1138.47Z" fill="white"/>
<path d="M1666.61 1510.61C1666.51 1510.35 1666.45 1510.07 1666.45 1509.77C1666.44 1508.48 1667.48 1507.44 1668.77 1507.43L1951.55 1506.52L1951.22 1403.06C1951.22 1401.77 1952.25 1400.72 1953.54 1400.72C1954.83 1400.71 1955.89 1401.75 1955.88 1403.04L1956.22 1508.84C1956.22 1509.46 1955.98 1510.05 1955.55 1510.49C1955.11 1510.93 1954.52 1511.18 1953.9 1511.18L1668.79 1512.1C1667.8 1512.1 1666.95 1511.48 1666.61 1510.61Z" fill="white"/>
<path d="M1973.29 1556.72L804.156 1560.49L802.389 1011.78L1971.52 1008.02L1973.29 1556.72Z" fill="url(#paint26_linear_2_677)"/>
<path opacity="0.5" d="M1907.34 1124.21L1908.35 1436.12C1883.24 1436.2 1862.37 1460.48 1862.46 1488.28C1862.47 1489.16 1862.65 1488.94 1862.7 1492.52L919.02 1495.56C919.053 1491.98 919.098 1492.2 919.095 1491.32C919.005 1463.52 898.423 1440.22 872.898 1440.3C872.523 1440.3 871.908 1439.5 871.908 1439.5L870.926 1134.61C913.961 1134.48 918.035 1105.36 917.945 1077.56C917.943 1076.67 917.714 1075.97 917.669 1075.97L1861.35 1072.93C1861.31 1072.93 1861.13 1073.64 1861.13 1074.52C1861.22 1102.32 1882.24 1124.29 1907.34 1124.21Z" fill="white"/>
<path d="M1388.7 1453.55C1483.41 1453.55 1560.19 1376.77 1560.19 1282.06C1560.19 1187.35 1483.41 1110.57 1388.7 1110.57C1293.98 1110.57 1217.2 1187.35 1217.2 1282.06C1217.2 1376.77 1293.98 1453.55 1388.7 1453.55Z" fill="url(#paint27_linear_2_677)"/>
<path d="M1371.73 1397.8L1371.68 1379.66C1352.77 1378.97 1334.06 1374.57 1320.76 1368.8C1316.01 1366.74 1313.57 1361.42 1314.92 1356.42L1319.47 1339.52C1321.14 1333.31 1327.87 1330.09 1333.8 1332.55C1347 1338.03 1363.27 1342.35 1380.81 1342.29C1399.02 1342.23 1412.58 1336.02 1412.54 1323.36C1412.5 1311.95 1401.99 1305.19 1376.66 1298.48C1340.52 1288.72 1314.55 1273.07 1314.45 1241.28C1314.35 1212.58 1335.27 1190.6 1371.67 1184.62L1371.61 1166.49C1371.59 1160.65 1376.3 1155.91 1382.14 1155.89L1392.79 1155.85C1398.63 1155.83 1403.37 1160.55 1403.39 1166.38L1403.45 1182.67C1420.94 1183.31 1433.68 1186.26 1443.8 1189.78C1448.98 1191.58 1451.83 1197.15 1450.41 1202.45L1446.23 1218.09C1444.61 1224.11 1438.18 1227.43 1432.34 1225.25C1423.02 1221.76 1409.86 1218.14 1392.76 1218.19C1371.16 1218.26 1365.02 1227.23 1365.04 1235.26C1365.07 1245.13 1378.06 1251.88 1406.17 1260.43C1446.32 1272.34 1463.04 1288.95 1463.14 1318.88C1463.23 1346.35 1442.94 1371.1 1403.46 1377.4L1403.52 1397.7C1403.54 1403.53 1398.83 1408.28 1392.99 1408.3L1382.34 1408.33C1376.5 1408.35 1371.75 1403.63 1371.73 1397.8Z" fill="white"/>
<path d="M834.737 1152.38C834.636 1152.12 834.579 1151.84 834.577 1151.55L834.237 1045.75C834.234 1044.46 835.273 1043.41 836.563 1043.41L1121.67 1042.49C1122.96 1042.49 1124.02 1043.53 1124.01 1044.82C1124.01 1046.11 1122.98 1047.15 1121.69 1047.16L838.908 1048.07L839.244 1151.53C839.246 1152.82 838.208 1153.87 836.918 1153.87C835.927 1153.87 835.076 1153.26 834.737 1152.38Z" fill="white"/>
<path d="M1651.82 1524.53C1651.72 1524.27 1651.67 1523.98 1651.66 1523.69C1651.66 1522.4 1652.7 1521.35 1653.99 1521.35L1936.77 1520.44L1936.44 1416.97C1936.43 1415.68 1937.47 1414.64 1938.76 1414.63C1940.05 1414.63 1941.11 1415.66 1941.1 1416.96L1941.44 1522.75C1941.44 1523.37 1941.2 1523.97 1940.76 1524.41C1940.33 1524.84 1939.74 1525.09 1939.12 1525.09L1654.01 1526.01C1653.01 1526.02 1652.16 1525.4 1651.82 1524.53Z" fill="white"/>
<path d="M1958.03 1023.72L788.889 1029.68L791.688 1578.39L1960.83 1572.42L1958.03 1023.72Z" fill="#7D97F4"/>
<path d="M1894.01 1140.59L1895.6 1452.49C1870.49 1452.62 1849.4 1476.67 1849.54 1504.47C1849.54 1505.35 1849.46 1504.86 1849.52 1508.45L905.844 1513.25C905.871 1509.66 905.917 1510.15 905.913 1509.27C905.772 1481.47 885.413 1458.34 859.889 1458.47C859.514 1458.47 859.165 1457.81 859.165 1457.81L857.615 1152.92C900.65 1152.7 904.401 1123.31 904.259 1095.51C904.254 1094.63 903.756 1093.65 903.712 1093.65L1847.39 1088.86C1847.34 1088.86 1847.43 1089.83 1847.44 1090.72C1847.58 1118.52 1868.91 1140.71 1894.01 1140.59Z" fill="#BDD0FB"/>
<path d="M1496.37 1420.67C1563.34 1353.7 1563.34 1245.11 1496.37 1178.14C1429.39 1111.17 1320.81 1111.17 1253.84 1178.14C1186.87 1245.11 1186.87 1353.7 1253.84 1420.67C1320.81 1487.64 1429.39 1487.64 1496.37 1420.67Z" fill="#7D97F4"/>
<path d="M1358.39 1415.18L1358.3 1397.05C1339.39 1396.39 1320.67 1392.02 1307.36 1386.28C1302.61 1384.22 1300.16 1378.91 1301.5 1373.91L1306.02 1357C1307.68 1350.79 1314.4 1347.56 1320.34 1350.01C1333.54 1355.46 1349.83 1359.75 1367.37 1359.66C1385.57 1359.57 1399.12 1353.33 1399.06 1340.67C1399 1329.26 1388.47 1322.52 1363.13 1315.86C1326.97 1306.17 1300.97 1290.56 1300.81 1258.77C1300.66 1230.07 1321.54 1208.06 1357.92 1202.01L1357.83 1183.87C1357.8 1178.04 1362.51 1173.28 1368.34 1173.25L1379 1173.2C1384.83 1173.17 1389.59 1177.88 1389.62 1183.71L1389.7 1199.99C1407.19 1200.6 1419.94 1203.53 1430.07 1207.03C1435.25 1208.82 1438.11 1214.39 1436.7 1219.69L1432.54 1235.33C1430.94 1241.36 1424.52 1244.7 1418.67 1242.52C1409.35 1239.05 1396.18 1235.45 1379.08 1235.54C1357.48 1235.65 1351.35 1244.63 1351.39 1252.65C1351.44 1262.53 1364.44 1269.25 1392.56 1277.75C1432.74 1289.58 1449.49 1306.16 1449.64 1336.1C1449.78 1363.56 1429.54 1388.35 1390.07 1394.73L1390.17 1415.02C1390.2 1420.86 1385.5 1425.61 1379.66 1425.64L1369.01 1425.7C1363.17 1425.72 1358.42 1421.02 1358.39 1415.18Z" fill="white"/>
<path d="M818.226 1170.86C817.905 1170.46 817.713 1169.95 817.71 1169.4L817.172 1063.61C817.169 1062.99 817.411 1062.4 817.847 1061.96C818.281 1061.52 818.874 1061.27 819.492 1061.27L1108.19 1059.8C1109.47 1059.8 1110.52 1060.83 1110.53 1062.12C1110.54 1063.41 1109.5 1064.46 1108.21 1064.46L821.847 1065.92L822.374 1169.38C822.382 1170.67 821.344 1171.72 820.054 1171.72C819.317 1171.73 818.656 1171.39 818.226 1170.86Z" fill="#BDD0FB"/>
<path d="M1639.59 1541.46C1639.27 1541.06 1639.08 1540.55 1639.08 1540C1639.07 1538.72 1640.11 1537.67 1641.4 1537.66L1924.18 1536.22L1923.65 1432.76C1923.64 1431.47 1924.68 1430.42 1925.97 1430.42C1927.25 1430.41 1928.3 1431.45 1928.31 1432.74L1928.85 1538.53C1928.85 1539.15 1928.61 1539.74 1928.18 1540.18C1927.74 1540.62 1927.15 1540.87 1926.53 1540.88L1641.42 1542.32C1640.68 1542.33 1640.02 1541.99 1639.59 1541.46Z" fill="#BDD0FB"/>
<path d="M1073.52 1316.81C1073.66 1343.64 1052.02 1365.5 1025.19 1365.63C998.366 1365.77 976.507 1344.13 976.37 1317.3C976.233 1290.48 997.872 1268.62 1024.7 1268.48C1051.53 1268.34 1073.39 1289.98 1073.52 1316.81Z" fill="#7D97F4"/>
<path d="M1804.39 1313.09C1804.52 1339.92 1782.89 1361.78 1756.06 1361.92C1729.23 1362.05 1707.37 1340.42 1707.23 1313.59C1707.1 1286.76 1728.74 1264.9 1755.56 1264.76C1782.39 1264.63 1804.25 1286.27 1804.39 1313.09Z" fill="#7D97F4"/>
<path d="M1244.76 875.227C1301.15 875.227 1346.87 829.51 1346.87 773.115C1346.87 716.72 1301.15 671.003 1244.76 671.003C1188.36 671.003 1142.65 716.72 1142.65 773.115C1142.65 829.51 1188.36 875.227 1244.76 875.227Z" fill="url(#paint28_linear_2_677)"/>
<path d="M1244.76 871.832C1299.28 871.832 1343.48 827.635 1343.48 773.115C1343.48 718.595 1299.28 674.398 1244.76 674.398C1190.24 674.398 1146.04 718.595 1146.04 773.115C1146.04 827.635 1190.24 871.832 1244.76 871.832Z" fill="url(#paint29_linear_2_677)"/>
<path opacity="0.5" d="M1163.35 735.942C1162.77 735.942 1162.18 735.811 1161.63 735.53C1159.74 734.577 1158.98 732.271 1159.94 730.379C1176.19 698.166 1208.7 678.154 1244.76 678.154C1250.52 678.154 1256.28 678.673 1261.89 679.693C1263.97 680.073 1265.35 682.069 1264.97 684.153C1264.59 686.236 1262.6 687.613 1260.51 687.238C1255.36 686.298 1250.06 685.822 1244.76 685.822C1211.61 685.822 1181.73 704.22 1166.78 733.834C1166.11 735.172 1164.76 735.942 1163.35 735.942Z" fill="white"/>
<path opacity="0.78" d="M1305.97 834.349C1338.6 801.72 1338.6 748.819 1305.97 716.19C1273.34 683.561 1220.44 683.561 1187.81 716.19C1155.18 748.819 1155.18 801.72 1187.81 834.349C1220.44 866.978 1273.34 866.978 1305.97 834.349Z" fill="white"/>
<path d="M1238.71 837.379V828.289C1229.23 827.91 1219.86 825.673 1213.2 822.759C1210.83 821.719 1209.62 819.051 1210.3 816.547L1212.61 808.079C1213.45 804.973 1216.83 803.367 1219.8 804.611C1226.41 807.38 1234.56 809.569 1243.35 809.569C1252.48 809.569 1259.29 806.475 1259.29 800.132C1259.29 794.409 1254.03 791.006 1241.34 787.603C1223.24 782.653 1210.25 774.763 1210.25 758.829C1210.25 744.442 1220.77 733.458 1239.02 730.52V721.429C1239.02 718.504 1241.39 716.133 1244.32 716.133H1249.66C1252.58 716.133 1254.95 718.504 1254.95 721.429V729.591C1263.72 729.942 1270.1 731.441 1275.17 733.221C1277.76 734.133 1279.18 736.929 1278.46 739.584L1276.34 747.415C1275.52 750.435 1272.29 752.089 1269.37 750.982C1264.7 749.219 1258.11 747.382 1249.54 747.382C1238.71 747.382 1235.62 751.868 1235.62 755.89C1235.62 760.84 1242.11 764.243 1256.19 768.576C1276.3 774.609 1284.65 782.962 1284.65 797.968C1284.65 811.736 1274.44 824.112 1254.64 827.206V837.379C1254.64 840.304 1252.27 842.675 1249.35 842.675H1244.01C1241.08 842.675 1238.71 840.304 1238.71 837.379Z" fill="url(#paint30_linear_2_677)"/>
<path d="M1535.42 829.782C1633.6 829.782 1713.18 750.196 1713.18 652.022C1713.18 553.848 1633.6 474.262 1535.42 474.262C1437.25 474.262 1357.66 553.848 1357.66 652.022C1357.66 750.196 1437.25 829.782 1535.42 829.782Z" fill="url(#paint31_linear_2_677)"/>
<path d="M1535.42 823.871C1630.33 823.871 1707.27 746.931 1707.27 652.022C1707.27 557.112 1630.33 480.173 1535.42 480.173C1440.51 480.173 1363.57 557.112 1363.57 652.022C1363.57 746.931 1440.51 823.871 1535.42 823.871Z" fill="url(#paint32_linear_2_677)"/>
<path opacity="0.5" d="M1393.71 584.47C1393.13 584.47 1392.54 584.339 1391.99 584.058C1390.1 583.105 1389.34 580.798 1390.3 578.907C1418.12 523.79 1473.73 489.551 1535.42 489.551C1545.26 489.551 1555.12 490.438 1564.73 492.187C1566.81 492.567 1568.19 494.563 1567.81 496.646C1567.44 498.728 1565.45 500.098 1563.35 499.731C1554.2 498.063 1544.8 497.219 1535.42 497.219C1476.64 497.219 1423.65 529.844 1397.14 582.362C1396.47 583.701 1395.12 584.47 1393.71 584.47Z" fill="white"/>
<path opacity="0.78" d="M1641.99 758.619C1698.79 701.818 1698.79 609.726 1641.99 552.925C1585.19 496.124 1493.1 496.124 1436.3 552.925C1379.5 609.726 1379.5 701.818 1436.3 758.619C1493.1 815.42 1585.19 815.42 1641.99 758.619Z" fill="white"/>
<path d="M1524.89 763.894V748.07C1508.4 747.409 1492.08 743.516 1480.49 738.443C1476.35 736.632 1474.24 731.988 1475.43 727.629L1479.45 712.889C1480.93 707.482 1486.81 704.685 1491.98 706.852C1503.47 711.671 1517.67 715.484 1532.97 715.484C1548.86 715.484 1560.71 710.097 1560.71 699.056C1560.71 689.092 1551.55 683.168 1529.47 677.244C1497.96 668.627 1475.34 654.892 1475.34 627.154C1475.34 602.108 1493.66 582.988 1525.43 577.872V562.047C1525.43 556.955 1529.56 552.827 1534.65 552.827H1543.95C1549.04 552.827 1553.17 556.955 1553.17 562.047V576.255C1568.43 576.866 1579.55 579.476 1588.36 582.575C1592.88 584.162 1595.35 589.029 1594.1 593.651L1590.4 607.283C1588.97 612.54 1583.36 615.419 1578.26 613.492C1570.14 610.422 1558.66 607.225 1543.74 607.225C1524.89 607.225 1519.51 615.034 1519.51 622.037C1519.51 630.654 1530.82 636.578 1555.32 644.12C1590.33 654.622 1604.87 669.164 1604.87 695.287C1604.87 719.255 1587.1 740.799 1552.63 746.186V763.895C1552.63 768.988 1548.5 773.116 1543.41 773.116H1534.11C1529.02 773.115 1524.89 768.987 1524.89 763.894Z" fill="url(#paint33_linear_2_677)"/>
<path d="M1658.02 1231.97C1759.04 1231.97 1840.93 1150.08 1840.93 1049.06C1840.93 948.037 1759.04 866.144 1658.02 866.144C1557 866.144 1475.1 948.037 1475.1 1049.06C1475.1 1150.08 1557 1231.97 1658.02 1231.97Z" fill="url(#paint34_linear_2_677)"/>
<path d="M1658.02 1225.89C1755.68 1225.89 1834.85 1146.72 1834.85 1049.06C1834.85 951.396 1755.68 872.227 1658.02 872.227C1560.36 872.227 1481.19 951.396 1481.19 1049.06C1481.19 1146.72 1560.36 1225.89 1658.02 1225.89Z" fill="url(#paint35_linear_2_677)"/>
<path opacity="0.5" d="M1512.2 979.436C1511.62 979.436 1511.03 979.305 1510.48 979.024C1508.59 978.071 1507.83 975.764 1508.78 973.873C1537.39 917.198 1594.57 881.989 1658.02 881.989C1668.14 881.989 1678.28 882.901 1688.15 884.698C1690.24 885.078 1691.62 887.074 1691.24 889.158C1690.86 891.24 1688.87 892.614 1686.78 892.243C1677.36 890.528 1667.68 889.657 1658.02 889.657C1597.48 889.657 1542.92 923.25 1515.63 977.328C1514.95 978.666 1513.6 979.436 1512.2 979.436Z" fill="white"/>
<path opacity="0.78" d="M1767.67 1158.74C1826.12 1100.29 1826.12 1005.53 1767.67 947.086C1709.23 888.639 1614.46 888.639 1556.02 947.086C1497.57 1005.53 1497.57 1100.29 1556.02 1158.74C1614.46 1217.19 1709.23 1217.19 1767.67 1158.74Z" fill="white"/>
<path d="M1647.18 1164.17V1147.89C1630.21 1147.21 1613.42 1143.2 1601.49 1137.98C1597.24 1136.12 1595.07 1131.34 1596.29 1126.86L1600.42 1111.69C1601.94 1106.13 1607.99 1103.25 1613.31 1105.48C1625.14 1110.44 1639.75 1114.36 1655.5 1114.36C1671.84 1114.36 1684.04 1108.82 1684.04 1097.45C1684.04 1087.2 1674.62 1081.11 1651.89 1075.01C1619.47 1066.14 1596.19 1052.01 1596.19 1023.47C1596.19 997.697 1615.04 978.023 1647.74 972.759V956.474C1647.74 951.234 1651.98 946.987 1657.22 946.987H1666.79C1672.03 946.987 1676.28 951.235 1676.28 956.474V971.095C1691.99 971.723 1703.42 974.41 1712.49 977.598C1717.14 979.231 1719.68 984.239 1718.39 988.995L1714.59 1003.02C1713.12 1008.43 1707.34 1011.39 1702.1 1009.41C1693.74 1006.25 1681.93 1002.96 1666.58 1002.96C1647.18 1002.96 1641.64 1011 1641.64 1018.2C1641.64 1027.07 1653.28 1033.17 1678.5 1040.93C1714.52 1051.73 1729.48 1066.7 1729.48 1093.58C1729.48 1118.24 1711.19 1140.41 1675.72 1145.95V1164.17C1675.72 1169.41 1671.48 1173.66 1666.24 1173.66H1656.67C1651.43 1173.66 1647.18 1169.41 1647.18 1164.17Z" fill="url(#paint36_linear_2_677)"/>
<path d="M1892.67 933.912C1966.68 933.912 2026.69 873.91 2026.69 799.894C2026.69 725.878 1966.68 665.876 1892.67 665.876C1818.65 665.876 1758.65 725.878 1758.65 799.894C1758.65 873.91 1818.65 933.912 1892.67 933.912Z" fill="url(#paint37_linear_2_677)"/>
<path d="M1892.67 929.457C1964.22 929.457 2022.23 871.45 2022.23 799.895C2022.23 728.34 1964.22 670.333 1892.67 670.333C1821.11 670.333 1763.11 728.34 1763.11 799.895C1763.11 871.45 1821.11 929.457 1892.67 929.457Z" fill="url(#paint38_linear_2_677)"/>
<path opacity="0.5" d="M1785.83 749.908C1785.25 749.908 1784.66 749.777 1784.11 749.496C1782.22 748.543 1781.46 746.236 1782.41 744.345C1803.55 702.472 1845.8 676.459 1892.67 676.459C1900.15 676.459 1907.65 677.133 1914.94 678.462C1917.02 678.842 1918.4 680.84 1918.02 682.922C1917.64 685.007 1915.66 686.387 1913.56 686.007C1906.72 684.76 1899.69 684.127 1892.67 684.127C1848.71 684.127 1809.08 708.526 1789.26 747.8C1788.58 749.139 1787.23 749.908 1785.83 749.908Z" fill="white"/>
<path opacity="0.78" d="M1920.63 909.265C1979.57 895.348 2016.07 836.286 2002.15 777.346C1988.24 718.406 1929.17 681.908 1870.23 695.825C1811.3 709.742 1774.8 768.805 1788.72 827.745C1802.63 886.685 1861.69 923.183 1920.63 909.265Z" fill="white"/>
<path d="M1884.73 884.239V872.309C1872.29 871.811 1859.99 868.876 1851.25 865.051C1848.13 863.685 1846.54 860.184 1847.44 856.898L1850.47 845.785C1851.58 841.708 1856.02 839.6 1859.91 841.233C1868.58 844.867 1879.28 847.741 1890.82 847.741C1902.8 847.741 1911.73 843.679 1911.73 835.355C1911.73 827.843 1904.83 823.377 1888.18 818.911C1864.43 812.414 1847.37 802.059 1847.37 781.146C1847.37 762.263 1861.18 747.848 1885.14 743.991V732.059C1885.14 728.22 1888.25 725.108 1892.09 725.108H1899.1C1902.94 725.108 1906.05 728.22 1906.05 732.059V742.771C1917.56 743.232 1925.93 745.2 1932.58 747.536C1935.99 748.733 1937.85 752.402 1936.9 755.886L1934.12 766.163C1933.04 770.126 1928.81 772.297 1924.97 770.845C1918.85 768.53 1910.19 766.12 1898.94 766.12C1884.73 766.12 1880.67 772.007 1880.67 777.287C1880.67 783.784 1889.2 788.251 1907.67 793.936C1934.07 801.855 1945.03 812.818 1945.03 832.512C1945.03 850.582 1931.63 866.825 1905.64 870.886V884.237C1905.64 888.076 1902.53 891.189 1898.69 891.189H1891.68C1887.84 891.19 1884.73 888.078 1884.73 884.239Z" fill="url(#paint39_linear_2_677)"/>
<defs>
<linearGradient id="paint0_linear_2_677" x1="3007.34" y1="3184.46" x2="1064.45" y2="1116.22" gradientUnits="userSpaceOnUse">
<stop stop-color="#DAE3FE"/>
<stop offset="1" stop-color="#E9EFFD"/>
</linearGradient>
<linearGradient id="paint1_linear_2_677" x1="991.332" y1="2610.1" x2="856.007" y2="-1395.6" gradientUnits="userSpaceOnUse">
<stop stop-color="#09005D"/>
<stop offset="1" stop-color="#1A0F91"/>
</linearGradient>
<linearGradient id="paint2_linear_2_677" x1="261.292" y1="3033.27" x2="1945.08" y2="-536.365" gradientUnits="userSpaceOnUse">
<stop stop-color="#4F52FF"/>
<stop offset="1" stop-color="#4042E2"/>
</linearGradient>
<linearGradient id="paint3_linear_2_677" x1="1203.38" y1="-183.749" x2="526.604" y2="706.539" gradientUnits="userSpaceOnUse">
<stop stop-color="#09005D"/>
<stop offset="1" stop-color="#1A0F91"/>
</linearGradient>
<linearGradient id="paint4_linear_2_677" x1="1277.62" y1="-127.317" x2="600.841" y2="762.972" gradientUnits="userSpaceOnUse">
<stop stop-color="#09005D"/>
<stop offset="1" stop-color="#1A0F91"/>
</linearGradient>
<linearGradient id="paint5_linear_2_677" x1="1192.34" y1="-72.8596" x2="725.033" y2="785.203" gradientUnits="userSpaceOnUse">
<stop stop-color="#4F52FF"/>
<stop offset="1" stop-color="#4042E2"/>
</linearGradient>
<linearGradient id="paint6_linear_2_677" x1="1771.99" y1="1659.01" x2="-2074.87" y2="2277.76" gradientUnits="userSpaceOnUse">
<stop stop-color="#E1473D"/>
<stop offset="1" stop-color="#E9605A"/>
</linearGradient>
<linearGradient id="paint7_linear_2_677" x1="1778.08" y1="1696.89" x2="-2068.77" y2="2315.64" gradientUnits="userSpaceOnUse">
<stop stop-color="#E1473D"/>
<stop offset="1" stop-color="#E9605A"/>
</linearGradient>
<linearGradient id="paint8_linear_2_677" x1="795.343" y1="564.367" x2="2499.59" y2="464.973" gradientUnits="userSpaceOnUse">
<stop stop-color="#E1473D"/>
<stop offset="1" stop-color="#E9605A"/>
</linearGradient>
<linearGradient id="paint9_linear_2_677" x1="795.49" y1="566.877" x2="2499.74" y2="467.483" gradientUnits="userSpaceOnUse">
<stop stop-color="#E1473D"/>
<stop offset="1" stop-color="#E9605A"/>
</linearGradient>
<linearGradient id="paint10_linear_2_677" x1="2583.99" y1="2694.2" x2="2472.48" y2="2694.2" gradientUnits="userSpaceOnUse">
<stop stop-color="#09005D"/>
<stop offset="1" stop-color="#1A0F91"/>
</linearGradient>
<linearGradient id="paint11_linear_2_677" x1="2572.68" y1="2642.38" x2="2527.46" y2="2642.38" gradientUnits="userSpaceOnUse">
<stop stop-color="#FEBBBA"/>
<stop offset="1" stop-color="#FF928E"/>
</linearGradient>
<linearGradient id="paint12_linear_2_677" x1="2346.85" y1="2692.42" x2="2171.88" y2="2692.42" gradientUnits="userSpaceOnUse">
<stop stop-color="#09005D"/>
<stop offset="1" stop-color="#1A0F91"/>
</linearGradient>
<linearGradient id="paint13_linear_2_677" x1="2344.19" y1="2622.3" x2="2299.21" y2="2622.3" gradientUnits="userSpaceOnUse">
<stop stop-color="#FEBBBA"/>
<stop offset="1" stop-color="#FF928E"/>
</linearGradient>
<linearGradient id="paint14_linear_2_677" x1="2600.78" y1="2223.35" x2="2294.16" y2="2223.35" gradientUnits="userSpaceOnUse">
<stop stop-color="#09005D"/>
<stop offset="1" stop-color="#1A0F91"/>
</linearGradient>
<linearGradient id="paint15_linear_2_677" x1="2469.58" y1="2003.74" x2="2532.31" y2="2003.74" gradientUnits="userSpaceOnUse">
<stop stop-color="#4F52FF"/>
<stop offset="1" stop-color="#4042E2"/>
</linearGradient>
<linearGradient id="paint16_linear_2_677" x1="1957.91" y1="961.391" x2="2522.98" y2="2186.94" gradientUnits="userSpaceOnUse">
<stop stop-color="#FF928E"/>
<stop offset="1" stop-color="#FE7062"/>
</linearGradient>
<linearGradient id="paint17_linear_2_677" x1="2043.27" y1="1305.33" x2="1876.11" y2="1305.33" gradientUnits="userSpaceOnUse">
<stop stop-color="#FEBBBA"/>
<stop offset="1" stop-color="#FF928E"/>
</linearGradient>
<linearGradient id="paint18_linear_2_677" x1="2830.64" y1="236.343" x2="2551.46" y2="964.206" gradientUnits="userSpaceOnUse">
<stop stop-color="#FF928E"/>
<stop offset="1" stop-color="#FE7062"/>
</linearGradient>
<linearGradient id="paint19_linear_2_677" x1="1624.17" y1="1296.91" x2="2032.96" y2="1805.48" gradientUnits="userSpaceOnUse">
<stop stop-color="#FEBBBA"/>
<stop offset="1" stop-color="#FF928E"/>
</linearGradient>
<linearGradient id="paint20_linear_2_677" x1="1635.23" y1="1459.47" x2="1868.6" y2="1749.8" gradientUnits="userSpaceOnUse">
<stop stop-color="#FEBBBA"/>
<stop offset="1" stop-color="#FF928E"/>
</linearGradient>
<linearGradient id="paint21_linear_2_677" x1="2071.1" y1="1070.22" x2="2420.9" y2="1712.94" gradientUnits="userSpaceOnUse">
<stop stop-color="#FEBBBA"/>
<stop offset="1" stop-color="#FF928E"/>
</linearGradient>
<linearGradient id="paint22_linear_2_677" x1="2181.34" y1="1188.63" x2="2189.7" y2="1444.87" gradientUnits="userSpaceOnUse">
<stop stop-color="#FEBBBA"/>
<stop offset="1" stop-color="#FF928E"/>
</linearGradient>
<linearGradient id="paint23_linear_2_677" x1="2249.35" y1="1297.03" x2="2098.48" y2="1190.53" gradientUnits="userSpaceOnUse">
<stop stop-color="#09005D"/>
<stop offset="1" stop-color="#1A0F91"/>
</linearGradient>
<linearGradient id="paint24_linear_2_677" x1="2272.92" y1="1451.53" x2="2244.98" y2="1276.08" gradientUnits="userSpaceOnUse">
<stop stop-color="#FEBBBA"/>
<stop offset="1" stop-color="#FF928E"/>
</linearGradient>
<linearGradient id="paint25_linear_2_677" x1="1412.5" y1="1147.09" x2="1299.81" y2="2659.72" gradientUnits="userSpaceOnUse">
<stop stop-color="#50E7B7"/>
<stop offset="0.9964" stop-color="#323992"/>
</linearGradient>
<linearGradient id="paint26_linear_2_677" x1="1784.29" y1="249.906" x2="1109.38" y2="2010.77" gradientUnits="userSpaceOnUse">
<stop stop-color="#4F52FF"/>
<stop offset="1" stop-color="#4042E2"/>
</linearGradient>
<linearGradient id="paint27_linear_2_677" x1="1397.72" y1="1161.01" x2="1285.02" y2="2673.63" gradientUnits="userSpaceOnUse">
<stop stop-color="#50E7B7"/>
<stop offset="0.9964" stop-color="#323992"/>
</linearGradient>
<linearGradient id="paint28_linear_2_677" x1="1961.83" y1="-464.19" x2="1707.58" y2="-25.4788" gradientUnits="userSpaceOnUse">
<stop stop-color="#FF928E"/>
<stop offset="1" stop-color="#FE7062"/>
</linearGradient>
<linearGradient id="paint29_linear_2_677" x1="1961.83" y1="-464.192" x2="1707.58" y2="-25.4795" gradientUnits="userSpaceOnUse">
<stop stop-color="#FF928E"/>
<stop offset="1" stop-color="#FE7062"/>
</linearGradient>
<linearGradient id="paint30_linear_2_677" x1="1966.13" y1="-461.696" x2="1711.88" y2="-22.9836" gradientUnits="userSpaceOnUse">
<stop stop-color="#FF928E"/>
<stop offset="1" stop-color="#FE7062"/>
</linearGradient>
<linearGradient id="paint31_linear_2_677" x1="2126.88" y1="-368.538" x2="1872.63" y2="70.1753" gradientUnits="userSpaceOnUse">
<stop stop-color="#FF928E"/>
<stop offset="1" stop-color="#FE7062"/>
</linearGradient>
<linearGradient id="paint32_linear_2_677" x1="2126.88" y1="-368.538" x2="1872.63" y2="70.173" gradientUnits="userSpaceOnUse">
<stop stop-color="#FF928E"/>
<stop offset="1" stop-color="#FE7062"/>
</linearGradient>
<linearGradient id="paint33_linear_2_677" x1="2134.37" y1="-364.197" x2="1880.12" y2="74.5154" gradientUnits="userSpaceOnUse">
<stop stop-color="#FF928E"/>
<stop offset="1" stop-color="#FE7062"/>
</linearGradient>
<linearGradient id="paint34_linear_2_677" x1="2390.9" y1="-215.528" x2="2136.65" y2="223.184" gradientUnits="userSpaceOnUse">
<stop stop-color="#FF928E"/>
<stop offset="1" stop-color="#FE7062"/>
</linearGradient>
<linearGradient id="paint35_linear_2_677" x1="2390.9" y1="-215.528" x2="2136.65" y2="223.184" gradientUnits="userSpaceOnUse">
<stop stop-color="#FF928E"/>
<stop offset="1" stop-color="#FE7062"/>
</linearGradient>
<linearGradient id="paint36_linear_2_677" x1="2398.61" y1="-211.062" x2="2144.35" y2="227.65" gradientUnits="userSpaceOnUse">
<stop stop-color="#FF928E"/>
<stop offset="1" stop-color="#FE7062"/>
</linearGradient>
<linearGradient id="paint37_linear_2_677" x1="2458.46" y1="-176.373" x2="2204.21" y2="262.339" gradientUnits="userSpaceOnUse">
<stop stop-color="#FF928E"/>
<stop offset="1" stop-color="#FE7062"/>
</linearGradient>
<linearGradient id="paint38_linear_2_677" x1="2458.46" y1="-176.373" x2="2204.21" y2="262.339" gradientUnits="userSpaceOnUse">
<stop stop-color="#FF928E"/>
<stop offset="1" stop-color="#FE7062"/>
</linearGradient>
<linearGradient id="paint39_linear_2_677" x1="2464.11" y1="-173.101" x2="2209.85" y2="265.612" gradientUnits="userSpaceOnUse">
<stop stop-color="#FF928E"/>
<stop offset="1" stop-color="#FE7062"/>
</linearGradient>
</defs>
</svg>
