<svg width="2774" height="2775" viewBox="0 0 2774 2775" fill="none" xmlns="http://www.w3.org/2000/svg">
<path d="M2442.65 2367.64C2385.92 2426.43 2332.24 2464.34 2289.82 2494.3C1791.27 2846.39 1201.35 2743.75 1075.98 2718.69C890.839 2681.68 532.97 2610.14 274.237 2310.66C-117.204 1857.57 -56.2507 1143.74 247.377 672.529C302.915 586.337 596.285 107.951 1192.56 31.2332C1553.42 -15.1958 1974.06 78.4462 2278.68 329.643C2918.1 856.928 2872.58 1922.14 2442.65 2367.64Z" fill="url(#paint0_linear_2_488)"/>
<path d="M528.621 786.946C528.878 773.623 540.073 762.902 553.794 762.902H1386.05C1399.96 762.902 1414.73 773.953 1414.73 787.458V2673.81C1414.73 2683.89 1408.85 2693.55 1401.5 2700.67C1394.15 2707.79 1383.31 2711.77 1372.93 2711.75L531.557 2709.52C521.087 2709.49 510.85 2705.38 503.526 2698.11C496.202 2690.85 492.079 2681 492.276 2670.83L528.621 786.946Z" fill="#BDD0FB"/>
<g opacity="0.52">
<path d="M1006.58 896.584L1278.83 895.669L1278.72 862.587L1006.78 863.422L1006.58 896.584Z" fill="white"/>
<path d="M1005.83 1018.44L1279.2 1017.23L1279.1 983.871L1006.03 985L1005.83 1018.44Z" fill="white"/>
<path d="M1005.08 1141.29L1279.58 1139.78L1279.47 1106.15L1005.28 1107.58L1005.08 1141.29Z" fill="white"/>
<path d="M1004.32 1265.18L1279.96 1263.36L1279.85 1229.45L1004.53 1231.18L1004.32 1265.18Z" fill="white"/>
<path d="M1003.55 1390.09L1280.34 1387.96L1280.23 1353.77L1003.76 1355.81L1003.55 1390.09Z" fill="white"/>
<path d="M1002 1643.06L1281.11 1640.29L1281.01 1605.52L1002.22 1608.2L1002 1643.06Z" fill="white"/>
<path d="M999.629 2030.59L1282.3 2026.82L1282.19 1991.17L999.848 1994.84L999.629 2030.59Z" fill="white"/>
<path d="M1002.78 1516.04L1280.72 1513.6L1280.62 1479.12L1002.99 1481.48L1002.78 1516.04Z" fill="white"/>
<path d="M1001.22 1771.14L1281.5 1768.05L1281.4 1732.99L1001.43 1736L1001.22 1771.14Z" fill="white"/>
<path d="M1000.43 1900.32L1281.9 1896.89L1281.79 1861.53L1000.64 1864.87L1000.43 1900.32Z" fill="white"/>
<path d="M998.824 2161.97L1282.7 2157.86L1282.59 2121.9L999.045 2125.92L998.824 2161.97Z" fill="white"/>
<path d="M998.012 2294.48L1283.11 2290.02L1282.99 2253.76L998.236 2258.12L998.012 2294.48Z" fill="white"/>
<path d="M997.194 2428.14L1283.51 2423.33L1283.4 2386.75L997.418 2391.46L997.194 2428.14Z" fill="white"/>
<path d="M996.367 2562.95L1283.93 2557.78L1283.81 2520.88L996.595 2525.95L996.367 2562.95Z" fill="white"/>
<path d="M649.634 897.784L923.592 896.863L923.889 863.677L650.238 864.517L649.634 897.784Z" fill="white"/>
<path d="M647.411 1020.02L922.504 1018.8L922.802 985.345L648.021 986.482L647.411 1020.02Z" fill="white"/>
<path d="M645.171 1143.28L921.406 1141.76L921.707 1108.02L645.785 1109.46L645.171 1143.28Z" fill="white"/>
<path d="M642.912 1267.56L920.3 1265.73L920.604 1231.71L643.532 1233.46L642.912 1267.56Z" fill="white"/>
<path d="M640.634 1392.88L919.183 1390.74L919.49 1356.43L641.259 1358.49L640.634 1392.88Z" fill="white"/>
<path d="M636.02 1646.69L916.924 1643.9L917.235 1609.02L636.656 1611.72L636.02 1646.69Z" fill="white"/>
<path d="M628.951 2035.53L913.461 2031.74L913.78 1995.96L629.603 1999.65L628.951 2035.53Z" fill="white"/>
<path d="M638.336 1519.25L918.058 1516.79L918.367 1482.2L638.966 1484.57L638.336 1519.25Z" fill="white"/>
<path d="M633.683 1775.2L915.779 1772.09L916.093 1736.91L634.324 1739.94L633.683 1775.2Z" fill="white"/>
<path d="M631.327 1904.81L914.625 1901.36L914.942 1865.89L631.974 1869.24L631.327 1904.81Z" fill="white"/>
<path d="M626.554 2167.36L912.287 2163.23L912.609 2127.14L627.212 2131.18L626.554 2167.36Z" fill="white"/>
<path d="M624.137 2300.33L911.102 2295.84L911.428 2259.45L624.8 2263.84L624.137 2300.33Z" fill="white"/>
<path d="M621.698 2434.45L909.909 2429.61L910.236 2392.9L622.367 2397.65L621.698 2434.45Z" fill="white"/>
<path d="M619.239 2569.74L908.704 2564.53L909.035 2527.5L619.914 2532.61L619.239 2569.74Z" fill="white"/>
</g>
<path d="M51.0322 1307.26C51.3972 1291.85 67.2181 1279.17 86.6111 1279.17H819.625C839.278 1279.17 858.579 1292.51 858.579 1308.13V2704.04C858.579 2711.55 853.132 2718.75 846.438 2724.06C839.743 2729.36 829.824 2732.33 820.37 2732.31L53.9642 2730.65C44.4272 2730.63 35.0902 2727.57 28.4202 2722.15C21.7502 2716.73 17.9892 2709.25 18.1672 2701.67L51.0322 1307.26Z" fill="#BDD0FB"/>
<path d="M590.858 1443.66L799.678 1443.44L801.335 1358.38H592.312L590.858 1443.66Z" fill="url(#paint1_linear_2_488)"/>
<path d="M356.795 1443.62L565.405 1443.39L566.835 1358.38H358.022L356.795 1443.62Z" fill="url(#paint2_linear_2_488)"/>
<path d="M122.967 1443.57L331.368 1443.35L332.57 1358.38H123.968L122.967 1443.57Z" fill="url(#paint3_linear_2_488)"/>
<path d="M588.25 1596.33L796.706 1596.44L798.355 1511.94L589.698 1511.87L588.25 1596.33Z" fill="url(#paint4_linear_2_488)"/>
<path d="M354.593 1596.21L562.84 1596.32L564.265 1511.86L355.816 1511.79L354.593 1596.21Z" fill="url(#paint5_linear_2_488)"/>
<path d="M121.172 1596.1L329.21 1596.2L330.408 1511.78L122.169 1511.72L121.172 1596.1Z" fill="url(#paint6_linear_2_488)"/>
<path d="M585.648 1747.96L793.741 1748.13L795.386 1663.92L587.092 1663.79L585.648 1747.96Z" fill="url(#paint7_linear_2_488)"/>
<path d="M352.399 1747.76L560.284 1747.94L561.703 1663.77L353.617 1663.63L352.399 1747.76Z" fill="url(#paint8_linear_2_488)"/>
<path d="M119.384 1747.57L327.06 1747.74L328.253 1663.62L120.377 1663.48L119.384 1747.57Z" fill="url(#paint9_linear_2_488)"/>
<path d="M583.057 1899.06L790.789 1899.3L792.428 1815.38L584.495 1815.18L583.057 1899.06Z" fill="url(#paint10_linear_2_488)"/>
<path d="M350.212 1898.79L557.737 1899.03L559.151 1815.15L351.426 1814.95L350.212 1898.79Z" fill="url(#paint11_linear_2_488)"/>
<path d="M117.601 1898.52L324.917 1898.76L326.107 1814.93L118.59 1814.72L117.601 1898.52Z" fill="url(#paint12_linear_2_488)"/>
<path d="M580.474 2049.64L787.846 2049.94L789.479 1966.32L581.908 1966.05L580.474 2049.64Z" fill="url(#paint13_linear_2_488)"/>
<path d="M348.033 2049.29L555.198 2049.6L556.607 1966.01L349.243 1965.74L348.033 2049.29Z" fill="url(#paint14_linear_2_488)"/>
<path d="M115.824 2048.95L322.782 2049.25L323.967 1965.71L116.81 1965.44L115.824 2048.95Z" fill="url(#paint15_linear_2_488)"/>
<path d="M577.901 2199.69L784.913 2200.07L786.541 2116.73L579.329 2116.39L577.901 2199.69Z" fill="url(#paint16_linear_2_488)"/>
<path d="M345.861 2199.28L552.668 2199.65L554.072 2116.35L347.067 2116.01L345.861 2199.28Z" fill="url(#paint17_linear_2_488)"/>
<path d="M114.054 2198.86L320.654 2199.23L321.835 2115.97L115.037 2115.64L114.054 2198.86Z" fill="url(#paint18_linear_2_488)"/>
<path d="M575.335 2349.24L781.99 2349.67L783.613 2266.62L576.759 2266.22L575.335 2349.24Z" fill="url(#paint19_linear_2_488)"/>
<path d="M343.697 2348.74L550.147 2349.18L551.546 2266.17L344.898 2265.77L343.697 2348.74Z" fill="url(#paint20_linear_2_488)"/>
<path d="M112.289 2348.25L318.533 2348.69L319.711 2265.72L113.269 2265.32L112.289 2348.25Z" fill="url(#paint21_linear_2_488)"/>
<path d="M572.78 2498.26L779.078 2498.77L780.695 2416L574.199 2415.53L572.78 2498.26Z" fill="url(#paint22_linear_2_488)"/>
<path d="M341.541 2497.7L547.634 2498.2L549.029 2415.48L342.738 2415.01L341.541 2497.7Z" fill="url(#paint23_linear_2_488)"/>
<path d="M110.531 2497.13L316.42 2497.64L317.592 2414.95L111.507 2414.48L110.531 2497.13Z" fill="url(#paint24_linear_2_488)"/>
<path d="M570.232 2646.78L776.175 2647.35L777.786 2564.87L571.646 2564.33L570.232 2646.78Z" fill="url(#paint25_linear_2_488)"/>
<path d="M339.391 2646.14L545.13 2646.71L546.521 2564.27L340.584 2563.73L339.391 2646.14Z" fill="url(#paint26_linear_2_488)"/>
<path d="M108.779 2645.5L314.313 2646.07L315.483 2563.67L109.751 2563.14L108.779 2645.5Z" fill="url(#paint27_linear_2_488)"/>
<path d="M1964.42 1340.59C1964.78 1325.18 1980.6 1312.5 2000 1312.5H2733.01C2752.66 1312.5 2771.96 1325.84 2771.96 1341.46V2737.37C2771.96 2744.88 2766.52 2752.09 2759.82 2757.39C2753.13 2762.7 2743.21 2765.67 2733.76 2765.65L1967.35 2763.98C1957.81 2763.96 1948.48 2760.9 1941.81 2755.49C1935.14 2750.07 1931.37 2742.58 1931.55 2735.01L1964.42 1340.59Z" fill="#BDD0FB"/>
<g opacity="0.5">
<path d="M2504.24 1476.99L2713.06 1476.77L2714.72 1391.71H2505.7L2504.24 1476.99Z" fill="white"/>
<path d="M2270.18 1476.95L2478.79 1476.73L2480.22 1391.71H2271.41L2270.18 1476.95Z" fill="white"/>
<path d="M2036.35 1476.91L2244.75 1476.69L2245.95 1391.71H2037.35L2036.35 1476.91Z" fill="white"/>
<path d="M2501.63 1629.67L2710.09 1629.77L2711.74 1545.27L2503.08 1545.21L2501.63 1629.67Z" fill="white"/>
<path d="M2267.98 1629.55L2476.23 1629.65L2477.65 1545.2L2269.2 1545.13L2267.98 1629.55Z" fill="white"/>
<path d="M2034.56 1629.43L2242.59 1629.54L2243.79 1545.12L2035.55 1545.05L2034.56 1629.43Z" fill="white"/>
<path d="M2499.03 1781.29L2707.13 1781.47L2708.77 1697.26L2500.48 1697.12L2499.03 1781.29Z" fill="white"/>
<path d="M2265.78 1781.1L2473.67 1781.27L2475.09 1697.11L2267 1696.97L2265.78 1781.1Z" fill="white"/>
<path d="M2032.77 1780.9L2240.45 1781.08L2241.64 1696.95L2033.76 1696.82L2032.77 1780.9Z" fill="white"/>
<path d="M2496.44 1932.39L2704.17 1932.63L2705.81 1848.72L2497.88 1848.51L2496.44 1932.39Z" fill="white"/>
<path d="M2263.6 1932.12L2471.12 1932.36L2472.54 1848.49L2264.81 1848.28L2263.6 1932.12Z" fill="white"/>
<path d="M2030.99 1931.85L2238.3 1932.09L2239.49 1848.26L2031.98 1848.06L2030.99 1931.85Z" fill="white"/>
<path d="M2493.86 2082.97L2701.23 2083.28L2702.86 1999.65L2495.29 1999.38L2493.86 2082.97Z" fill="white"/>
<path d="M2261.42 2082.63L2468.58 2082.93L2469.99 1999.35L2262.63 1999.08L2261.42 2082.63Z" fill="white"/>
<path d="M2029.21 2082.28L2236.17 2082.59L2237.35 1999.04L2030.2 1998.77L2029.21 2082.28Z" fill="white"/>
<path d="M2491.29 2233.03L2698.3 2233.4L2699.93 2150.06L2492.71 2149.73L2491.29 2233.03Z" fill="white"/>
<path d="M2259.25 2232.61L2466.05 2232.98L2467.46 2149.69L2260.45 2149.35L2259.25 2232.61Z" fill="white"/>
<path d="M2027.44 2232.19L2234.04 2232.56L2235.22 2149.31L2028.42 2148.97L2027.44 2232.19Z" fill="white"/>
<path d="M2488.72 2382.57L2695.37 2383.01L2697 2299.96L2490.14 2299.56L2488.72 2382.57Z" fill="white"/>
<path d="M2257.08 2382.08L2463.53 2382.52L2464.93 2299.51L2258.28 2299.1L2257.08 2382.08Z" fill="white"/>
<path d="M2025.67 2381.59L2231.92 2382.02L2233.09 2299.05L2026.65 2298.65L2025.67 2381.59Z" fill="white"/>
<path d="M2486.16 2531.6L2692.46 2532.1L2694.08 2449.34L2487.58 2448.87L2486.16 2531.6Z" fill="white"/>
<path d="M2254.92 2531.03L2461.02 2531.54L2462.41 2448.81L2256.12 2448.34L2254.92 2531.03Z" fill="white"/>
<path d="M2023.92 2530.47L2229.8 2530.97L2230.98 2448.29L2024.89 2447.82L2023.92 2530.47Z" fill="white"/>
<path d="M2483.62 2680.11L2689.56 2680.68L2691.17 2598.2L2485.03 2597.67L2483.62 2680.11Z" fill="white"/>
<path d="M2252.78 2679.47L2458.52 2680.04L2459.91 2597.6L2253.97 2597.07L2252.78 2679.47Z" fill="white"/>
<path d="M2022.16 2678.84L2227.7 2679.41L2228.87 2597L2023.14 2596.47L2022.16 2678.84Z" fill="white"/>
</g>
<path d="M1235.71 1720.32C1175.89 1532.5 1060.14 1382.81 923.037 1294.81C800.473 1216.15 712.171 1093.63 679.478 952.117C676.041 937.243 671.957 922.325 667.207 907.413C595.258 681.518 397.921 542.671 226.441 597.288C54.9592 651.904 -25.7288 879.304 46.2202 1105.2C60.9302 1151.39 80.8881 1193.93 104.796 1231.92C181.098 1353.15 210.956 1498.55 182.882 1639.18C157.789 1764.86 164.598 1906.37 209.449 2047.19C276.341 2257.21 413.153 2419.56 571.566 2501.29C631.485 2532.21 685.517 2573.78 730.257 2624.01C804.611 2707.49 909.396 2746.72 1005.67 2716.06C1109.53 2682.98 1174.41 2577.82 1179.08 2455.11C1181.72 2385.67 1198.05 2317.61 1224.66 2253.27C1287.48 2101.37 1296.2 1910.23 1235.71 1720.32Z" fill="#91B3FA"/>
<path opacity="0.57" d="M363.025 818.47C432.977 960.627 498.284 1104.92 562.074 1249.9C578.037 1286.14 593.415 1322.63 608.909 1359.07L632.142 1413.73L654.916 1468.59C669.955 1505.22 685.505 1541.64 700.128 1578.44L744.006 1688.85C772.315 1762.82 801.252 1836.55 828.177 1911.06C841.691 1948.29 855.934 1985.24 868.688 2022.75L907.468 2135.07C957.651 2285.34 1004.06 2436.95 1042.68 2590.62L1036.05 2592.36L1002.76 2478.5L994.499 2450.02L985.528 2421.75L967.479 2365.25L949.54 2308.73C943.595 2289.88 936.946 2271.25 930.684 2252.5C917.906 2215.09 905.429 2177.57 892.41 2140.24C839.359 1991.25 784.321 1842.96 726.217 1695.83C696.599 1622.49 667.617 1548.9 637.486 1475.75L615.04 1420.84L592.131 1366.11C576.881 1329.62 561.629 1293.12 546.008 1256.78C515.39 1183.84 484.244 1111.11 452.504 1038.63C421.144 965.992 389.09 893.631 356.826 821.401L363.025 818.47Z" fill="white"/>
<path d="M1736.17 1346.98C1708.21 1141.85 1615.8 966.035 1490.32 850.161C1378.15 746.577 1309.15 603.848 1300.84 451.542C1299.96 435.533 1298.43 419.361 1296.21 403.075C1262.58 156.374 1084.17 -23.0149 897.706 2.39913C711.242 27.8121 587.342 248.405 620.966 495.106C627.841 545.552 640.776 593.171 658.597 636.797C715.47 776.025 720.165 931.839 666.023 1072.22C617.64 1197.67 599.282 1345.28 620.242 1499.07C651.504 1728.44 763.349 1921.17 911.902 2034.42C968.092 2077.26 1016.3 2130.05 1053.4 2190.12C1115.03 2289.94 1215.95 2349.52 1320.64 2335.26C1433.57 2319.86 1519.27 2222.84 1546.08 2096.76C1561.26 2025.42 1590.28 1957.98 1629.23 1896.24C1721.19 1750.52 1764.44 1554.37 1736.17 1346.98Z" fill="#7D97F4"/>
<path opacity="0.57" d="M998.77 255.943C1045.35 415.667 1086.76 576.759 1126.49 738.283C1136.44 778.659 1145.74 819.191 1155.17 859.692L1169.3 920.446L1182.93 981.318C1191.86 1021.94 1201.35 1062.43 1209.82 1103.15L1235.23 1225.3C1251.13 1306.95 1267.72 1388.46 1282.1 1470.41C1289.35 1511.36 1297.4 1552.17 1303.81 1593.28L1323.63 1716.49C1348.39 1881.03 1369.03 2046.26 1381.26 2212.22L1374.11 2212.81L1360.23 2089L1356.83 2058.04L1352.65 2027.18L1344.19 1965.47L1335.84 1903.75C1333.09 1883.18 1329.58 1862.7 1326.49 1842.17C1320.04 1801.15 1313.91 1760.09 1307.19 1719.11C1279.25 1555.38 1249.13 1392.02 1215.65 1229.3C1198.28 1148.06 1181.62 1066.69 1163.69 985.573L1150.41 924.702L1136.62 863.941C1127.45 823.428 1118.28 782.914 1108.7 742.493C1090.23 661.491 1071.19 580.613 1051.48 499.895C1032.2 419.074 1012.15 338.414 991.854 257.854L998.77 255.943Z" fill="white"/>
<path d="M2593.19 2756.85H965.533C952.812 2756.85 942.499 2746.53 942.499 2733.81V534.321C942.499 521.6 952.812 511.287 965.533 511.287H2593.19C2605.91 511.287 2616.22 521.6 2616.22 534.321V2733.81C2616.22 2746.53 2605.91 2756.85 2593.19 2756.85Z" fill="url(#paint28_linear_2_488)"/>
<path d="M2331.29 2461.05H1223.86C1181.88 2461.05 1147.85 2427.02 1147.85 2385.04V924.657C1147.85 882.678 1181.88 848.648 1223.86 848.648H2331.29C2373.27 848.648 2407.3 882.678 2407.3 924.657V2385.04C2407.3 2427.02 2373.27 2461.05 2331.29 2461.05Z" fill="#7D97F4"/>
<path d="M2289.39 2348.88H1266.76C1254.17 2348.88 1243.96 2338.67 1243.96 2326.07V1004.09C1243.96 991.495 1254.17 981.286 1266.76 981.286H2289.39C2301.98 981.286 2312.19 991.495 2312.19 1004.09V2326.07C2312.19 2338.67 2301.98 2348.88 2289.39 2348.88Z" fill="url(#paint29_linear_2_488)"/>
<path d="M1776.31 733.545C1803.96 733.545 1826.38 711.128 1826.38 683.474C1826.38 655.821 1803.96 633.403 1776.31 633.403C1748.65 633.403 1726.24 655.821 1726.24 683.474C1726.24 711.128 1748.65 733.545 1776.31 733.545Z" fill="url(#paint30_linear_2_488)"/>
<path d="M2099.79 1491.78L1455.62 1502.49C1406.59 1503.31 1366.7 1541.43 1366.7 1587.64V1993.32C1366.7 2039.53 1406.59 2075.39 1455.62 2073.42L2099.79 2047.56C2146.06 2045.7 2183.44 2007.99 2183.44 1963.33V1571.26C2183.44 1526.6 2146.06 1491.02 2099.79 1491.78Z" fill="url(#paint31_linear_2_488)"/>
<path d="M2132.39 1418.41C2112.88 1418.71 2097.04 1403.65 2097.04 1384.78V1295.99C2097.04 1206.92 2021.7 1134.67 1928.43 1134.94L1718.58 1135.55C1622.9 1135.83 1544.51 1210.21 1544.51 1301.36V1392.22C1544.51 1411.53 1527.89 1427.43 1507.37 1427.73C1486.82 1428.04 1470.13 1412.59 1470.13 1393.22V1302.08C1470.13 1171.98 1582.21 1066.14 1718.58 1066.14H1928.43C2060.93 1066.14 2167.64 1168.94 2167.64 1295.31V1383.83C2167.64 1402.64 2151.87 1418.12 2132.39 1418.41Z" fill="url(#paint32_linear_2_488)"/>
<path d="M1881.92 1716.61C1881.92 1671.53 1842.57 1636.13 1794.72 1639.39C1752.41 1642.26 1717.43 1676.14 1715.14 1716.6C1713.37 1747.99 1730.62 1775.13 1756.84 1788.85C1768 1794.69 1773.54 1806.99 1771.37 1819.16L1752.98 1922.37C1750.64 1935.52 1761.2 1947.06 1775.1 1946.57L1822.37 1944.87C1836.2 1944.38 1846.69 1932.12 1844.37 1919.19L1825.99 1816.94C1823.79 1804.74 1830.13 1792.63 1841.32 1785.94C1865.64 1771.4 1881.92 1745.61 1881.92 1716.61Z" fill="url(#paint33_linear_2_488)"/>
<path d="M588.148 2760.77C588.162 2759.89 588.103 2758.99 587.876 2758.09C574.518 2705.13 508.218 2672.15 508.218 2672.15L481.946 2674.21C466.841 2720.88 468.782 2749.51 471.208 2762.26C471.275 2762.62 471.384 2762.96 471.479 2763.3C493.151 2765.24 537.757 2766.51 588.148 2760.77Z" fill="url(#paint34_linear_2_488)"/>
<path d="M471.479 2763.3C472.649 2767.56 475.793 2770.88 479.816 2771.72C510.645 2778.21 559.644 2772.99 580.217 2770.3C584.756 2769.71 588.074 2765.51 588.149 2760.77C537.757 2766.51 493.151 2765.24 471.479 2763.3Z" fill="#91B3FA"/>
<path d="M471.383 2635.08L482.51 2688.64C483.325 2692.57 486.341 2695.51 489.994 2695.85C494.465 2696.27 500.831 2696.51 507.233 2695.57C512.973 2694.73 516.971 2688.9 515.953 2682.64L508.219 2635.08H471.383Z" fill="url(#paint35_linear_2_488)"/>
<path d="M701.929 2762.63C672.913 2761.81 657.906 2758.4 650.147 2755.23C650.129 2758.11 650.145 2761.05 650.239 2764.09C650.339 2767.34 652.745 2769.93 655.706 2769.92L815.02 2768.89C820.104 2768.85 823.075 2762.96 820.872 2758.29C799.983 2760.02 746.782 2763.88 701.929 2762.63Z" fill="#91B3FA"/>
<path d="M820.872 2758.29C820.68 2757.89 820.515 2757.48 820.241 2757.09C806.171 2737.43 770.337 2698.29 699.527 2681.31L665.558 2680.24C665.558 2680.24 650.432 2706.53 650.146 2755.23C657.905 2758.4 672.912 2761.81 701.928 2762.63C746.782 2763.88 799.983 2760.02 820.872 2758.29Z" fill="url(#paint36_linear_2_488)"/>
<path d="M657.747 2630.34C658.283 2632.84 665.351 2670.95 668.089 2685.73C668.74 2689.24 671.476 2691.82 674.731 2692C680.547 2692.33 689.928 2692.37 697.996 2690.18C702.348 2688.99 705.272 2684.56 704.962 2679.63L701.161 2619.34L657.747 2630.34Z" fill="url(#paint37_linear_2_488)"/>
<path d="M632.006 1926.59C632.006 1926.59 678.735 2247.69 712.457 2629.79C713.085 2636.9 707.414 2643.1 700.424 2644.57C690.122 2646.74 674.979 2649.31 662.443 2648.96C655.751 2648.77 650.157 2643.81 649.031 2637.21C637.543 2569.84 555.568 2208.27 534.053 2128.7C534.053 2128.7 509.339 2466.72 517.239 2642.09C517.436 2646.45 514.243 2650.24 509.907 2650.74C503.329 2651.5 492.807 2652.07 479.415 2650.65C474.332 2650.11 470.231 2646.27 469.504 2641.21C461.321 2584.19 414.222 2244.8 416.225 2000.32C416.338 1986.54 432.401 1873.26 432.401 1873.26L632.006 1926.59Z" fill="url(#paint38_linear_2_488)"/>
<path d="M650.114 1386.61L656.37 1554.64C674.14 1560.75 691.058 1565.51 707.167 1569.06C717.244 1536.62 739.432 1496.8 757.602 1467.2C690.846 1443.6 650.114 1386.61 650.114 1386.61Z" fill="url(#paint39_linear_2_488)"/>
<path d="M425.378 1945.1C420.573 1943.39 417.224 1939.03 416.701 1933.96C410.487 1873.68 380.4 1499.87 570.348 1346.11C570.348 1346.11 581.241 1317.6 670.778 1387.66C760.315 1457.72 712.377 1531.15 690.941 1632.44C665.001 1755 619.488 1855.18 639.625 1930.6C641.015 1935.81 638.278 1941.27 633.223 1943.14C563.671 1968.77 494.386 1969.62 425.378 1945.1Z" fill="url(#paint40_linear_2_488)"/>
<path d="M644.442 1234.11C644.382 1239.42 568.534 1347.16 568.534 1347.16C568.534 1347.16 582.148 1373.97 647.142 1395.74L703.245 1280.39L644.442 1234.11Z" fill="url(#paint41_linear_2_488)"/>
<path d="M606.867 1602.75C606.393 1602.75 605.912 1602.61 605.491 1602.32C544.899 1561.38 516.395 1495.31 516.113 1494.64C515.584 1493.39 516.168 1491.94 517.419 1491.41C518.675 1490.88 520.116 1491.46 520.65 1492.72C520.925 1493.37 548.899 1558.14 608.248 1598.24C609.376 1599 609.672 1600.53 608.909 1601.66C608.436 1602.36 607.658 1602.75 606.867 1602.75Z" fill="url(#paint42_linear_2_488)"/>
<path d="M697.121 1511.16C696.313 1511.16 695.519 1510.76 695.048 1510.03C694.865 1509.75 676.354 1480.93 641.097 1417.8C630.255 1398.39 616.006 1386.09 598.747 1381.26C570.164 1373.28 542.617 1388.6 542.345 1388.75C541.159 1389.41 539.66 1389.01 538.987 1387.83C538.316 1386.65 538.727 1385.14 539.91 1384.47C541.098 1383.8 569.432 1367.94 600.028 1376.51C618.619 1381.69 633.885 1394.78 645.398 1415.39C680.566 1478.37 699.007 1507.08 699.19 1507.36C699.927 1508.5 699.597 1510.03 698.454 1510.77C698.039 1511.03 697.578 1511.16 697.121 1511.16Z" fill="url(#paint43_linear_2_488)"/>
<path d="M704.159 1172.37C704.159 1172.37 731.147 1234.37 732.96 1266.91C734.772 1299.45 741.784 1320.56 704.159 1327.12C666.534 1333.67 634.839 1314.93 617.668 1282.51C617.668 1282.51 590.764 1232.57 596.799 1212.11C602.834 1191.66 704.159 1172.37 704.159 1172.37Z" fill="url(#paint44_linear_2_488)"/>
<path d="M630.525 1259.21L632.667 1258.26C635.393 1257.06 636.561 1253.82 635.191 1251.17C629.886 1240.92 619.542 1217.43 632.904 1211.95C650.124 1204.89 718.334 1190.98 733.051 1166.77C747.195 1143.51 734.663 1113.48 715.829 1104.94C714.568 1104.37 713.083 1104.83 712.436 1106.05L710.867 1109.02C709.792 1111.05 706.789 1110.75 706.15 1108.54C705.536 1106.42 702.716 1106.01 701.546 1107.88C697.022 1115.12 684.809 1126.86 652.149 1132.88C605.732 1141.45 575.044 1160.24 574.28 1192.31C574.232 1194.35 572.064 1195.48 570.323 1194.42C566.896 1192.33 561.412 1191.35 554.082 1197.51C541.334 1208.23 546.551 1236.04 574.496 1258.91C575.824 1260 575.813 1262.07 574.375 1263C569.309 1266.3 561.757 1274.15 581.325 1284.61C601.565 1295.43 616.679 1294.54 622.5 1293.58C623.948 1293.34 624.881 1291.94 624.565 1290.51L618.354 1262.32C618.002 1260.72 619.217 1259.21 620.85 1259.21H630.525V1259.21Z" fill="url(#paint45_linear_2_488)"/>
<path d="M631.693 1265.16C631.693 1265.16 621.397 1225.55 603.642 1236.66C585.887 1247.76 612.856 1281.03 627.131 1282.51L631.693 1265.16Z" fill="url(#paint46_linear_2_488)"/>
<path d="M981.161 1373.97C981.161 1373.97 967.633 1349.99 968.493 1338.34C969.354 1326.69 962.093 1309.57 969.819 1310.84C977.546 1312.11 979.141 1311.07 981.238 1325.06C983.336 1339.04 1007.72 1400.11 981.161 1373.97Z" fill="url(#paint47_linear_2_488)"/>
<path d="M983.704 1335.84L983.393 1383.75C891.822 1482.62 817.705 1488.44 757.601 1467.19C739.431 1496.8 717.243 1536.62 707.166 1569.06C951.704 1622.97 1009.29 1398.16 1009.29 1398.16C1042.41 1384.45 1049.09 1376.42 1047.66 1367.43L983.704 1335.84Z" fill="url(#paint48_linear_2_488)"/>
<path d="M1054.13 1288.31C1046.31 1285.14 1031.02 1255.98 1028.09 1265.57C1025.16 1275.16 1029.33 1288.31 1028.09 1292.39C1026.85 1296.47 1007.78 1343.39 1011.59 1353.82C1014.34 1361.34 1029.48 1360.23 1031.79 1372.54C1032.56 1376.62 1035.82 1379.55 1039.61 1379.55C1043.39 1379.56 1046.66 1376.63 1047.43 1372.55C1047.74 1370.91 1061.94 1291.48 1054.13 1288.31Z" fill="url(#paint49_linear_2_488)"/>
<path d="M804.53 1188.52C742.781 1310.65 791.729 1459.71 913.858 1521.46C1013.12 1571.65 1130.18 1548.71 1203.69 1472.78L1628.01 1687.32C1635.06 1690.88 1643.44 1690.59 1650.23 1686.55L1691.73 1661.83C1692.44 1661.41 1693.12 1660.94 1693.77 1660.45C1693.95 1660.31 1694.13 1660.16 1694.31 1660.02C1694.79 1659.63 1695.26 1659.23 1695.7 1658.82C1695.85 1658.67 1696 1658.53 1696.15 1658.39C1696.7 1657.84 1697.23 1657.27 1697.72 1656.68C1697.72 1656.67 1697.73 1656.66 1697.74 1656.66C1702.95 1650.31 1704.54 1641.46 1701.35 1633.46L1667.63 1548.93C1665.54 1543.71 1661.62 1539.43 1656.61 1536.89L1614.11 1515.4L1602.86 1537.65L1566.35 1519.18L1577.59 1496.94L1543.44 1479.67L1533.09 1500.13L1488.71 1477.7L1499.06 1457.23L1482.53 1448.87L1477.2 1459.41L1440 1440.6L1445.33 1430.06L1416.4 1415.44L1405.15 1437.68L1384.48 1427.23L1395.73 1404.99L1377.82 1395.93L1366.57 1418.18L1330.75 1400.06L1342 1377.82L1291.64 1352.36L1270.08 1341.46C1287.65 1237.25 1236.74 1129.38 1137.47 1079.19C1015.34 1017.45 866.277 1066.39 804.53 1188.52ZM949.102 1205.39C973.831 1217.9 983.744 1248.08 971.241 1272.81C958.737 1297.54 928.552 1307.45 903.823 1294.95C879.094 1282.45 869.18 1252.26 881.684 1227.53C894.188 1202.8 924.373 1192.89 949.102 1205.39Z" fill="url(#paint50_linear_2_488)"/>
<path d="M1148.48 1263.36L1349.63 1365.07L1338.39 1387.31L1374.21 1405.42L1385.45 1383.18L1403.37 1392.23L1392.12 1414.48L1412.79 1424.93L1424.03 1402.68L1452.97 1417.31L1447.64 1427.85L1484.84 1446.65L1490.17 1436.12L1506.7 1444.48L1496.35 1464.94L1540.73 1487.38L1551.07 1466.92L1585.23 1484.19L1573.98 1506.43L1610.5 1524.89L1621.74 1502.65L1664.25 1524.14C1669.26 1526.67 1673.18 1530.95 1675.26 1536.18L1708.99 1620.71C1713.19 1631.25 1709.11 1643.27 1699.37 1649.08L1657.87 1673.8C1651.08 1677.84 1642.7 1678.13 1635.65 1674.57L1123.41 1415.58L1148.48 1263.36Z" fill="url(#paint51_linear_2_488)"/>
<path d="M921.497 1508.71C1043.63 1570.46 1192.69 1521.51 1254.43 1399.38C1316.18 1277.25 1267.24 1128.19 1145.11 1066.44C1022.98 1004.69 873.917 1053.64 812.169 1175.77C750.421 1297.9 799.368 1446.96 921.497 1508.71ZM911.462 1282.2C886.733 1269.69 876.819 1239.51 889.323 1214.78C901.826 1190.05 932.013 1180.14 956.742 1192.64C981.471 1205.14 991.383 1235.33 978.88 1260.06C966.376 1284.79 936.191 1294.7 911.462 1282.2Z" fill="url(#paint52_linear_2_488)"/>
<path d="M1211.32 1460.03L1635.65 1674.57C1642.7 1678.13 1651.08 1677.84 1657.87 1673.8L1699.37 1649.08C1705.63 1645.35 1709.51 1639.05 1710.4 1632.23C1671.72 1590.33 1304.11 1429.8 1290.36 1396.76C1285.47 1385.01 1284.63 1367.21 1299.28 1339.61L1277.72 1328.71C1295.29 1224.5 1244.37 1116.63 1145.11 1066.44C1022.98 1004.69 873.917 1053.64 812.169 1175.77C750.421 1297.9 799.368 1446.96 921.497 1508.71C1020.76 1558.89 1137.82 1535.95 1211.32 1460.03ZM956.742 1192.64C981.471 1205.14 991.383 1235.33 978.88 1260.06C966.376 1284.79 936.191 1294.7 911.462 1282.2C886.733 1269.69 876.819 1239.51 889.323 1214.78C901.826 1190.05 932.012 1180.14 956.742 1192.64Z" fill="url(#paint53_linear_2_488)"/>
<path d="M943.439 1465.31C1041.6 1514.94 1161.41 1475.59 1211.04 1377.44C1260.66 1279.28 1221.32 1159.47 1123.16 1109.84C1025 1060.21 905.197 1099.55 855.568 1197.71C805.938 1295.87 845.279 1415.68 943.439 1465.31ZM911.462 1282.19C886.733 1269.69 876.819 1239.51 889.323 1214.78C901.826 1190.05 932.012 1180.14 956.741 1192.64C981.47 1205.14 991.383 1235.33 978.88 1260.06C966.376 1284.79 936.191 1294.7 911.462 1282.19Z" fill="url(#paint54_linear_2_488)"/>
<path d="M606.867 1602.75C606.867 1602.75 840.215 1680.86 970.739 1581.49C978.834 1575.32 989.049 1572.63 999.092 1574.27L1048.96 1582.39C1069.89 1585.8 1089.82 1572.24 1094.34 1551.52C1096.91 1539.7 1098.15 1526.77 1095.53 1515.67L1001.39 1509.99L1004.08 1497.78C1004.08 1497.78 962.477 1507.95 961.639 1540.51C961.639 1540.51 864.044 1604.44 686.036 1505.21C686.036 1505.21 616.719 1559.46 606.867 1602.75Z" fill="url(#paint55_linear_2_488)"/>
<g opacity="0.3">
<path d="M2409.21 432.847C2403.78 432.625 2399.55 428.038 2399.78 422.606C2400.21 412.05 2400.19 401.32 2399.72 390.71C2399.48 385.342 2403.59 380.788 2408.93 380.449C2408.99 380.445 2409.05 380.441 2409.12 380.437C2414.55 380.196 2419.15 384.405 2419.39 389.839C2419.88 401.006 2419.91 412.304 2419.45 423.415C2419.24 428.496 2415.21 432.52 2410.25 432.835C2409.91 432.856 2409.56 432.863 2409.21 432.847ZM2393.88 339.226C2391.97 328.784 2389.6 318.327 2386.82 308.133C2385.39 302.891 2388.48 297.476 2393.73 296.045C2399 294.628 2404.39 297.711 2405.81 302.958C2408.74 313.682 2411.24 324.691 2413.25 335.676C2414.23 341.024 2410.69 346.155 2405.34 347.134C2404.95 347.205 2404.56 347.252 2404.18 347.277C2399.27 347.589 2394.79 344.186 2393.88 339.226ZM2369.76 259.239C2365.58 249.512 2360.93 239.849 2355.93 230.513C2353.37 225.72 2355.17 219.752 2359.96 217.186C2364.76 214.627 2370.72 216.426 2373.29 221.219C2378.55 231.05 2383.45 241.229 2387.85 251.47C2389.99 256.466 2387.68 262.255 2382.69 264.403C2381.62 264.86 2380.52 265.115 2379.43 265.184C2375.39 265.44 2371.44 263.17 2369.76 259.239ZM2328.35 186.657C2322.09 178.098 2315.4 169.714 2308.44 161.731C2304.87 157.63 2305.3 151.41 2309.4 147.84C2313.5 144.273 2319.72 144.703 2323.29 148.796C2330.61 157.202 2337.66 166.031 2344.24 175.035C2347.45 179.425 2346.49 185.586 2342.1 188.793C2340.53 189.941 2338.74 190.556 2336.93 190.671C2333.68 190.877 2330.41 189.474 2328.35 186.657ZM2271.8 125.109C2263.82 118.17 2255.43 111.473 2246.86 105.212C2242.48 102 2241.52 95.8402 2244.73 91.4522C2247.94 87.0602 2254.1 86.1062 2258.49 89.3192C2267.5 95.9072 2276.33 102.954 2284.72 110.255C2288.82 113.821 2289.26 120.041 2285.69 124.144C2283.89 126.212 2281.42 127.348 2278.88 127.509C2276.39 127.666 2273.83 126.88 2271.8 125.109ZM2203.04 77.6082C2193.71 72.5972 2184.05 67.9272 2174.33 63.7232C2169.34 61.5662 2167.04 55.7692 2169.2 50.7812C2171.36 45.7892 2177.15 43.4902 2182.14 45.6472C2192.38 50.0692 2202.54 54.9882 2212.36 60.2612C2217.15 62.8362 2218.95 68.8032 2216.37 73.5942C2214.7 76.7062 2211.6 78.5522 2208.31 78.7612C2206.54 78.8742 2204.72 78.5122 2203.04 77.6082ZM1837.46 73.0252C1834.9 68.2282 1836.72 62.2632 1841.52 59.7042C1851.35 54.4642 1861.54 49.5812 1871.81 45.1952C1876.81 43.0592 1882.6 45.3812 1884.73 50.3832C1886.87 55.3802 1884.54 61.1662 1879.54 63.3022C1869.79 67.4662 1860.12 72.1041 1850.78 77.0812C1849.5 77.7642 1848.14 78.1352 1846.78 78.2212C1843.05 78.4582 1839.34 76.5432 1837.46 73.0252ZM2125.51 46.5492C2115.31 43.7402 2104.86 41.3392 2094.45 39.4182C2089.1 38.4282 2085.57 33.2922 2086.56 27.9462C2087.55 22.5962 2092.68 19.0912 2098.03 20.0542C2108.99 22.0792 2119.99 24.6062 2130.74 27.5662C2135.98 29.0102 2139.06 34.4292 2137.62 39.6732C2136.47 43.8312 2132.82 46.6292 2128.75 46.8872C2127.69 46.9542 2126.6 46.8462 2125.51 46.5492ZM1916.41 39.3972C1914.99 34.1502 1918.09 28.7432 1923.34 27.3232C1934.1 24.4172 1945.12 21.9372 1956.09 19.9462C1961.45 18.9512 1966.57 22.5302 1967.54 27.8782C1968.51 33.2272 1964.96 38.3502 1959.61 39.3222C1949.17 41.2142 1938.7 43.5702 1928.48 46.3342C1927.83 46.5102 1927.17 46.6132 1926.53 46.6552C1921.95 46.9452 1917.65 43.9932 1916.41 39.3972ZM2043 33.5972C2032.43 33.1422 2021.71 33.1372 2011.12 33.5862C2005.68 33.8192 2001.09 29.6022 2000.86 24.1672C2000.63 18.8062 2004.74 14.2642 2010.07 13.9252C2010.14 13.9212 2010.21 13.9162 2010.28 13.9162C2021.43 13.4402 2032.72 13.4432 2043.84 13.9202C2049.28 14.1572 2053.49 18.7492 2053.26 24.1822C2053.04 29.2552 2049.02 33.2682 2044.06 33.5832C2043.71 33.6062 2043.36 33.6092 2043 33.5972Z" fill="#91B3FA"/>
<path d="M1788.97 116.137C1790.91 116.014 1792.82 115.322 1794.46 114.024C1798.43 110.866 1802.54 107.742 1806.67 104.729C1811.06 101.525 1812.02 95.3642 1808.82 90.9742C1805.61 86.5802 1799.45 85.6113 1795.06 88.8263C1790.72 91.9923 1786.4 95.2792 1782.22 98.6012C1777.96 101.981 1777.25 108.177 1780.63 112.432C1782.71 115.059 1785.86 116.335 1788.97 116.137Z" fill="#91B3FA"/>
</g>
<g opacity="0.3">
<path d="M1645.44 379.761C1650.18 379.46 1654.14 375.756 1654.6 370.875C1655.09 365.823 1655.68 360.695 1656.38 355.637C1657.12 350.249 1653.36 345.282 1647.97 344.541C1642.56 343.798 1637.61 347.568 1636.87 352.953C1636.14 358.278 1635.51 363.679 1635 368.998C1634.48 374.411 1638.45 379.218 1643.86 379.738C1644.39 379.788 1644.92 379.794 1645.44 379.761Z" fill="#91B3FA"/>
<path d="M2031.65 800.072C2026.21 800.151 2021.74 795.807 2021.66 790.366C2021.59 784.93 2025.93 780.47 2031.37 780.382C2041.72 780.234 2052.22 779.64 2062.71 778.62C2068.1 778.078 2072.94 782.056 2073.46 787.468C2073.99 792.88 2070.03 797.693 2064.62 798.222C2060.08 798.664 2055.54 799.029 2051.02 799.316C2044.57 799.726 2038.05 799.982 2031.65 800.072ZM2105.7 782.104C2104.44 776.816 2107.72 771.51 2113.01 770.257C2123.16 767.847 2133.33 764.986 2143.22 761.746C2148.37 760.039 2153.95 762.868 2155.64 768.036C2157.33 773.201 2154.52 778.763 2149.35 780.455C2138.94 783.868 2128.24 786.882 2117.55 789.414C2116.99 789.545 2116.44 789.627 2115.89 789.662C2111.19 789.96 2106.82 786.842 2105.7 782.104ZM1978.08 797.168C1967.21 795.827 1956.24 794.003 1945.49 791.741C1940.17 790.622 1936.76 785.401 1937.88 780.078C1939 774.758 1944.22 771.359 1949.55 772.47C1959.76 774.62 1970.16 776.352 1980.49 777.624C1985.88 778.291 1989.72 783.204 1989.06 788.603C1988.47 793.376 1984.55 796.927 1979.92 797.221C1979.32 797.259 1978.7 797.244 1978.08 797.168ZM2185.92 755.756C2183.54 750.871 2185.56 744.973 2190.45 742.59C2199.82 738.018 2209.1 732.99 2218.04 727.648C2222.71 724.855 2228.75 726.379 2231.54 731.049C2234.33 735.716 2232.81 741.759 2228.14 744.548C2218.72 750.175 2208.95 755.47 2199.09 760.284C2197.89 760.864 2196.64 761.187 2195.4 761.266C2191.53 761.512 2187.72 759.449 2185.92 755.756ZM1893.91 777.127C1883.61 773.43 1873.32 769.239 1863.33 764.671C1858.38 762.411 1856.21 756.572 1858.47 751.627C1860.73 746.678 1866.57 744.503 1871.51 746.764C1881.01 751.102 1890.78 755.083 1900.56 758.592C1905.68 760.429 1908.34 766.068 1906.51 771.186C1905.14 775 1901.66 777.447 1897.86 777.689C1896.56 777.772 1895.22 777.595 1893.91 777.127ZM1816.18 739.113C1806.91 733.239 1797.78 726.905 1789.05 720.288C1784.71 717.002 1783.86 710.829 1787.15 706.493C1790.43 702.153 1796.61 701.303 1800.94 704.592C1809.24 710.878 1817.91 716.898 1826.72 722.482C1831.31 725.393 1832.68 731.476 1829.77 736.069C1828.01 738.835 1825.1 740.43 1822.07 740.623C1820.06 740.751 1818 740.269 1816.18 739.113ZM1748.58 685.06C1740.8 677.303 1733.27 669.13 1726.19 660.774C1722.68 656.623 1723.19 650.414 1727.34 646.898C1731.49 643.378 1737.7 643.898 1741.21 648.044C1747.94 655.987 1755.1 663.748 1762.49 671.121C1766.34 674.962 1766.34 681.196 1762.5 685.043C1760.74 686.812 1758.47 687.769 1756.16 687.915C1753.44 688.089 1750.66 687.137 1748.58 685.06ZM1694.38 617.549C1688.49 608.281 1682.93 598.653 1677.85 588.933C1675.33 584.114 1677.2 578.165 1682.02 575.647C1686.83 573.133 1692.79 574.998 1695.3 579.817C1700.12 589.045 1705.4 598.186 1711 606.991C1713.92 611.58 1712.56 617.663 1707.97 620.578C1706.52 621.499 1704.92 621.993 1703.32 622.095C1699.85 622.315 1696.38 620.69 1694.38 617.549ZM1656.32 539.737C1652.62 529.424 1649.33 518.816 1646.51 508.206C1645.11 502.95 1648.24 497.556 1653.5 496.163C1658.74 494.774 1664.15 497.896 1665.54 503.152C1668.22 513.233 1671.35 523.307 1674.86 533.104C1676.69 538.221 1674.02 543.858 1668.91 545.69C1668.01 546.009 1667.11 546.194 1666.21 546.251C1661.94 546.521 1657.83 543.965 1656.32 539.737ZM1636.29 455.555C1635.29 447.545 1634.52 439.405 1634.01 431.364C1633.83 428.451 1633.68 425.548 1633.56 422.645C1633.33 417.215 1637.48 412.523 1642.98 412.401C1648.42 412.172 1653 416.393 1653.23 421.828C1653.35 424.584 1653.49 427.349 1653.67 430.116C1654.15 437.762 1654.88 445.496 1655.83 453.112C1656.51 458.506 1652.68 463.427 1647.28 464.101C1647.08 464.125 1646.88 464.146 1646.68 464.159C1641.52 464.487 1636.94 460.747 1636.29 455.555Z" fill="#91B3FA"/>
<path d="M2266.88 715.908C2268.83 715.784 2270.76 715.08 2272.41 713.765C2276.56 710.43 2280.73 706.944 2284.79 703.403C2288.89 699.829 2289.31 693.609 2285.74 689.512C2282.16 685.415 2275.95 684.985 2271.85 688.563C2267.99 691.926 2264.03 695.236 2260.09 698.404C2255.84 701.802 2255.16 708 2258.56 712.242C2260.65 714.843 2263.79 716.104 2266.88 715.908Z" fill="#91B3FA"/>
</g>
<path d="M2285.48 548.15C2286.62 546.552 2286.62 544.408 2285.48 542.807L2253.05 497.15C2263.02 472.969 2269.2 447.025 2270.97 420.167L2320.18 393.511C2321.91 392.576 2322.85 390.648 2322.53 388.712L2311.54 322.44C2311.22 320.503 2309.7 318.983 2307.77 318.656L2252.58 309.313C2242.24 284.464 2228.01 261.903 2210.77 242.235L2226.73 188.553C2227.29 186.671 2226.6 184.642 2225 183.5L2170.37 144.409C2168.77 143.267 2166.63 143.263 2165.03 144.4L2119.37 176.835C2095.19 166.867 2069.24 160.683 2042.39 158.915L2015.73 109.701C2014.8 107.974 2012.87 107.031 2010.93 107.353L1944.66 118.343C1942.72 118.665 1941.2 120.179 1940.87 122.114L1931.53 177.299C1906.68 187.642 1884.12 201.869 1864.45 219.109L1810.77 203.147C1808.89 202.588 1806.86 203.283 1805.72 204.88L1766.63 259.513C1765.48 261.109 1765.48 263.255 1766.62 264.855L1799.05 310.513C1789.08 334.693 1782.9 360.637 1781.13 387.496L1731.92 414.152C1730.19 415.086 1729.25 417.014 1729.57 418.95L1740.56 485.224C1740.88 487.161 1742.4 488.68 1744.33 489.008L1799.52 498.352C1809.86 523.201 1824.09 545.761 1841.33 565.43L1825.37 619.112C1824.81 620.993 1825.5 623.023 1827.1 624.166L1881.73 663.257C1883.33 664.399 1885.47 664.403 1887.07 663.266L1932.73 630.83C1956.91 640.798 1982.86 646.981 2009.71 648.75L2036.37 697.964C2037.3 699.689 2039.23 700.632 2041.17 700.312L2107.44 689.321C2109.38 689 2110.9 687.486 2111.23 685.55L2120.57 630.366C2145.42 620.022 2167.98 605.795 2187.65 588.556L2241.33 604.517C2243.21 605.077 2245.24 604.38 2246.38 602.784L2285.48 548.15Z" fill="#91B3FA"/>
<path d="M2020.46 471.125C1983.35 468.039 1955.67 435.345 1958.76 398.236C1960.25 380.261 1968.66 363.943 1982.42 352.291C1996.19 340.639 2013.67 335.04 2031.64 336.539C2068.75 339.625 2096.43 372.319 2093.34 409.428C2090.54 443.186 2063.22 469.14 2030.37 471.225C2027.12 471.431 2023.8 471.402 2020.46 471.125ZM1992.6 364.315C1982.04 373.251 1975.6 385.76 1974.46 399.544C1972.09 427.991 1993.31 453.064 2021.76 455.428C2050.22 457.803 2075.28 436.57 2077.65 408.12C2080.01 379.673 2058.79 354.6 2030.34 352.236C2027.76 352.022 2025.2 352 2022.66 352.161C2011.64 352.859 2001.18 357.054 1992.6 364.315Z" fill="#BDD0FB"/>
<path d="M2035.17 568.646C2040.81 568.288 2046.47 567.644 2052.12 566.707C2053.9 566.413 2055.68 566.088 2057.45 565.737C2066.17 564 2074.74 561.572 2083.03 558.491C2083.15 558.449 2083.26 558.407 2083.37 558.366C2083.69 558.246 2084.01 558.125 2084.33 558.001C2084.95 557.765 2085.57 557.521 2086.19 557.278C2087.82 556.635 2088.78 555.029 2088.68 553.371C2088.65 552.968 2088.56 552.561 2088.41 552.167C2087.61 550.144 2085.32 549.161 2083.3 549.956C2072.89 554.073 2061.97 557.094 2050.84 558.937C1995.55 568.115 1942.1 547.276 1907.16 508.384C1887.73 486.754 1874.03 459.535 1868.93 428.784C1868.04 423.392 1867.42 417.994 1867.08 412.612C1864.79 376.396 1874.93 340.788 1896.33 310.879C1920.92 276.521 1957.41 253.792 1999.08 246.881C2085.16 232.616 2166.72 291.003 2180.99 377.034C2181.87 382.339 2182.48 387.668 2182.81 392.999C2184.28 416.101 2180.67 439.267 2172.16 460.82C2171.94 461.377 2171.86 461.953 2171.9 462.513C2171.99 463.987 2172.91 465.35 2174.38 465.927C2176.41 466.719 2178.69 465.738 2179.49 463.707C2188.42 441.079 2192.21 416.757 2190.67 392.504C2190.32 386.908 2189.68 381.315 2188.76 375.747C2173.78 285.422 2088.09 224.136 1997.8 239.108C1954.04 246.363 1915.74 270.224 1889.93 306.294C1867.46 337.693 1856.81 375.075 1859.22 413.095C1859.58 418.745 1860.22 424.411 1861.16 430.07C1868.42 473.825 1892.28 512.134 1928.34 537.941C1959.75 560.412 1997.14 571.059 2035.17 568.646Z" fill="#BDD0FB"/>
<g opacity="0.3">
<path d="M2761.99 670.486C2764.61 670.319 2766.92 668.453 2767.53 665.755C2768.67 660.72 2769.67 655.581 2770.5 650.482C2771.04 647.169 2768.8 644.045 2765.48 643.499C2762.17 642.942 2759.04 645.205 2758.5 648.518C2757.7 653.377 2756.75 658.274 2755.67 663.08C2754.93 666.352 2756.98 669.607 2760.26 670.351C2760.84 670.481 2761.42 670.522 2761.99 670.486Z" fill="#91B3FA"/>
<path d="M2767.43 624.115C2764.08 623.983 2761.46 621.162 2761.59 617.803C2761.91 609.333 2761.81 600.748 2761.27 592.291C2761.16 590.507 2761.02 588.718 2760.87 586.925C2760.59 583.581 2763.07 580.639 2766.42 580.355C2769.59 580.213 2772.7 582.557 2772.99 585.906C2773.15 587.782 2773.29 589.654 2773.41 591.521C2773.97 600.387 2774.08 609.388 2773.74 618.27C2773.62 621.413 2771.13 623.91 2768.06 624.105C2767.85 624.118 2767.65 624.119 2767.43 624.115ZM2756.4 556.369C2754.29 546.31 2751.55 536.291 2748.23 526.594C2747.15 523.414 2748.84 519.963 2752.02 518.874C2755.19 517.798 2758.66 519.482 2759.74 522.662C2763.22 532.825 2766.1 543.329 2768.3 553.876C2768.99 557.164 2766.88 560.386 2763.59 561.077C2763.31 561.137 2763.01 561.173 2762.73 561.191C2759.76 561.38 2757.03 559.364 2756.4 556.369ZM2736.44 498.049C2731.95 488.826 2726.82 479.791 2721.21 471.186C2719.38 468.375 2720.17 464.606 2722.98 462.773C2725.8 460.934 2729.56 461.725 2731.4 464.542C2737.28 473.563 2742.66 483.046 2747.38 492.714C2748.85 495.732 2747.6 499.376 2744.58 500.847C2743.84 501.203 2743.07 501.401 2742.3 501.45C2739.91 501.602 2737.56 500.329 2736.44 498.049ZM2702.77 446.414C2696.14 438.564 2688.95 431.053 2681.43 424.104C2678.96 421.821 2678.81 417.975 2681.09 415.51C2683.36 413.051 2687.21 412.89 2689.68 415.167C2697.58 422.461 2705.1 430.331 2712.06 438.565C2714.23 441.129 2713.9 444.969 2711.34 447.138C2710.3 448.007 2709.06 448.478 2707.81 448.558C2705.95 448.675 2704.06 447.944 2702.77 446.414ZM2657.51 404.564C2649.17 398.566 2640.38 393.03 2631.39 388.103C2628.45 386.493 2627.37 382.795 2628.98 379.849C2630.59 376.902 2634.29 375.817 2637.23 377.439C2646.66 382.6 2655.87 388.406 2664.61 394.689C2667.34 396.652 2667.96 400.451 2666 403.175C2664.89 404.715 2663.2 405.584 2661.44 405.696C2660.09 405.781 2658.7 405.417 2657.51 404.564ZM2603.46 374.97C2593.92 371.184 2584.06 367.96 2574.14 365.389C2570.89 364.548 2568.94 361.227 2569.78 357.978C2570.63 354.729 2573.94 352.782 2577.2 353.616C2587.6 356.312 2597.95 359.696 2607.95 363.666C2611.07 364.908 2612.6 368.441 2611.36 371.56C2610.46 373.818 2608.36 375.243 2606.09 375.388C2605.22 375.442 2604.33 375.314 2603.46 374.97ZM2543.84 359.499C2533.7 358.174 2523.34 357.468 2513.04 357.408C2509.68 357.383 2506.98 354.645 2507 351.288C2507.02 347.931 2509.76 345.276 2513.12 345.241C2523.91 345.312 2534.78 346.05 2545.42 347.44C2548.75 347.877 2551.09 350.929 2550.66 354.259C2550.28 357.187 2547.86 359.357 2545.02 359.538C2544.63 359.562 2544.24 359.552 2543.84 359.499ZM2444.46 360.119C2443.67 356.856 2445.67 353.569 2448.93 352.772C2457.96 350.568 2467.27 348.823 2476.57 347.584C2477.98 347.388 2479.39 347.215 2480.8 347.048C2484.11 346.564 2487.16 349.048 2487.54 352.392C2487.93 355.729 2485.54 358.743 2482.2 359.133C2480.88 359.283 2479.55 359.45 2478.2 359.637C2469.3 360.82 2460.42 362.485 2451.81 364.585C2451.46 364.673 2451.1 364.725 2450.75 364.747C2447.86 364.931 2445.17 363.025 2444.46 360.119Z" fill="#91B3FA"/>
</g>
<g opacity="0.3">
<path d="M2524.26 870.231C2513.68 870.766 2502.97 870.654 2492.43 869.913C2489.09 869.673 2486.56 866.769 2486.8 863.416C2487.03 860.062 2489.96 857.574 2493.29 857.779C2503.34 858.491 2513.56 858.593 2523.65 858.083C2527.01 857.911 2529.86 860.497 2530.03 863.849C2530.2 867.176 2527.66 870.015 2524.35 870.226C2524.32 870.228 2524.29 870.23 2524.26 870.231ZM2548.9 861.753C2548.33 858.445 2550.55 855.299 2553.86 854.732C2563.81 853.017 2573.77 850.684 2583.44 847.791C2586.64 846.844 2590.05 848.657 2591.01 851.881C2591.97 855.099 2590.14 858.481 2586.92 859.447C2576.79 862.477 2566.35 864.924 2555.92 866.716C2555.7 866.754 2555.49 866.78 2555.27 866.794C2552.21 866.988 2549.43 864.849 2548.9 861.753ZM2460.85 865.723C2450.45 863.682 2440.08 860.99 2430.03 857.718C2426.84 856.677 2425.09 853.242 2426.13 850.052C2427.17 846.856 2430.59 845.122 2433.8 846.15C2443.38 849.273 2453.27 851.841 2463.2 853.793C2466.49 854.44 2468.64 857.637 2467.99 860.926C2467.45 863.697 2465.1 865.655 2462.41 865.826C2461.9 865.859 2461.38 865.827 2460.85 865.723ZM2608.82 845.335C2607.47 842.261 2608.88 838.673 2611.95 837.324C2621.2 833.267 2630.29 828.603 2638.97 823.452C2641.86 821.745 2645.59 822.698 2647.3 825.577C2649.02 828.467 2648.07 832.199 2645.18 833.911C2636.07 839.315 2626.54 844.21 2616.83 848.462C2616.16 848.754 2615.47 848.917 2614.78 848.961C2612.3 849.118 2609.88 847.737 2608.82 845.335ZM2400.43 846.031C2390.85 841.558 2381.43 836.449 2372.45 830.849C2369.6 829.072 2368.73 825.319 2370.51 822.469C2372.28 819.619 2376.03 818.744 2378.89 820.526C2387.45 825.873 2396.43 830.742 2405.58 835.005C2408.62 836.425 2409.94 840.042 2408.52 843.089C2407.54 845.174 2405.53 846.45 2403.39 846.586C2402.4 846.649 2401.39 846.476 2400.43 846.031ZM2346.49 812.414C2338.24 805.761 2330.32 798.547 2322.95 790.976C2320.6 788.572 2320.65 784.725 2323.06 782.382C2325.46 780.04 2329.32 780.087 2331.66 782.497C2338.69 789.715 2346.25 796.595 2354.13 802.945C2356.74 805.052 2357.15 808.881 2355.04 811.496C2353.93 812.876 2352.34 813.644 2350.69 813.748C2349.23 813.841 2347.73 813.406 2346.49 812.414ZM2302.15 766.846C2295.72 758.406 2289.76 749.496 2284.43 740.373C2282.73 737.47 2283.71 733.748 2286.61 732.053C2289.51 730.357 2293.23 731.341 2294.93 734.232C2300.01 742.936 2305.7 751.429 2311.83 759.472C2313.86 762.145 2313.35 765.962 2310.67 767.995C2309.68 768.754 2308.54 769.154 2307.38 769.227C2305.42 769.352 2303.43 768.526 2302.15 766.846Z" fill="#91B3FA"/>
<path d="M2668.44 817.107C2669.61 817.033 2670.77 816.62 2671.77 815.848C2675.89 812.665 2679.93 809.344 2683.78 805.982C2686.31 803.774 2686.58 799.931 2684.37 797.4C2682.16 794.881 2678.32 794.612 2675.79 796.814C2672.11 800.023 2668.25 803.189 2664.33 806.229C2661.67 808.284 2661.18 812.105 2663.24 814.759C2664.52 816.416 2666.49 817.231 2668.44 817.107Z" fill="#91B3FA"/>
</g>
<path d="M2684.57 702.471C2685.34 701.402 2685.34 699.967 2684.58 698.896L2662.88 668.344C2669.55 652.163 2673.68 634.803 2674.87 616.831L2707.8 598.994C2708.95 598.368 2709.58 597.079 2709.37 595.782L2702.01 551.436C2701.8 550.14 2700.79 549.122 2699.49 548.904L2662.57 542.652C2655.64 526.024 2646.12 510.927 2634.59 497.766L2645.27 461.844C2645.64 460.585 2645.18 459.227 2644.11 458.462L2607.55 432.304C2606.48 431.54 2605.05 431.537 2603.98 432.298L2573.42 454.002C2557.24 447.332 2539.88 443.194 2521.91 442.011L2504.07 409.079C2503.45 407.924 2502.16 407.293 2500.86 407.508L2456.52 414.862C2455.22 415.077 2454.2 416.091 2453.98 417.386L2447.73 454.313C2431.1 461.234 2416.01 470.754 2402.85 482.291L2366.92 471.61C2365.67 471.236 2364.31 471.701 2363.54 472.77L2337.39 509.329C2336.62 510.397 2336.62 511.832 2337.38 512.903L2359.08 543.456C2352.41 559.636 2348.28 576.997 2347.09 594.969L2314.16 612.806C2313.01 613.431 2312.38 614.72 2312.59 616.017L2319.94 660.364C2320.16 661.66 2321.17 662.676 2322.47 662.896L2359.4 669.148C2366.32 685.776 2375.84 700.872 2387.37 714.034L2376.69 749.956C2376.32 751.215 2376.78 752.573 2377.85 753.338L2414.41 779.496C2415.48 780.26 2416.92 780.262 2417.99 779.502L2448.54 757.797C2464.72 764.467 2482.08 768.604 2500.05 769.788L2517.89 802.72C2518.52 803.875 2519.8 804.506 2521.1 804.291L2565.45 796.936C2566.74 796.721 2567.76 795.708 2567.98 794.412L2574.23 757.486C2590.86 750.565 2605.96 741.044 2619.12 729.508L2655.04 740.189C2656.3 740.564 2657.66 740.097 2658.42 739.029L2684.57 702.471Z" fill="#91B3FA"/>
<path d="M2507.17 651.738C2494.92 650.724 2483.81 644.998 2475.87 635.618C2467.93 626.244 2464.12 614.336 2465.14 602.09C2467.24 576.817 2489.48 558.001 2514.79 560.06C2540.07 562.168 2558.92 584.44 2556.82 609.707C2555.8 621.952 2550.08 633.067 2540.7 641.005C2533.08 647.457 2523.78 651.183 2513.99 651.804C2511.74 651.948 2509.46 651.926 2507.17 651.738ZM2477.26 603.094C2476.51 612.103 2479.31 620.862 2485.15 627.763C2490.99 634.658 2499.17 638.869 2508.18 639.619C2517.18 640.356 2525.94 637.563 2532.84 631.722C2539.74 625.888 2543.95 617.706 2544.7 608.703C2546.24 590.111 2532.38 573.729 2513.78 572.179C2512.11 572.042 2510.45 572.028 2508.82 572.131C2492.36 573.176 2478.67 586.184 2477.26 603.094Z" fill="#BDD0FB"/>
<path d="M2517.42 719.611C2521.26 719.367 2525.12 718.926 2528.99 718.287C2536.69 717.013 2544.26 714.956 2551.51 712.163C2551.84 712.035 2552.16 711.907 2552.49 711.779C2555 710.787 2556.49 708.306 2556.33 705.746C2556.29 705.124 2556.15 704.496 2555.91 703.887C2554.67 700.764 2551.14 699.251 2548.02 700.472C2541.27 703.144 2534.2 705.098 2527.01 706.286H2527.01C2526.61 706.352 2526.21 706.413 2525.82 706.474C2508.78 709.133 2491.72 707.443 2475.9 701.783C2467.31 698.71 2459.09 694.46 2451.43 689.085C2451.37 689.041 2451.3 688.998 2451.24 688.954C2451.05 688.817 2450.86 688.686 2450.67 688.549C2428.43 672.633 2413.72 649.011 2409.25 622.03C2408.66 618.538 2408.27 615.047 2408.05 611.562C2406.56 588.117 2413.13 565.065 2426.98 545.698C2442.9 523.457 2466.52 508.748 2493.5 504.274C2520.46 499.813 2547.59 506.101 2569.83 522.011C2592.07 537.926 2606.79 561.549 2611.26 588.53C2611.83 591.962 2612.23 595.413 2612.44 598.862C2613.39 613.821 2611.06 628.815 2605.55 642.767C2605.21 643.627 2605.08 644.516 2605.14 645.382C2605.28 647.658 2606.71 649.763 2608.97 650.655C2612.1 651.879 2615.63 650.358 2616.86 647.227C2623.02 631.615 2625.64 614.836 2624.58 598.106C2624.34 594.242 2623.9 590.384 2623.26 586.545C2618.26 556.356 2601.79 529.928 2576.91 512.122C2552.02 494.321 2521.71 487.248 2491.51 492.277C2461.33 497.281 2434.9 513.739 2417.1 538.629C2401.59 560.291 2394.24 586.081 2395.91 612.312C2396.15 616.206 2396.6 620.117 2397.24 624.02C2406.94 682.46 2459.52 723.286 2517.42 719.611Z" fill="#BDD0FB"/>
<defs>
<linearGradient id="paint0_linear_2_488" x1="3105.89" y1="3572.72" x2="659.356" y2="534.279" gradientUnits="userSpaceOnUse">
<stop stop-color="#DAE3FE"/>
<stop offset="1" stop-color="#E9EFFD"/>
</linearGradient>
<linearGradient id="paint1_linear_2_488" x1="590.859" y1="1401.02" x2="801.335" y2="1401.02" gradientUnits="userSpaceOnUse">
<stop stop-color="#DAE3FE"/>
<stop offset="1" stop-color="#E9EFFD"/>
</linearGradient>
<linearGradient id="paint2_linear_2_488" x1="356.795" y1="1401" x2="566.835" y2="1401" gradientUnits="userSpaceOnUse">
<stop stop-color="#DAE3FE"/>
<stop offset="1" stop-color="#E9EFFD"/>
</linearGradient>
<linearGradient id="paint3_linear_2_488" x1="122.967" y1="1400.98" x2="332.57" y2="1400.98" gradientUnits="userSpaceOnUse">
<stop stop-color="#DAE3FE"/>
<stop offset="1" stop-color="#E9EFFD"/>
</linearGradient>
<linearGradient id="paint4_linear_2_488" x1="588.249" y1="1554.16" x2="798.356" y2="1554.16" gradientUnits="userSpaceOnUse">
<stop stop-color="#DAE3FE"/>
<stop offset="1" stop-color="#E9EFFD"/>
</linearGradient>
<linearGradient id="paint5_linear_2_488" x1="354.594" y1="1554.06" x2="564.265" y2="1554.06" gradientUnits="userSpaceOnUse">
<stop stop-color="#DAE3FE"/>
<stop offset="1" stop-color="#E9EFFD"/>
</linearGradient>
<linearGradient id="paint6_linear_2_488" x1="121.173" y1="1553.96" x2="330.408" y2="1553.96" gradientUnits="userSpaceOnUse">
<stop stop-color="#DAE3FE"/>
<stop offset="1" stop-color="#E9EFFD"/>
</linearGradient>
<linearGradient id="paint7_linear_2_488" x1="585.649" y1="1705.96" x2="795.387" y2="1705.96" gradientUnits="userSpaceOnUse">
<stop stop-color="#DAE3FE"/>
<stop offset="1" stop-color="#E9EFFD"/>
</linearGradient>
<linearGradient id="paint8_linear_2_488" x1="352.399" y1="1705.79" x2="561.703" y2="1705.79" gradientUnits="userSpaceOnUse">
<stop stop-color="#DAE3FE"/>
<stop offset="1" stop-color="#E9EFFD"/>
</linearGradient>
<linearGradient id="paint9_linear_2_488" x1="119.384" y1="1705.61" x2="328.253" y2="1705.61" gradientUnits="userSpaceOnUse">
<stop stop-color="#DAE3FE"/>
<stop offset="1" stop-color="#E9EFFD"/>
</linearGradient>
<linearGradient id="paint10_linear_2_488" x1="583.057" y1="1857.24" x2="792.428" y2="1857.24" gradientUnits="userSpaceOnUse">
<stop stop-color="#DAE3FE"/>
<stop offset="1" stop-color="#E9EFFD"/>
</linearGradient>
<linearGradient id="paint11_linear_2_488" x1="350.212" y1="1856.99" x2="559.151" y2="1856.99" gradientUnits="userSpaceOnUse">
<stop stop-color="#DAE3FE"/>
<stop offset="1" stop-color="#E9EFFD"/>
</linearGradient>
<linearGradient id="paint12_linear_2_488" x1="117.601" y1="1856.74" x2="326.107" y2="1856.74" gradientUnits="userSpaceOnUse">
<stop stop-color="#DAE3FE"/>
<stop offset="1" stop-color="#E9EFFD"/>
</linearGradient>
<linearGradient id="paint13_linear_2_488" x1="580.475" y1="2008" x2="789.479" y2="2008" gradientUnits="userSpaceOnUse">
<stop stop-color="#DAE3FE"/>
<stop offset="1" stop-color="#E9EFFD"/>
</linearGradient>
<linearGradient id="paint14_linear_2_488" x1="348.033" y1="2007.67" x2="556.607" y2="2007.67" gradientUnits="userSpaceOnUse">
<stop stop-color="#DAE3FE"/>
<stop offset="1" stop-color="#E9EFFD"/>
</linearGradient>
<linearGradient id="paint15_linear_2_488" x1="115.824" y1="2007.35" x2="323.967" y2="2007.35" gradientUnits="userSpaceOnUse">
<stop stop-color="#DAE3FE"/>
<stop offset="1" stop-color="#E9EFFD"/>
</linearGradient>
<linearGradient id="paint16_linear_2_488" x1="577.901" y1="2158.23" x2="786.541" y2="2158.23" gradientUnits="userSpaceOnUse">
<stop stop-color="#DAE3FE"/>
<stop offset="1" stop-color="#E9EFFD"/>
</linearGradient>
<linearGradient id="paint17_linear_2_488" x1="345.861" y1="2157.83" x2="554.073" y2="2157.83" gradientUnits="userSpaceOnUse">
<stop stop-color="#DAE3FE"/>
<stop offset="1" stop-color="#E9EFFD"/>
</linearGradient>
<linearGradient id="paint18_linear_2_488" x1="114.054" y1="2157.43" x2="321.835" y2="2157.43" gradientUnits="userSpaceOnUse">
<stop stop-color="#DAE3FE"/>
<stop offset="1" stop-color="#E9EFFD"/>
</linearGradient>
<linearGradient id="paint19_linear_2_488" x1="575.335" y1="2307.95" x2="783.613" y2="2307.95" gradientUnits="userSpaceOnUse">
<stop stop-color="#DAE3FE"/>
<stop offset="1" stop-color="#E9EFFD"/>
</linearGradient>
<linearGradient id="paint20_linear_2_488" x1="343.698" y1="2307.48" x2="551.546" y2="2307.48" gradientUnits="userSpaceOnUse">
<stop stop-color="#DAE3FE"/>
<stop offset="1" stop-color="#E9EFFD"/>
</linearGradient>
<linearGradient id="paint21_linear_2_488" x1="112.289" y1="2307" x2="319.711" y2="2307" gradientUnits="userSpaceOnUse">
<stop stop-color="#DAE3FE"/>
<stop offset="1" stop-color="#E9EFFD"/>
</linearGradient>
<linearGradient id="paint22_linear_2_488" x1="572.78" y1="2457.15" x2="780.695" y2="2457.15" gradientUnits="userSpaceOnUse">
<stop stop-color="#DAE3FE"/>
<stop offset="1" stop-color="#E9EFFD"/>
</linearGradient>
<linearGradient id="paint23_linear_2_488" x1="341.541" y1="2456.6" x2="549.029" y2="2456.6" gradientUnits="userSpaceOnUse">
<stop stop-color="#DAE3FE"/>
<stop offset="1" stop-color="#E9EFFD"/>
</linearGradient>
<linearGradient id="paint24_linear_2_488" x1="110.531" y1="2456.06" x2="317.593" y2="2456.06" gradientUnits="userSpaceOnUse">
<stop stop-color="#DAE3FE"/>
<stop offset="1" stop-color="#E9EFFD"/>
</linearGradient>
<linearGradient id="paint25_linear_2_488" x1="570.233" y1="2605.84" x2="777.787" y2="2605.84" gradientUnits="userSpaceOnUse">
<stop stop-color="#DAE3FE"/>
<stop offset="1" stop-color="#E9EFFD"/>
</linearGradient>
<linearGradient id="paint26_linear_2_488" x1="339.391" y1="2605.22" x2="546.521" y2="2605.22" gradientUnits="userSpaceOnUse">
<stop stop-color="#DAE3FE"/>
<stop offset="1" stop-color="#E9EFFD"/>
</linearGradient>
<linearGradient id="paint27_linear_2_488" x1="108.779" y1="2604.6" x2="315.483" y2="2604.6" gradientUnits="userSpaceOnUse">
<stop stop-color="#DAE3FE"/>
<stop offset="1" stop-color="#E9EFFD"/>
</linearGradient>
<linearGradient id="paint28_linear_2_488" x1="2273.26" y1="-1247" x2="1669.15" y2="2276.96" gradientUnits="userSpaceOnUse">
<stop stop-color="#4042E2"/>
<stop offset="1" stop-color="#4F52FF"/>
</linearGradient>
<linearGradient id="paint29_linear_2_488" x1="1243.96" y1="1665.08" x2="2312.19" y2="1665.08" gradientUnits="userSpaceOnUse">
<stop stop-color="#4042E2"/>
<stop offset="1" stop-color="#4F52FF"/>
</linearGradient>
<linearGradient id="paint30_linear_2_488" x1="1861.26" y1="487.425" x2="2186.26" y2="-262.558" gradientUnits="userSpaceOnUse">
<stop stop-color="#09005D"/>
<stop offset="1" stop-color="#1A0F91"/>
</linearGradient>
<linearGradient id="paint31_linear_2_488" x1="1890.81" y1="973.278" x2="1159.42" y2="6042.58" gradientUnits="userSpaceOnUse">
<stop stop-color="#FEBBBA"/>
<stop offset="1" stop-color="#FF928E"/>
</linearGradient>
<linearGradient id="paint32_linear_2_488" x1="1871.63" y1="970.51" x2="1140.24" y2="6039.81" gradientUnits="userSpaceOnUse">
<stop stop-color="#FEBBBA"/>
<stop offset="1" stop-color="#FF928E"/>
</linearGradient>
<linearGradient id="paint33_linear_2_488" x1="1913.39" y1="1549.8" x2="2985.58" y2="-581.962" gradientUnits="userSpaceOnUse">
<stop stop-color="#FE7062"/>
<stop offset="1" stop-color="#FF928E"/>
</linearGradient>
<linearGradient id="paint34_linear_2_488" x1="469.549" y1="2718.54" x2="588.15" y2="2718.54" gradientUnits="userSpaceOnUse">
<stop stop-color="#09005D"/>
<stop offset="1" stop-color="#1A0F91"/>
</linearGradient>
<linearGradient id="paint35_linear_2_488" x1="502.531" y1="2583.52" x2="479.876" y2="2781.23" gradientUnits="userSpaceOnUse">
<stop stop-color="#FEBBBA"/>
<stop offset="1" stop-color="#FF928E"/>
</linearGradient>
<linearGradient id="paint36_linear_2_488" x1="650.147" y1="2721.56" x2="820.872" y2="2721.56" gradientUnits="userSpaceOnUse">
<stop stop-color="#09005D"/>
<stop offset="1" stop-color="#1A0F91"/>
</linearGradient>
<linearGradient id="paint37_linear_2_488" x1="683.98" y1="2604.4" x2="673.807" y2="2803.15" gradientUnits="userSpaceOnUse">
<stop stop-color="#FEBBBA"/>
<stop offset="1" stop-color="#FF928E"/>
</linearGradient>
<linearGradient id="paint38_linear_2_488" x1="652.696" y1="2770.04" x2="418.201" y2="1651.9" gradientUnits="userSpaceOnUse">
<stop stop-color="#09005D"/>
<stop offset="1" stop-color="#1A0F91"/>
</linearGradient>
<linearGradient id="paint39_linear_2_488" x1="892.185" y1="1242.25" x2="374.053" y2="1813.87" gradientUnits="userSpaceOnUse">
<stop stop-color="#4042E2"/>
<stop offset="1" stop-color="#4F52FF"/>
</linearGradient>
<linearGradient id="paint40_linear_2_488" x1="791.455" y1="1273.99" x2="36.1775" y2="2660.26" gradientUnits="userSpaceOnUse">
<stop stop-color="#4042E2"/>
<stop offset="1" stop-color="#4F52FF"/>
</linearGradient>
<linearGradient id="paint41_linear_2_488" x1="592.909" y1="1431.14" x2="645.526" y2="1287.46" gradientUnits="userSpaceOnUse">
<stop stop-color="#FEBBBA"/>
<stop offset="1" stop-color="#FF928E"/>
</linearGradient>
<linearGradient id="paint42_linear_2_488" x1="638.443" y1="968.018" x2="613.997" y2="1154.69" gradientUnits="userSpaceOnUse">
<stop stop-color="#4042E2"/>
<stop offset="1" stop-color="#4F52FF"/>
</linearGradient>
<linearGradient id="paint43_linear_2_488" x1="681.199" y1="973.617" x2="656.754" y2="1160.29" gradientUnits="userSpaceOnUse">
<stop stop-color="#4042E2"/>
<stop offset="1" stop-color="#4F52FF"/>
</linearGradient>
<linearGradient id="paint44_linear_2_488" x1="722.235" y1="1215.62" x2="408.736" y2="1465.3" gradientUnits="userSpaceOnUse">
<stop stop-color="#FEBBBA"/>
<stop offset="1" stop-color="#FF928E"/>
</linearGradient>
<linearGradient id="paint45_linear_2_488" x1="601.209" y1="1133.47" x2="744.899" y2="1318.47" gradientUnits="userSpaceOnUse">
<stop stop-color="#09005D"/>
<stop offset="1" stop-color="#1A0F91"/>
</linearGradient>
<linearGradient id="paint46_linear_2_488" x1="690.679" y1="1201.93" x2="536.397" y2="1319.98" gradientUnits="userSpaceOnUse">
<stop stop-color="#FEBBBA"/>
<stop offset="1" stop-color="#FF928E"/>
</linearGradient>
<linearGradient id="paint47_linear_2_488" x1="1055.83" y1="1279.93" x2="729.173" y2="1562.1" gradientUnits="userSpaceOnUse">
<stop stop-color="#FEBBBA"/>
<stop offset="1" stop-color="#FF928E"/>
</linearGradient>
<linearGradient id="paint48_linear_2_488" x1="1062.64" y1="1306.23" x2="744.67" y2="1580.9" gradientUnits="userSpaceOnUse">
<stop stop-color="#FEBBBA"/>
<stop offset="1" stop-color="#FF928E"/>
</linearGradient>
<linearGradient id="paint49_linear_2_488" x1="1067.93" y1="1293.93" x2="741.267" y2="1576.1" gradientUnits="userSpaceOnUse">
<stop stop-color="#FEBBBA"/>
<stop offset="1" stop-color="#FF928E"/>
</linearGradient>
<linearGradient id="paint50_linear_2_488" x1="655.594" y1="716.97" x2="1481.69" y2="1807.42" gradientUnits="userSpaceOnUse">
<stop stop-color="#E1473D"/>
<stop offset="1" stop-color="#E9605A"/>
</linearGradient>
<linearGradient id="paint51_linear_2_488" x1="1539.15" y1="909.953" x2="1385.68" y2="1662.65" gradientUnits="userSpaceOnUse">
<stop stop-color="#FE7062"/>
<stop offset="1" stop-color="#FF928E"/>
</linearGradient>
<linearGradient id="paint52_linear_2_488" x1="745.543" y1="1266.06" x2="2040.96" y2="1362.91" gradientUnits="userSpaceOnUse">
<stop stop-color="#FF9085"/>
<stop offset="1" stop-color="#FB6FBB"/>
</linearGradient>
<linearGradient id="paint53_linear_2_488" x1="1334.66" y1="1216.88" x2="1648" y2="420.196" gradientUnits="userSpaceOnUse">
<stop stop-color="#FE7062"/>
<stop offset="1" stop-color="#FF928E"/>
</linearGradient>
<linearGradient id="paint54_linear_2_488" x1="1507.26" y1="369.275" x2="1453.93" y2="472.611" gradientUnits="userSpaceOnUse">
<stop stop-color="#FE7062"/>
<stop offset="1" stop-color="#FF928E"/>
</linearGradient>
<linearGradient id="paint55_linear_2_488" x1="860.975" y1="1525.44" x2="705.624" y2="2300.39" gradientUnits="userSpaceOnUse">
<stop stop-color="#FEBBBA"/>
<stop offset="1" stop-color="#FF928E"/>
</linearGradient>
</defs>
</svg>
